<?xml version="1.0" encoding="UTF-8"?><svg id="Layer_1" xmlns="http://www.w3.org/2000/svg" viewBox="0 0 250 250"><defs><style>.cls-1{fill:#adb3b1;}</style></defs><path class="cls-1" d="M9.17,147.03c.56-1.37,1.11-2.7,1.65-4.04,.1-.24,.25-.36,.51-.35,.32,0,.65,0,.97,0,54.38,0,108.76-.05,163.13,.04,12.76,.02,24.45-3.34,35.32-9.79,9.11-5.41,16.98-12.26,23.77-20.34,1.84-2.19,3.61-4.45,4.98-6.98,.16-.29,.35-.41,.69-.41,1.45,.01,2.91,0,4.38,0,.13,.43-.14,.71-.29,1.01-1.28,2.6-2.9,5.01-4.69,7.29-9.02,11.51-20.06,20.58-33.29,26.99-6.47,3.13-13.27,5.23-20.41,6.23-2.85,.4-5.73,.53-8.62,.53-55.64,0-111.28,0-166.92,0-.35,0-.71,.07-1.19-.16h0Z"/><path class="cls-1" d="M211.43,106.95c-.77-1.2-1.55-2.4-2.32-3.6,.04-.05,.08-.11,.11-.16,2.95,2.05,6.03,3.79,9.96,4.08-.97-1.25-1.82-2.35-2.67-3.45,.03-.04,.06-.09,.09-.13,1.24,.61,2.47,1.24,3.73,1.83,1.32,.62,2.66,1.17,4.05,1.61,1.34,.43,2.69,.86,4.02,1.46h-52.86c-.26,0-.52,.02-.78,0-.41-.04-.69,.11-.81,.51-.17,.56-.57,.72-1.12,.65-.13-.02-.26,0-.39,0-23.6,0-47.2,0-70.8,0-1.44,0-1.3,.2-1.31-1.27,0-.9,.01-1.8,0-2.69,0-.44,.13-.67,.61-.62,.22,.02,.45,0,.68,0,23.28-.02,46.55-.03,69.83-.07,.89,0,1.57,.14,2.01,.96,.09,.17,.26,.29,.35,.46,.31,.54,.77,.67,1.38,.67,11.78-.02,23.57-.01,35.35-.02,.27,0,.57,.08,.9-.2h0Z"/><path class="cls-1" d="M50.35,123.41c-.42,.59-.76,1.05-1.09,1.52-1.64,2.3-3.29,4.61-4.93,6.92-.24,.34-.46,.64-.98,.64-2.46-.03-4.92-.01-7.38-.02-.12,0-.25-.05-.43-.09,.34-1.88,.67-3.74,1.01-5.6,.68-3.75,1.37-7.51,2.06-11.26,.27-1.45,.1-1.18,1.43-1.2,1.84-.02,3.69,0,5.53,0,.31,0,.65-.08,1,.16-.33,1.85-.67,3.73-1.02,5.69,.42-.2,.54-.51,.72-.76,1.03-1.48,2.07-2.95,3.06-4.45,.32-.49,.69-.66,1.27-.65,2.2,.03,4.4,0,6.6,.01,.98,0,.97,0,.91,.93-.08,1.31-.13,2.62-.2,3.93,.34,.07,.39-.2,.51-.36,.94-1.31,1.87-2.62,2.79-3.94,.23-.33,.45-.58,.92-.58,2.36,.02,4.73,.01,7.09,.02,.09,0,.17,.05,.27,.08,.01,.34-.24,.53-.4,.75-3.99,5.53-8,11.05-11.97,16.59-.38,.53-.77,.75-1.43,.73-1.59-.05-3.17-.01-4.76-.02-.96,0-.99,.1-.92-.92,.16-2.3,.29-4.61,.42-6.91,.02-.34,.1-.69-.09-1.22h0Z"/><path class="cls-1" d="M170.76,126.92c.57,1.86,1.11,3.63,1.64,5.36-.2,.23-.4,.18-.58,.18-2.23,0-4.47-.01-6.7,.02-.55,0-.81-.16-.96-.68-.35-1.23-.78-2.44-1.14-3.67-.14-.47-.35-.7-.87-.67-.68,.05-1.46-.16-2,.12-.5,.26-.76,1-1.11,1.54-.61,.94-1.22,1.89-1.82,2.84-.2,.32-.41,.53-.84,.52-2.4-.02-4.79-.01-7.18-.02-.06,0-.11-.04-.17-.06-.11-.26,.09-.42,.21-.6,3.57-5.62,7.14-11.23,10.69-16.85,.3-.47,.62-.64,1.17-.63,3.07,.02,6.15,.03,9.22,0,3.24-.02,5.58,2.42,6.07,4.52,.59,2.52-.29,4.6-2.06,6.37-.94,.94-2.14,1.41-3.56,1.72h0Zm-7.18-4.89c1.33,0,2.42,.03,3.51,0,.88-.03,1.56-.68,1.7-1.54,.12-.74-.14-1.11-.89-1.15-.74-.04-1.48,0-2.22-.01-.25,0-.43,.09-.56,.3-.48,.75-.95,1.49-1.54,2.42h0Z"/><path class="cls-1" d="M82.37,132.37c.1-.36,.35-.53,.55-.74,5.24-5.55,10.49-11.09,15.72-16.64,.45-.48,.91-.7,1.59-.69,3.07,.03,6.15,.01,9.22,.02,.19,0,.39,.01,.58,0,.38-.02,.51,.16,.47,.53-.09,.76-.15,1.53-.24,2.29-.52,4.71-1.05,9.43-1.57,14.14,0,.06-.01,.13-.03,.19-.21,1.03,.11,.99-1.18,1-1.91,0-3.82,0-5.73,0-.68,0-.68-.02-.65-.71,.04-.95-.42-1.42-1.37-1.42-1.75,0-3.49,.02-5.24-.01-.56,0-.98,.12-1.37,.54-.5,.54-.98,1.2-1.61,1.5-.67,.32-1.53,.09-2.3,.1-1.94,.01-3.88,0-5.82,0-.32,0-.64,.06-1.01-.09h0Zm15.79-6.81c.18,.1,.23,.15,.28,.15,.68,0,1.35,.01,2.03,.01,.77,0,1.2-.37,1.28-1.1,.03-.25,.09-.5,.11-.76,.04-.75,.28-1.48,.23-2.22-.17-.05-.25,.02-.31,.09-1.19,1.25-2.38,2.51-3.62,3.82h0Z"/><path class="cls-1" d="M80.08,114.31c-1.43,2.2-2.73,4.21-4.11,6.33,1.4,.14,2.64,.05,3.89,.06,.36,0,.46-.32,.62-.55,1.15-1.7,2.33-3.4,3.44-5.13,.36-.56,.77-.75,1.42-.74,2.04,.04,4.08,0,6.12,.02,.28,0,.58-.08,.85,.11,0,.31-.22,.52-.37,.75-3.59,5.53-7.2,11.04-10.78,16.58-.33,.52-.68,.74-1.32,.73-2.04-.05-4.08-.01-6.12-.02-.25,0-.51,.06-.88-.14,1.35-2.17,2.76-4.28,4.2-6.59-1.48,0-2.76,0-4.04,0-.4,0-.51,.36-.68,.62-1.18,1.76-2.39,3.51-3.51,5.31-.4,.64-.85,.83-1.57,.81-2.26-.04-4.53-.02-6.76-.02-.21-.3,0-.47,.12-.64,3.68-5.66,7.36-11.32,11.05-16.98,.17-.27,.33-.54,.73-.54,2.49,0,4.98,0,7.69,0h0Z"/><path class="cls-1" d="M143.48,121.29h10.37c.19,.31-.02,.47-.14,.65-.63,.97-1.3,1.92-1.9,2.91-.29,.48-.66,.61-1.2,.6-2.94-.02-5.89,.01-8.84-.03-.76-.01-1.3,.16-1.62,.88-.15,.34-.4,.64-.67,1.07,1.26,.17,2.41,.06,3.55,.08,1.13,.02,2.27,0,3.4,0h3.42c.12,.33-.05,.47-.15,.62-.8,1.28-1.62,2.55-2.42,3.83-.22,.35-.44,.56-.91,.56-5.96-.02-11.91-.01-17.87-.02-.09,0-.17-.04-.26-.06-.08-.31,.15-.49,.28-.69,3.63-5.58,7.26-11.15,10.88-16.74,.29-.45,.59-.66,1.16-.66,5.73,.02,11.46,.01,17.19,.01,.22,0,.44-.02,.73,.14-.3,.46-.56,.88-.84,1.3-.64,.97-1.3,1.92-1.91,2.9-.3,.5-.67,.68-1.26,.67-2.91-.03-5.83,.01-8.74-.03-.74-.01-1.23,.17-1.54,.85-.16,.34-.4,.64-.72,1.14h0Z"/><path class="cls-1" d="M129.03,127.46c-1.07,1.69-2.02,3.18-2.96,4.67-.16,.25-.36,.35-.64,.34-.1,0-.19,0-.29,0-5.01,0-10.03,0-15.04,0-.16,0-.31-.02-.46-.03-.1-.33,.13-.51,.26-.71,3.58-5.57,7.16-11.13,10.73-16.71,.3-.48,.62-.72,1.23-.71,2.17,.04,4.33,.01,6.5,.02,.19,0,.38,.02,.75,.05-.56,.96-1.14,1.79-1.68,2.64-.55,.87-1.11,1.73-1.67,2.59-.54,.84-1.08,1.67-1.62,2.51-.56,.86-1.12,1.73-1.67,2.59-.55,.86-1.1,1.72-1.75,2.72,1.02,.09,1.91,.04,2.79,.05,.87,0,1.75,0,2.62,0h2.92Z"/><path class="cls-1" d="M88.87,107.01c-.55,.97-1.13,1.92-1.65,2.9-.3,.58-.78,.82-1.38,.93-.26,.05-.52,0-.76-.09-.44-.17-.52-.38-.35-.83,.05-.12,.12-.23,.18-.34,1.15-1.97,2.3-3.94,3.45-5.91,.21-.36,.46-.7,.82-.93,.96-.6,1.82-.25,1.99,.84,.12,.73,.17,1.46,.26,2.2,.04,.34,0,.7,.28,1.02,.31-.31,.46-.71,.66-1.06,.46-.81,.93-1.61,1.36-2.44,.33-.64,.85-.85,1.51-.81,.9,.05,1.15,.48,.72,1.25-1.17,2.11-2.39,4.19-3.52,6.31-.37,.7-1.48,1.05-2.29,.81-.46-.14-.62-.5-.68-.95-.12-.95-.28-1.9-.42-2.85-.06-.02-.13-.03-.19-.05h0Z"/><path class="cls-1" d="M41.89,110.87c-.61,0-1.23,.03-1.84,0-.75-.04-.96-.35-.6-.98,1.29-2.26,2.6-4.51,3.92-6.75,.26-.45,.68-.67,1.21-.66,.81,0,1.62-.03,2.43,.01,1.05,.05,1.88,.69,2.11,1.56,.22,.82-.15,1.74-1.03,2.3-.44,.28-.58,.51-.54,1.05,.13,1.63-1.01,2.95-2.75,3.32-.96,.21-1.93,.17-2.9,.16h0Zm.83-2.11c.23,.02,.42,.05,.61,.04,.38,0,.78,.07,1.14-.09,.38-.17,.62-.46,.57-.9-.04-.44-.37-.54-.75-.58-.57-.08-1,.05-1.22,.64-.1,.26-.33,.47-.36,.89h0Zm1.79-3.12c.41,.12,.82,.06,1.23,.05,.3-.01,.56-.14,.76-.37,.36-.4,.23-.8-.29-.91-1.03-.23-1.37,.02-1.7,1.23h0Z"/><path class="cls-1" d="M56.46,102.27c2.15-.02,3.33,1.34,2.95,3.25-.38,1.87-1.58,3.19-3.12,4.23-.99,.67-2.09,1.13-3.27,1.41-1.17,.28-2.19-.04-3.07-.76-.74-.6-.98-1.41-.71-2.33,.42-1.47,1.32-2.63,2.43-3.63,1.4-1.26,3.07-1.99,4.79-2.17h0Zm-3.99,6.91c.06,0,.13,0,.19-.02,1.85-.48,3.4-1.38,4.36-3.09,.22-.4,.36-.84,.05-1.27-.3-.41-.74-.48-1.21-.44-1.4,.13-3.98,2.36-4.29,3.72-.17,.72,.17,1.12,.9,1.1h0Z"/><path class="cls-1" d="M83.02,102.27c2.15-.02,3.33,1.46,2.82,3.44-.26,1.01-.75,1.9-1.46,2.67-1.36,1.46-3.03,2.37-4.97,2.81-1.2,.27-2.24-.1-3.12-.91-.74-.68-.88-1.73-.36-2.85,1-2.15,2.61-3.71,4.84-4.61,.75-.3,1.53-.51,2.25-.56h0Zm-4.03,6.9c.08,0,.21-.01,.33-.05,1.56-.46,2.91-1.22,3.88-2.55,.19-.26,.35-.55,.44-.85,.24-.78-.18-1.32-1-1.38-.4-.03-.78,.07-1.12,.24-1.34,.65-2.39,1.62-3.2,2.85-.14,.21-.24,.46-.28,.71-.13,.67,.21,1.04,.96,1.02h0Z"/><path class="cls-1" d="M64.55,102.25c1.26,0,2.44,.23,3.45,1.03,.72,.57,.81,.82,.47,1.33-.39,.58-.86,.65-1.57,.23-.53-.32-1.06-.62-1.68-.72-.19-.03-.38-.08-.57-.07-.78,.04-1.15,.7-.73,1.35,.26,.4,.65,.71,.95,1.08,1.11,1.39,.86,2.97-.6,3.99-.43,.3-.92,.5-1.43,.55-1.07,.11-2.13,0-3.15-.36-.43-.15-.82-.38-1.1-.76-.29-.4-.25-.9,.1-1.32,.37-.44,.78-.56,1.27-.26,.71,.43,1.44,.73,2.28,.68,.86-.05,1.11-.46,.7-1.2-.28-.5-.63-.97-.97-1.44-.59-.81-.83-1.66-.31-2.6,.54-.98,1.35-1.53,2.49-1.53h.39Z"/><path class="cls-1" d="M72.15,104.64c-.24-.15-.51-.07-.76-.09-.74-.04-1.04-.23-1.07-.71-.04-.53,.42-1.22,.92-1.34,.15-.04,.32-.03,.48-.03,1.68,0,3.36,0,5.04,0,.13,0,.26,0,.39,.01,.5,.07,.68,.35,.46,.81-.33,.71-.85,1.2-1.69,1.26-.13,0-.26,.02-.39,0-.59-.08-.93,.16-1.21,.69-.87,1.61-1.81,3.18-2.7,4.77-.38,.69-1.01,.88-1.72,.82-.76-.05-.96-.45-.59-1.1,.81-1.42,1.65-2.82,2.47-4.24,.15-.27,.42-.5,.36-.86h0Z"/><path class="cls-1" d="M211.51,144.56c0,1.79-1.38,3.17-3.17,3.18-1.83,0-3.23-1.4-3.24-3.24,0-1.73,1.45-3.14,3.24-3.15,1.75-.01,3.17,1.43,3.17,3.21h0Zm-.62,.05c.01-1.51-1.12-2.7-2.56-2.7s-2.56,1.13-2.58,2.58c-.02,1.53,1.06,2.72,2.51,2.75,1.43,.04,2.62-1.15,2.63-2.63h0Z"/><path class="cls-1" d="M208.93,144.89c.25,.4,.48,.78,.71,1.17,.05,.09,.07,.18,0,.26-.1,.11-.25,.09-.35,.02-.28-.19-.37-.51-.55-.77-.13-.18-.24-.38-.37-.56-.13-.18-.32-.21-.52-.15-.18,.06-.21,.23-.21,.39,0,.26,0,.51-.01,.77,0,.15,0,.34-.23,.35-.2,.01-.29-.13-.29-.3,0-.99,0-1.98,0-2.98,0-.22,.14-.35,.37-.35,.42,0,.84-.03,1.26,.01,.43,.04,.83,.18,.97,.66,.14,.47,0,.89-.45,1.25-.1,.08-.2,.14-.34,.24h0Zm-.69-.53c.67-.02,.97-.24,.93-.65-.04-.38-.34-.51-.99-.51-.44,0-.53,.2-.54,.59,0,.48,.22,.62,.6,.57h0Z"/></svg>