<?xml version="1.0" encoding="UTF-8"?><svg id="Layer_1" xmlns="http://www.w3.org/2000/svg" viewBox="0 0 585.36 585.36"><defs><style>.cls-1{fill:none;stroke:#f3f3ef;stroke-width:22.68px;}.cls-2{fill:#f3f3ef;}</style></defs><path class="cls-2" d="m455.85,224.76c.92,25.98-7.52,49.6-17.69,72.68-33.16,74.97-80.38,141.63-128.03,208.04-11.1,15.43-20.59,17.54-32.73.96-53.08-72.56-105.04-145.79-137.16-230.28-24.29-63.94-6.41-119.63,42.16-163.93,49.75-45.5,110.22-56.59,173.9-30.07,63.43,26.4,95.86,75.46,99.55,142.53v.06Zm-24.72,3.62c1.42-83.47-80.32-149.65-163.23-132.17-88.34,18.62-133.89,98.6-101.1,180.68,28.17,70.39,71.75,132.47,114.97,194.61,10.54,15.13,16.4,8.92,24.1-1.81,33.97-47.67,66.33-96.43,93.39-148.2,15.29-29.29,31.19-58.82,31.93-93.11h-.06Z"/><circle class="cls-1" cx="292.68" cy="222.41" r="68.38"/></svg>