<?xml version="1.0" encoding="UTF-8"?><svg id="Layer_1" xmlns="http://www.w3.org/2000/svg" viewBox="0 0 585.36 585.36"><defs><style>.cls-1{fill:#f3f3ef;}</style></defs><path class="cls-1" d="m377.73,517.62c-127.61-.26-262.54-115.42-297.62-255.43-9.45-37.61-17.48-75.93-8.55-115.17,13.43-58.75,72.03-92.66,128.7-74.38,21.78,7,37.33,18.55,39.32,44.87,1.73,23.54,7.07,46.88,11.69,70.1,4.95,25.03,3.34,47.53-20.63,62.38-12.53,7.78-9.9,16.86-4.05,27.36,19.85,35.67,47.74,63.16,82.31,84.37,12.85,7.91,20.88,5.71,29.3-6.36,19.34-27.62,44.91-33.46,76.08-21.4,15.87,6.16,32.83,9.47,49.41,13.68,50.63,12.78,70.04,67.05,39.13,110.11-28.08,39.23-71.58,60.05-125.17,59.92l.06-.06Zm-16-25.68c54.36.19,92.14-15.56,114.82-42.02,27.56-32.03,17.41-66.99-22.49-77.82-14.46-3.89-29.43-6.48-43.11-12.13-28.21-11.61-47.81-2.98-60.53,23.54-6.68,13.88-14.71,19.91-30.33,12.71-58.92-27.23-102.23-69.64-127.61-130.34-5.53-13.16-4.11-22.76,9.96-28.92,23.9-10.51,28.91-28.14,21.72-52.85-5.33-18.48-7.77-38.06-9.38-57.39-1.67-20.04-13.36-28.08-30.65-31.52-50.7-10.12-91.43,28.66-89.63,86.37,1.67,52.59,14.14,102.65,40.35,148.37,53.85,93.9,134.23,148.11,226.95,161.79l-.06.19Z"/></svg>