<?xml version="1.0" encoding="UTF-8"?><svg id="Layer_1" xmlns="http://www.w3.org/2000/svg" viewBox="0 0 585.36 585.36"><defs><style>.cls-1{fill:#f3f3ef;}</style></defs><path class="cls-1" d="m567.57,242.27c-.12-32.35.77-64.84-5.68-96.78-10.22-50.62-38.69-87.32-88.05-107.32-25.16-10.2-51.83-12.63-78.69-13.38-49.98-1.4-99.98-1.23-149.97-.86-32.17.24-64.45-.48-96.38,4.44-30.18,4.65-57.49,15.67-80.31,36.18-32.69,29.38-45.69,67.12-48.47,109.1-2.62,39.59-2.22,79.24-2.21,118.89,0,16.29-.34,32.61.07,48.89.85,33.42-.8,67.05,6.24,100.07,10.64,50.02,39.14,86.19,88.04,105.84,25.84,10.37,53.23,12.62,80.74,13.31,54.04,1.37,108.09,1.17,162.14.63,29.93-.3,59.99.37,89.47-5.69,57.53-11.83,96.06-44.64,113.51-100.1,8.32-26.45,8.88-53.82,9.22-81.09.55-44.04.48-88.1.33-132.14Zm-182.6-78.53c.03,3.18-1.19,3.8-4.13,3.77-12.46-.12-24.92-.09-37.39-.02-2.95.02-5.92.24-8.85.65-5.96.85-9.51,4.17-10.85,9.86-.7,2.95-.98,5.92-.98,8.94.01,11.74.1,23.47-.07,35.2-.04,2.98.8,3.85,3.96,3.82,17.95-.15,35.91,0,53.86-.15,3.33-.03,4.31.68,3.96,4.06-1.95,19.21-3.72,38.44-5.33,57.68-.24,2.87-1.32,3.5-4.04,3.48-16.02-.09-32.05.09-48.07-.12-3.68-.05-4.34,1.1-4.33,4.34.12,31.06.07,62.1.07,93.16h0c0,30.77-.06,61.54.08,92.31.02,3.49-.81,4.61-4.61,4.59-23.29-.17-46.59-.08-69.87-.09-6.03,0-6.04-.02-6.04-5.68,0-60.53,0-121.06-.01-181.6,0-7.25.54-6.05-6.47-6.09-10.39-.06-20.77-.19-31.15.07-3.7.09-4.35-1.14-4.32-4.37.16-19.03.24-38.06,0-57.1-.04-3.95,1.22-4.76,5-4.68,10.67.24,21.36-.06,32.04.19,3.85.09,5.02-.84,5.01-4.71-.05-19.03-.82-38.08.37-57.09,1.09-17.33,6.64-33.14,20.37-45.25,11.1-9.79,24.72-14.36,39.25-16.87,8.78-1.51,17.66-1.96,26.57-1.94,17.21.03,34.42.08,51.63-.05,3.18-.03,4.39.64,4.36,4.01-.16,19.89-.16,39.78,0,59.67Z"/></svg>