<?xml version="1.0" encoding="UTF-8"?><svg id="Layer_1" xmlns="http://www.w3.org/2000/svg" viewBox="0 0 585.36 585.36"><defs><style>.cls-1{fill:#f3f3ef;}</style></defs><path class="cls-1" d="m379.08,203.9c10.47-10.13-5.53-37.49,15.42-35.68,24.8,2.13,13.11,27.55,13.62,42.59,1.54,46.14.96,92.41.51,138.61-.26,22.07,6.62,38.72,30.2,41.94,21.98,2.97,32.32-11.29,39.52-30.07,29.37-76.79,5.21-169.26-58.67-221.98-67.34-55.56-162-61.88-233.33-15.49-73.77,47.94-107.83,134.29-86.17,218.37,21.46,83.11,93.43,142.48,178,147.71,38.43,2.39,74.41-4.71,108.41-22.71,9.06-4.77,20.11-14.39,27.89-1.35,7.65,12.84-4.95,17.94-14.27,23.55-72.81,43.69-172.54,36.27-244.45-18.52-73.26-55.88-104.81-151.77-79.43-241.85,23.97-85.24,101.53-151.84,186.23-160.1,166.89-16.26,292.84,132.41,244.77,288.44-8.93,29.04-20.95,54.79-54.94,59.69-33.42,4.84-54.75-12.52-71.2-44.65-34.51,36.33-75.7,52.01-124.02,43.43-27.18-4.84-49.99-18.2-68.31-39.1-42.73-48.85-44.21-115.18-3.66-165,46.33-56.85,102.17-59.17,193.94-7.87l-.06.06Zm-196.38,88.28c-.13,56.33,43.83,100.47,99.54,100.02,55.39-.45,100.63-45.75,100.38-100.6-.26-54.66-47.04-101.25-100.76-100.47-56.04.84-98.96,44.59-99.09,100.99l-.06.06Z"/></svg>