<?xml version="1.0" encoding="UTF-8"?><svg id="Layer_1" xmlns="http://www.w3.org/2000/svg" viewBox="0 0 250 250"><defs><style>.cls-1{fill:#aabdbd;}.cls-2,.cls-3,.cls-4,.cls-5,.cls-6,.cls-7,.cls-8,.cls-9,.cls-10{fill:#fff;}.cls-3{opacity:.8;}.cls-3,.cls-11,.cls-12,.cls-13,.cls-14,.cls-15,.cls-16,.cls-17,.cls-18,.cls-4,.cls-19,.cls-5,.cls-20,.cls-6,.cls-21,.cls-22,.cls-23,.cls-24,.cls-25,.cls-7,.cls-26,.cls-27,.cls-28,.cls-29,.cls-30,.cls-31,.cls-32,.cls-33,.cls-8,.cls-34,.cls-35,.cls-9,.cls-10,.cls-36{isolation:isolate;}.cls-11{opacity:.07;}.cls-11,.cls-12,.cls-13,.cls-14,.cls-15,.cls-16,.cls-17,.cls-18,.cls-19,.cls-20,.cls-21,.cls-22,.cls-23,.cls-24,.cls-25,.cls-26,.cls-28,.cls-29,.cls-31,.cls-32,.cls-33,.cls-37,.cls-34,.cls-35,.cls-36{fill:#5cc6ba;}.cls-12{opacity:.35;}.cls-13{opacity:.38;}.cls-38,.cls-5,.cls-20,.cls-27{opacity:.5;}.cls-14{opacity:.15;}.cls-15{opacity:.08;}.cls-16{opacity:.46;}.cls-39,.cls-30{fill:#273339;}.cls-17{opacity:.02;}.cls-18{opacity:.28;}.cls-4,.cls-40,.cls-23{opacity:.3;}.cls-19{opacity:.23;}.cls-41{opacity:.7;}.cls-6{opacity:.1;}.cls-21{opacity:.09;}.cls-22{opacity:.27;}.cls-42{fill:#59898e;}.cls-24{opacity:.14;}.cls-25{opacity:.19;}.cls-7{opacity:.15;}.cls-26{opacity:.05;}.cls-43{fill:#f3f2ee;}.cls-27,.cls-44{fill:#d2e5e1;}.cls-28{opacity:.25;}.cls-29{opacity:.18;}.cls-30{opacity:.4;}.cls-31{opacity:.31;}.cls-32{opacity:.16;}.cls-33{opacity:.21;}.cls-8{opacity:.9;}.cls-34{opacity:.12;}.cls-35{opacity:.42;}.cls-45{fill:#f9f8f4;}.cls-9{opacity:.2;}.cls-10{opacity:.65;}.cls-36{opacity:.04;}</style></defs><path class="cls-45" d="M125,233.86c65.89,0,119.31-29.49,119.31-65.86s-53.41-65.86-119.31-65.86S5.69,131.62,5.69,168s53.41,65.86,119.31,65.86Z"/><g class="cls-38"><path class="cls-2" d="M39.01,123.27c.35,.17,.73,.25,1.12,.25s.77-.09,1.12-.25c.13-.04,.25-.13,.34-.24,.08-.11,.13-.24,.13-.38s-.04-.27-.13-.38-.2-.19-.34-.24c-.38-.18-.8-.27-1.22-.24l-1.47,.83c0,.14,.05,.27,.13,.39,.08,.11,.19,.2,.32,.26Z"/></g><path class="cls-9" d="M185.76,217.32c8.18,0,14.81-3.66,14.81-8.18s-6.63-8.18-14.81-8.18-14.81,3.66-14.81,8.18,6.63,8.18,14.81,8.18Z"/><path class="cls-9" d="M62.4,213.51c8.18,0,14.81-3.66,14.81-8.18s-6.63-8.18-14.81-8.18-14.81,3.66-14.81,8.18,6.63,8.18,14.81,8.18Z"/><path class="cls-37" d="M18.7,48.87L78,16.33c.83-.46,1.51-.09,1.51,.84V59.11c-.03,.5-.18,.99-.44,1.42-.26,.43-.63,.8-1.06,1.08L18.7,94.14c-.84,.46-1.51,.09-1.51-.83V51.37c.03-.5,.18-.99,.45-1.42,.26-.43,.63-.8,1.07-1.08Z"/><path class="cls-8" d="M18.7,48.87L78,16.33c.83-.46,1.51-.09,1.51,.84V59.11c-.03,.5-.18,.99-.44,1.42-.26,.43-.63,.8-1.06,1.08L18.7,94.14c-.84,.46-1.51,.09-1.51-.83V51.37c.03-.5,.18-.99,.45-1.42,.26-.43,.63-.8,1.07-1.08Z"/><path class="cls-23" d="M78.68,16.6c.31,0,.36,.36,.36,.57V59.11c-.03,.42-.16,.83-.38,1.19-.22,.36-.53,.67-.89,.91L18.46,93.74c-.13,.08-.28,.13-.44,.13-.31,0-.36-.36-.36-.57V51.37c.03-.42,.16-.83,.38-1.19,.22-.36,.53-.68,.89-.91L78.24,16.73c.13-.08,.28-.13,.43-.14Zm0-.46c-.24,0-.47,.08-.67,.2L18.7,48.87c-.44,.28-.8,.64-1.07,1.08-.26,.43-.42,.92-.45,1.42v41.94c0,.65,.34,1.03,.84,1.03,.24,0,.47-.08,.68-.2l59.3-32.53c.44-.28,.8-.64,1.06-1.08,.26-.43,.41-.92,.44-1.42V17.17c0-.66-.34-1.03-.84-1.03Z"/><g class="cls-40"><path class="cls-37" d="M24.31,85.42c.06-3.31,.3-6.61,.72-9.9,.44-3.57,1.35-9.59,4.95-11.58,3.6-1.99,4.95,1.6,5.47,3.37,.68,2.3,4.2,.84,4.69-2.94,.49-3.78,.81-15.83,5.02-18.16,4.22-2.33,5.58,3.3,6.06,4.84,.96,3.07,3.72,2.23,4.62,.19,.9-2.04,3.36-2.53,4.3,.33,.94,2.87,1.51,6.15,4.53,4.46,2.65-1.48,1.44-4.18,4.01-5.46,2.04-1.01,2.99,3.81,2.99,8.69l-47.37,26.15Z"/><path class="cls-37" d="M24.73,61.49c0,.53,.48,.68,1.1,.34l5.98-3.29c.3-.16,.55-.38,.74-.65,.19-.27,.31-.58,.36-.9,0-.53-.48-.68-1.1-.34l-5.98,3.29c-.3,.16-.55,.38-.74,.65-.19,.27-.31,.58-.36,.9Z"/><path class="cls-37" d="M41.46,44.6c0,.52,.48,.67,1.1,.34l5.97-3.29c.3-.16,.55-.39,.74-.66,.19-.27,.32-.58,.36-.9,0-.52-.48-.68-1.1-.34l-5.95,3.29c-.3,.16-.56,.38-.76,.65-.2,.27-.32,.58-.37,.91Z"/><path class="cls-37" d="M53.22,46.8c0,.53,.48,.68,1.1,.34l5.97-3.29c.3-.16,.55-.38,.74-.65,.19-.27,.31-.58,.36-.9,0-.53-.48-.68-1.1-.34l-5.97,3.29c-.3,.16-.55,.38-.74,.65-.19,.27-.32,.58-.36,.9Z"/><path class="cls-37" d="M64.22,49.21c0,.52,.48,.68,1.1,.34l5.98-3.29c.3-.16,.55-.39,.74-.66,.19-.27,.31-.58,.36-.9,0-.52-.48-.68-1.1-.34l-5.98,3.31c-.29,.16-.55,.38-.74,.65-.19,.27-.31,.57-.36,.89Z"/></g><path class="cls-2" d="M29.98,64.63c-.06,0-.12-.02-.17-.07-.05-.04-.07-.1-.07-.16v-.46c0-.06,.03-.12,.07-.16,.05-.04,.11-.07,.17-.07s.12,.02,.17,.07c.05,.04,.07,.1,.07,.16v.46c0,.06-.03,.12-.07,.16-.04,.04-.11,.07-.17,.07Z"/><path class="cls-2" d="M29.98,80.39c-.06,0-.12-.02-.17-.07-.05-.04-.07-.1-.07-.16v-.88c0-.06,.03-.12,.07-.16,.05-.04,.11-.07,.17-.07,.06,0,.12,.03,.17,.07,.04,.04,.07,.1,.07,.16v.88c0,.06-.03,.12-.07,.16-.05,.04-.11,.07-.17,.07Zm0-2.63c-.06,0-.12-.02-.17-.07-.05-.04-.07-.1-.07-.16v-.88c0-.06,.03-.12,.07-.16,.05-.04,.11-.07,.17-.07s.12,.02,.17,.07c.05,.04,.07,.1,.07,.16v.86s0,.06-.01,.09c-.01,.03-.03,.06-.05,.08-.02,.02-.05,.04-.08,.05s-.06,.02-.1,.02Zm0-2.63c-.06,0-.12-.02-.17-.07-.05-.04-.07-.1-.07-.16v-.88c0-.06,.03-.12,.07-.16,.05-.04,.11-.07,.17-.07s.12,.02,.17,.07c.05,.04,.07,.1,.07,.16v.88c0,.06-.03,.12-.07,.16-.04,.04-.11,.07-.17,.07Zm0-2.63c-.06,0-.12-.02-.17-.07-.05-.04-.07-.1-.07-.16v-.87c0-.06,.03-.12,.07-.16,.05-.04,.11-.07,.17-.07s.12,.02,.17,.07c.05,.04,.07,.1,.07,.16v.87c0,.06-.03,.12-.07,.16-.05,.04-.11,.07-.17,.07Zm0-2.63c-.06,0-.12-.02-.17-.07-.05-.04-.07-.1-.07-.16v-.86c0-.06,.03-.12,.07-.16,.05-.04,.11-.07,.17-.07,.06,0,.12,.03,.17,.07,.04,.04,.07,.1,.07,.16v.88c0,.06-.03,.11-.08,.15-.04,.04-.1,.06-.16,.06Zm0-2.63c-.06,0-.12-.02-.17-.07-.05-.04-.07-.1-.07-.16v-.88c0-.06,.03-.12,.07-.16,.05-.04,.11-.07,.17-.07s.12,.02,.17,.07c.05,.04,.07,.1,.07,.16v.88c0,.06-.03,.12-.07,.16-.04,.04-.11,.07-.17,.07Z"/><path class="cls-2" d="M29.98,82.6c-.06,0-.12-.02-.17-.07-.05-.04-.07-.1-.07-.16v-.46c0-.06,.03-.12,.07-.16,.05-.04,.11-.07,.17-.07s.12,.02,.17,.07c.05,.04,.07,.1,.07,.16v.46c0,.06-.03,.12-.07,.16-.04,.04-.11,.07-.17,.07Z"/><path class="cls-2" d="M57.83,50.43c-.06,0-.12-.02-.17-.07-.05-.04-.07-.1-.07-.16v-.46c0-.06,.03-.12,.07-.16,.05-.04,.11-.07,.17-.07s.12,.02,.17,.07c.04,.04,.07,.1,.07,.16v.46c0,.06-.03,.12-.07,.16-.05,.04-.11,.07-.17,.07Z"/><path class="cls-2" d="M57.83,64.81c-.06,0-.12-.02-.17-.07-.05-.04-.07-.1-.07-.16v-.96c0-.06,.03-.12,.07-.16,.05-.04,.11-.07,.17-.07,.06,0,.12,.03,.17,.07,.04,.04,.07,.1,.07,.16v.96c0,.06-.03,.12-.07,.16-.05,.04-.11,.07-.17,.07Zm0-2.88c-.06,0-.12-.02-.17-.07-.05-.04-.07-.1-.07-.16v-.96c0-.06,.03-.12,.07-.16,.05-.04,.11-.07,.17-.07s.12,.02,.17,.07c.04,.04,.07,.1,.07,.16v.96c0,.06-.03,.12-.07,.16-.05,.04-.11,.07-.17,.07Zm0-2.87c-.06,0-.12-.02-.17-.07-.05-.04-.07-.1-.07-.16v-.96c0-.06,.03-.12,.07-.16,.05-.04,.11-.07,.17-.07s.12,.02,.17,.07c.04,.04,.07,.1,.07,.16v.96c0,.06-.03,.12-.07,.16-.04,.04-.11,.07-.17,.07Zm0-2.88c-.06,0-.12-.02-.17-.07-.05-.04-.07-.1-.07-.16v-.96c0-.06,.03-.12,.07-.16,.05-.04,.11-.07,.17-.07s.12,.02,.17,.07c.04,.04,.07,.1,.07,.16v.95s0,.06-.02,.09c-.01,.03-.03,.06-.05,.08-.02,.02-.05,.04-.08,.05-.03,.01-.06,.02-.09,.02Zm0-2.88c-.06,0-.12-.02-.17-.07-.05-.04-.07-.1-.07-.16v-.96c0-.06,.03-.12,.07-.16,.05-.04,.11-.07,.17-.07s.12,.02,.17,.07c.04,.04,.07,.1,.07,.16v.96c0,.06-.03,.12-.07,.16-.05,.04-.11,.07-.17,.07Z"/><path class="cls-2" d="M57.83,67.19c-.06,0-.12-.02-.17-.07-.05-.04-.07-.1-.07-.16v-.46c0-.06,.03-.12,.07-.16,.05-.04,.11-.07,.17-.07,.06,0,.12,.03,.17,.07,.04,.04,.07,.1,.07,.16v.46c0,.06-.03,.12-.07,.16-.05,.04-.11,.07-.17,.07Z"/><path class="cls-2" d="M68.7,51.27c-.06,0-.12-.03-.17-.07-.04-.04-.07-.1-.07-.16v-.46c0-.06,.03-.12,.07-.16,.05-.04,.11-.07,.17-.07s.12,.02,.17,.07c.05,.04,.07,.1,.07,.16v.46c0,.06-.03,.12-.07,.16-.04,.04-.11,.07-.17,.07Z"/><path class="cls-2" d="M68.71,59c-.06,0-.12-.02-.17-.07-.05-.04-.07-.1-.07-.16v-.86c0-.06,.03-.12,.07-.16,.04-.04,.11-.07,.17-.07s.12,.02,.17,.07c.04,.04,.07,.1,.07,.16v.86c0,.06-.03,.12-.07,.16-.05,.04-.11,.07-.17,.07Zm0-2.58c-.06,0-.12-.03-.17-.07-.04-.04-.07-.1-.07-.16v-.86c0-.06,.03-.12,.07-.16,.04-.04,.11-.07,.17-.07,.03,0,.06,0,.09,.02,.03,.01,.06,.03,.08,.05,.02,.02,.04,.05,.05,.07,.01,.03,.02,.06,.02,.09v.86c0,.06-.03,.12-.07,.16-.05,.04-.11,.07-.17,.07Zm0-2.58c-.06,0-.12-.02-.17-.07-.05-.04-.07-.1-.07-.16v-.86c0-.06,.03-.12,.07-.16,.04-.04,.11-.07,.17-.07,.06,0,.12,.02,.17,.07,.04,.04,.07,.1,.07,.16v.86c0,.06-.03,.12-.07,.16-.05,.04-.11,.07-.17,.07Z"/><path class="cls-2" d="M68.72,61.18c-.06,0-.12-.03-.17-.07-.04-.04-.07-.1-.07-.16v-.46c0-.06,.03-.12,.07-.16,.04-.04,.11-.07,.17-.07,.06,0,.12,.03,.16,.07,.04,.04,.07,.1,.08,.16v.46c0,.06-.03,.12-.07,.16-.04,.04-.11,.07-.17,.07Z"/><path class="cls-2" d="M46.12,46.49c-.06,0-.12-.02-.17-.07-.05-.04-.07-.1-.07-.16v-.46c0-.06,.03-.12,.07-.16,.04-.04,.11-.07,.17-.07,.06,0,.12,.02,.17,.07,.05,.04,.07,.1,.07,.16v.46c0,.06-.03,.12-.07,.16-.05,.04-.11,.07-.17,.07Z"/><path class="cls-2" d="M46.12,71.35c-.06,0-.12-.02-.17-.07-.05-.04-.07-.1-.07-.16v-.92c0-.06,.03-.12,.07-.16,.04-.04,.11-.07,.17-.07s.12,.02,.17,.07c.05,.04,.07,.1,.07,.16v.92c0,.06-.03,.12-.07,.16-.05,.04-.11,.07-.17,.07Zm0-2.75c-.06,0-.12-.03-.17-.07-.04-.04-.07-.1-.07-.16v-.92c0-.06,.03-.12,.07-.16,.04-.04,.11-.07,.17-.07,.06,0,.12,.02,.17,.07,.05,.04,.07,.1,.07,.16v.92c0,.06-.03,.12-.07,.16-.04,.04-.11,.07-.17,.07h0Zm0-2.75c-.06,0-.12-.02-.17-.07-.05-.04-.07-.1-.07-.16v-.92c0-.06,.03-.12,.07-.16,.04-.04,.11-.07,.17-.07s.12,.02,.17,.07c.05,.04,.07,.1,.07,.16v.92c0,.06-.03,.11-.08,.15-.04,.04-.1,.06-.16,.06h0Zm0-2.74c-.06,0-.12-.03-.17-.07-.04-.04-.07-.1-.07-.16v-.92c0-.06,.03-.12,.07-.16,.04-.04,.11-.07,.17-.07,.06,0,.12,.02,.17,.07,.05,.04,.07,.1,.07,.16v.92c0,.06-.03,.11-.08,.15-.04,.04-.1,.06-.16,.06v.02Zm0-2.76c-.06,0-.12-.02-.17-.07-.05-.04-.07-.1-.07-.16v-.92c0-.06,.03-.12,.07-.16,.04-.04,.11-.07,.17-.07s.12,.02,.17,.07c.05,.04,.07,.1,.07,.16v.92c0,.06-.04,.11-.08,.14-.04,.04-.1,.06-.16,.06v.03Zm0-2.75c-.06,0-.12-.03-.17-.07-.04-.04-.07-.1-.07-.16v-.92c0-.06,.03-.12,.07-.16,.04-.04,.11-.07,.17-.07s.12,.02,.17,.07c.05,.04,.07,.1,.07,.16v.92c0,.06-.04,.11-.08,.14-.04,.04-.1,.06-.16,.06v.03Zm0-2.76c-.06,0-.12-.02-.17-.07-.05-.04-.07-.1-.07-.16v-.92c0-.06,.03-.12,.07-.16,.04-.04,.11-.07,.17-.07,.06,0,.12,.02,.17,.07,.05,.04,.07,.1,.07,.16v.92c-.01,.05-.04,.1-.08,.14-.04,.03-.1,.05-.16,.05v.04Zm0-2.76c-.06,0-.12-.02-.17-.07-.05-.04-.07-.1-.07-.16v-.92c0-.06,.03-.12,.07-.16,.04-.04,.11-.07,.17-.07s.12,.02,.17,.07c.05,.04,.07,.1,.07,.16v.92c-.01,.05-.04,.1-.09,.13-.04,.03-.1,.05-.15,.05v.05Zm0-2.75c-.06,0-.12-.03-.17-.07-.04-.04-.07-.1-.07-.16v-.92c0-.06,.03-.12,.07-.16,.04-.04,.11-.07,.17-.07,.06,0,.12,.02,.17,.07,.05,.04,.07,.1,.07,.16v.92c-.01,.05-.04,.1-.09,.13-.04,.03-.1,.05-.15,.05v.06Z"/><path class="cls-2" d="M46.12,73.65c-.06,0-.12-.02-.17-.07-.05-.04-.07-.1-.07-.16v-.46c0-.06,.03-.12,.07-.16,.04-.04,.11-.07,.17-.07,.06,0,.12,.02,.17,.07,.05,.04,.07,.1,.07,.16v.46c0,.06-.03,.12-.07,.16-.05,.04-.11,.07-.17,.07Z"/><path class="cls-37" d="M227.68,48.86l-59.29-32.53c-.83-.46-1.51-.09-1.51,.84V59.11c.03,.5,.18,.99,.44,1.42,.26,.43,.63,.8,1.06,1.08l59.29,32.53c.83,.46,1.51,.09,1.51-.83V51.37c-.03-.5-.18-.99-.44-1.42-.26-.43-.63-.8-1.07-1.08Z"/><path class="cls-8" d="M227.68,48.86l-59.29-32.53c-.83-.46-1.51-.09-1.51,.84V59.11c.03,.5,.18,.99,.44,1.42,.26,.43,.63,.8,1.06,1.08l59.29,32.53c.83,.46,1.51,.09,1.51-.83V51.37c-.03-.5-.18-.99-.44-1.42-.26-.43-.63-.8-1.07-1.08Z"/><path class="cls-23" d="M167.7,16.6c.16,0,.31,.06,.44,.14l59.31,32.53c.37,.23,.67,.54,.89,.91,.22,.36,.35,.77,.38,1.19v41.94c0,.21-.05,.57-.36,.57-.15,0-.3-.05-.44-.13l-59.3-32.54c-.37-.23-.67-.54-.89-.91-.22-.36-.35-.77-.38-1.19V17.17c0-.22,.05-.57,.35-.57m0-.46c-.48,0-.83,.38-.83,1.03V59.11c.03,.5,.18,.99,.44,1.42,.26,.43,.63,.8,1.06,1.08l59.3,32.53c.2,.12,.43,.19,.67,.2,.48,0,.84-.38,.84-1.03V51.37c-.03-.5-.18-.99-.44-1.42-.26-.43-.63-.8-1.07-1.08l-59.29-32.53c-.2-.12-.43-.19-.67-.2h0Z"/><path class="cls-23" d="M170.95,58.35v-1.87l5.85-5.39,4.38,8.88,4.41-4.85,3.56,6.18,10.35-12.79,4.25,9.16,6.55-9.56,8.82,24.33,6.44,7.72v8.33l-54.61-30.15Z"/><path class="cls-2" d="M210.3,80.27c-.06,0-.12-.02-.17-.07-.05-.04-.07-.1-.07-.16v-.92c0-.06,.03-.12,.07-.16,.04-.04,.1-.07,.17-.07,.06,0,.12,.02,.17,.07,.04,.04,.07,.1,.07,.16v.92c0,.06-.02,.12-.07,.16s-.11,.07-.17,.07Zm0-2.75c-.06,0-.12-.02-.17-.07-.05-.04-.07-.1-.07-.16v-.92c0-.06,.03-.12,.07-.16,.04-.04,.1-.07,.17-.07,.06,0,.12,.02,.17,.07,.04,.04,.07,.1,.07,.16v.92c0,.06-.02,.12-.07,.16-.04,.04-.11,.07-.17,.07Zm0-2.76c-.06,0-.12-.02-.17-.07-.05-.04-.07-.1-.07-.16v-.92c0-.06,.03-.12,.07-.16,.04-.04,.1-.07,.17-.07,.06,0,.12,.02,.17,.07,.04,.04,.07,.1,.07,.16v.92c0,.06-.02,.12-.07,.16-.04,.04-.11,.07-.17,.07Zm0-2.75c-.06,0-.12-.02-.17-.07-.05-.04-.07-.1-.07-.16v-.92c0-.06,.03-.12,.07-.16,.04-.04,.1-.07,.17-.07,.06,0,.12,.02,.17,.07,.04,.04,.07,.1,.07,.16v.92c0,.06-.02,.12-.07,.16s-.11,.07-.17,.07Zm0-2.75c-.06,0-.12-.02-.17-.07-.05-.04-.07-.1-.07-.16v-.92c0-.06,.03-.12,.07-.16,.04-.04,.1-.07,.17-.07,.06,0,.12,.02,.17,.07,.04,.04,.07,.1,.07,.16v.92c0,.06-.02,.12-.07,.16-.04,.04-.11,.07-.17,.07Zm0-2.76c-.06,0-.12-.02-.17-.07-.05-.04-.07-.1-.07-.16v-.92c0-.06,.03-.12,.07-.16,.04-.04,.1-.07,.17-.07,.06,0,.12,.02,.17,.07,.04,.04,.07,.1,.07,.16v.92c0,.06-.02,.12-.07,.16-.04,.04-.11,.07-.17,.07Zm0-2.75c-.06,0-.12-.02-.17-.07-.05-.04-.07-.1-.07-.16v-.92c0-.06,.03-.12,.07-.16,.04-.04,.1-.07,.17-.07,.06,0,.12,.02,.17,.07,.04,.04,.07,.1,.07,.16v.92c0,.06-.02,.12-.07,.16s-.11,.07-.17,.07Zm0-2.75c-.06,0-.12-.02-.17-.07-.05-.04-.07-.1-.07-.16v-.92c0-.06,.03-.12,.07-.16,.04-.04,.1-.07,.17-.07,.06,0,.12,.02,.17,.07,.04,.04,.07,.1,.07,.16v.92c0,.06-.02,.12-.07,.16-.04,.04-.11,.07-.17,.07Zm0-2.75c-.06,0-.12-.02-.17-.07-.05-.04-.07-.1-.07-.16v-.92c0-.06,.03-.12,.07-.16,.04-.04,.1-.07,.17-.07,.06,0,.12,.02,.17,.07,.04,.04,.07,.1,.07,.16v.92c0,.06-.02,.12-.07,.16-.04,.04-.11,.07-.17,.07Zm0-2.76c-.06,0-.12-.02-.17-.07-.05-.04-.07-.1-.07-.16v-.92c0-.06,.03-.12,.07-.16,.04-.04,.1-.07,.17-.07,.06,0,.12,.02,.17,.07s.07,.1,.07,.16v.92c0,.06-.02,.12-.07,.16s-.11,.07-.17,.07Zm0-2.75c-.06,0-.12-.02-.17-.07-.05-.04-.07-.1-.07-.16v-.92c0-.06,.03-.12,.07-.16,.04-.04,.1-.07,.17-.07,.06,0,.12,.02,.17,.07,.04,.04,.07,.1,.07,.16v.92c0,.06-.02,.12-.07,.16-.04,.04-.11,.07-.17,.07Zm0-2.76c-.06,0-.12-.02-.17-.07-.05-.04-.07-.1-.07-.16v-.92c0-.06,.03-.12,.07-.16,.04-.04,.1-.07,.17-.07,.06,0,.12,.02,.17,.07,.04,.04,.07,.1,.07,.16v.92c0,.06-.02,.12-.07,.16-.04,.04-.11,.07-.17,.07Z"/><path class="cls-2" d="M199.54,72.49c-.06,0-.12-.02-.17-.07-.04-.04-.07-.1-.07-.16v-.92c0-.06,.02-.12,.07-.16,.04-.04,.11-.07,.17-.07s.12,.02,.17,.07c.05,.04,.07,.1,.07,.16v.92c0,.06-.02,.12-.07,.16-.04,.04-.11,.07-.17,.07Zm0-2.75c-.06,0-.12-.02-.17-.07-.04-.04-.07-.1-.07-.16v-.92c0-.06,.02-.12,.07-.16,.04-.04,.11-.07,.17-.07s.12,.02,.17,.07c.05,.04,.07,.1,.07,.16v.92c0,.06-.02,.12-.07,.16-.04,.04-.11,.07-.17,.07Zm0-2.76c-.06,0-.12-.02-.17-.07-.04-.04-.07-.1-.07-.16v-.92c0-.06,.02-.12,.07-.16,.04-.04,.11-.07,.17-.07s.12,.02,.17,.07c.05,.04,.07,.1,.07,.16v.92c0,.06-.02,.12-.07,.16-.04,.04-.11,.07-.17,.07Zm0-2.75c-.06,0-.12-.02-.17-.07-.04-.04-.07-.1-.07-.16v-.92c0-.06,.02-.12,.07-.16,.04-.04,.11-.07,.17-.07s.12,.02,.17,.07c.05,.04,.07,.1,.07,.16v.92c0,.06-.02,.12-.07,.16-.04,.04-.11,.07-.17,.07Zm0-2.76c-.06,0-.12-.02-.17-.07-.04-.04-.07-.1-.07-.16v-.92c0-.06,.02-.12,.07-.16,.04-.04,.11-.07,.17-.07s.12,.02,.17,.07c.05,.04,.07,.1,.07,.16v.92c0,.06-.02,.12-.07,.16-.04,.04-.11,.07-.17,.07Zm0-2.76c-.06,0-.12-.02-.17-.07-.04-.04-.07-.1-.07-.16v-.92c0-.06,.02-.12,.07-.16,.04-.04,.11-.07,.17-.07s.12,.02,.17,.07c.05,.04,.07,.1,.07,.16v.92c0,.06-.02,.12-.07,.16-.04,.04-.11,.07-.17,.07Zm0-2.75c-.06,0-.12-.02-.17-.07-.04-.04-.07-.1-.07-.16v-.92c0-.06,.02-.12,.07-.16,.04-.04,.11-.07,.17-.07s.12,.02,.17,.07c.05,.04,.07,.1,.07,.16v.92c0,.06-.02,.12-.07,.16-.04,.04-.11,.07-.17,.07Zm0-2.76c-.06,0-.12-.02-.17-.07-.04-.04-.07-.1-.07-.16v-.92c0-.06,.02-.12,.07-.16,.04-.04,.11-.07,.17-.07s.12,.02,.17,.07c.05,.04,.07,.1,.07,.16v.92c0,.06-.02,.12-.07,.16-.04,.04-.11,.07-.17,.07Zm0-2.75c-.06,0-.12-.02-.17-.07-.04-.04-.07-.1-.07-.16v-.92c0-.06,.02-.12,.07-.16,.04-.04,.11-.07,.17-.07s.12,.02,.17,.07c.05,.04,.07,.1,.07,.16v.92c0,.06-.02,.12-.07,.16-.04,.04-.11,.07-.17,.07Z"/><path class="cls-2" d="M176.8,61.45c-.06,0-.12-.02-.17-.07-.04-.04-.07-.1-.07-.16v-.92c0-.06,.02-.12,.07-.16,.05-.04,.11-.07,.17-.07s.12,.02,.17,.07c.04,.04,.07,.1,.07,.16v.92c0,.06-.03,.12-.07,.16-.04,.04-.11,.07-.17,.07Zm0-2.75c-.06,0-.12-.02-.17-.07-.04-.04-.07-.1-.07-.16v-.92c0-.06,.02-.12,.07-.16,.05-.04,.11-.07,.17-.07s.12,.02,.17,.07c.04,.04,.07,.1,.07,.16v.92c0,.06-.03,.12-.07,.16-.04,.04-.11,.07-.17,.07Zm0-2.76c-.06,0-.12-.02-.17-.07-.04-.04-.07-.1-.07-.16v-.92c0-.06,.02-.12,.07-.16,.05-.04,.11-.07,.17-.07s.12,.02,.17,.07c.04,.04,.07,.1,.07,.16v.92c0,.06-.03,.12-.07,.16-.04,.04-.11,.07-.17,.07Zm0-2.75c-.06,0-.12-.02-.17-.07-.04-.04-.07-.1-.07-.16v-.92c0-.06,.02-.12,.07-.16,.05-.04,.11-.07,.17-.07s.12,.02,.17,.07c.04,.04,.07,.1,.07,.16v.92c0,.06-.03,.12-.07,.16-.04,.04-.11,.07-.17,.07Z"/><path class="cls-2" d="M185.47,65.29c-.06,0-.12-.03-.17-.07-.04-.04-.07-.1-.07-.16v-.92c0-.06,.03-.12,.07-.16,.04-.04,.11-.07,.17-.07s.12,.02,.17,.07c.04,.04,.07,.1,.07,.16v.92c0,.06-.03,.12-.07,.16-.04,.04-.11,.07-.17,.07Zm0-2.75c-.06,0-.12-.03-.17-.07-.04-.04-.07-.1-.07-.16v-.92c0-.06,.03-.12,.07-.16s.11-.07,.17-.07,.12,.02,.17,.07,.07,.1,.07,.16v.92c0,.06-.03,.12-.07,.16s-.11,.07-.17,.07Zm0-2.75c-.06,0-.12-.03-.17-.07-.04-.04-.07-.1-.07-.16v-.92c0-.06,.03-.12,.07-.16,.04-.04,.11-.07,.17-.07s.12,.02,.17,.07c.04,.04,.07,.1,.07,.16v.92c0,.06-.03,.12-.07,.16-.04,.04-.11,.07-.17,.07Zm0-2.76c-.06,0-.12-.03-.17-.07-.04-.04-.07-.1-.07-.16v-.92c0-.06,.03-.12,.07-.16,.04-.04,.11-.07,.17-.07s.12,.02,.17,.07c.04,.04,.07,.1,.07,.16v.92c0,.06-.03,.12-.07,.16-.04,.04-.11,.07-.17,.07Z"/><path class="cls-23" d="M179.91,48.36c0,.52-.48,.68-1.1,.34l-3.49-1.96c-.3-.16-.55-.38-.74-.65-.19-.27-.31-.58-.36-.9,0-.53,.48-.68,1.1-.34l3.49,1.94c.3,.16,.56,.39,.75,.66,.19,.27,.31,.58,.36,.91Z"/><path class="cls-23" d="M188.51,54.46c0,.53-.48,.68-1.1,.34l-3.48-1.94c-.3-.16-.55-.38-.74-.65-.19-.27-.32-.58-.36-.9,0-.52,.48-.68,1.1-.34l3.48,1.94c.3,.16,.55,.38,.74,.65s.31,.58,.36,.9Z"/><path class="cls-23" d="M202.39,46.98c0,.52-.48,.68-1.1,.34l-3.49-1.95c-.3-.16-.55-.39-.74-.66-.19-.27-.31-.58-.36-.9,0-.52,.48-.67,1.1-.34l3.49,1.94c.3,.16,.55,.39,.74,.66,.19,.27,.31,.58,.36,.91Z"/><path class="cls-23" d="M213.7,46.75c0,.52-.48,.68-1.1,.34l-3.48-1.94c-.3-.16-.55-.39-.75-.66-.19-.27-.31-.58-.36-.91,0-.52,.48-.67,1.1-.34l3.48,1.94c.3,.16,.55,.39,.74,.66,.19,.27,.32,.58,.36,.9Z"/><path class="cls-9" d="M219.75,148.13l-86.43,47.67c-1.25,.61-2.63,.92-4.03,.92s-2.78-.32-4.03-.92l-86.41-47.67c-1.12-.6-1.67-1.41-1.67-2.22,.01-.32,.1-.64,.25-.93,.15-.29,.37-.54,.63-.74,.24-.21,.5-.4,.79-.55l86.43-47.66c1.25-.61,2.63-.92,4.03-.92s2.78,.32,4.03,.92l86.41,47.65c2.22,1.24,2.22,3.23,0,4.45Z"/><path class="cls-37" d="M129.31,173.85v16.06c-1.39,.03-2.78-.28-4.01-.9l-86.43-47.69c-1.12-.6-1.67-1.42-1.67-2.22v-13.89c.01-.32,.1-.64,.25-.93,.15-.29,.37-.54,.63-.75l12.5,6.9,78.73,43.42Z"/><path class="cls-5" d="M129.31,173.85v16.06c-1.39,.03-2.78-.28-4.01-.9l-86.43-47.69c-1.12-.6-1.67-1.42-1.67-2.22v-13.89c.01-.32,.1-.64,.25-.93,.15-.29,.37-.54,.63-.75l12.5,6.9,78.73,43.42Z"/><path class="cls-37" d="M129.31,173.85v16.06c1.4,.03,2.78-.28,4.02-.9l86.43-47.69c1.12-.6,1.67-1.42,1.67-2.22v-13.9c-.01-.32-.1-.64-.25-.93-.15-.29-.37-.54-.63-.75l-12.5,6.9-78.73,43.43Z"/><path class="cls-10" d="M129.31,173.85v16.06c1.4,.03,2.78-.28,4.02-.9l86.43-47.69c1.12-.6,1.67-1.42,1.67-2.22v-13.9c-.01-.32-.1-.64-.25-.93-.15-.29-.37-.54-.63-.75l-12.5,6.9-78.73,43.43Z"/><path class="cls-37" d="M219.75,127.41l-86.43,47.68c-1.25,.6-2.63,.92-4.03,.92s-2.78-.31-4.03-.92L38.86,127.42c-1.12-.6-1.67-1.4-1.67-2.22,.01-.32,.1-.64,.25-.93,.15-.29,.37-.54,.63-.75,.24-.21,.5-.4,.79-.55l86.43-47.66c1.25-.61,2.63-.92,4.03-.92s2.78,.32,4.03,.92l86.41,47.66c2.22,1.23,2.22,3.23,0,4.44Z"/><path class="cls-3" d="M219.75,127.41l-86.43,47.68c-1.25,.6-2.63,.92-4.03,.92s-2.78-.31-4.03-.92L38.86,127.42c-1.12-.6-1.67-1.4-1.67-2.22,.01-.32,.1-.64,.25-.93,.15-.29,.37-.54,.63-.75,.24-.21,.5-.4,.79-.55l86.43-47.66c1.25-.61,2.63-.92,4.03-.92s2.78,.32,4.03,.92l86.41,47.66c2.22,1.23,2.22,3.23,0,4.44Z"/><path class="cls-2" d="M129.31,75.35c1.23-.02,2.45,.25,3.54,.8l86.4,47.65c.75,.41,1.16,.92,1.16,1.41s-.43,.98-1.16,1.39l-86.43,47.69c-1.1,.52-2.3,.79-3.53,.79s-2.43-.27-3.53-.79L39.36,126.59c-.75-.4-1.17-.91-1.17-1.39,.02-.19,.08-.38,.17-.54,.1-.17,.23-.32,.39-.43,.19-.16,.4-.3,.63-.42l86.43-47.66c1.08-.55,2.3-.82,3.52-.8m0-.95c-1.4-.03-2.79,.29-4.02,.92L38.86,122.98c-.29,.15-.55,.33-.79,.54-.26,.2-.48,.46-.63,.75-.15,.29-.24,.61-.25,.93,0,.82,.56,1.61,1.67,2.22l86.41,47.68c1.25,.6,2.63,.92,4.03,.92s2.78-.31,4.03-.92l86.43-47.68c2.22-1.2,2.22-3.21,0-4.44l-86.41-47.66c-1.24-.63-2.63-.95-4.03-.92h.02Z"/><path class="cls-42" d="M126.63,84.98L56.44,123.71c-1.49,.82-1.49,2.15,0,2.97l70.19,38.72c.83,.4,1.75,.62,2.68,.62s1.85-.21,2.68-.62l70.23-38.73c1.49-.82,1.49-2.15,0-2.97l-70.23-38.72c-.83-.4-1.75-.62-2.68-.62s-1.85,.21-2.68,.62Z"/><path class="cls-37" d="M202.2,123.72l-70.21-38.73c-.83-.41-1.75-.62-2.68-.6v2.61l72.43,39.94,.46-.26c1.49-.82,1.49-2.14,0-2.96Z"/><path class="cls-42" d="M129.3,84.39c-.93-.02-1.86,.19-2.68,.6L56.43,123.71c-1.49,.82-1.49,2.15,0,2.97l.46,.26,72.41-39.94v-2.61Z"/><g class="cls-38"><path class="cls-23" d="M134.16,155.61c-1.49,.83-3.21,1.22-4.93,1.11-.03,0,0,0,0,0v9.32c1.18,0,2.32-.33,3.31-.94l68.85-38c1.29-.68,1.88-1.28,1.88-2.1v-7.53l-69.1,38.14Z"/><path class="cls-18" d="M134.16,147.27c-1.49,.84-3.21,1.22-4.93,1.11v9.32c1.18,0,2.32-.33,3.31-.94l68.85-38c1.29-.68,1.88-1.27,1.88-2.09v-7.53l-69.1,38.13Z"/><path class="cls-28" d="M134.16,138.92c-1.49,.83-3.21,1.22-4.93,1.11-.03,0,0,0,0,0v9.32c1.18,0,2.32-.33,3.31-.94l68.85-37.98c1.29-.68,1.88-1.28,1.88-2.1v-7.53l-69.1,38.12Z"/><path class="cls-19" d="M134.16,130.6c-1.49,.84-3.21,1.23-4.93,1.11v9.32c1.17,0,2.32-.33,3.31-.93l68.85-38c1.29-.68,1.88-1.27,1.88-2.09v-7.53l-69.1,38.13Z"/><path class="cls-33" d="M134.16,122.27c-1.49,.83-3.21,1.22-4.93,1.11-.03,0,0,0,0,0v9.32c1.18,0,2.32-.33,3.31-.94l68.85-38c1.29-.68,1.88-1.27,1.88-2.1v-7.53l-69.1,38.14Z"/><path class="cls-29" d="M134.16,113.94c-1.49,.83-3.21,1.22-4.93,1.1v9.32c1.17,0,2.32-.33,3.31-.93l68.85-38c1.29-.67,1.88-1.27,1.88-2.09v-7.53l-69.1,38.14Z"/><path class="cls-32" d="M134.16,105.61c-1.49,.84-3.21,1.22-4.93,1.11-.03,0,0,0,0,0v9.32c1.18,0,2.32-.33,3.31-.94l68.85-38c1.29-.68,1.88-1.27,1.88-2.09v-7.54l-69.1,38.14Z"/><path class="cls-24" d="M134.16,97.28c-1.49,.83-3.21,1.22-4.93,1.1v9.32c1.17,0,2.32-.33,3.31-.93l68.85-38c1.29-.67,1.88-1.27,1.88-2.09v-7.53l-69.1,38.14Z"/><path class="cls-34" d="M134.16,88.94c-1.49,.84-3.21,1.23-4.93,1.11-.03,0,0,0,0,0v9.32c1.18,0,2.32-.33,3.31-.94l68.85-38.01c1.29-.68,1.88-1.27,1.88-2.09v-7.5l-69.1,38.12Z"/><path class="cls-21" d="M134.16,80.61c-1.49,.83-3.21,1.22-4.93,1.1-.03,0,0,0,0,0v9.32c1.17,0,2.32-.33,3.31-.93l68.85-38c1.29-.67,1.88-1.27,1.88-2.09v-7.53l-69.1,38.14Z"/><path class="cls-11" d="M134.16,72.27c-1.49,.84-3.21,1.23-4.93,1.11-.03,0,0,0,0,0v9.32c1.18,0,2.32-.33,3.31-.94l68.85-38c1.29-.68,1.88-1.27,1.88-2.09v-7.53l-69.1,38.13Z"/><path class="cls-26" d="M134.16,63.94c-1.49,.83-3.21,1.22-4.93,1.11-.03,0,0,0,0,0v9.33c1.17,0,2.32-.33,3.31-.94l68.85-38c1.29-.68,1.88-1.28,1.88-2.1v-7.53l-69.1,38.14Z"/><path class="cls-17" d="M134.16,55.62c-1.49,.84-3.21,1.23-4.93,1.11v9.32c1.18,0,2.32-.33,3.31-.94L201.38,27.1c1.29-.68,1.88-1.27,1.88-2.09v-7.53l-69.1,38.15Z"/></g><g class="cls-41"><path class="cls-20" d="M124.29,155.61c1.49,.83,3.21,1.22,4.94,1.11,0,0-.03,0,0,0s0,0,0,0v9.32c-1.17,0-2.32-.33-3.31-.94L57.1,127.1c-1.28-.68-1.88-1.28-1.88-2.1v-7.53l69.08,38.14Z"/><path class="cls-16" d="M124.29,147.27c1.49,.84,3.21,1.22,4.94,1.11v9.32c-1.17,0-2.32-.33-3.31-.94L57.1,118.76c-1.28-.68-1.88-1.27-1.88-2.09v-7.53l69.08,38.13Z"/><path class="cls-35" d="M124.29,138.92c1.49,.83,3.21,1.22,4.94,1.11,0,0-.03,0,0,0s0,0,0,0v9.32c-1.17,0-2.32-.33-3.31-.94L57.1,110.41c-1.28-.68-1.88-1.28-1.88-2.1v-7.51l69.08,38.12Z"/><path class="cls-13" d="M124.29,130.6c1.49,.84,3.21,1.23,4.94,1.11v9.32c-1.17,0-2.32-.33-3.31-.93L57.09,102.09c-1.28-.68-1.88-1.27-1.88-2.09v-7.53l69.08,38.13Z"/><path class="cls-12" d="M124.29,122.27c1.49,.83,3.21,1.22,4.94,1.11,0,0-.03,0,0,0s0,0,0,0v9.32c-1.17,0-2.32-.33-3.31-.94L57.1,93.76c-1.28-.68-1.88-1.27-1.88-2.1v-7.53l69.08,38.14Z"/><path class="cls-31" d="M124.29,113.94c1.49,.83,3.21,1.22,4.94,1.1v9.32c-1.17,0-2.32-.33-3.31-.93L57.09,85.43c-1.28-.67-1.88-1.27-1.88-2.09v-7.53l69.08,38.14Z"/><path class="cls-22" d="M124.29,105.61c1.49,.84,3.21,1.22,4.94,1.11,0,0-.03,0,0,0s0,0,0,0v9.32c-1.17,0-2.32-.33-3.31-.94L57.1,77.1c-1.28-.68-1.88-1.27-1.88-2.09v-7.54l69.08,38.14Z"/><path class="cls-19" d="M124.29,97.28c1.49,.83,3.21,1.22,4.94,1.1v9.32c-1.17,0-2.32-.33-3.31-.93L57.09,68.76c-1.28-.67-1.88-1.27-1.88-2.09v-7.53l69.08,38.14Z"/><path class="cls-25" d="M124.29,88.94c1.49,.84,3.21,1.23,4.94,1.11,0,0-.03,0,0,0s0,0,0,0v9.32c-1.18,0-2.32-.33-3.31-.94L57.09,60.41c-1.28-.68-1.88-1.27-1.88-2.09v-7.5l69.08,38.12Z"/><path class="cls-14" d="M124.29,80.61c1.49,.83,3.21,1.22,4.94,1.1,0,0-.03,0,0,0v9.32c-1.17,0-2.32-.33-3.31-.93L57.09,52.09c-1.28-.67-1.88-1.27-1.88-2.09v-7.53l69.08,38.14Z"/><path class="cls-34" d="M124.29,72.27c1.49,.84,3.21,1.23,4.94,1.11,0,0-.03,0,0,0s0,0,0,0v9.32c-1.17,0-2.32-.33-3.31-.94L57.1,43.76c-1.28-.68-1.88-1.27-1.88-2.09v-7.53l69.08,38.13Z"/><path class="cls-15" d="M124.29,63.94c1.49,.83,3.21,1.22,4.94,1.11,0,0-.03,0,0,0s0,0,0,0v9.33c-1.17,0-2.32-.33-3.31-.94L57.1,35.44c-1.28-.68-1.88-1.28-1.88-2.1v-7.54L124.29,63.94Z"/><path class="cls-36" d="M124.29,55.62c1.49,.84,3.21,1.23,4.94,1.11v9.32c-1.18,0-2.32-.33-3.31-.94L57.09,27.1c-1.28-.68-1.88-1.27-1.88-2.09v-7.53L124.29,55.62Z"/></g><path class="cls-37" d="M188.84,166.6l-7.28,.48-.25,.32,6.24,11.74,6.93-1.1-5.63-11.43Z"/><path class="cls-4" d="M188.84,166.6l-7.28,.48-.25,.32,6.24,11.74,6.93-1.1-5.63-11.43Z"/><path class="cls-37" d="M189.08,166.28l-7.52,.8,6.24,11.74,6.93-1.1-5.64-11.44Z"/><path class="cls-45" d="M189.04,167.39l-6.31,.67,5.2,9.61,5.81-.92-4.7-9.36Z"/><path class="cls-7" d="M187.8,167.87l-.26-.48c-.15-.27-.73-.44-1.31-.38l-1.12,.11c-.58,.06-.94,.32-.8,.6l.26,.48,3.22-.33Z"/><path class="cls-37" d="M187.19,166.15c-.07-.09-.16-.16-.26-.2-.1-.04-.22-.06-.33-.04l-.43,.06c-.15-.29-.38-.53-.65-.71-.28-.18-.6-.28-.93-.31-1.02,.04-.46,1.2-.46,1.2l-.46,.07c-.25,.04-.4,.2-.32,.36l.14,.29,3.88-.41-.17-.31Z"/><path class="cls-42" d="M186.86,166.49c-.36,0-.5,.05-.28,.46,.22,.41,.46,.82,.46,.82l-1.71,.19s-.31-.6-.44-.82c-.12-.22-.31-.4-.58-.37l-.16-.2,2.72-.24v.17Z"/><path class="cls-37" d="M187.89,167.93l-.26-.49c-.17-.16-.38-.27-.6-.33-.23-.06-.46-.07-.69-.03l-1.11,.11c-.58,.05-.94,.32-.8,.6l.26,.49,3.2-.35Z"/><path class="cls-43" d="M191.58,171.92s.19-1.07-.14-1.43c-.33-.37-1.71-.32-2.39-.6-.68-.28-.63,.49-.27,.74,.78,.54,2.32,.79,2.79,1.29Z"/><path class="cls-42" d="M203.05,157.91c1.12,.05,2.14,.85,3.28,3.54,1.13,2.69,3.47,8.59,3.09,9.59-.26,.7-8.6,2.78-8.6,2.78l-1.2-2.44,5.53-2.4-3.13-6.92,1.03-4.15Z"/><path class="cls-37" d="M195.8,216.09c.16,.45,.29,.91,.39,1.38,.17,.57,.2,1.17,.08,1.75-.19,.38-.92,.63-2.05,.6-.94,.11-1.85,.42-2.66,.89-1.05,.43-2.2,.6-3.34,.51-1.01-.11-2.05-.67-2.21-1.07-.16-.4-.3-.95,2.43-1.8,0,0,3.3-1.02,4.44-2.24l2.92-.02Z"/><path class="cls-30" d="M195.8,216.09c.16,.45,.29,.91,.39,1.38,.17,.57,.2,1.17,.08,1.75-.19,.38-.92,.63-2.05,.6-.94,.11-1.85,.42-2.66,.89-1.05,.43-2.2,.6-3.34,.51-1.01-.11-2.05-.67-2.21-1.07-.16-.4-.3-.95,2.43-1.8,0,0,3.3-1.02,4.44-2.24l2.92-.02Z"/><path class="cls-43" d="M195.8,216.17l-.52-.06-2.4,.05c-1.15,1.2-4.42,2.23-4.44,2.24l-.44,.14c-.47,.36-.07,.98,1.06,1.08,1.13,.1,4.62-1.03,5.4-1.39,.41-.18,.75-.47,.99-.84,.24-.36,.36-.79,.35-1.22Z"/><path class="cls-43" d="M195.81,215.18v.98c0,.36-.44,.89-1.59,.86-.8-.03-1.37-.24-1.33-.87v-.92l2.92-.05Z"/><path class="cls-37" d="M203.5,211.98c.21,.08,.25,.46,.26,1.2,0,.57,.11,1.57-.6,1.75-.37,.11-.77,.12-1.15,.03-.38-.09-.73-.27-1.01-.53-.54-.68-.9-1.29-1.68-2.13-.67-.73-1.4-1.41-1.65-2.4-.23-.91,0-1.29,.63-1.54s1.25-.04,2.14,.68c.25,.16,.52,.3,.8,.4,.61,.2,2.06,2.45,2.27,2.54Z"/><path class="cls-30" d="M203.5,211.98c.21,.08,.25,.46,.26,1.2,0,.57,.11,1.57-.6,1.75-.37,.11-.77,.12-1.15,.03-.38-.09-.73-.27-1.01-.53-.54-.68-.9-1.29-1.68-2.13-.67-.73-1.4-1.41-1.65-2.4-.23-.91,0-1.29,.63-1.54s1.25-.04,2.14,.68c.25,.16,.52,.3,.8,.4,.61,.2,2.06,2.45,2.27,2.54Z"/><path class="cls-43" d="M203.52,211.28v.93s-.63,1.2-2.45,0c-.04-.1-.2-1.89-.2-1.89l2.65,.96Z"/><path class="cls-43" d="M201.25,209.44c-.28-.1-.55-.24-.8-.4-.73-.22-2.26,.04-1.57,1.04,.57,.83,1.3,1.55,2.16,2.12,.81,.38,1.1-.1,1.1-.1l-.29-2.17c-.16-.21-.37-.38-.61-.5Z"/><path class="cls-1" d="M204.84,198.46c-.16-1.63-.51-3.24-1.05-4.79,0,0,.63-4.09,1.09-8.01,1.13-9.21,.38-9.36-.98-12.59,0,0-12.35-1.52-12.87,3.39-.63,6.11-.35,17.98-.24,20.14,.11,2.16,.29,3.15,.96,7.69,.51,3.46,1,11.02,1,11.02,.5,.25,1.05,.36,1.61,.34,.56-.03,1.1-.2,1.57-.49,0,0,1.55-9.3,1.51-11.8-.03-1.85-.31-3.69-.83-5.48,0,0,1.05-9.97,1.32-11.55,0,0,.3,3.18,.41,5.35,.11,2.17,.72,4.25,1.25,8.29,.47,3.51,1.25,10.82,1.25,10.82,1.62,.89,2.75,.49,2.75,.49,0,0,1.61-9.77,1.25-12.81Z"/><path class="cls-6" d="M197.92,186.35l.68-4.11c1.35-.16,2.65-.59,3.81-1.27-.77,.9-1.86,1.51-3.06,1.71l-.69,4.79-.28,4.99-.46-6.12Z"/><path class="cls-43" d="M196.04,155.61l.46,4.59,4.22-.26-.34-5.09-4.34,.76Z"/><path class="cls-42" d="M204.51,159.54c-.43-1.2-1.3-1.92-3.23-1.95h-.71c-.14,.68-2.21,1.2-4.27,.53-.29,.07-1.08,.21-1.53,.26l-.98,.14c-1.5,.47-2.16,2.95-2.3,6.89-.14,3.94-.76,12.35-.76,12.35,0,0,3.21,1.65,8.28,1.01,2.33-.23,4.5-1.22,6.15-2.8-.53-2.18-1.32-4.29-2.34-6.31,2.38-5.57,2.31-8.31,1.68-10.12Z"/><path class="cls-37" d="M196.49,178.94c.84,0,1.68-.04,2.51-.15,2.33-.21,4.51-1.21,6.14-2.83-.54-2.17-1.32-4.28-2.34-6.28,.96-2.09,1.62-4.29,1.98-6.55-.19,1.2-2.01,5.74-4.39,7.1,1.03,.25,1.92,.86,2.51,1.71,1.13,1.51,.19,6.68-6.41,7Z"/><path class="cls-39" d="M193.86,149.91s-1.6-1.8-.35-3.6c1.47-2.09,4.06-2.79,7.26-1.88,1.59,.45,3.92,2.55,4.04,5.49,.09,2.27-6.56,3.76-6.45,5.32l-4.51-5.33Z"/><path class="cls-43" d="M192.91,150.57s-.93,1.35-.81,1.49c.22,.14,.46,.24,.71,.29l.09-1.79Z"/><path class="cls-43" d="M195.77,146.29c-.91,.45-2.51,1.28-2.88,4.48-.38,3.2,.35,4.42,.82,4.85,.31,.29,1.94,.4,2.79,.14,1.06-.31,3.37-1.4,4.45-3.1,1.25-1.99,1.53-4.65,.06-5.69-.74-.53-1.61-.87-2.53-.99-.92-.12-1.85-.01-2.72,.3Z"/><path class="cls-39" d="M195.5,146.43s-.79,3,.16,4.88c0,0,.55-1.17,1.6-.83,1.05,.34,.96,1.68,.12,2.4-.21,.2-.48,.33-.77,.39s-.59,.04-.87-.06c.02,.48,.16,.94,.43,1.35,.26,.41,.64,.74,1.08,.96,0,0,3.1,1.41,5.89-1.44,2.54-2.6,2.21-7.25-1.53-8.44-1.01-.37-2.1-.49-3.17-.36-1.07,.14-2.09,.53-2.96,1.14Z"/><path class="cls-39" d="M206.87,146.57c0,.62-.19,1.23-.55,1.75-.36,.52-.88,.92-1.48,1.16-.6,.24-1.26,.3-1.9,.18-.64-.12-1.23-.42-1.69-.86-.46-.44-.77-1-.9-1.61-.13-.61-.06-1.24,.19-1.82,.25-.58,.67-1.07,1.21-1.41,.54-.35,1.18-.53,1.83-.53,.87,0,1.71,.33,2.33,.92,.62,.59,.96,1.39,.96,2.23Z"/><path class="cls-39" d="M193.09,145.08c-1.39,1.35-1.47,5.27,2.57,6.23l2.64-6.93c-1.54-.96-3.96-.52-5.21,.7Z"/><path class="cls-42" d="M195.25,152.39c-.2-.07-.36-.21-.45-.39-.09-.18-.1-.39-.03-.58,.07-.19,.22-.34,.41-.43,.19-.09,.41-.09,.61-.03l-.54,1.43Z"/><path class="cls-43" d="M194.09,158.51s-.66-.09-3.13,.54c-2.48,.64-8.31,1.91-8.31,1.91,0,0-6.85-3.16-7.15-3.5-.3-.34-.13-1.04-.05-1.42,.08-.38,.22-1.24,.31-1.48,.16-.41-.49-.3-.86,.09-.38,.39-.55,1.15-.74,1.28-.19,.13-1.63-1.46-2.33-2.22-.7-.77-1.03-1.3-1.5-.98-.34,.23-.12,.68,.38,1.34,.23,.27,.44,.57,.63,.87,.06,.11-.13,.21-.2,.27-.07,.07-.38,.31-.39,.49,0,.1,0,.2,0,.3-.07,.22-.35,.32-.43,.53-.08,.22,0,.32,0,.49s-.08,.2-.1,.31c0,.1,.01,.21,.05,.31,.04,.1,.1,.18,.18,.26,.52,.48,1.14,.86,1.81,1.11,.54,.28,1.09,.4,1.71,.67,.62,.26,7.76,5.13,9.04,5.02,1.45-.12,10.32-1.64,10.32-1.64,2.3-1.52,.78-4.55,.78-4.55Z"/><path class="cls-42" d="M201.27,157.6c.72-.04,1.43,.09,2.09,.35,.98,.44,1.58,1.49,1.64,3.82,.05,2.33-1.88,8.04-1.88,8.04,0,0,2.06,4.64,2.44,6.68,.38,2.04-.14,8.11-.14,8.11,0,0-4.04,3.16-12.07,1.8-.16-.03-.29-7.22-.46-7.25-.16-.03-.31,7.11-.46,7.08-.76-.16-1.55-.36-2.37-.6,0,0,.17-5.99,.19-8.58s.22-12.44,1.12-14.98c.43-1.37,1.17-2.64,2.15-3.72h1.72l6.03-.75Z"/><path class="cls-42" d="M194.72,158.36c-3.53-.25-7.99,1.61-12.08,2.61l-5.64-2.68s-1.77,1.8-.75,3.1c0,0,5.23,3.6,6.48,3.84,1.25,.24,10.47-1.55,10.47-1.55,.57-.23,1.06-.61,1.43-1.09,.36-.48,.58-1.04,.64-1.63,.26-2.13-.54-2.6-.54-2.6Z"/><path class="cls-43" d="M196.17,156.95c-.08,0-.16,.04-.23,.08-.07,.05-.12,.11-.16,.18-.14,.26-.53,1.13-.53,1.13,0,0,.97,1.2,3.24,.93,2.27-.27,2.77-1.68,2.77-1.68,0,0-.23-1.25-.79-1.2v.24s-.21,.48-1.57,.65c-1.92,.22-2.73-.33-2.73-.33Z"/><path class="cls-45" d="M196.04,170.18s3.97,.95,6.39-.42c.37,.32,.35,.68,0,1.28,0,0-2.37,1.34-6.37,.37-.16-.17-.24-.38-.25-.61,0-.23,.08-.44,.23-.62Z"/><path class="cls-43" d="M196.77,170.86c0,.07-.02,.13-.06,.19-.04,.06-.09,.1-.16,.13-.07,.03-.14,.03-.21,.02-.07-.01-.13-.05-.18-.09-.05-.05-.09-.11-.1-.18-.01-.07,0-.14,.02-.2,.03-.06,.07-.12,.13-.15,.06-.04,.13-.06,.2-.06,.05,0,.09,0,.14,.02,.04,.02,.08,.04,.12,.07,.03,.03,.06,.07,.08,.11,.02,.04,.03,.08,.03,.13Z"/><path class="cls-43" d="M202.46,170.53s0,.09-.03,.13c-.02,.04-.04,.08-.08,.11-.03,.03-.07,.06-.11,.07-.04,.02-.09,.03-.13,.03-.09,0-.18-.04-.25-.1-.07-.06-.1-.15-.11-.24,0-.09,.04-.18,.11-.24,.07-.06,.16-.1,.25-.1,.09,0,.18,.04,.25,.1,.07,.06,.1,.15,.1,.24Z"/><path class="cls-37" d="M51.35,206.64c-.2,.08-.24,.46-.26,1.2,0,.56-.11,1.55,.58,1.73,.37,.11,.76,.12,1.14,.04,.38-.08,.72-.26,1-.52,.52-.72,1.07-1.42,1.67-2.09,.75-.66,1.31-1.48,1.64-2.4,.23-.89,0-1.28-.63-1.52-.88-.34-2.22,.86-2.9,1.06-.59,.2-2,2.44-2.24,2.5Z"/><path class="cls-30" d="M51.33,206.64c-.2,.08-.24,.46-.26,1.2,0,.56-.11,1.55,.58,1.73,.37,.11,.76,.12,1.14,.04,.38-.08,.72-.26,1-.52,.52-.72,1.07-1.42,1.66-2.09,.75-.65,1.32-1.48,1.65-2.4,.23-.89,0-1.28-.63-1.52-.88-.34-2.22,.86-2.9,1.06-.68,.2-2.03,2.45-2.24,2.5Z"/><path class="cls-43" d="M51.34,205.96v.92c.37,.21,.78,.32,1.21,.32s.84-.11,1.21-.32c.04-.09,.22-1.31,.22-1.31l-2.64,.4Z"/><path class="cls-37" d="M59.23,211.75c-.16,.5-.29,1-.39,1.5-.17,.62-.18,1.27-.04,1.89,.21,.41,1.01,.66,2.23,.63,1.02,.1,2.01,.4,2.9,.89,1.15,.44,2.4,.6,3.63,.47,1.08-.14,2.2-.77,2.37-1.2,.17-.43-.08-.88-2.67-1.87,0,0-3.6-1.03-4.87-2.32h-3.16Z"/><path class="cls-30" d="M59.23,211.75c-.16,.5-.29,1-.39,1.5-.17,.62-.18,1.27-.04,1.89,.21,.41,1.01,.66,2.23,.63,1.02,.1,2.01,.4,2.9,.89,1.15,.44,2.4,.6,3.63,.47,1.08-.14,2.2-.77,2.37-1.2,.17-.43-.08-.88-2.67-1.87,0,0-3.6-1.03-4.87-2.32h-3.16Z"/><path class="cls-43" d="M59.2,210.77v1.06c0,.38,.5,.96,1.74,.89,.87-.05,1.47-.28,1.42-.97v-.99h-3.16Z"/><path class="cls-1" d="M50.43,193.84c.36-3,.56-4.85,.56-4.85,0,0-.45-3.6-.7-7.5-.28-4.19-.23-9.2,.14-10.97,0,0,14.13-3.05,14.5,1.8,.37,4.85-.16,17.25-.28,19.39-.12,2.14-.46,4.04-.83,7.51s-1.47,11.52-1.47,11.52c-.48,.24-1.02,.37-1.57,.37s-1.08-.13-1.57-.37c0,0-1.25-9.71-1.18-12.18,.04-1.83,.33-3.64,.85-5.39,0,0-.36-4-.68-7.49-.32-3.49-.63-5.15-.7-6.67l-.31-.14s-.17,6.03-.29,8.17c-.12,2.14-.43,4.19-.98,8.18-.48,3.45-1.98,10.79-1.98,10.79-1.6,.88-2.59-.05-2.59-.05,0,0-1.3-9.12-.93-12.12Z"/><path class="cls-6" d="M57.48,179.03s-3.48-1.55-5.24-3c1.01,1.26,2.29,2.3,3.76,3.03,0,0,.93,7.46,.92,7.31l.26-7.37,.3,.02Z"/><path class="cls-43" d="M59.9,151.3l-.73,4.44-4.19-.2,.49-5.19,4.43,.95Z"/><path class="cls-43" d="M54.1,153.01s-2.91-.71-4.15,1.28c-1.24,1.99-.09,6.29-.09,6.29l4.24-7.57Z"/><path class="cls-42" d="M50.04,155.74c.38-1.2,2.46-3,4.07-2.73l1.09,.17c.19,.75,2.19,1.32,4.24,.86,.63,.16,1.18,.32,1.7,.48,1.47,.47,2.83,1.65,3.06,6.24,0,0,1.3,13.61,1.32,20.47-.84,.33-1.71,.59-2.61,.76-.09,0-.47-8.34-.56-8.32-.09,.02,0,8.39-.14,8.44-2.29,.32-4.61,.32-6.89,0-2.04-.27-3.99-.97-5.7-2.06,0,0,0-8.76,.63-13.09-.29-2.96-.36-4.93-.5-5.99-.36-2.92,.04-4.39,.3-5.22Z"/><path class="cls-45" d="M57.33,168.22s-4.07,.35-6.27-1.36c-.41,.26-.45,.6-.19,1.26,0,0,2.13,1.68,6.24,1.31,.18-.14,.31-.34,.35-.57,.04-.22,0-.45-.13-.64Z"/><path class="cls-43" d="M56.5,168.8c-.01,.07,0,.13,.03,.2,.03,.06,.08,.11,.14,.15,.06,.03,.13,.05,.2,.05,.07,0,.14-.03,.2-.07,.06-.04,.1-.1,.12-.16,.02-.06,.03-.13,.01-.2-.02-.07-.05-.12-.11-.17-.05-.04-.12-.07-.19-.09-.09-.01-.19,.01-.26,.07-.08,.05-.13,.13-.14,.22Z"/><path class="cls-43" d="M50.97,167.62c-.01,.09,.01,.18,.07,.25,.06,.07,.14,.12,.23,.14,.05,0,.09,0,.14,0,.04-.01,.09-.03,.12-.06s.07-.06,.09-.1,.04-.08,.05-.12c.01-.05,.02-.09,0-.14s-.03-.09-.05-.13c-.03-.04-.06-.07-.1-.1-.04-.03-.09-.04-.14-.05-.05,0-.1,0-.15,0-.05,.01-.09,.03-.13,.06-.04,.03-.07,.07-.09,.11-.02,.04-.04,.09-.04,.14Z"/><path class="cls-43" d="M59.68,152.65s.2-.05,.34,.21c.17,.47,.3,.96,.39,1.45,0,0-.88,.96-3.13,.7-2.25-.26-2.78-1.85-2.78-1.85,0,0,.29-1.28,.84-1.23l-.04,.45s.21,.48,1.57,.65c1.88,.23,2.81-.38,2.81-.38Z"/><path class="cls-37" d="M73.14,148l8.71,4.35-4.33,11.33-8.13-4.36,3.75-11.31Z"/><path class="cls-4" d="M73.14,148l8.71,4.35-4.33,11.33-8.13-4.36,3.75-11.31Z"/><path class="cls-37" d="M72.77,147.82l8.72,4.35-4.33,11.33-8.13-4.36,3.75-11.31Z"/><path class="cls-45" d="M73.27,148.96l7.31,3.65-3.84,9.73-6.82-3.65,3.35-9.73Z"/><path class="cls-7" d="M75.09,150.16l.14-.35c.08-.19,.69-.08,1.36,.26l1.28,.63c.68,.33,1.16,.76,1.08,.95l-.14,.35-3.72-1.84Z"/><path class="cls-37" d="M75.23,148.77c.05-.12,.31-.1,.59,.04l.51,.26s.31-.74,1.47-.23c1.16,.51,.9,1.38,.9,1.38l.54,.28c.29,.16,.5,.38,.47,.5l-.07,.22-4.49-2.24s.04-.1,.09-.22Z"/><path class="cls-42" d="M75.71,149.28c.42,.19,.58,.29,.46,.6-.12,.31-.26,.6-.26,.6l1.99,.99s.16-.43,.24-.6c.08-.17,.21-.25,.53-.09l.12-.12-3.13-1.52,.06,.14Z"/><path class="cls-37" d="M75,150.18l.14-.35c.08-.19,.69-.08,1.36,.26l1.29,.64c.67,.33,1.15,.75,1.08,.95l-.14,.35-3.72-1.84Z"/><path class="cls-43" d="M61.39,154.62c1.67,.48,2.68,.56,4.52,3.27,1.84,2.71,6.01,7.79,6.41,8.44,.28,.47,.44,.99,.47,1.53,.03,.54-.07,1.07-.29,1.57-.45,.77-1.53,.32-3.36-1.2-1.83-1.52-5.5-5.56-5.5-5.56-1.16-2.56-1.92-5.27-2.26-8.04Z"/><path class="cls-43" d="M71.94,169.8c1.54-.18,4.87-4.64,5.9-6.17,.81-1.24,1.88-2.31,3.13-3.15,1.63-1.16,1.39-2.93,.68-4.55-.25-.56-1.08-.2-1.08-.2l-.29,.77-.51,1.33c-.34,.31-.54,.41-.56,.32-.03-.09,.26-.89,.25-1.64,0-.9-.67-.31-.86,0-.27,.48-.5,.98-.7,1.49-.33,.8-.19,1.62-.6,2.17-.4,.55-5.77,5.47-5.77,5.47l.42,4.15Z"/><path class="cls-42" d="M61.14,154.5c.87,.14,1.72,.4,2.51,.78,1.32,.64,1.76,1.73,3.68,4.1,1.92,2.37,4.39,5.63,4.39,5.63l4.47-3.76c.13,.45,.39,.86,.75,1.18,.36,.32,.81,.53,1.3,.61-1.04,1.98-2.34,3.82-3.87,5.48-2.21,2.27-2.22,2.16-4.24,1.03-2.02-1.13-6.66-6.59-6.66-6.59,0,0-4.61-3.45-2.32-8.46Z"/><path class="cls-43" d="M62.99,145.85s1.1,1.59,.97,1.75c-.13,.16-.93,.29-.93,.29l-.04-2.04Z"/><path class="cls-42" d="M61.17,145.63c0-.25,.08-.49,.22-.7,.14-.21,.35-.37,.59-.46,.24-.09,.5-.12,.76-.07s.49,.17,.67,.34c.18,.18,.31,.4,.36,.64s.02,.5-.08,.72c-.1,.23-.27,.42-.49,.56-.22,.14-.47,.21-.73,.21-.35,0-.68-.13-.92-.37-.24-.23-.38-.55-.38-.88Zm.29,0c0,.19,.06,.38,.17,.54,.11,.16,.27,.29,.46,.36,.19,.08,.39,.1,.59,.06,.2-.04,.38-.13,.52-.27,.14-.14,.24-.31,.28-.5s.02-.39-.06-.57-.21-.33-.38-.44c-.17-.11-.37-.16-.57-.16-.27,0-.53,.1-.72,.28-.19,.18-.3,.43-.3,.69Z"/><path class="cls-43" d="M59.95,141.45c2.22,.45,2.86,1.38,3.07,4.75,.22,3.53-.16,4.63-.63,5.11-.33,.32-2.14,.38-3.06,.13-1.15-.3-3.76-1.2-4.96-2.95-1.43-2.09-1.8-4.91-.27-6.08,2.14-1.63,4.94-1.15,5.84-.97Z"/><path class="cls-42" d="M63.66,145.36l-3.94,.49,.16,.26,3.79-.47v-.29Z"/><path class="cls-39" d="M63.26,142.55l-.06,.06c-.43,.39-.98,.63-1.42,1-.49,.41-.84,.94-1.01,1.54-.15,.49-.21,1.07-.76,1.29,0,0-.35-1.31-1.5-1.14-1.15,.16-1.31,1.58-.58,2.43,.73,.86,1.41,.53,1.41,.53,0,0-.04,1.86-.9,2.92-.92,.19-1.88,.17-2.79-.07-1.11-.23-2.68-1.55-3.34-2.96-1.4-3-1.49-5.65,.49-6.45,.21-1.37,1.34-1.98,2.63-2.27,1.92-.42,3.72,.67,5.64,.26,.4-.08,.79-.22,1.19-.27,.04-.01,.09-.01,.14,0,.1,.05,.09,.18,.06,.28-.1,.37-.29,.7-.56,.98,.73,.04,1.46-.05,2.16-.26,.04,.39-.01,.78-.15,1.14-.14,.37-.36,.7-.64,.97Z"/><path class="cls-42" d="M52.76,142.17l-1.33-.75c.05-.08,.12-.16,.2-.21,.08-.06,.17-.1,.27-.12,.1-.03,.2-.03,.3-.02,.1,.01,.2,.05,.28,.1,.09,.05,.16,.12,.22,.19,.06,.08,.11,.17,.13,.26,.03,.09,.03,.19,.02,.29-.01,.1-.05,.19-.1,.27Z"/><path class="cls-42" d="M60.03,147.19l-.04-1.48c.19,.01,.38,.09,.51,.22,.14,.13,.21,.31,.22,.5,0,.19-.06,.37-.19,.51-.13,.14-.31,.23-.5,.25Z"/><path class="cls-44" d="M174.67,61.06l-6.9-4.54c-.56-.34-1.24-.36-1.81-.04-.52,.38-.84,1.03-.88,1.73,0,.64-.42,.88-.93,.54l-6.9-4.53c-.55-.41-.9-1.09-.94-1.84v-2.15c-.03-.75-.38-1.44-.93-1.84l-6.9-4.54c-.59-.34-1.28-.34-1.87,0l-11.34,7.46c-5.26,3.46-14.01-2.31-21.04,2.31-7.03,4.61-9.42,6.2-19.01,12.88-9.46,6.58-28.9,23.05-30.03,36.67,0,.75,.32,1.45,.88,1.84l17.42,11.47c.62,.38,1.31,.58,2.01,.59,11.15-.5,36.37-8.47,55.03-20.75,12.06-7.94,25.41-18.43,28.92-21.22,.56-.48,1.02-1.1,1.34-1.82l4.34-10.47c.26-.63,.05-1.39-.47-1.74h0Z"/><path class="cls-1" d="M146.62,43.83l-11.34,7.46c-5.26,3.46-14.01-2.31-21.04,2.31-7.03,4.61-9.42,6.2-19.01,12.88-9.46,6.58-28.9,23.05-30.03,36.67-.04,.62,.36,1.17,.91,1.22,.04,0,.08,0,.12,0,20.88-.44,47.07-13.21,56.78-19.6l19.29-12.71c7.01-4.61,15.78,1.16,21.04-2.31l11.34-7.46c.52-.34,.52-.89,0-1.23l-6.9-4.54c-.57-.34-1.24-.36-1.81-.04-.52,.38-.84,1.03-.88,1.73,0,.64-.42,.88-.93,.54l-6.9-4.52c-.55-.41-.9-1.09-.94-1.84v-2.15c-.03-.75-.38-1.44-.93-1.84l-6.9-4.54c-.58-.35-1.28-.35-1.87-.02h0Z"/><path class="cls-42" d="M156.33,52.37v-2.14c0-.37-.1-.73-.27-1.05l-3.23,2.11v4.61l3.78-2.49c-.17-.32-.27-.68-.28-1.05h0Z"/><path class="cls-42" d="M67.25,101.18c2.74-12.04,19.6-26.56,28.88-33.02,9.57-6.67,11.95-8.22,18.97-12.84,1.68-1.11,3.64-1.62,6.18-1.62,1.59,.03,3.18,.16,4.76,.38,1.51,.21,3.03,.33,4.55,.36,2.3,0,4.07-.46,5.56-1.45l10.48-6.9c.59-.34,1.28-.34,1.87,0l5.14,3.42c.55,.41,.9,1.09,.94,1.84v2.18c.04,.75,.38,1.44,.93,1.85l6.9,4.54c.56,.34,1.24,.36,1.81,.04,.52-.39,.84-1.03,.88-1.73,0-.64,.42-.88,.94-.54l5.19,3.39c.52,.34,.52,.89,0,1.23l-8.75,5.76c-.96,.62-2.16,.91-3.82,.91-1.4-.04-2.8-.16-4.19-.36-1.7-.23-3.41-.37-5.12-.4-3.17,0-5.68,.68-7.9,2.15l-19.29,12.71c-9.14,6.01-33.7,18.14-54.02,19.26-.43,.07-.83-.27-.89-.76-.02-.13,0-.26,.03-.39h0Z"/><path class="cls-42" d="M171.21,61.07l-5.19-3.39c-.51-.34-.94-.1-.94,.54-.03,.7-.36,1.35-.88,1.73-.57,.32-1.25,.3-1.81-.04l-6.9-4.54c-.55-.41-.9-1.1-.93-1.85v-2.18c-.04-.75-.38-1.43-.94-1.84l-5.14-3.39c-.3-.18-.64-.27-.98-.25l-1.01,7.17,19.15,12.94,5.58-3.67c.52-.35,.51-.9,0-1.24h0Z"/><path class="cls-1" d="M167.89,64.49l-5.41,3.57c-.94,.62-2.16,.9-3.82,.9-1.36-.03-2.72-.14-4.07-.33l-17.78-11.73,8.87-5.84c.59-.34,1.28-.34,1.87,0l20.35,13.43h0Z"/><path class="cls-27" d="M167.89,64.49l-5.41,3.57c-.94,.62-2.16,.9-3.82,.9-1.36-.03-2.72-.14-4.07-.33l-17.78-11.73,8.87-5.84c.59-.34,1.28-.34,1.87,0l20.35,13.43h0Z"/><path class="cls-44" d="M154.62,68.64l-.17-.02c-1.7-.24-3.41-.37-5.12-.4-3.17,0-5.68,.69-7.9,2.15l-19.28,12.69c-9.15,6.03-33.7,18.15-54.03,19.27-.17,.01-.33-.03-.48-.12,4.92-11.12,19.25-23.33,27.53-29.1,9.58-6.66,11.95-8.22,18.98-12.85,1.68-1.11,3.64-1.62,6.17-1.62,1.59,.03,3.18,.15,4.76,.36,1.51,.21,3.03,.33,4.55,.36,2.3,0,4.07-.46,5.55-1.45l1.59-1.06,17.84,11.78h0Z"/><g class="cls-40"><path class="cls-1" d="M70.93,96.4l-.24,.34,6.69,4.41,.59-.11-7.04-4.64h0Z"/><path class="cls-1" d="M71.7,102.03l.64-.08-3.45-2.27c-.07,.12-.14,.24-.2,.36l3.02,1.99h0Z"/><path class="cls-1" d="M75.71,90.32l-.28,.32,12.18,8.01,.52-.16-12.42-8.17Z"/><path class="cls-1" d="M73.24,93.26l-.26,.33,9.67,6.4,.54-.14-9.96-6.59Z"/><path class="cls-1" d="M81.15,84.66l-.32,.29,16.01,10.53,.48-.18-16.17-10.64Z"/><path class="cls-1" d="M78.35,87.44l-.29,.3,14.26,9.38,.5-.17-14.46-9.52Z"/><path class="cls-1" d="M87.08,79.34l-.32,.28,18.7,12.31,.45-.2-18.83-12.39Z"/><path class="cls-1" d="M84.05,81.96l-.32,.29,17.48,11.51,.46-.19-17.63-11.6Z"/><path class="cls-1" d="M93.47,74.31l-.36,.27,20.42,13.43,.42-.22-20.49-13.48Z"/><path class="cls-1" d="M90.22,76.78l-.35,.27,19.69,12.96,.44-.21-19.78-13.02h0Z"/><path class="cls-1" d="M100.28,69.56l-.37,.25,21.16,13.93c.13-.08,.26-.16,.38-.25l-21.18-13.94h0Z"/><path class="cls-1" d="M117.39,85.93l.4-.23-20.93-13.77-.37,.25,20.89,13.75h0Z"/><path class="cls-1" d="M107.18,64.86l-.38,.25,21.3,14.02,.38-.25-21.3-14.02Z"/><path class="cls-1" d="M103.72,67.2l-.37,.25,21.25,14,.38-.25-21.25-14.01h0Z"/></g><path class="cls-42" d="M83.5,116.46c.62,.38,1.31,.58,2.01,.59,11.15-.51,36.37-8.47,55.03-20.75,12.06-7.94,25.42-18.43,28.92-21.22,.56-.48,1.02-1.1,1.34-1.82l.86-2.06s-4.09,2.78-9.74,6.86c-4.37,3.15-9.71,6.84-15.38,10.65-5.67,3.81-12.96,7.89-16.52,9.9-15.54,8.74-36.66,15.48-48.37,15.91-.6,.02-1.59-.17-1.99-.58l3.83,2.52h0Z"/><path class="cls-2" d="M147.57,75.49c-1.04,.77-1.69,2.05-1.76,3.46,0,1.27,.79,1.79,1.76,1.16,1.04-.77,1.69-2.05,1.75-3.46,0-1.28-.79-1.79-1.75-1.16Z"/><path class="cls-2" d="M142.07,79.12c-1.04,.77-1.69,2.06-1.76,3.46,0,1.27,.79,1.79,1.76,1.16,1.03-.77,1.68-2.06,1.75-3.46,0-1.27-.78-1.79-1.75-1.16Z"/><path class="cls-2" d="M136.56,82.76c-1.04,.77-1.69,2.06-1.76,3.46,0,1.27,.79,1.79,1.76,1.16,1.03-.77,1.68-2.06,1.75-3.46,0-1.27-.77-1.79-1.75-1.16Z"/><path class="cls-1" d="M131.83,38.57l-18.66,13.11c-1.03,.75-1.87,1.78-2.45,3l-7.26,17.3-.06,.14-.05,.11c-1.37,3.27-.3,6.69,3.38,9.12,6.03,3.96,16.41,3.11,23.19-1.92l15.92-10.86c.54-.42,.87-1.12,.87-1.86l-.82-18.92c-.07-.75-.43-1.43-.99-1.84l-11.23-7.39c-.58-.34-1.28-.33-1.85,.03h0Z"/><path class="cls-2" d="M119.03,63l-.54,18.52c-.78,.09-1.57,.12-2.35,.09-3.03,0-5.83-.67-7.93-1.9l4.2-17.43c1.49,.59,3.06,.88,4.64,.85,.66,0,1.32-.05,1.98-.13h0Z"/><path class="cls-2" d="M106.5,78.47l4.14-17.22c-.16-.13-.32-.26-.46-.4-.28-.29-.5-.63-.66-1.02-2.31,5.23-5.13,12.53-5.17,12.6-.03,.07-.06,.14-.09,.2l-.03,.08c-.9,2.26,1.19,4.68,1.97,5.47l.08,.08c.13,.12,.21,.2,.21,.2Z"/><path class="cls-2" d="M130.39,76.44l-1.52,1.13c-1.95,1.45-6.05,3.39-8.28,3.73l.17-18.61c1.3-.27,2.55-.75,3.73-1.43,1.62-.88,3.9-2.27,4.81-2.89l1.1,18.07Z"/><path class="cls-44" d="M131.83,38.57c.58-.36,1.27-.37,1.85-.03l11.23,7.39c.51,.34,.5,.86-.03,1.16l-21.26,12.15c-3.63,2.03-8.8,2.2-11.54,.4-2.74-1.8-2.25-5.37,1.09-7.99l18.66-13.1h0Z"/><path class="cls-1" d="M131.83,38.57l-10.15,7.13,10.31-6.42c.47-.29,1.03-.31,1.51-.03l11.23,6.56-11.05-7.26c-.58-.34-1.28-.34-1.85,.01h0Z"/><path class="cls-1" d="M125.37,50.14l12.77-8.67-.57-.37-12.8,8.56,.61,.48Z"/><path class="cls-44" d="M140.79,56.96c-1.04,.77-1.69,2.06-1.75,3.46,0,1.27,.79,1.79,1.75,1.16,1.03-.77,1.69-2.06,1.75-3.46,0-1.27-.78-1.79-1.75-1.16Z"/><path class="cls-44" d="M135.28,60.6c-1.04,.77-1.68,2.05-1.75,3.46,0,1.27,.78,1.79,1.75,1.16,1.04-.77,1.69-2.06,1.75-3.46,0-1.27-.79-1.79-1.75-1.15Z"/><path class="cls-1" d="M124.76,50.14c-.02-.14-.02-.29,.02-.43,.05-.22,.26-.33,.49-.54l1.93-1.65c.8-.68,1.72-1.49,2.73-2.33l3.15-2.64,5.93-4.89,1.96-1.61,.55-.45,.14-.12s.1,.03,.1,.03c0,0,.03,.09,0,.11l-.14,.13-.53,.48-1.89,1.71-5.73,5.17-3.09,2.74c-.98,.87-1.91,1.67-2.71,2.36l-1.91,1.66c-.24,.19-.39,.4-.59,.38-.14,0-.27-.03-.39-.1h0Z"/><path class="cls-1" d="M142.07,35.5c0,.2-.14,.36-.32,.36s-.32-.16-.32-.36,.14-.36,.32-.36,.32,.16,.32,.36Z"/></svg>