<?xml version="1.0" encoding="UTF-8"?><svg id="Layer_1" xmlns="http://www.w3.org/2000/svg" viewBox="0 0 250 250"><defs><style>.cls-1{fill:#aabdbd;}.cls-2,.cls-3,.cls-4,.cls-5{fill:#fff;}.cls-6{opacity:.2;}.cls-6,.cls-7,.cls-8,.cls-9,.cls-10{fill:#273339;}.cls-6,.cls-3,.cls-4,.cls-5,.cls-8,.cls-9,.cls-10{isolation:isolate;}.cls-3,.cls-11,.cls-10{opacity:.3;}.cls-4{opacity:.5;}.cls-5,.cls-8{opacity:.1;}.cls-12{fill:#59898e;}.cls-13{fill:#f3f2ee;}.cls-14{fill:#d2e5e1;}.cls-9{opacity:.15;}.cls-15{fill:#f9f8f4;}.cls-16{fill:#72818c;}</style></defs><path class="cls-15" d="M209.57,119.42c-47-27.66-122.99-27.65-169.7,0-46.7,27.65-46.48,72.5,.55,100.16,47.03,27.66,123,27.66,169.71,0,46.71-27.66,46.46-72.5-.56-100.16Z"/><path class="cls-13" d="M152.02,117.04c1-.52,2.11-.79,3.24-.79s2.24,.27,3.24,.79c1.79,1.04,1.78,2.77,0,3.83-1,.52-2.11,.79-3.24,.79s-2.24-.27-3.24-.79c-1.81-1.06-1.8-2.77,0-3.83Z"/><path class="cls-13" d="M158.72,131.3c2.76-1.63,7.23-1.63,9.98,0,2.75,1.63,2.73,4.26-.04,5.89-2.77,1.63-7.23,1.62-9.98,0-2.75-1.62-2.73-4.26,.04-5.89Z"/><path class="cls-13" d="M145.8,126.97c.81-.42,1.71-.64,2.62-.64s1.81,.22,2.62,.64c1.44,.85,1.43,2.24,0,3.09-.81,.42-1.71,.64-2.62,.64s-1.81-.22-2.62-.64c-1.46-.85-1.46-2.22,0-3.09Z"/><path class="cls-13" d="M203.22,147.51c-11.33-6.52-29.63-6.52-40.9,0-11.27,6.52-11.2,17.09,.13,23.61,11.33,6.52,29.63,6.52,40.9,0,11.27-6.52,11.2-17.08-.13-23.61Z"/><path class="cls-13" d="M13.64,191.83c1.17-.6,2.46-.92,3.77-.92s2.6,.32,3.77,.92c2.07,1.23,2.04,3.22,0,4.45-1.17,.61-2.46,.92-3.77,.92s-2.6-.32-3.77-.92c-2.1-1.23-2.09-3.22,0-4.45Z"/><path class="cls-13" d="M30.88,169c-3.3-1.94-8.63-1.94-11.91,0-3.27,1.94-3.26,5.09,.04,7.03,3.3,1.94,8.63,1.94,11.91,0,3.28-1.94,3.26-5.09-.04-7.03Z"/><path class="cls-13" d="M35.06,202.53c2.55-1.49,6.64-1.49,9.17,0,2.53,1.49,2.51,3.91-.03,5.41-2.54,1.49-6.64,1.49-9.17,0-2.53-1.49-2.49-3.91,.03-5.41Z"/><path class="cls-13" d="M28.09,206.69c.95-.49,2-.75,3.07-.75s2.11,.26,3.06,.75c1.69,1,1.69,2.6,0,3.64-.95,.49-2,.74-3.06,.74s-2.11-.25-3.07-.74c-1.71-1.01-1.68-2.64,0-3.64Z"/><path class="cls-8" d="M193.35,212.06c1.13-.59,2.38-.89,3.65-.89s2.52,.31,3.65,.89c2.01,1.19,2,3.12,0,4.31-1.13,.58-2.38,.89-3.65,.89s-2.52-.31-3.65-.89c-2.04-1.19-2.03-3.12,0-4.31Z"/><path class="cls-8" d="M184.96,217.84c.76-.39,1.6-.6,2.45-.6s1.69,.21,2.45,.6c1.35,.8,1.34,2.08,0,2.89-.76,.4-1.6,.6-2.45,.6s-1.69-.21-2.45-.6c-1.36-.8-1.35-2.09,0-2.89Z"/><path class="cls-8" d="M224.87,198.97c-3.47-2.05-9.09-2.05-12.55,0-3.46,2.04-3.44,5.36,.04,7.41,3.48,2.05,9.1,2.05,12.55,0,3.45-2.04,3.44-5.36-.04-7.41Z"/><path class="cls-13" d="M150.35,152.11l-93.03,55.09-5.92-3.48,93.04-55.09,5.91,3.48Z"/><path class="cls-14" d="M119.34,11.23l-5.62-1.56L22.87,63.12l28.52,140.6,5.61,1.56,90.85-53.44L119.34,11.23Z"/><path class="cls-4" d="M119.34,11.23l-5.62-1.56L22.87,63.12l28.52,140.6,5.61,1.56,90.85-53.44L119.34,11.23Z"/><path class="cls-8" d="M22.87,63.12l28.52,140.6,5.61,1.56L28.49,64.68l-5.61-1.56Z"/><path class="cls-3" d="M119.34,11.23l-5.62-1.56L22.87,63.12l5.61,1.56L119.34,11.23Z"/><path class="cls-12" d="M100.23,161.16l1.45-.85c.36-.26,.64-.61,.8-1.03,.16-.41,.2-.87,.12-1.31l-3.94,2.32c.18,.91,.88,1.29,1.57,.86Z"/><path class="cls-2" d="M79.78,60.7c.11,.55,.55,.8,.99,.55,.23-.16,.4-.39,.5-.65,.1-.26,.13-.55,.08-.82l-2.77-13.65c-.11-.56-.56-.8-.99-.52-.22,.16-.4,.38-.5,.64-.1,.26-.13,.54-.08,.82l2.77,13.63Z"/><path class="cls-2" d="M67.35,73.79c.1,.11,.23,.18,.37,.2,.14,.02,.29-.01,.41-.09,.14-.09,.27-.22,.36-.36,.16-.23,.25-.5,.25-.78s-.09-.55-.25-.78l-7.71-8.67c-.1-.11-.23-.18-.37-.2s-.29,.02-.41,.1c-.15,.09-.27,.21-.36,.36-.16,.23-.24,.5-.24,.78s.08,.55,.24,.78l7.71,8.67Z"/><path class="cls-2" d="M49.74,91.21l10.6,1.41c.15,.02,.29-.02,.42-.09,.15-.1,.28-.23,.38-.39,.1-.15,.17-.33,.2-.51,.12-.6-.14-1.14-.57-1.2l-10.6-1.4c-.15-.02-.29,.01-.42,.09-.15,.1-.28,.23-.38,.39-.1,.15-.16,.33-.19,.51-.12,.6,.13,1.15,.56,1.2Z"/><path class="cls-2" d="M61.23,110.67c-.11-.55-.55-.8-.98-.52l-10.64,6.25c-.23,.16-.4,.38-.5,.64-.1,.26-.13,.54-.07,.82,.11,.55,.55,.8,.99,.55l10.64-6.25c.23-.16,.41-.39,.51-.66,.1-.26,.12-.56,.06-.83h0Z"/><path class="cls-2" d="M67.43,125.41c-.15,.09-.27,.21-.37,.36l-7.83,12.25c-.15,.23-.24,.49-.24,.77s.08,.54,.24,.77c.1,.11,.23,.18,.37,.2s.29-.01,.41-.09c.14-.09,.27-.22,.36-.36l7.84-12.25c.15-.22,.24-.49,.24-.76s-.08-.54-.24-.76c-.09-.11-.23-.19-.37-.21-.14-.02-.29,.02-.41,.1h0Z"/><path class="cls-2" d="M107.85,64.82c.15-.09,.27-.21,.36-.36l7.83-12.25c.16-.23,.24-.5,.24-.78s-.08-.55-.24-.78c-.1-.11-.23-.18-.37-.2-.14-.02-.29,.02-.41,.1-.15,.09-.27,.22-.36,.36l-7.83,12.24c-.16,.23-.24,.5-.24,.78s.08,.55,.24,.78c.1,.11,.23,.18,.37,.2,.14,.02,.29-.02,.41-.1h0Z"/><path class="cls-2" d="M94.9,57.99c.15,.02,.29-.02,.42-.09,.15-.1,.28-.24,.38-.39,.1-.15,.16-.33,.19-.51l2.93-14.95c.12-.6-.14-1.14-.57-1.2-.15-.01-.29,.02-.42,.1-.15,.1-.28,.23-.38,.39-.1,.16-.16,.33-.19,.51l-2.9,14.95c-.14,.6,.11,1.14,.54,1.2Z"/><path class="cls-2" d="M125.54,99.01l-10.6-1.41c-.15-.01-.29,.02-.41,.1-.15,.1-.28,.23-.38,.39-.1,.16-.16,.33-.19,.51-.12,.6,.13,1.14,.56,1.2l10.6,1.41c.15,.02,.29-.02,.41-.09,.15-.1,.28-.23,.38-.39,.1-.15,.17-.33,.2-.51,.12-.61-.13-1.15-.57-1.2Z"/><path class="cls-12" d="M93.62,157.81c.55,2.7,2.7,3.88,4.8,2.64l.24-.14,3.94-2.32,.24-.14c2.1-1.24,3.37-4.43,2.82-7.12l-12.04,7.08Z"/><path class="cls-9" d="M93.62,157.81c.55,2.7,2.7,3.88,4.8,2.64l.24-.14,3.94-2.32,.24-.14c2.1-1.24,3.37-4.43,2.82-7.12l-12.04,7.08Z"/><path class="cls-2" d="M114.05,79.57c.11,.56,.56,.8,.99,.55l10.64-6.25c.22-.16,.4-.39,.5-.65,.1-.26,.13-.55,.07-.82-.11-.55-.55-.8-.99-.52l-10.63,6.25c-.22,.16-.4,.38-.5,.63-.1,.26-.13,.54-.08,.81h0Z"/><path class="cls-12" d="M107.52,148.15l-.88-4.33-1.03,.61-14.23,8.37-1.04,.61,.88,4.33,1.04-.61,14.23-8.38,1.03-.61Z"/><path class="cls-12" d="M92.26,157.13l.27,1.32,1.1-.65,12.04-7.08,1.1-.65-.27-1.32-14.23,8.38Z"/><path class="cls-12" d="M91.12,151.48l.27,1.32,14.23-8.38-.27-1.32-14.23,8.38Z"/><path class="cls-12" d="M89.96,145.83l.27,1.32,14.23-8.37-.27-1.32-14.23,8.38Z"/><g class="cls-11"><path class="cls-7" d="M92.26,157.13l.27,1.32,1.1-.65,12.04-7.08,1.1-.65-.27-1.32-14.23,8.38Z"/><path class="cls-7" d="M91.11,151.48l.27,1.32,14.23-8.38-.27-1.32-14.23,8.38Z"/><path class="cls-7" d="M89.96,145.83l.27,1.32,14.23-8.37-.27-1.32-14.23,8.38Z"/></g><path class="cls-12" d="M91.11,151.48l14.23-8.38,1.03-.6-.88-4.33-1.03,.61-14.23,8.37-1.04,.61,.88,4.33,1.04-.61Z"/><path class="cls-2" d="M93.08,139.16l-2.62-12.87c-.45-2.52-1.58-4.86-3.26-6.77l-3.67-3.96c-.97-1.1-1.62-2.45-1.87-3.9l-.92-4.64c-.1-.51-.05-1.04,.14-1.53,.19-.49,.52-.9,.94-1.2,.18-.11,.38-.17,.59-.19,.13,0,.26,.02,.38,.07,.15,.05,.28,.13,.4,.23,.24,.24,.4,.56,.46,.9l1.02,4.98c.05,.31,.16,.61,.33,.87,.17,.26,.4,.48,.66,.65,.24,.13,.5,.19,.77,.18,.3-.02,.59-.1,.84-.26,1.14-.67,1.82-2.41,1.53-3.86l-1.5-7.34c-.09-.45-.05-.92,.12-1.35,.17-.43,.46-.79,.83-1.06,.18-.12,.4-.18,.62-.16,.22,.02,.43,.11,.59,.27,.21,.21,.35,.49,.4,.79l1.49,7.35c.22,1.1,.93,1.73,1.76,1.7,.21-.01,.42-.07,.61-.16,.08-.03,.16-.07,.24-.11,.14-.08,.28-.18,.4-.3,.46-.45,.81-1.01,1-1.64,.2-.62,.24-1.29,.12-1.93l-.8-3.95-.21-1.04c-.03-.13-.04-.26-.05-.4-.03-.46,.06-.91,.26-1.32s.49-.76,.86-1.02c.21-.14,.46-.2,.71-.18,.25,.02,.48,.13,.67,.3,.11,.11,.2,.24,.27,.38,.09,.16,.15,.34,.19,.52l.19,.95,.74,3.64c.12,.59,.19,1.19,.21,1.79,0,.02,0,.03,0,.05,.03,.85-.02,1.71-.16,2.55-.04,.21-.07,.43-.12,.65l-1.46,6.97c-.08,.37-.14,.74-.2,1.12-.23,1.46-.32,2.93-.27,4.41v.16c.03,.63,.09,1.26,.17,1.88,.05,.39,.12,.78,.19,1.16l2.62,12.9,.34-.2,.44-.26-2.61-12.88c-.26-1.31-.39-2.65-.36-3.99,.02-1.4,.17-2.79,.46-4.16l1.46-6.97c.2-.94,.3-1.9,.31-2.87,.02-.92-.07-1.84-.25-2.74l-.93-4.61c-.09-.52-.34-1-.7-1.37h0c-.28-.27-.64-.43-1.02-.46-.38-.03-.76,.07-1.08,.28-1.24,.73-1.98,2.6-1.65,4.19l1.02,4.98c.09,.45,.04,.92-.13,1.35-.17,.43-.46,.79-.83,1.06-.15,.1-.33,.15-.51,.16-.22,0-.44-.07-.62-.2-.18-.13-.31-.32-.38-.54-.04-.1-.07-.2-.09-.31l-1.49-7.35c0-.07-.03-.13-.05-.19-.06-.23-.15-.46-.28-.66l-.08-.12c-.07-.1-.16-.2-.25-.29h0c-.2-.19-.44-.33-.7-.39-.07-.02-.13-.03-.2-.03-.07,0-.13,0-.2,0-.07,0-.14,0-.21,0l-.21,.05c-.15,.04-.3,.11-.43,.19-.14,.08-.28,.18-.4,.3-.46,.45-.81,1.02-1,1.64-.2,.62-.24,1.29-.12,1.93l1.49,7.35c.06,.35,.05,.7-.04,1.04-.08,.34-.23,.66-.44,.93-.13,.17-.29,.31-.48,.42-.15,.1-.33,.15-.51,.17-.28,0-.54-.12-.74-.31-.2-.19-.33-.45-.35-.73l-1.02-4.98c-.1-.58-.4-1.11-.84-1.49l-.15-.1-.08-.05c-.18-.1-.38-.16-.58-.19-.09,0-.17,0-.26,0-.32,.02-.64,.12-.91,.29-1.24,.72-1.98,2.6-1.65,4.16l.93,4.6c.22,1.16,.65,2.26,1.27,3.26,.15,.23,.3,.45,.46,.66,.16,.21,.24,.29,.36,.43l3.67,3.96c.96,1.05,1.71,2.28,2.23,3.61,.35,.87,.62,1.78,.8,2.7l2.58,12.91,.59-.35,.18-.11Z"/><path class="cls-12" d="M100.11,135.02l-.44,.26-6.59,3.87-.19,.11-4.84,2.85,.88,4.33,1.04-.61,14.23-8.38,1.04-.61-.88-4.32-4.25,2.5Z"/><path class="cls-1" d="M96.71,122.58c-.08-.38-.14-.77-.19-1.16-.09-.61-.14-1.24-.17-1.88v-.16c-.05-1.47,.04-2.95,.27-4.41,.06-.38,.13-.75,.2-1.12l1.46-6.97c.05-.21,.08-.43,.12-.65,.14-.84,.19-1.7,.16-2.55,0-.02,0-.03,0-.05-.02-.6-.09-1.2-.21-1.79l-.74-3.64-.19-.95c-.04-.18-.1-.36-.19-.52-.07-.14-.16-.27-.27-.38-.18-.17-.42-.28-.67-.3-.25-.02-.5,.04-.71,.18-.37,.26-.67,.61-.86,1.02-.2,.41-.29,.86-.26,1.32,0,.13,.02,.27,.05,.4l.21,1.04,.8,3.95c.12,.64,.08,1.31-.12,1.93-.2,.62-.54,1.19-1,1.64-.12,.11-.26,.21-.4,.3-.08,.04-.16,.08-.24,.11-.19,.09-.4,.14-.61,.16-.82,.04-1.53-.6-1.76-1.7l-1.49-7.35c-.05-.3-.19-.58-.4-.79-.16-.15-.37-.25-.59-.27-.22-.02-.44,.04-.62,.16-.37,.26-.66,.63-.83,1.06-.17,.43-.21,.9-.12,1.35l1.49,7.35c.3,1.46-.38,3.19-1.53,3.86-.26,.15-.55,.24-.84,.26-.27,.01-.53-.05-.77-.18-.26-.16-.49-.39-.66-.65-.17-.26-.28-.56-.33-.87l-1.02-4.98c-.06-.34-.22-.66-.46-.9-.11-.11-.25-.19-.4-.23-.12-.05-.25-.07-.38-.07-.21,.01-.41,.08-.59,.19-.42,.3-.75,.71-.94,1.2-.19,.48-.24,1.01-.14,1.53l.93,4.61c.26,1.45,.91,2.8,1.87,3.9l3.66,3.96c1.67,1.91,2.8,4.25,3.25,6.77l2.62,12.9,6.25-3.68-2.6-12.93Z"/><path class="cls-1" d="M81.42,64.42l-.36,.21c-12.54,7.65-20.25,26.81-17.37,43.2,1.63,9.26,6.22,15.81,12.15,18.76,3.12,1.56,5.57,4.63,6.77,8.85l.07,.27c.92,3.24,2.87,5.56,5.38,6.41l4.24-2.5-2.62-12.9c-.19-.92-.45-1.83-.8-2.7-.52-1.33-1.28-2.56-2.23-3.61l-3.67-3.96c-.12-.14-.25-.28-.36-.43-.12-.14-.31-.43-.46-.65-.61-1-1.04-2.11-1.27-3.26l-.93-4.6c-.32-1.56,.42-3.47,1.66-4.16,.28-.17,.59-.27,.91-.29,.09,0,.17,0,.26,0,.2,.03,.4,.09,.58,.19l.08,.05,.15,.1c.45,.38,.75,.91,.84,1.49l1.02,4.98c.03,.28,.15,.54,.35,.73,.2,.19,.46,.3,.74,.31,.18-.01,.36-.07,.51-.17,.18-.11,.34-.25,.47-.42,.21-.28,.36-.59,.44-.93,.09-.34,.1-.7,.04-1.04l-1.49-7.35c-.12-.64-.08-1.31,.12-1.93,.2-.62,.54-1.19,1-1.64,.12-.11,.26-.21,.4-.3,.13-.08,.28-.15,.43-.19l.21-.05c.07,0,.14,0,.21,0,.07,0,.13,0,.2,0,.07,0,.13,.02,.2,.03,.26,.06,.51,.2,.7,.39,.09,.09,.17,.18,.25,.29l.08,.12c.12,.21,.22,.43,.28,.66,0,.06,.04,.12,.05,.19l1.49,7.35c.02,.11,.05,.21,.09,.31,.06,.22,.2,.41,.38,.54,.18,.13,.4,.2,.62,.2,.18-.01,.36-.07,.51-.16,.37-.26,.66-.63,.83-1.06s.21-.89,.13-1.35l-1.02-4.98c-.32-1.56,.42-3.46,1.66-4.19,.32-.22,.7-.32,1.08-.28,.38,.03,.74,.19,1.02,.46,.36,.37,.61,.85,.7,1.37l.93,4.61c.18,.9,.26,1.82,.25,2.74-.01,.96-.12,1.93-.31,2.87l-1.46,6.97c-.29,1.37-.44,2.76-.46,4.16-.02,1.34,.1,2.68,.36,3.99l2.62,12.9,4.24-2.5c1.66-3.29,2.33-7.01,1.9-10.69l-.03-.3c-.55-4.71,.14-9.48,2.01-13.82,3.58-8.33,4.87-17.99,3.07-26.82-3.36-16.82-16.74-24.2-29.84-16.49Z"/><path class="cls-12" d="M123.98,89.74c-1.16-.92-2.56-1.47-4.02-1.57-1.47-.1-2.93,.24-4.2,.99-1.25,.79-2.27,1.89-2.97,3.22-.69,1.32-1.03,2.8-.97,4.3,.02,.99,.23,1.97,.63,2.88,.4,.91,.97,1.72,1.69,2.39,.73,.66,1.62,1.1,2.58,1.28,.96,.18,1.95,.08,2.86-.27-.53-.03-1.04-.2-1.49-.5-.45-.29-.81-.7-1.06-1.18-.22-.46-.31-.97-.26-1.47,.04-.51,.23-.99,.52-1.4,1.1-1.49,3.29-1.45,4.92-2.3,2.15-1.11,3.62-4.8,1.77-6.37Z"/><path class="cls-13" d="M123.98,92.89c-.52,.15-1.09,.09-1.57-.17-.48-.26-.84-.71-1-1.24-.16-.53-.11-1.11,.14-1.6,.25-.49,.68-.87,1.2-1.04l27.07-9.29,1.67,5.51-27.52,7.83Z"/><path class="cls-12" d="M232.69,56.58c-.1-.33-.32-.61-.62-.78-.3-.17-.65-.21-.97-.12l-83.34,23.72c-.46,.13-.89,.35-1.26,.66-.37,.3-.68,.68-.91,1.1-.23,.43-.37,.9-.42,1.38-.05,.48,0,.97,.14,1.44,.14,.46,.37,.9,.68,1.27,.31,.37,.68,.68,1.11,.9,.43,.22,.89,.35,1.36,.39,.48,.04,.95-.03,1.41-.18l82-28.13c.32-.11,.59-.35,.74-.65,.15-.31,.18-.67,.08-1h0Z"/><path class="cls-10" d="M232.69,56.58c-.04-.14-.1-.26-.19-.37-.01,.27-.1,.53-.26,.74-.16,.21-.38,.37-.63,.45l-82.32,27.14c-.76,.25-1.58,.23-2.33-.05-.75-.28-1.39-.81-1.8-1.51,0,.34,.06,.67,.15,.99,.14,.46,.37,.9,.68,1.27,.31,.37,.68,.68,1.11,.9,.42,.22,.89,.35,1.36,.39s.95-.03,1.41-.18l82-28.13c.32-.11,.58-.34,.74-.65,.15-.31,.19-.66,.09-.99h0Z"/><path class="cls-14" d="M112.59,97.56c.18,.1,.39,.14,.59,.12,.2-.02,.4-.1,.55-.24,.44-.44,.29-1.28,.77-1.67,.22-.11,.46-.17,.7-.16,.24,.01,.48,.09,.68,.23,.4,.28,.89,.41,1.37,.36,.51-.14,.8-.7,1.15-1.12,.21-.28,.5-.5,.82-.64,.32-.14,.67-.19,1.02-.15,.35,.06,.66,.26,.87,.55,.21,.29,.29,.66,.23,1.01-.1,.36-.33,.66-.65,.84-1.29,.39-2.63,.67-3.42,1.73-.3,.41-.48,.89-.52,1.4s.04,1.02,.26,1.47c.25,.48,.61,.88,1.06,1.18,.45,.29,.96,.46,1.49,.5-.91,.35-1.9,.45-2.86,.27-.96-.18-1.85-.62-2.58-1.28-.7-.66-1.27-1.46-1.67-2.35-.4-.89-.61-1.85-.64-2.82,.18,.32,.45,.58,.77,.77Z"/><path class="cls-8" d="M112.59,97.56c.18,.1,.39,.14,.59,.12,.2-.02,.4-.1,.55-.24,.44-.44,.29-1.28,.77-1.67,.22-.11,.46-.17,.7-.16,.24,.01,.48,.09,.68,.23,.4,.28,.89,.41,1.37,.36,.51-.14,.8-.7,1.15-1.12,.21-.28,.5-.5,.82-.64,.32-.14,.67-.19,1.02-.15,.35,.06,.66,.26,.87,.55,.21,.29,.29,.66,.23,1.01-.1,.36-.33,.66-.65,.84-1.29,.39-2.63,.67-3.42,1.73-.3,.41-.48,.89-.52,1.4s.04,1.02,.26,1.47c.25,.48,.61,.88,1.06,1.18,.45,.29,.96,.46,1.49,.5-.91,.35-1.9,.45-2.86,.27-.96-.18-1.85-.62-2.58-1.28-.7-.66-1.27-1.46-1.67-2.35-.4-.89-.61-1.85-.64-2.82,.18,.32,.45,.58,.77,.77Z"/><path class="cls-16" d="M199.1,147.76c1.06-.23,2.05-.7,2.91-1.36,.86-.67,1.57-1.51,2.08-2.48-4.3-2.06-5,3.85-5,3.85Z"/><path d="M199.1,147.76c1.06-.23,2.05-.7,2.91-1.36,.86-.67,1.57-1.51,2.08-2.48-4.3-2.06-5,3.85-5,3.85Z"/><path class="cls-2" d="M199.86,146.21l2.22,3.57,3.4-2.41-1.61-3.73c-2.59,0-4.01,2.57-4.01,2.57Z"/><path class="cls-7" d="M205.13,153.93c0-3.05,2.04-4.56,3-4.07l-.51-.52c-.68,.03-1.33,.32-1.82,.81-.66,.72-1.08,1.63-1.19,2.6-.11,.97-.15,1.95-.13,2.92,.06,1.04-.05,2.08-.32,3.08-.82,.15-1.67,.11-2.48-.11-.81-.22-1.56-.62-2.2-1.16-.05,.25-.06,.5-.04,.76,.67,.59,1.46,1.01,2.32,1.21s1.75,.19,2.61-.04c1.11-1.01,.75-2.89,.75-5.49Z"/><path class="cls-16" d="M204.15,158.78c.27-1,.38-2.04,.32-3.08-.02-.98,.02-1.95,.13-2.92,.12-.97,.53-1.89,1.19-2.6,.49-.49,1.13-.78,1.82-.81-.7-.69-1.37-1.41-2.01-2.16-.82,.02-1.61,.28-2.28,.75-.67,.47-1.2,1.13-1.51,1.9,.43,.59,.76,1.24,.99,1.93l-.26,3.64c-.4-.08-.81-.07-1.21,.05-.39,.11-.75,.32-1.05,.6-.42,.38-.7,.9-.8,1.46,.64,.54,1.4,.94,2.2,1.15,.81,.21,1.65,.25,2.48,.1h0Z"/><path d="M204.15,158.78c.27-1,.38-2.04,.32-3.08-.02-.98,.02-1.95,.13-2.92,.12-.97,.53-1.89,1.19-2.6,.49-.49,1.13-.78,1.82-.81-.7-.69-1.37-1.41-2.01-2.16-.82,.02-1.61,.28-2.28,.75-.67,.47-1.2,1.13-1.51,1.9,.43,.59,.76,1.24,.99,1.93l-.26,3.64c-.4-.08-.81-.07-1.21,.05-.39,.11-.75,.32-1.05,.6-.42,.38-.7,.9-.8,1.46,.64,.54,1.4,.94,2.2,1.15,.81,.21,1.65,.25,2.48,.1h0Z"/><path class="cls-16" d="M208.14,149.87c-.95-.49-3,1.01-3,4.07,0,2.6,.36,4.48-.77,5.5l.1-.03c1.01-.41,1.98-.91,2.89-1.51,.21-.12,.39-.3,.51-.52,.12-.22,.17-.47,.15-.72-.09-.99-.03-1.99,.17-2.96,.14-.67,.41-1.3,.51-1.97,.07-.33,.05-.68-.04-1-.1-.33-.27-.62-.51-.86h0Z"/><path d="M208.14,149.87c-.95-.49-3,1.01-3,4.07,0,2.6,.36,4.48-.77,5.5l.1-.03c1.01-.41,1.98-.91,2.89-1.51,.21-.12,.39-.3,.51-.52,.12-.22,.17-.47,.15-.72-.09-.99-.03-1.99,.17-2.96,.14-.67,.41-1.3,.51-1.97,.07-.33,.05-.68-.04-1-.1-.33-.27-.62-.51-.86h0Z"/><path class="cls-5" d="M208.14,149.87c-.95-.49-3,1.01-3,4.07,0,2.6,.36,4.48-.77,5.5l.1-.03c1.01-.41,1.98-.91,2.89-1.51,.21-.12,.39-.3,.51-.52,.12-.22,.17-.47,.15-.72-.09-.99-.03-1.99,.17-2.96,.14-.67,.41-1.3,.51-1.97,.07-.33,.05-.68-.04-1-.1-.33-.27-.62-.51-.86h0Z"/><path class="cls-7" d="M180.17,160.44c-.29,.92-1.28,1.45-2.23,1.53-.95,0-1.9-.12-2.81-.36-2.1-.39-4.11,0-6.2-.06-.69,0-1.37-.07-2.04-.22-.67-.16-1.28-.52-1.75-1.04-.26-.32-.44-.7-.51-1.11-.04,.31-.02,.62,.07,.93s.24,.58,.44,.81c.46,.52,1.07,.88,1.75,1.04,.67,.16,1.36,.23,2.04,.22,2.09,.05,4.09-.33,6.2,.06,.92,.25,1.86,.37,2.81,.37,.95-.08,1.94-.6,2.23-1.53,.09-.32,.12-.65,.08-.98-.01,.12-.04,.24-.08,.36Z"/><path class="cls-16" d="M180.12,158.67c-.13-.65-.26-1.29-.39-1.94-.05-.35-.15-.68-.32-.99-.08-.16-.2-.29-.35-.38-.15-.09-.32-.14-.49-.14-1.15-.15-2.76-.58-3.71,.09-1.5,1.05-3.29,1.58-5.11,1.51-.94-.12-1.89-.15-2.84-.12-.94,.12-1.92,.65-2.2,1.56-.08,.27-.1,.56-.05,.84,.07,.41,.25,.79,.51,1.11,.46,.52,1.07,.88,1.75,1.04,.67,.16,1.36,.23,2.04,.22,2.09,.05,4.09-.33,6.2,.06,.92,.24,1.86,.37,2.81,.36,.95-.08,1.94-.6,2.23-1.52,.04-.12,.06-.24,.08-.36,.01-.46-.04-.92-.16-1.37h0Z"/><path d="M180.12,158.67c-.13-.65-.26-1.29-.39-1.94-.05-.35-.15-.68-.32-.99-.08-.16-.2-.29-.35-.38-.15-.09-.32-.14-.49-.14-1.15-.15-2.76-.58-3.71,.09-1.5,1.05-3.29,1.58-5.11,1.51-.94-.12-1.89-.15-2.84-.12-.94,.12-1.92,.65-2.2,1.56-.08,.27-.1,.56-.05,.84,.07,.41,.25,.79,.51,1.11,.46,.52,1.07,.88,1.75,1.04,.67,.16,1.36,.23,2.04,.22,2.09,.05,4.09-.33,6.2,.06,.92,.24,1.86,.37,2.81,.36,.95-.08,1.94-.6,2.23-1.52,.04-.12,.06-.24,.08-.36,.01-.46-.04-.92-.16-1.37h0Z"/><path class="cls-2" d="M174.55,152.62l-.04,3.22c-.01,.26,.07,.51,.25,.71,.17,.19,.41,.31,.66,.33,.83,.06,1.67,.05,2.5-.03,.34-.03,.65-.19,.88-.43,.23-.25,.37-.57,.39-.91l.06-2.56-4.7-.33Z"/><path class="cls-12" d="M180.27,153.52c-1.16,.53-2.43,.74-3.7,.61-.97-.15-2.27-.45-2.93-1.19,.2-9.4-.06-21.78-.14-25.34-.01-.68,0-1.35,.06-2.02l2.02-23.5,19.41-1.79c1.6,4.77,1.53,24.46,1.4,26.1,4.85,4.74,5.56,11.72,7.69,17.52-2.17-.15-5,3.85-5,3.85l-10.22-17.9c-.46-.82-.78-1.71-.94-2.64-.57-3.37-1.96-11.74-2.1-13.53-1.6,7.59-4.17,15.76-4.17,15.76,1.79,7.77-.91,17.39-1.38,24.07Z"/><path class="cls-10" d="M191.68,106.32c-1.5,.9-3.2,1.41-4.94,1.47,0,0-.29,2.73-.95,5.89,.06,.74,.33,2.6,.67,4.79,.22-2.68,.64-6.77,1.37-9.49,0,0,2.69-.81,3.86-2.66Z"/><path class="cls-14" d="M175.57,82.69v19.38c11.2,4.78,18.46,.46,19.44-1.79-.51-7.89,1.12-17.1,1.56-21,.46-4.1,1.85-8.85-6.97-7.49l-6.38,.63-3.22,.8-4.45,9.47Z"/><path class="cls-7" d="M179.49,57.34c-1.36-.52-2.69-2.51-1.33-3.39,.38-.29,1.49,.05,2.38,0-.78-.72-.97-1.56-.58-1.85s1.44,.75,3.34,.56c1.9-.19,8.45-2.35,9.27,2.53,.09-.17,.22-.31,.37-.42,.15-.11,.33-.18,.51-.21,.18-.03,.37-.02,.55,.03,.18,.05,.35,.14,.49,.27l-1.36,.98c2.02,2.89,1.36,6.25-3.53,12.86-.57,.7-1.37,1.17-2.25,1.3-.88,.13-1.78-.08-2.52-.59l-2.02-5.05-1.97-2.44-1.35-4.57Z"/><path class="cls-2" d="M179.04,61.39l-1.32,2.33,1.44,.54-.12-2.87Z"/><path class="cls-13" d="M179.49,57.34c-.87,3.22-1,6.61-.38,9.89,.07,.56,.28,1.1,.61,1.56,.43,.47,1.03,.76,1.67,.78,.63,.03,1.26-.04,1.87-.18v3.03c2.26,.52,4.6,.75,6.35-.63v-3.12c-1.27,.42-2.62,.5-3.94,.26-1.56-.86-1.87-3.76-1.65-4.52,.14,.19,.33,.33,.54,.4,.22,.08,.45,.09,.67,.03,.22-.06,.42-.16,.6-.3,.18-.14,.32-.32,.43-.52,.21-.4,.34-.84,.38-1.29,.11-.54,.03-1.11-.23-1.59-.2-.27-.47-.48-.79-.59-.32-.11-.66-.12-.98-.02-.64,.21-1.17,.66-1.49,1.26-.1,.19-.19,.38-.26,.58-.03,.08-.08,.14-.15,.19-.07,.04-.15,.06-.23,.05-.08-.01-.15-.05-.21-.11-.05-.06-.09-.14-.1-.22-.08-.87,.07-1.75,.45-2.53-.26-.03-.51-.11-.73-.25-.22-.14-.41-.32-.55-.55-.15-.21-.25-.44-.29-.7-.04-.25-.03-.51,.04-.76-.55,.04-1.11-.01-1.64-.16h0Z"/><path class="cls-13" d="M169.01,84.94l-2.32,4.71c-1.46-.65-6.3-1.18-8.98-2.91-1.19-2.35-2.01-2.93-2.39-3.61-.22-.42-.4-.85-.55-1.3-.05-.13-.14-.25-.26-.32-.12-.07-.26-.09-.4-.07-.13,.02-.26,.09-.34,.2-.09,.11-.14,.24-.14,.38,.07,.79,.26,1.57,.56,2.31-1.21-.83-2.23-1.91-2.99-3.17-.09-.14-.2-.25-.33-.34-.13-.09-.28-.15-.44-.18-.16-.03-.32-.02-.47,.01-.16,.04-.3,.11-.43,.21l-.29,.22c-.27,.21-.5,.49-.64,.8-.15,.32-.22,.66-.21,1.01l.04,.98c.02,.45,.12,.89,.31,1.3s.45,.77,.77,1.07l.67,.61c.75,.69,1.57,1.3,2.45,1.8l2.04,1.16c4.74,3.5,8.72,5.39,12.32,6.08,.45,.09,.91,.06,1.35-.08,.44-.14,.83-.39,1.15-.73,1.69-1.86,3.22-3.88,4.55-6.02l-5.03-4.13Z"/><path class="cls-6" d="M165.58,91.5c.29-.67,.66-1.29,1.11-1.86-.35-.14-.71-.26-1.08-.34-.28,.7-.29,1.49-.04,2.2h0Z"/><path class="cls-14" d="M180.04,73.22c-5.24,.41-7.87,2.97-11.8,12.42,.62,1.21,1.54,2.22,2.67,2.95,1.13,.73,2.42,1.15,3.76,1.21,2.51-4.16,5.45-7.72,6.85-11.04,1.4-3.32-1.48-5.55-1.48-5.55Z"/><path class="cls-12" d="M153.1,155.95c-.45-.62-.96-1.14-1.53-1.56,.57,.42,1.09,.94,1.53,1.56h0Z"/><path class="cls-12" d="M137.77,154.39c-.18,.16-.35,.34-.51,.52,.17-.18,.33-.36,.51-.52Z"/><path class="cls-12" d="M135.73,156.47c-.2,.16-.37,.34-.51,.52,.14-.18,.32-.36,.51-.52h0Z"/><path class="cls-12" d="M136.24,155.43c-.18,.16-.35,.34-.51,.52,.16-.18,.33-.36,.51-.52h0Z"/><path class="cls-12" d="M154.63,158.03c-.14-.77-.5-1.5-1.02-2.08,.52,.59,.88,1.31,1.02,2.08h0Z"/><path class="cls-12" d="M136.75,154.91c-.18,.17-.36,.35-.51,.52,.16-.17,.33-.35,.51-.52Z"/><path class="cls-12" d="M150.58,158.96c-1.9-1.01-4.01-1.54-6.15-1.54s-4.24,.53-6.15,1.54c-.73,.41-1.37,.99-1.88,1.68-1.34-1.91-.71-4.2,1.88-5.75,1.9-1.01,4.01-1.54,6.15-1.54s4.24,.53,6.15,1.54c2.55,1.54,3.16,3.82,1.83,5.71-.49-.68-1.12-1.24-1.83-1.64Z"/><path class="cls-14" d="M150.73,162.27c-1.89,.98-3.97,1.49-6.08,1.49s-4.2-.51-6.08-1.49c-.7-.41-1.32-.96-1.81-1.62,.5-.68,1.13-1.23,1.86-1.64,1.88-.99,3.97-1.5,6.08-1.5s4.2,.51,6.08,1.5c.71,.4,1.33,.94,1.81,1.6-.49,.68-1.13,1.24-1.86,1.65h0Z"/><path class="cls-10" d="M150.73,162.27c-1.89,.98-3.97,1.49-6.08,1.49s-4.2-.51-6.08-1.49c-.7-.41-1.32-.96-1.81-1.62,.5-.68,1.13-1.23,1.86-1.64,1.88-.99,3.97-1.5,6.08-1.5s4.2,.51,6.08,1.5c.71,.4,1.33,.94,1.81,1.6-.49,.68-1.13,1.24-1.86,1.65h0Z"/><path class="cls-12" d="M134.71,158.55c0,1.48,.96,2.95,2.89,4.07,2.19,1.11,4.6,1.68,7.05,1.68s4.86-.58,7.05-1.68c1.96-1.16,2.94-2.6,2.94-4.07v18.71c0,1.48-.98,2.94-2.94,4.07-2.18,1.11-4.6,1.68-7.05,1.68s-4.86-.58-7.05-1.68c-1.93-1.16-2.9-2.6-2.89-4.07v-18.71Z"/><path class="cls-5" d="M134.71,158.55c0,1.48,.96,2.95,2.89,4.07,2.19,1.11,4.6,1.68,7.05,1.68s4.86-.58,7.05-1.68c1.96-1.16,2.94-2.6,2.94-4.07v18.71c0,1.48-.98,2.94-2.94,4.07-2.18,1.11-4.6,1.68-7.05,1.68s-4.86-.58-7.05-1.68c-1.93-1.16-2.9-2.6-2.89-4.07v-18.71Z"/><path class="cls-12" d="M154.62,158.63c.01-.18,.01-.36,0-.54-.14-.75-.47-1.45-.97-2.02l-.09-.13c-.51-.56-1.09-1.03-1.74-1.41-2.14-1.12-4.51-1.7-6.91-1.7s-4.77,.58-6.91,1.7c-.23,.14-.46,.29-.66,.45h-.07c-.18,.14-.36,.28-.52,.42-.16,.14-.31,.29-.46,.45h0c-.12,.15-.26,.32-.37,.47-.11,.16-.21,.33-.3,.5h0c-.26,.51-.41,1.07-.41,1.65,0,1.49,.94,2.99,2.83,4.11,2.14,1.12,4.51,1.7,6.91,1.7s4.77-.58,6.91-1.7c1.76-.96,2.75-2.49,2.75-3.95Zm-3.65,3.65c-1.9,.99-4,1.51-6.13,1.51s-4.23-.52-6.13-1.51c-3.37-2.02-3.35-5.3,0-7.31,1.9-1,4-1.52,6.13-1.52s4.23,.52,6.13,1.52c3.38,2.01,3.36,5.29-.03,7.31h.03Z"/><path class="cls-3" d="M154.62,158.63c.01-.18,.01-.36,0-.54-.14-.75-.47-1.45-.97-2.02l-.09-.13c-.51-.56-1.09-1.03-1.74-1.41-2.14-1.12-4.51-1.7-6.91-1.7s-4.77,.58-6.91,1.7c-.23,.14-.46,.29-.66,.45h-.07c-.18,.14-.36,.28-.52,.42-.16,.14-.31,.29-.46,.45h0c-.12,.15-.26,.32-.37,.47-.11,.16-.21,.33-.3,.5h0c-.26,.51-.41,1.07-.41,1.65,0,1.49,.94,2.99,2.83,4.11,2.14,1.12,4.51,1.7,6.91,1.7s4.77-.58,6.91-1.7c1.76-.96,2.75-2.49,2.75-3.95Zm-3.65,3.65c-1.9,.99-4,1.51-6.13,1.51s-4.23-.52-6.13-1.51c-3.37-2.02-3.35-5.3,0-7.31,1.9-1,4-1.52,6.13-1.52s4.23,.52,6.13,1.52c3.38,2.01,3.36,5.29-.03,7.31h.03Z"/><path class="cls-12" d="M150.54,178.85c-.18,.33-.35,.68-.51,1.04,.16-.36,.33-.71,.51-1.04Z"/><path class="cls-12" d="M176.08,178.85c-.74-.83-1.6-1.53-2.55-2.08,.95,.55,1.81,1.25,2.55,2.08h0Z"/><path class="cls-12" d="M153.1,176.77c-.35,.16-.69,.33-1.02,.52,.33-.19,.67-.36,1.02-.52Z"/><path class="cls-12" d="M150.03,179.89c-.19,.17-.36,.34-.51,.52,.15-.18,.32-.35,.51-.52h0Z"/><path class="cls-12" d="M151.05,178.33c-.18,.16-.35,.34-.51,.52,.16-.18,.33-.36,.51-.52h0Z"/><path class="cls-12" d="M177.62,181.98c-.14-1.16-.5-2.24-1.02-3.12,.53,.88,.88,1.96,1.02,3.12h0Z"/><path class="cls-12" d="M152.07,177.29c-.35,.33-.7,.69-1.02,1.04,.32-.33,.67-.69,1.02-1.04Z"/><path class="cls-12" d="M172.38,183.62c-4.96-3.07-13.07-3.05-18.07,0-1.08,.62-2.02,1.49-2.77,2.53-1.96-2.86-1.04-6.3,2.77-8.64,5-3.05,13.1-3.07,18.07,0,3.76,2.32,4.66,5.74,2.7,8.59-.73-1.02-1.65-1.86-2.7-2.48h0Z"/><path class="cls-14" d="M172.31,188.19c-4.99,2.82-13.1,2.83-18.05,0-1.05-.57-1.97-1.35-2.69-2.29,.74-.96,1.68-1.75,2.76-2.33,4.99-2.82,13.09-2.83,18.04,0,1.05,.57,1.97,1.35,2.69,2.29-.74,.96-1.68,1.75-2.75,2.33h0Z"/><path class="cls-3" d="M172.31,188.19c-4.99,2.82-13.1,2.83-18.05,0-1.05-.57-1.97-1.35-2.69-2.29,.74-.96,1.68-1.75,2.76-2.33,4.99-2.82,13.09-2.83,18.04,0,1.05,.57,1.97,1.35,2.69,2.29-.74,.96-1.68,1.75-2.75,2.33h0Z"/><path class="cls-12" d="M149.01,183.02c0,2.21,1.39,4.4,4.21,6.07,5.66,3.35,14.89,3.35,20.62,0,2.84-1.67,4.27-3.87,4.28-6.07v27.86c0,2.19-1.44,4.39-4.28,6.07-5.73,3.35-14.89,3.35-20.62,0-2.83-1.68-4.23-3.87-4.21-6.07v-27.86Z"/><path class="cls-5" d="M149.01,183.02c0,2.21,1.39,4.4,4.21,6.07,5.66,3.35,14.89,3.35,20.62,0,2.84-1.67,4.27-3.87,4.28-6.07v27.86c0,2.19-1.44,4.39-4.28,6.07-5.73,3.35-14.89,3.35-20.62,0-2.83-1.68-4.23-3.87-4.21-6.07v-27.86Z"/><path class="cls-12" d="M177.62,182.73c0-.27-.02-.53-.06-.79h0c-.2-1.11-.69-2.14-1.42-2.98l-.14-.19c-.74-.83-1.6-1.53-2.55-2.08-5.56-3.35-14.67-3.35-20.31,0-.34,.2-.67,.42-.98,.65l-.1,.07c-.26,.2-.52,.41-.76,.62l-.06,.06c-.23,.21-.46,.44-.67,.68v.06c-.2,.22-.38,.46-.55,.7v.06c-.16,.24-.3,.48-.43,.74h0c-.38,.75-.58,1.58-.59,2.43,0,2.21,1.37,4.41,4.15,6.08,5.58,3.35,14.67,3.35,20.31,0,2.72-1.7,4.13-3.9,4.14-6.1Zm-5.36,5.4c-4.98,2.97-13.06,2.98-18,0-4.94-2.98-4.91-7.82,.07-10.8,4.98-2.98,13.04-2.98,17.99,0,4.94,2.98,4.92,7.82-.06,10.8Z"/><path class="cls-3" d="M177.62,182.73c0-.27-.02-.53-.06-.79h0c-.2-1.11-.69-2.14-1.42-2.98l-.14-.19c-.74-.83-1.6-1.53-2.55-2.08-5.56-3.35-14.67-3.35-20.31,0-.34,.2-.67,.42-.98,.65l-.1,.07c-.26,.2-.52,.41-.76,.62l-.06,.06c-.23,.21-.46,.44-.67,.68v.06c-.2,.22-.38,.46-.55,.7v.06c-.16,.24-.3,.48-.43,.74h0c-.38,.75-.58,1.58-.59,2.43,0,2.21,1.37,4.41,4.15,6.08,5.58,3.35,14.67,3.35,20.31,0,2.72-1.7,4.13-3.9,4.14-6.1Zm-5.36,5.4c-4.98,2.97-13.06,2.98-18,0-4.94-2.98-4.91-7.82,.07-10.8,4.98-2.98,13.04-2.98,17.99,0,4.94,2.98,4.92,7.82-.06,10.8Z"/><path class="cls-12" d="M122.45,181.98c-.19,.16-.36,.34-.51,.52,.15-.18,.32-.36,.51-.52Z"/><path class="cls-12" d="M135.73,181.98c-.3-.41-.64-.76-1.02-1.04,.38,.28,.73,.63,1.02,1.04h0Z"/><path class="cls-12" d="M123.47,180.94c-.18,.15-.35,.33-.51,.52,.16-.19,.33-.37,.51-.52Z"/><path class="cls-12" d="M136.75,184.06c-.15-.58-.5-1.12-1.02-1.56,.52,.44,.87,.98,1.02,1.56h0Z"/><path class="cls-12" d="M122.96,181.46l-.51,.52,.51-.52Z"/><path class="cls-12" d="M133.8,184.42c-1.46-.72-3.07-1.1-4.7-1.1s-3.24,.38-4.7,1.1c-.56,.3-1.05,.71-1.44,1.2-1.02-1.37-.55-3,1.44-4.12,1.46-.71,3.07-1.09,4.7-1.09s3.24,.37,4.7,1.09c1.96,1.09,2.42,2.74,1.4,4.1-.38-.48-.86-.88-1.4-1.18h0Z"/><path class="cls-14" d="M133.78,187.1c-1.46,.74-3.07,1.12-4.71,1.12s-3.25-.39-4.71-1.12c-.55-.3-1.03-.71-1.41-1.21,.39-.51,.88-.93,1.44-1.23,1.46-.74,3.07-1.12,4.71-1.12s3.25,.38,4.71,1.12c.55,.3,1.03,.71,1.41,1.21-.38,.51-.88,.93-1.44,1.23h0Z"/><path class="cls-3" d="M133.78,187.1c-1.46,.74-3.07,1.12-4.71,1.12s-3.25-.39-4.71-1.12c-.55-.3-1.03-.71-1.41-1.21,.39-.51,.88-.93,1.44-1.23,1.46-.74,3.07-1.12,4.71-1.12s3.25,.38,4.71,1.12c.55,.3,1.03,.71,1.41,1.21-.38,.51-.88,.93-1.44,1.23h0Z"/><path class="cls-12" d="M121.43,184.06c.06,.69,.29,1.35,.68,1.91,.39,.56,.92,1.01,1.53,1.3,1.68,.87,3.53,1.32,5.41,1.32s3.73-.45,5.41-1.32c.63-.28,1.17-.72,1.57-1.29,.4-.56,.65-1.23,.72-1.92h0v14.73c-.07,.7-.32,1.36-.73,1.92-.4,.56-.94,1.01-1.57,1.29-1.68,.87-3.53,1.32-5.41,1.32s-3.73-.45-5.41-1.32c-.61-.29-1.14-.74-1.53-1.3-.39-.56-.62-1.22-.68-1.91h0v-14.73Z"/><path class="cls-5" d="M121.43,184.06c.06,.69,.29,1.35,.68,1.91,.39,.56,.92,1.01,1.53,1.3,1.68,.87,3.53,1.32,5.41,1.32s3.73-.45,5.41-1.32c.63-.28,1.17-.72,1.57-1.29,.4-.56,.65-1.23,.72-1.92h0v14.73c-.07,.7-.32,1.36-.73,1.92-.4,.56-.94,1.01-1.57,1.29-1.68,.87-3.53,1.32-5.41,1.32s-3.73-.45-5.41-1.32c-.61-.29-1.14-.74-1.53-1.3-.39-.56-.62-1.22-.68-1.91h0v-14.73Z"/><path class="cls-12" d="M136.74,184.39c.01-.14,.01-.28,0-.42h0c-.11-.58-.37-1.12-.76-1.56l-.08-.1c-.4-.43-.86-.8-1.37-1.08-1.69-.87-3.56-1.32-5.45-1.32s-3.76,.45-5.45,1.32c-.18,.1-.36,.21-.53,.34h-.06l-.41,.32-.36,.35c-.11,.12-.2,.24-.29,.37-.08,.13-.16,.26-.23,.39-.21,.39-.32,.83-.32,1.27,.06,.68,.3,1.34,.69,1.9,.39,.56,.93,1,1.55,1.29,1.69,.86,3.56,1.31,5.46,1.31s3.77-.45,5.46-1.31c.59-.28,1.09-.71,1.47-1.24,.38-.53,.62-1.15,.7-1.8Zm-2.89,2.82c-1.5,.77-3.16,1.17-4.84,1.17s-3.34-.4-4.84-1.17c-2.66-1.55-2.65-4.09,0-5.66,1.5-.76,3.16-1.16,4.84-1.16s3.34,.4,4.84,1.16c2.7,1.56,2.69,4.1,0,5.66Z"/><path class="cls-3" d="M136.74,184.39c.01-.14,.01-.28,0-.42h0c-.11-.58-.37-1.12-.76-1.56l-.08-.1c-.4-.43-.86-.8-1.37-1.08-1.69-.87-3.56-1.32-5.45-1.32s-3.76,.45-5.45,1.32c-.18,.1-.36,.21-.53,.34h-.06l-.41,.32-.36,.35c-.11,.12-.2,.24-.29,.37-.08,.13-.16,.26-.23,.39-.21,.39-.32,.83-.32,1.27,.06,.68,.3,1.34,.69,1.9,.39,.56,.93,1,1.55,1.29,1.69,.86,3.56,1.31,5.46,1.31s3.77-.45,5.46-1.31c.59-.28,1.09-.71,1.47-1.24,.38-.53,.62-1.15,.7-1.8Zm-2.89,2.82c-1.5,.77-3.16,1.17-4.84,1.17s-3.34-.4-4.84-1.17c-2.66-1.55-2.65-4.09,0-5.66,1.5-.76,3.16-1.16,4.84-1.16s3.34,.4,4.84,1.16c2.7,1.56,2.69,4.1,0,5.66Z"/><path class="cls-12" d="M34.08,190.3c-.19,.16-.36,.34-.51,.52,.15-.18,.32-.36,.51-.52h0Z"/><path class="cls-12" d="M45.82,190.3c-.44-.42-.96-.77-1.53-1.04,.57,.27,1.09,.63,1.53,1.04h0Z"/><path class="cls-12" d="M35.1,189.26c-.18,.17-.35,.34-.51,.52,.16-.18,.33-.35,.51-.52Z"/><path class="cls-12" d="M46.33,191.87c-.08-.58-.25-1.12-.51-1.56,.26,.44,.44,.98,.51,1.56h0Z"/><path class="cls-12" d="M44.12,192.35c-1.29-.65-2.71-.99-4.16-.99s-2.87,.34-4.16,.99c-.49,.27-.93,.64-1.27,1.08-.9-1.23-.48-2.7,1.27-3.7,1.29-.65,2.71-.98,4.16-.98s2.87,.34,4.16,.98c1.73,.99,2.14,2.46,1.24,3.68-.33-.44-.76-.8-1.24-1.06h0Z"/><path class="cls-14" d="M44,194.51c-1.34,.65-2.82,.99-4.32,.99s-2.98-.34-4.32-.99c-.5-.27-.94-.64-1.29-1.08,.36-.45,.8-.82,1.32-1.09,1.34-.66,2.82-1,4.32-1s2.98,.34,4.32,1c.5,.26,.94,.63,1.29,1.07-.35,.45-.8,.83-1.32,1.1h0Z"/><path class="cls-3" d="M44,194.51c-1.34,.65-2.82,.99-4.32,.99s-2.98-.34-4.32-.99c-.5-.27-.94-.64-1.29-1.08,.36-.45,.8-.82,1.32-1.09,1.34-.66,2.82-1,4.32-1s2.98,.34,4.32,1c.5,.26,.94,.63,1.29,1.07-.35,.45-.8,.83-1.32,1.1h0Z"/><path class="cls-12" d="M33.05,191.87c0,1.01,.64,2.01,1.92,2.77,1.46,.76,3.07,1.15,4.7,1.15s3.24-.39,4.7-1.15c1.3-.73,1.95-1.76,1.96-2.77v12.74c0,1.01-.66,2.01-1.96,2.77-1.46,.75-3.07,1.15-4.7,1.15s-3.24-.39-4.7-1.15c-1.29-.77-1.93-1.77-1.92-2.77v-12.74Z"/><path class="cls-5" d="M33.05,191.87c0,1.01,.64,2.01,1.92,2.77,1.46,.76,3.07,1.15,4.7,1.15s3.24-.39,4.7-1.15c1.3-.73,1.95-1.76,1.96-2.77v12.74c0,1.01-.66,2.01-1.96,2.77-1.46,.75-3.07,1.15-4.7,1.15s-3.24-.39-4.7-1.15c-1.29-.77-1.93-1.77-1.92-2.77v-12.74Z"/><path class="cls-12" d="M46.33,192.17c0-.12,0-.25,0-.37h0c-.1-.51-.33-.99-.66-1.38l-.06-.08c-.34-.38-.75-.71-1.19-.96-1.46-.76-3.09-1.16-4.73-1.16s-3.26,.4-4.73,1.16c-.17,.1-.32,.19-.46,.29h-.04c-.13,.1-.24,.19-.36,.29-.12,.1,0,0,0,0-.11,.1-.21,.2-.31,.31h0c-.09,.1-.18,.21-.25,.32h0c-.08,.11-.14,.22-.2,.34h0c-.18,.35-.27,.73-.27,1.12,0,1.02,.64,2.04,1.94,2.81,1.47,.76,3.09,1.16,4.73,1.16s3.27-.4,4.73-1.16c1.21-.66,1.87-1.68,1.87-2.69Zm-2.51,2.49c-1.3,.68-2.74,1.03-4.2,1.03s-2.9-.35-4.2-1.03c-2.31-1.38-2.29-3.62,0-4.99,1.3-.68,2.74-1.03,4.2-1.03s2.9,.35,4.2,1.03c2.36,1.37,2.36,3.62,0,4.99h0Z"/><path class="cls-3" d="M46.33,192.17c0-.12,0-.25,0-.37h0c-.1-.51-.33-.99-.66-1.38l-.06-.08c-.34-.38-.75-.71-1.19-.96-1.46-.76-3.09-1.16-4.73-1.16s-3.26,.4-4.73,1.16c-.17,.1-.32,.19-.46,.29h-.04c-.13,.1-.24,.19-.36,.29-.12,.1,0,0,0,0-.11,.1-.21,.2-.31,.31h0c-.09,.1-.18,.21-.25,.32h0c-.08,.11-.14,.22-.2,.34h0c-.18,.35-.27,.73-.27,1.12,0,1.02,.64,2.04,1.94,2.81,1.47,.76,3.09,1.16,4.73,1.16s3.27-.4,4.73-1.16c1.21-.66,1.87-1.68,1.87-2.69Zm-2.51,2.49c-1.3,.68-2.74,1.03-4.2,1.03s-2.9-.35-4.2-1.03c-2.31-1.38-2.29-3.62,0-4.99,1.3-.68,2.74-1.03,4.2-1.03s2.9,.35,4.2,1.03c2.36,1.37,2.36,3.62,0,4.99h0Z"/><path class="cls-12" d="M30.5,202.28c-.3-.21-.64-.38-1.02-.52,.38,.14,.73,.31,1.02,.52h0Z"/><path class="cls-12" d="M22.33,202.28c-.19,.17-.36,.34-.51,.52,.15-.18,.32-.35,.51-.52h0Z"/><path class="cls-12" d="M31.01,203.32c-.07-.39-.25-.75-.51-1.04,.27,.29,.44,.65,.51,1.04h0Z"/><path class="cls-12" d="M29.33,203.64c-.9-.43-1.89-.65-2.89-.65s-1.99,.22-2.89,.65c-.35,.18-.66,.42-.91,.72-.63-.82-.34-1.8,.88-2.47,.9-.43,1.89-.65,2.89-.65s1.99,.22,2.89,.65c1.2,.68,1.49,1.64,.86,2.46-.22-.29-.51-.53-.84-.7h0Z"/><path class="cls-14" d="M29.18,205.17c-.85,.49-1.79,.75-2.75,.75s-1.9-.26-2.75-.75c-.33-.2-.61-.48-.84-.81,.23-.34,.51-.62,.84-.82,.85-.49,1.79-.74,2.75-.74s1.89,.25,2.75,.74c.32,.2,.6,.47,.82,.81-.22,.34-.49,.62-.81,.83h0Z"/><path class="cls-10" d="M29.18,205.17c-.85,.49-1.79,.75-2.75,.75s-1.9-.26-2.75-.75c-.33-.2-.61-.48-.84-.81,.23-.34,.51-.62,.84-.82,.85-.49,1.79-.74,2.75-.74s1.89,.25,2.75,.74c.32,.2,.6,.47,.82,.81-.22,.34-.49,.62-.81,.83h0Z"/><path class="cls-12" d="M21.82,203.32c.04,.43,.18,.84,.41,1.19,.23,.35,.55,.63,.92,.81,1.01,.54,2.12,.83,3.26,.83s2.25-.28,3.26-.83c.37-.18,.69-.45,.93-.8,.24-.35,.38-.76,.42-1.19h0v9.15c-.04,.43-.18,.84-.42,1.19-.24,.35-.56,.63-.93,.81-1.01,.54-2.12,.82-3.26,.82s-2.25-.28-3.26-.82c-.37-.18-.69-.46-.92-.81-.23-.35-.38-.76-.41-1.19h0v-9.15Z"/><path class="cls-5" d="M21.82,203.32c.04,.43,.18,.84,.41,1.19,.23,.35,.55,.63,.92,.81,1.01,.54,2.12,.83,3.26,.83s2.25-.28,3.26-.83c.37-.18,.69-.45,.93-.8,.24-.35,.38-.76,.42-1.19h0v9.15c-.04,.43-.18,.84-.42,1.19-.24,.35-.56,.63-.93,.81-1.01,.54-2.12,.82-3.26,.82s-2.25-.28-3.26-.82c-.37-.18-.69-.46-.92-.81-.23-.35-.38-.76-.41-1.19h0v-9.15Z"/><path class="cls-12" d="M31.01,203.35v-.25c-.06-.34-.22-.66-.45-.92,0,0,0-.04-.05-.06-.24-.25-.51-.47-.82-.64-1.02-.51-2.14-.77-3.29-.77s-2.27,.26-3.29,.77c-.11,.06-.22,.13-.32,.2h0c-.09,.06-.17,.13-.24,.19-.08,.06-.15,.13-.22,.21h0c-.06,.07-.12,.14-.18,.21h0c-.05,.07-.1,.15-.14,.23h0c-.12,.23-.19,.49-.19,.75,.04,.4,.18,.78,.41,1.11,.24,.33,.56,.59,.93,.76,1.02,.51,2.15,.77,3.29,.77s2.27-.26,3.29-.77c.35-.17,.65-.43,.87-.74,.22-.32,.36-.68,.4-1.06h0Zm-1.73,1.66c-.9,.45-1.9,.69-2.92,.69s-2.01-.24-2.92-.69c-1.6-.92-1.6-2.4,0-3.31,.9-.45,1.9-.68,2.92-.68s2.01,.23,2.92,.68c1.62,.92,1.62,2.4,0,3.31h0Z"/><path class="cls-3" d="M31.01,203.35v-.25c-.06-.34-.22-.66-.45-.92,0,0,0-.04-.05-.06-.24-.25-.51-.47-.82-.64-1.02-.51-2.14-.77-3.29-.77s-2.27,.26-3.29,.77c-.11,.06-.22,.13-.32,.2h0c-.09,.06-.17,.13-.24,.19-.08,.06-.15,.13-.22,.21h0c-.06,.07-.12,.14-.18,.21h0c-.05,.07-.1,.15-.14,.23h0c-.12,.23-.19,.49-.19,.75,.04,.4,.18,.78,.41,1.11,.24,.33,.56,.59,.93,.76,1.02,.51,2.15,.77,3.29,.77s2.27-.26,3.29-.77c.35-.17,.65-.43,.87-.74,.22-.32,.36-.68,.4-1.06h0Zm-1.73,1.66c-.9,.45-1.9,.69-2.92,.69s-2.01-.24-2.92-.69c-1.6-.92-1.6-2.4,0-3.31,.9-.45,1.9-.68,2.92-.68s2.01,.23,2.92,.68c1.62,.92,1.62,2.4,0,3.31h0Z"/><path class="cls-12" d="M152.59,118.48c-.07-.39-.25-.75-.51-1.04,.26,.29,.44,.65,.51,1.04h0Z"/><path class="cls-12" d="M151.19,118.91c-.67-.36-1.42-.55-2.17-.55s-1.5,.19-2.17,.55c-.26,.15-.48,.36-.66,.6-.47-.68-.25-1.5,.66-2.05,.67-.36,1.42-.55,2.17-.55s1.5,.19,2.17,.55c.9,.55,1.12,1.36,.65,2.04-.17-.24-.39-.44-.65-.59h0Z"/><path class="cls-14" d="M150.91,120.06c-.67,.33-1.41,.5-2.16,.5s-1.49-.17-2.16-.5c-.25-.14-.47-.32-.65-.54,.18-.22,.4-.41,.66-.55,.67-.33,1.41-.5,2.16-.5s1.49,.17,2.16,.5c.25,.14,.47,.32,.64,.54-.18,.22-.4,.41-.66,.55Z"/><path class="cls-10" d="M150.91,120.06c-.67,.33-1.41,.5-2.16,.5s-1.49-.17-2.16-.5c-.25-.14-.47-.32-.65-.54,.18-.22,.4-.41,.66-.55,.67-.33,1.41-.5,2.16-.5s1.49,.17,2.16,.5c.25,.14,.47,.32,.64,.54-.18,.22-.4,.41-.66,.55Z"/><path class="cls-12" d="M145.43,118.48c0,.53,.34,1.07,1.04,1.47,.78,.4,1.65,.61,2.53,.61s1.75-.21,2.53-.61c.7-.41,1.05-.94,1.05-1.48v6.76c0,.54-.36,1.07-1.05,1.47-.78,.4-1.65,.61-2.53,.61s-1.75-.21-2.53-.61c-.7-.4-1.04-.94-1.04-1.47v-6.76h0Z"/><path class="cls-5" d="M145.43,118.48c0,.53,.34,1.07,1.04,1.47,.78,.4,1.65,.61,2.53,.61s1.75-.21,2.53-.61c.7-.41,1.05-.94,1.05-1.48v6.76c0,.54-.36,1.07-1.05,1.47-.78,.4-1.65,.61-2.53,.61s-1.75-.21-2.53-.61c-.7-.4-1.04-.94-1.04-1.47v-6.76h0Z"/><path class="cls-12" d="M152.58,118.49c0-.06,0-.13,0-.19h0c-.05-.27-.18-.53-.36-.73-.01-.02-.02-.03-.04-.05-.18-.2-.4-.37-.63-.51-.79-.41-1.66-.62-2.54-.62s-1.75,.21-2.54,.62c-.09,.05-.17,.1-.25,.16l-.02,.02c-.07,.05-.13,.1-.19,.15h-.02c-.06,.05-.12,.11-.17,.16-.05,.06-.1,.11-.14,.18h0c-.04,.06-.08,.12-.11,.18h0c-.09,.18-.15,.39-.15,.6,0,.54,.34,1.08,1.04,1.49,.79,.4,1.66,.62,2.54,.62s1.75-.21,2.54-.62c.67-.37,1.02-.91,1.02-1.45Zm-1.34,1.32c-.7,.36-1.47,.55-2.26,.55s-1.56-.19-2.25-.55c-1.24-.73-1.23-1.92,0-2.64,.7-.36,1.47-.55,2.25-.55s1.56,.19,2.26,.55c1.25,.73,1.25,1.92,0,2.64Z"/><path class="cls-3" d="M152.58,118.49c0-.06,0-.13,0-.19h0c-.05-.27-.18-.53-.36-.73-.01-.02-.02-.03-.04-.05-.18-.2-.4-.37-.63-.51-.79-.41-1.66-.62-2.54-.62s-1.75,.21-2.54,.62c-.09,.05-.17,.1-.25,.16l-.02,.02c-.07,.05-.13,.1-.19,.15h-.02c-.06,.05-.12,.11-.17,.16-.05,.06-.1,.11-.14,.18h0c-.04,.06-.08,.12-.11,.18h0c-.09,.18-.15,.39-.15,.6,0,.54,.34,1.08,1.04,1.49,.79,.4,1.66,.62,2.54,.62s1.75-.21,2.54-.62c.67-.37,1.02-.91,1.02-1.45Zm-1.34,1.32c-.7,.36-1.47,.55-2.26,.55s-1.56-.19-2.25-.55c-1.24-.73-1.23-1.92,0-2.64,.7-.36,1.47-.55,2.25-.55s1.56,.19,2.26,.55c1.25,.73,1.25,1.92,0,2.64Z"/><path class="cls-12" d="M167.91,124.2c-.15-.41-.32-.77-.51-1.04,.19,.28,.36,.63,.51,1.04h0Z"/><path class="cls-12" d="M168.42,124.72c-.07-.19-.25-.37-.51-.52,.26,.15,.44,.33,.51,.52h0Z"/><path class="cls-12" d="M166.88,125.04c-.78-.43-1.65-.66-2.53-.66s-1.75,.22-2.53,.66c-.3,.18-.57,.42-.77,.72-.55-.82-.29-1.8,.77-2.47,.78-.43,1.65-.65,2.53-.65s1.75,.22,2.53,.65c1.04,.66,1.3,1.64,.76,2.45-.2-.29-.46-.53-.76-.71Z"/><path class="cls-14" d="M167.07,126.7c-.85,.41-1.79,.62-2.75,.62s-1.9-.21-2.74-.62c-.32-.17-.6-.4-.82-.67,.22-.28,.51-.52,.84-.68,.85-.41,1.79-.62,2.74-.62s1.9,.21,2.75,.62c.32,.17,.6,.4,.82,.67-.23,.28-.51,.52-.84,.69Z"/><path class="cls-3" d="M167.07,126.7c-.85,.41-1.79,.62-2.75,.62s-1.9-.21-2.74-.62c-.32-.17-.6-.4-.82-.67,.22-.28,.51-.52,.84-.68,.85-.41,1.79-.62,2.74-.62s1.9,.21,2.75,.62c.32,.17,.6,.4,.82,.67-.23,.28-.51,.52-.84,.69Z"/><path class="cls-12" d="M160.25,125.24c0,.6,.39,1.19,1.18,1.64,1.59,.91,4.18,.91,5.79,0,.8-.45,1.2-1.03,1.2-1.64v7.56c0,.6-.4,1.19-1.2,1.65-1.6,.91-4.21,.91-5.79,0-.79-.45-1.19-1.03-1.18-1.65v-7.56Z"/><path class="cls-5" d="M160.25,125.24c0,.6,.39,1.19,1.18,1.64,1.59,.91,4.18,.91,5.79,0,.8-.45,1.2-1.03,1.2-1.64v7.56c0,.6-.4,1.19-1.2,1.65-1.6,.91-4.21,.91-5.79,0-.79-.45-1.19-1.03-1.18-1.65v-7.56Z"/><path class="cls-12" d="M168.42,124.99c0-.07,0-.15,0-.22-.06-.3-.2-.59-.41-.82l-.04-.05c-.21-.23-.46-.42-.73-.57-1.6-.92-4.21-.92-5.82,0-.1,.05-.19,.11-.29,.18l-.03,.02c-.07,.06-.15,.11-.21,.17-.07,.06-.13,.12-.19,.18v.02c-.06,.06-.11,.13-.16,.19v.02c-.04,.06-.09,.13-.12,.2h0c-.11,.21-.17,.43-.17,.67,0,.6,.39,1.21,1.19,1.66,1.6,.92,4.21,.92,5.82,0,.74-.44,1.15-1.04,1.15-1.64Zm-1.54,1.47c-.8,.4-1.69,.61-2.58,.61s-1.78-.21-2.58-.61c-1.41-.82-1.41-2.14,0-2.96,.8-.4,1.69-.61,2.58-.61s1.78,.21,2.58,.61c1.44,.82,1.43,2.16,0,2.96Z"/><path class="cls-3" d="M168.42,124.99c0-.07,0-.15,0-.22-.06-.3-.2-.59-.41-.82l-.04-.05c-.21-.23-.46-.42-.73-.57-1.6-.92-4.21-.92-5.82,0-.1,.05-.19,.11-.29,.18l-.03,.02c-.07,.06-.15,.11-.21,.17-.07,.06-.13,.12-.19,.18v.02c-.06,.06-.11,.13-.16,.19v.02c-.04,.06-.09,.13-.12,.2h0c-.11,.21-.17,.43-.17,.67,0,.6,.39,1.21,1.19,1.66,1.6,.92,4.21,.92,5.82,0,.74-.44,1.15-1.04,1.15-1.64Zm-1.54,1.47c-.8,.4-1.69,.61-2.58,.61s-1.78-.21-2.58-.61c-1.41-.82-1.41-2.14,0-2.96,.8-.4,1.69-.61,2.58-.61s1.78,.21,2.58,.61c1.44,.82,1.43,2.16,0,2.96Z"/><path class="cls-12" d="M161.27,129.41c-.3-.41-.64-.76-1.02-1.04,.38,.28,.72,.63,1.02,1.04Z"/><path class="cls-12" d="M156.67,128.37l-.51,.52,.51-.52Z"/><path class="cls-12" d="M156.16,128.89c-.18,.16-.35,.33-.51,.52,.16-.19,.33-.36,.51-.52h0Z"/><path class="cls-12" d="M160.46,129.97c-.62-.29-1.3-.44-1.99-.44s-1.37,.15-1.99,.44c-.24,.12-.45,.28-.61,.48-.43-.55-.23-1.2,.61-1.65,.62-.29,1.3-.44,1.99-.44s1.37,.15,1.99,.44c.82,.44,1.02,1.08,.59,1.64-.16-.19-.36-.36-.59-.47h0Z"/><path class="cls-14" d="M160.22,130.99c-.55,.33-1.15,.5-1.76,.5s-1.22-.17-1.76-.5c-.21-.14-.38-.32-.53-.54,.15-.22,.33-.41,.54-.54,.55-.33,1.15-.5,1.76-.5s1.22,.17,1.76,.5c.21,.13,.38,.32,.53,.54-.15,.22-.33,.4-.54,.54h0Z"/><path class="cls-10" d="M160.22,130.99c-.55,.33-1.15,.5-1.76,.5s-1.22-.17-1.76-.5c-.21-.14-.38-.32-.53-.54,.15-.22,.33-.41,.54-.54,.55-.33,1.15-.5,1.76-.5s1.22,.17,1.76,.5c.21,.13,.38,.32,.53,.54-.15,.22-.33,.4-.54,.54h0Z"/><path class="cls-12" d="M155.65,129.93c.02,.26,.11,.51,.25,.72,.14,.21,.34,.38,.56,.49,.62,.33,1.3,.5,1.99,.5s1.37-.17,1.99-.5c.23-.11,.42-.28,.57-.49s.24-.46,.26-.72h0v5.57c-.02,.26-.11,.51-.26,.72s-.34,.38-.57,.49c-.62,.33-1.3,.5-1.99,.5s-1.37-.17-1.99-.5c-.54-.34-.82-.77-.81-1.21v-5.57h0Z"/><path class="cls-5" d="M155.65,129.93c.02,.26,.11,.51,.25,.72,.14,.21,.34,.38,.56,.49,.62,.33,1.3,.5,1.99,.5s1.37-.17,1.99-.5c.23-.11,.42-.28,.57-.49s.24-.46,.26-.72h0v5.57c-.02,.26-.11,.51-.26,.72s-.34,.38-.57,.49c-.62,.33-1.3,.5-1.99,.5s-1.37-.17-1.99-.5c-.54-.34-.82-.77-.81-1.21v-5.57h0Z"/><path class="cls-12" d="M161.27,130.19c0-.06,0-.11,0-.17h0c-.04-.24-.13-.46-.28-.64l-.03-.04c-.15-.18-.32-.32-.5-.44-.62-.35-1.3-.53-2-.53s-1.38,.18-2,.53l-.19,.14h-.02c-.05,.04-.1,.08-.15,.13h0s-.09,.09-.13,.14l-.11,.15s-.06,.1-.09,.16h0c-.08,.16-.12,.34-.12,.52,0,.28,.09,.55,.23,.79,.14,.24,.33,.42,.56,.55,.62,.35,1.3,.53,2,.53s1.38-.18,2-.53c.23-.11,.42-.29,.57-.52,.15-.22,.24-.49,.26-.77h0Zm-1.04,1.15c-.55,.31-1.16,.47-1.77,.47s-1.23-.16-1.78-.47c-.97-.63-.97-1.66,0-2.3,.55-.31,1.16-.47,1.78-.47s1.22,.16,1.77,.47c.98,.63,.97,1.66-.01,2.3h.01Z"/><path class="cls-3" d="M161.27,130.19c0-.06,0-.11,0-.17h0c-.04-.24-.13-.46-.28-.64l-.03-.04c-.15-.18-.32-.32-.5-.44-.62-.35-1.3-.53-2-.53s-1.38,.18-2,.53l-.19,.14h-.02c-.05,.04-.1,.08-.15,.13h0s-.09,.09-.13,.14l-.11,.15s-.06,.1-.09,.16h0c-.08,.16-.12,.34-.12,.52,0,.28,.09,.55,.23,.79,.14,.24,.33,.42,.56,.55,.62,.35,1.3,.53,2,.53s1.38-.18,2-.53c.23-.11,.42-.29,.57-.52,.15-.22,.24-.49,.26-.77h0Zm-1.04,1.15c-.55,.31-1.16,.47-1.77,.47s-1.23-.16-1.78-.47c-.97-.63-.97-1.66,0-2.3,.55-.31,1.16-.47,1.78-.47s1.22,.16,1.77,.47c.98,.63,.97,1.66-.01,2.3h.01Z"/></svg>