<?xml version="1.0" encoding="UTF-8"?><svg id="Layer_1" xmlns="http://www.w3.org/2000/svg" viewBox="0 0 250 250"><defs><style>.cls-1,.cls-2,.cls-3,.cls-4,.cls-5,.cls-6,.cls-7,.cls-8,.cls-9,.cls-10,.cls-11,.cls-12{stroke-width:1.12px;}.cls-1,.cls-2,.cls-13,.cls-5,.cls-14,.cls-15,.cls-16,.cls-10{fill:#fff;}.cls-1,.cls-3,.cls-4,.cls-6,.cls-7,.cls-8,.cls-9,.cls-11,.cls-12{stroke-linecap:round;stroke-linejoin:round;}.cls-1,.cls-3,.cls-7,.cls-10,.cls-12{stroke:#aabdbd;}.cls-17,.cls-3{fill:#aabdbd;}.cls-2,.cls-5,.cls-10{stroke-miterlimit:10;}.cls-2,.cls-9{stroke:#fff;}.cls-18,.cls-19,.cls-14,.cls-15,.cls-16{isolation:isolate;}.cls-18,.cls-5,.cls-6{stroke:#f9f8f4;}.cls-18,.cls-14{opacity:.5;}.cls-18,.cls-7,.cls-20{fill:#f9f8f4;}.cls-19{fill:rgba(249,248,244,.8);}.cls-19,.cls-21{opacity:.8;}.cls-4{stroke:#72818c;}.cls-4,.cls-6,.cls-9,.cls-11,.cls-12{fill:none;}.cls-22{opacity:.7;}.cls-8{stroke:#d2e5e1;}.cls-8,.cls-23{fill:#d2e5e1;}.cls-15,.cls-24{opacity:.6;}.cls-16{opacity:.4;}.cls-11{stroke:rgba(0,0,0,.2);}.cls-25{fill:#72818c;}</style></defs><path class="cls-20" d="M42.89,184.85c34.77,23.18,62.56,19.71,102.12,16.66,39.56-3.05,65.81-15.56,81.16-39.45,17.72-27.6,3.55-75.94-37.1-83.44-12.71-2.35-26.52-.35-38.44-5.29-22.74-9.42-44.09-27.89-75.41-23.93-31.32,3.96-46.13,29.76-46.13,29.76-17.37,33.91-20.96,82.51,13.81,105.69Z"/><path class="cls-19" d="M42.89,184.85c34.77,23.18,62.56,19.71,102.12,16.66,39.56-3.05,65.81-15.56,81.16-39.45,17.72-27.6,3.55-75.94-37.1-83.44-12.71-2.35-26.52-.35-38.44-5.29-22.74-9.42-44.09-27.89-75.41-23.93-31.32,3.96-46.13,29.76-46.13,29.76-17.37,33.91-20.96,82.51,13.81,105.69Z"/><path class="cls-20" d="M219.22,180.22c-12.38-.91,.46-2.75,11.92-4.12,11.46-1.37-40.83-1.84-41.29-7.35-.46-5.51,40.38-3.67,41.29-9.63,.92-5.96-31.21-12.86-34.41-13.32-3.21-.46,1.38-1.84,11.01-6.42,9.64-4.58-42.21-7.8-42.21-7.8,0,0-32.99-1.81-40.51,1.68v95.91h-2.38c-.63,4.25-1.05,5.49,2.07,6.14,5.93,1.21,35.33-1.38,55.52-1.84,20.18-.46-24.32-3.67-33.05-5.51-8.73-1.84,21.57-1.38,30.73-3.67,9.16-2.29-3.67-2.3-7.8-6.91-4.13-4.61,34.42-7.8,39.46-9.18,5.05-1.37-10.08-3.68-14.22-8.27-4.14-4.59,36.71-6.43,47.71-10.56,11.01-4.13-11.43-8.24-23.83-9.15Z"/><path class="cls-20" d="M68.3,126.32c-5.09-.85-3.95,.85-8.19-1.42,0,0-4.52-2.54-8.78-1.98-4.26,.56-6.5,1.98-10.73,2.55-4.24,.57-6.78-.29-12.7,.28-5.92,.57-9.04,1.12-12.43,1.68-3.39,.56-8.19,1.41-8.19,1.41H75.62s-2.24-1.68-7.32-2.53Z"/><path class="cls-20" d="M218.29,116.71c-5.09-.85-3.96,.85-8.19-1.41,0,0-4.52-2.54-8.78-1.97-4.26,.57-6.5,1.97-10.73,2.51-4.24,.53-6.78-.28-12.71,.29-5.93,.57-9.04,1.12-12.43,1.68-3.39,.56-8.19,1.42-8.19,1.42h68.35s-2.25-1.66-7.32-2.5Z"/><path class="cls-20" d="M72.87,204.1c-5.08-.85-3.95,.85-8.19-1.42,0,0-4.52-2.54-8.78-1.98-4.26,.57-6.49,1.98-10.73,2.55-4.24,.57-6.78-.29-12.7,.28-5.92,.57-9.04,1.12-12.43,1.68-3.39,.56-8.15,1.41-8.15,1.41H80.23s-2.25-1.68-7.36-2.53Z"/><path class="cls-20" d="M60.34,174.62c-3.83-.97-7.72-1.72-11.64-2.24-5.56-.75-7.93,.37-11.92-.38-3.98-.75-6.08-2.6-10.03-3.36-3.95-.76-8.18,2.63-8.18,2.63-3.97,2.98-2.91,.74-7.67,1.88-4.76,1.14-6.9,3.3-6.9,3.3H68.01s-4.49-1.09-7.67-1.83Z"/><path class="cls-20" d="M98.68,227.9c-2.52-.63-5.08-1.11-7.66-1.44-3.65-.49-5.22,.24-7.84-.25-2.63-.49-4.01-1.71-6.62-2.2s-5.39,1.71-5.39,1.71c-2.61,1.96-1.92,.49-5.04,1.22-3.13,.73-4.52,2.2-4.52,2.2h42.05s-2.92-.79-4.97-1.25Z"/><path class="cls-20" d="M126.61,234.31c-3.66-.49-5.22,.24-7.84-.25-2.62-.49-4.01-1.71-6.62-2.2-2.61-.49-5.4,1.71-5.4,1.71-2.61,1.96-1.88,.49-5.04,1.22-3.16,.73-4.52,2.2-4.52,2.2h42.1s-2.96-.73-5.04-1.22c-2.52-.64-5.07-1.13-7.64-1.47Z"/><path class="cls-20" d="M207.54,220.14c-3.65-.49-5.22,.24-7.84-.25-2.63-.49-4-1.72-6.61-2.2-2.61-.49-5.39,1.71-5.39,1.71-2.61,1.96-1.92,.49-5.04,1.22-3.13,.74-4.52,2.2-4.52,2.2h42.11l-5.04-1.26c-2.52-.63-5.08-1.11-7.66-1.43Z"/><path class="cls-20" d="M125.01,128.86h65.02s-2.24-1.68-7.34-2.51c-5.1-.82-3.96,.85-8.19-1.42,0,0-4.52-2.54-8.78-1.98-4.26,.57-6.5,1.98-10.73,2.54-4.23,.57-6.78-.28-12.71,.29-5.93,.57-9.04,1.12-12.43,1.68-1.53,.25-3.36,.56-4.87,.83l.02,.56Z"/><path class="cls-20" d="M222.84,126.79c-2.8,.27-4.28,.53-5.89,.8-1.61,.27-3.88,.67-3.88,.67h32.39c-1.06-.65-2.25-1.06-3.48-1.21-2.41-.4-1.88,.4-3.88-.67,0,0-2.13-1.21-4.14-.94-2.01,.27-3.08,.94-5.08,1.21-2.01,.27-3.21-.14-6.03,.13Z"/><path class="cls-20" d="M57.04,167.74s-2.13-1.2-4.14-.94c-2.01,.26-3.08,.94-5.09,1.21-2.01,.26-3.21-.13-6.02,.13-2.81,.27-4.27,.56-5.88,.81l-3.89,.66h32.38c-1.06-.65-2.25-1.06-3.48-1.21-2.38-.4-1.87,.4-3.88-.66Z"/><path class="cls-20" d="M61.34,139.43c-2.41-.4-1.88,.4-3.87-.67,0,0-2.15-1.2-4.15-.94s-3.08,.94-5.09,1.21c-2.01,.27-3.21-.14-6.02,.13-2.81,.27-4.27,.56-5.88,.81-1.61,.25-3.88,.67-3.88,.67h32.36c-1.06-.65-2.24-1.06-3.47-1.21Z"/><g class="cls-21"><path class="cls-20" d="M219.22,180.22c-12.38-.91,.46-2.75,11.92-4.12,11.46-1.37-40.83-1.84-41.29-7.35-.46-5.51,40.38-3.67,41.29-9.63,.92-5.96-31.21-12.86-34.41-13.32-3.21-.46,1.38-1.84,11.01-6.42,9.64-4.58-42.21-7.8-42.21-7.8,0,0-32.99-1.81-40.51,1.68v95.91h-2.38c-.63,4.25-1.05,5.49,2.07,6.14,5.93,1.21,35.33-1.38,55.52-1.84,20.18-.46-24.32-3.67-33.05-5.51-8.73-1.84,21.57-1.38,30.73-3.67,9.16-2.29-3.67-2.3-7.8-6.91-4.13-4.61,34.42-7.8,39.46-9.18,5.05-1.37-10.08-3.68-14.22-8.27-4.14-4.59,36.71-6.43,47.71-10.56,11.01-4.13-11.43-8.24-23.83-9.15Z"/><path class="cls-20" d="M68.3,126.32c-5.09-.85-3.95,.85-8.19-1.42,0,0-4.52-2.54-8.78-1.98-4.26,.56-6.5,1.98-10.73,2.55-4.24,.57-6.78-.29-12.7,.28-5.92,.57-9.04,1.12-12.43,1.68-3.39,.56-8.19,1.41-8.19,1.41H75.62s-2.24-1.68-7.32-2.53Z"/><path class="cls-20" d="M218.29,116.71c-5.09-.85-3.96,.85-8.19-1.41,0,0-4.52-2.54-8.78-1.97-4.26,.57-6.5,1.97-10.73,2.51-4.24,.53-6.78-.28-12.71,.29-5.93,.57-9.04,1.12-12.43,1.68-3.39,.56-8.19,1.42-8.19,1.42h68.35s-2.25-1.66-7.32-2.5Z"/><path class="cls-20" d="M72.87,204.1c-5.08-.85-3.95,.85-8.19-1.42,0,0-4.52-2.54-8.78-1.98-4.26,.57-6.49,1.98-10.73,2.55-4.24,.57-6.78-.29-12.7,.28-5.92,.57-9.04,1.12-12.43,1.68-3.39,.56-8.15,1.41-8.15,1.41H80.23s-2.25-1.68-7.36-2.53Z"/><path class="cls-20" d="M60.34,174.62c-3.83-.97-7.72-1.72-11.64-2.24-5.56-.75-7.93,.37-11.92-.38-3.98-.75-6.08-2.6-10.03-3.36-3.95-.76-8.18,2.63-8.18,2.63-3.97,2.98-2.91,.74-7.67,1.88-4.76,1.14-6.9,3.3-6.9,3.3H68.01s-4.49-1.09-7.67-1.83Z"/><path class="cls-20" d="M98.68,227.9c-2.52-.63-5.08-1.11-7.66-1.44-3.65-.49-5.22,.24-7.84-.25-2.63-.49-4.01-1.71-6.62-2.2-2.61-.49-5.39,1.72-5.39,1.72-2.61,1.96-1.92,.49-5.04,1.22-3.13,.73-4.52,2.2-4.52,2.2h42.05s-2.92-.79-4.97-1.25Z"/><path class="cls-20" d="M126.61,234.31c-3.66-.49-5.22,.24-7.84-.25-2.62-.49-4.01-1.71-6.62-2.2-2.61-.49-5.4,1.71-5.4,1.71-2.61,1.96-1.88,.49-5.04,1.22-3.16,.73-4.52,2.2-4.52,2.2h42.1s-2.96-.73-5.04-1.22c-2.52-.64-5.07-1.13-7.64-1.47Z"/><path class="cls-20" d="M207.54,220.14c-3.65-.49-5.22,.24-7.84-.25-2.63-.49-4-1.71-6.61-2.2-2.61-.49-5.39,1.71-5.39,1.71-2.61,1.96-1.92,.49-5.04,1.22-3.13,.73-4.52,2.2-4.52,2.2h42.11l-5.04-1.26c-2.52-.63-5.08-1.11-7.66-1.43Z"/><path class="cls-20" d="M125.01,128.86h65.02s-2.24-1.68-7.34-2.51c-5.1-.82-3.96,.85-8.19-1.42,0,0-4.52-2.54-8.78-1.98-4.26,.57-6.5,1.98-10.73,2.54-4.23,.57-6.78-.28-12.71,.29-5.93,.57-9.04,1.12-12.43,1.68-1.53,.25-3.36,.56-4.87,.83l.02,.56Z"/><path class="cls-20" d="M222.84,126.79c-2.8,.27-4.28,.53-5.89,.8-1.61,.27-3.88,.67-3.88,.67h32.39c-1.06-.65-2.25-1.06-3.48-1.21-2.41-.4-1.88,.4-3.88-.67,0,0-2.13-1.21-4.14-.94-2.01,.27-3.08,.94-5.08,1.21-2.01,.27-3.21-.14-6.03,.13Z"/><path class="cls-20" d="M57.04,167.74s-2.13-1.2-4.14-.94-3.08,.94-5.09,1.2c-2.01,.26-3.21-.13-6.02,.14-2.81,.27-4.27,.56-5.88,.81l-3.89,.66h32.38c-1.06-.65-2.25-1.06-3.48-1.21-2.38-.4-1.87,.4-3.88-.66Z"/><path class="cls-20" d="M61.34,139.43c-2.41-.4-1.88,.4-3.87-.67,0,0-2.15-1.2-4.15-.94s-3.08,.94-5.09,1.21c-2.01,.27-3.21-.14-6.02,.13-2.81,.27-4.27,.56-5.88,.81-1.61,.25-3.88,.67-3.88,.67h32.36c-1.06-.65-2.24-1.06-3.47-1.21Z"/></g><path class="cls-20" d="M215.54,106.2c-.05-.32-.17-.63-.36-.9l-.67-.89c.42,.14,.86,.21,1.3,.19,.69,.05,1.37,.21,2.02,.47,0,0-.65-1.12-1.49-1.2-.65-.05-1.29-.05-1.94,0,.28-.26,.6-.46,.95-.61,.77-.37,1.02-.23,1.02-.23h.75c-.05-.24-.19-.46-.38-.62-.19-.16-.43-.25-.68-.25-.83,.03-1.8,1.44-1.8,1.44,0,0,.35-.47-.18-1.8-.29-.78-.86-1.41-1.61-1.77,.23,.81,.5,1.6,.83,2.38,.22,.4,.4,.81,.56,1.24-.2-.13-.42-.25-.64-.35-1.35-3.17-3.71-7.48-7.09-9.21l-.63-.84c.41,.14,.85,.21,1.29,.18,.69,.05,1.37,.21,2.02,.47,0,0-.65-1.12-1.49-1.21-.64-.04-1.29-.04-1.93,0,.28-.25,.6-.46,.95-.6,.76-.38,1.01-.23,1.01-.23h.76c-.05-.24-.19-.46-.38-.62-.19-.16-.43-.25-.68-.26-.84,.03-1.81,1.45-1.81,1.45,0,0,.35-.48-.18-1.8-.28-.78-.86-1.42-1.61-1.77,.22,.8,.5,1.59,.83,2.35,.21,.4,.4,.81,.56,1.24-.49-.33-1.06-.54-1.65-.6-.61,.13-1.18,.38-1.68,.75,.52,.28,1.09,.45,1.68,.5,.92,.08,1.8,.1,1.8,.1-.15,.08-.3,.18-.44,.28-.18-.04-.36-.08-.56-.11-3.54-.5-6.32,.13-8.79,.61-.61-.39-1.26-.73-1.94-1,0,0,1.61-.06,3.24-.21,1.01-.1,2.01-.35,2.95-.74-.88-.58-1.9-.89-2.95-.89s-2.08,.31-2.95,.89c.3-.57,.65-1.11,1.03-1.63,.62-.99,1.17-2.03,1.62-3.11-1.22,.43-2.26,1.27-2.95,2.37-1.04,1.77-.44,2.37-.44,2.37,0,0-1.69-1.77-3.17-1.77-.4-.02-.8,.09-1.15,.31-.34,.21-.61,.53-.77,.9h1.33s.45-.2,1.78,.25c.58,.15,1.13,.38,1.64,.7-1.14-.03-2.28,0-3.41,.08-.51,.07-.99,.25-1.42,.53-4.26-3.01-8.02-11.87-19.57-14.76-12.12-3-30.67,14.57-41.93,17.19-10.64,2.38-34.23-3.88-52.57,.62-.47-.19-.97-.31-1.48-.34-.78,.09-1.54,.31-2.24,.67,.23-.42,.49-.82,.78-1.2,.46-.75,.86-1.54,1.2-2.35-.93,.32-1.73,.96-2.24,1.8-.78,1.34-.34,1.8-.34,1.8,0,0-1.2-1.34-2.35-1.34-.3-.01-.6,.06-.86,.22-.26,.16-.46,.39-.59,.67h1s.34-.15,1.34,.18c.44,.11,.85,.29,1.23,.53-.86-.02-1.72,0-2.58,.07-.8,.16-1.51,.59-2.04,1.21,.88-.29,1.79-.48,2.71-.56,.59,0,1.17-.07,1.74-.23l-.46,.44c-2.5,.84-4.69,1.59-6.62,2.29,.79,.1,1.52,.5,2.03,1.12,.96,1.09,.79,1.65,.79,1.65,0,0,.44-1.65,1.2-1.97,.24-.07,.49-.07,.72,.02,.23,.09,.43,.24,.56,.45l-.69,.28s-.29-.06-.88,.56c-.28,.25-.52,.54-.7,.87,.59-.26,1.19-.48,1.81-.66,.81-.2,1.8,.61,1.8,.61-.7-.03-1.39,.05-2.06,.24-.41,.16-.84,.25-1.28,.26l.92,.6c.27,.19,.49,.44,.64,.73l.94,1.73c-.53-.32-1.03-.7-1.5-1.12-.41-.46-.8-.94-1.16-1.45-.18,.77-.44,1.53-.79,2.24-.29,.51-.64,.98-1.05,1.41,.01-.87,.19-1.74,.52-2.54,.26-.51,.58-.99,.95-1.43,0,0-.86,.29-1.76,.53-.56,.14-1.15,.17-1.73,.08,.35-.52,.81-.96,1.34-1.28,.58-.14,1.19-.14,1.77,0-.29-.35-.6-.67-.93-.98-.56-.61-1.09-1.25-1.56-1.93-3.7,1.35-6.4,2.44-8.52,3.31-.36-.15-.74-.24-1.12-.26-.59,.06-1.16,.23-1.68,.5,.18-.32,.38-.63,.6-.92,.35-.56,.66-1.15,.92-1.75-.7,.24-1.29,.71-1.68,1.34-.6,1-.25,1.33-.25,1.33,0,0-.92-1-1.75-1-.23-.02-.47,.03-.67,.15-.2,.12-.36,.3-.45,.51h.8s.25-.11,1,.14c.33,.08,.64,.22,.92,.4-.64-.02-1.29,0-1.93,.05-.59,.13-1.13,.44-1.53,.9,.66-.21,1.34-.35,2.03-.4,.44,0,.88-.05,1.3-.17l-.69,.67c-.08,.07-.15,.16-.2,.25-1.47,.55-3.01,.9-4.58,1.04-5.56,.5-14.15,2.53-14.15,2.53H216.56l-.75-.56-.28-1.79Zm-163.99-2.24l-.73,.29c-.3-.15-.49-.22-.49-.22,0,0,.56,0,1.23-.07Zm-1.48,.4l.12,.13-.22,.08c.06-.12,.1-.22,.1-.22Zm9.7,.67c-.31,.13-.65,.2-.99,.2l.72,.48c.21,.14,.38,.34,.49,.56l.73,1.34c-.42-.25-.8-.54-1.16-.87-.33-.35-.63-.73-.9-1.12-.14,.59-.34,1.17-.6,1.72-.23,.39-.51,.76-.83,1.08,0-.68,.14-1.35,.4-1.97,.2-.4,.45-.78,.73-1.12,0,0-.67,.22-1.36,.41-.44,.11-.9,.12-1.34,.06,.28-.39,.65-.72,1.06-.96,.45-.11,.92-.11,1.37,0-.22-.27-.46-.52-.72-.76-.43-.48-.83-.99-1.2-1.52,.64,.07,1.23,.38,1.64,.87,.75,.85,.61,1.29,.61,1.29,0,0,.34-1.28,.95-1.53,.18-.06,.38-.05,.56,.02,.18,.07,.34,.19,.44,.35l-.56,.21s-.22-.04-.68,.43c-.22,.19-.41,.42-.56,.67,.46-.2,.93-.37,1.41-.51,.6-.15,1.39,.48,1.39,.48-.55-.02-1.09,.05-1.62,.2h.03Zm9.87-7.91h.38l-.23,.07-.15-.07Zm3.5,7.38c-.32,.13-.65,.2-1,.21l.72,.48c.21,.14,.38,.33,.49,.56l.73,1.34c-.41-.25-.8-.55-1.16-.87-.32-.36-.62-.73-.9-1.12-.14,.6-.34,1.17-.6,1.73-.23,.39-.5,.76-.81,1.09,0-.68,.14-1.35,.4-1.97,.2-.4,.45-.78,.73-1.12,0,0-.67,.22-1.37,.4-.44,.11-.89,.13-1.34,.06,.27-.4,.63-.74,1.05-.99,.45-.1,.92-.09,1.37,.03-.22-.27-.46-.52-.71-.76-.43-.48-.82-.99-1.18-1.52,.64,.07,1.23,.38,1.64,.87,.74,.85,.6,1.28,.6,1.28,0,0,.34-1.28,.95-1.52,.18-.06,.38-.05,.56,.01,.18,.07,.33,.19,.44,.35l-.56,.22s-.21-.04-.68,.43c-.22,.2-.41,.42-.56,.68,.46-.21,.93-.38,1.41-.52,.51-.03,1.01,.14,1.39,.48-.55-.02-1.1,.04-1.62,.18v.02Zm119.68-10.95s.25,.3,.6,.68c-.32,.04-.65,.06-.96,.08,.21-.44,.35-.77,.35-.77h0Zm-2.8-.2c.76,0,1.51-.09,2.24-.28l-1.23,1.21-.04,.04c-.86-.1-1.69-.35-2.46-.75,.46-.11,.93-.18,1.4-.2h.09Zm-9.26,8.62c.7,.56,1.26,1.27,1.64,2.08-1.47-.46-2.76-1.36-3.7-2.57-.25,.58-.55,1.14-.88,1.68-.42,.55-.89,1.06-1.41,1.52l.49-1.87c.09-.33,.26-.63,.51-.87l.91-.87c-.55,.15-1.11,.22-1.68,.22-.9,.08-1.79,.27-2.65,.56,.51-.61,1.21-1.04,1.99-1.21,.84-.07,1.68-.09,2.51-.07-.37-.23-.78-.41-1.2-.52-.98-.33-1.32-.18-1.32-.18h-1.08c.13-.27,.33-.5,.59-.65,.26-.15,.56-.22,.85-.2,1.09,0,2.29,1.3,2.29,1.3,0,0-.44-.43,.32-1.74,.51-.81,1.28-1.43,2.18-1.74-.34,.79-.74,1.56-1.21,2.29-.28,.38-.54,.79-.77,1.21,.65-.43,1.4-.66,2.18-.66s1.54,.23,2.18,.66c-.69,.29-1.43,.48-2.18,.56-1.21,.11-2.4,.16-2.4,.16,.61,.24,1.2,.55,1.75,.91l.07-.02Zm8.49,2.54c.19,.26,.32,.57,.36,.9l.3,1.94c-.39-.48-.74-1.01-1.02-1.56-.24-.57-.44-1.15-.6-1.75-.43,.66-.93,1.28-1.49,1.83-.45,.38-.94,.71-1.46,.98,.45-1.4,1.42-2.57,2.72-3.26,0,0-.92,0-1.84-.1-.59-.05-1.16-.23-1.68-.5,.5-.37,1.07-.63,1.68-.76,.59,.07,1.15,.27,1.65,.6-.16-.42-.35-.84-.56-1.24-.33-.77-.61-1.56-.83-2.37,.74,.36,1.32,.99,1.61,1.77,.56,1.36,.18,1.8,.18,1.8,0,0,.97-1.41,1.8-1.44,.25,0,.49,.1,.68,.26s.33,.38,.38,.62h-.75s-.25-.15-1.02,.23c-.35,.15-.67,.35-.95,.6,.64-.05,1.29-.05,1.94,0,.83,.08,1.48,1.21,1.48,1.21-.64-.26-1.32-.42-2.02-.47-.44,.02-.88-.05-1.3-.18l.73,.91Zm13.68-.15c.95,.75,1.72,1.71,2.24,2.8-.88-.31-1.72-.72-2.51-1.21-.92-.66-1.76-1.43-2.49-2.29-.34,.79-.75,1.56-1.21,2.29-.57,.75-1.21,1.45-1.92,2.07l.67-2.53c.11-.46,.35-.88,.69-1.21l1.23-1.21c-.75,.21-1.52,.31-2.3,.31-1.23,.1-2.44,.34-3.61,.71,0,0,1.2-1.45,2.7-1.6,1.13-.09,2.27-.12,3.41-.08-.5-.31-1.05-.55-1.63-.7-1.33-.44-1.81-.24-1.81-.24h-1.34c.16-.37,.43-.68,.77-.9,.34-.22,.74-.32,1.14-.31,1.48,0,3.1,1.8,3.1,1.8,0,0-.6-.6,.44-2.37,.69-1.1,1.73-1.94,2.96-2.37-.46,1.08-1,2.12-1.63,3.11-.38,.52-.73,1.06-1.03,1.63,.88-.58,1.9-.89,2.96-.89s2.08,.31,2.96,.89c-.94,.39-1.94,.64-2.95,.74-1.62,.15-3.24,.21-3.24,.21,.83,.35,1.61,.79,2.35,1.31l.05,.02Zm11.09,0l-.27,.16c0-.06-.03-.12-.07-.17h.34Zm0,.84l.26-.38c.16,.6,.36,1.19,.6,1.76,.22,.42,.47,.82,.76,1.2l-1.03-.77s-.22-.7-.62-1.8h.03Z"/><path class="cls-16" d="M215.54,106.2c-.05-.32-.17-.63-.36-.9l-.67-.89c.42,.14,.86,.21,1.3,.19,.69,.05,1.37,.21,2.02,.47,0,0-.65-1.12-1.49-1.2-.65-.05-1.29-.05-1.94,0,.28-.26,.6-.46,.95-.61,.77-.37,1.02-.23,1.02-.23h.75c-.05-.24-.19-.46-.38-.62-.19-.16-.43-.25-.68-.25-.83,.03-1.8,1.44-1.8,1.44,0,0,.35-.47-.18-1.8-.29-.78-.86-1.41-1.61-1.77,.23,.81,.5,1.6,.83,2.38,.22,.4,.4,.81,.56,1.24-.2-.13-.42-.25-.64-.35-1.35-3.17-3.71-7.48-7.09-9.21l-.63-.84c.41,.14,.85,.21,1.29,.18,.69,.05,1.37,.21,2.02,.47,0,0-.65-1.12-1.49-1.21-.64-.04-1.29-.04-1.93,0,.28-.25,.6-.46,.95-.6,.76-.38,1.01-.23,1.01-.23h.76c-.05-.24-.19-.46-.38-.62-.19-.16-.43-.25-.68-.26-.84,.03-1.81,1.45-1.81,1.45,0,0,.35-.48-.18-1.8-.28-.78-.86-1.42-1.61-1.77,.22,.8,.5,1.59,.83,2.35,.21,.4,.4,.81,.56,1.24-.49-.33-1.06-.54-1.65-.6-.61,.13-1.18,.38-1.68,.75,.52,.28,1.09,.45,1.68,.5,.92,.08,1.8,.1,1.8,.1-.15,.08-.3,.18-.44,.28-.18-.04-.36-.08-.56-.11-3.54-.5-6.32,.13-8.79,.61-.61-.39-1.26-.73-1.94-1,0,0,1.61-.06,3.24-.21,1.01-.1,2.01-.35,2.95-.74-.88-.58-1.9-.89-2.95-.89s-2.08,.31-2.95,.89c.3-.57,.65-1.11,1.03-1.63,.62-.99,1.17-2.03,1.62-3.11-1.22,.43-2.26,1.27-2.95,2.37-1.04,1.77-.44,2.37-.44,2.37,0,0-1.69-1.77-3.17-1.77-.4-.02-.8,.09-1.15,.31-.34,.21-.61,.53-.77,.9h1.33s.45-.2,1.78,.25c.58,.15,1.13,.38,1.64,.7-1.14-.03-2.28,0-3.41,.08-.51,.07-.99,.25-1.42,.53-4.26-3.01-8.02-11.87-19.57-14.76-12.12-3-30.67,14.57-41.93,17.19-10.64,2.38-34.23-3.88-52.57,.62-.47-.19-.97-.31-1.48-.34-.78,.09-1.54,.31-2.24,.67,.23-.42,.49-.82,.78-1.2,.46-.75,.86-1.54,1.2-2.35-.93,.32-1.73,.96-2.24,1.8-.78,1.34-.34,1.8-.34,1.8,0,0-1.2-1.34-2.35-1.34-.3-.01-.6,.06-.86,.22-.26,.16-.46,.39-.59,.67h1s.34-.15,1.34,.18c.44,.11,.85,.29,1.23,.53-.86-.02-1.72,0-2.58,.07-.8,.16-1.51,.59-2.04,1.21,.88-.29,1.79-.48,2.71-.56,.59,0,1.17-.07,1.74-.23l-.46,.44c-2.5,.84-4.69,1.59-6.62,2.29,.79,.1,1.52,.5,2.03,1.12,.96,1.09,.79,1.65,.79,1.65,0,0,.44-1.65,1.2-1.97,.24-.07,.49-.07,.72,.02,.23,.09,.43,.24,.56,.45l-.69,.28s-.29-.06-.88,.56c-.28,.25-.52,.54-.7,.87,.59-.26,1.19-.48,1.81-.66,.81-.2,1.8,.61,1.8,.61-.7-.03-1.39,.05-2.06,.24-.41,.16-.84,.25-1.28,.26l.92,.6c.27,.19,.49,.44,.64,.73l.94,1.73c-.53-.32-1.03-.7-1.5-1.12-.41-.46-.8-.94-1.16-1.45-.18,.77-.44,1.53-.79,2.24-.29,.51-.64,.98-1.05,1.41,.01-.87,.19-1.74,.52-2.54,.26-.51,.58-.99,.95-1.43,0,0-.86,.29-1.76,.53-.56,.14-1.15,.17-1.73,.08,.35-.52,.81-.96,1.34-1.28,.58-.14,1.19-.14,1.77,0-.29-.35-.6-.67-.93-.98-.56-.61-1.09-1.25-1.56-1.93-3.7,1.35-6.4,2.44-8.52,3.31-.36-.15-.74-.24-1.12-.26-.59,.06-1.16,.23-1.68,.5,.18-.32,.38-.63,.6-.92,.35-.56,.66-1.15,.92-1.75-.7,.24-1.29,.71-1.68,1.34-.6,1-.25,1.33-.25,1.33,0,0-.92-1-1.75-1-.23-.02-.47,.03-.67,.15-.2,.12-.36,.3-.45,.51h.8s.25-.11,1,.14c.33,.08,.64,.22,.92,.4-.64-.02-1.29,0-1.93,.05-.59,.13-1.13,.44-1.53,.9,.66-.21,1.34-.35,2.03-.4,.44,0,.88-.05,1.3-.17l-.69,.67c-.08,.07-.15,.16-.2,.25-1.47,.55-3.01,.9-4.58,1.04-5.56,.5-14.15,2.53-14.15,2.53H216.56l-.75-.56-.28-1.79Zm-163.99-2.24l-.73,.29c-.3-.15-.49-.22-.49-.22,0,0,.56,0,1.23-.07Zm-1.48,.4l.12,.13-.22,.08c.06-.12,.1-.22,.1-.22Zm9.7,.67c-.31,.13-.65,.2-.99,.2l.72,.48c.21,.14,.38,.34,.49,.56l.73,1.34c-.42-.25-.8-.54-1.16-.87-.33-.35-.63-.73-.9-1.12-.14,.59-.34,1.17-.6,1.72-.23,.39-.51,.76-.83,1.08,0-.68,.14-1.35,.4-1.97,.2-.4,.45-.78,.73-1.12,0,0-.67,.22-1.36,.41-.44,.11-.9,.12-1.34,.06,.28-.39,.65-.72,1.06-.96,.45-.11,.92-.11,1.37,0-.22-.27-.46-.52-.72-.76-.43-.48-.83-.99-1.2-1.52,.64,.07,1.23,.38,1.64,.87,.75,.85,.61,1.29,.61,1.29,0,0,.34-1.28,.95-1.53,.18-.06,.38-.05,.56,.02,.18,.07,.34,.19,.44,.35l-.56,.21s-.22-.04-.68,.43c-.22,.19-.41,.42-.56,.67,.46-.2,.93-.37,1.41-.51,.6-.15,1.39,.48,1.39,.48-.55-.02-1.09,.05-1.62,.2h.03Zm9.87-7.91h.38l-.23,.07-.15-.07Zm3.5,7.38c-.32,.13-.65,.2-1,.21l.72,.48c.21,.14,.38,.33,.49,.56l.73,1.34c-.41-.25-.8-.55-1.16-.87-.32-.36-.62-.73-.9-1.12-.14,.6-.34,1.17-.6,1.73-.23,.39-.5,.76-.81,1.09,0-.68,.14-1.35,.4-1.97,.2-.4,.45-.78,.73-1.12,0,0-.67,.22-1.37,.4-.44,.11-.89,.13-1.34,.06,.27-.4,.63-.74,1.05-.99,.45-.1,.92-.09,1.37,.03-.22-.27-.46-.52-.71-.76-.43-.48-.82-.99-1.18-1.52,.64,.07,1.23,.38,1.64,.87,.74,.85,.6,1.28,.6,1.28,0,0,.34-1.28,.95-1.52,.18-.06,.38-.05,.56,.01,.18,.07,.33,.19,.44,.35l-.56,.22s-.21-.04-.68,.43c-.22,.2-.41,.42-.56,.68,.46-.21,.93-.38,1.41-.52,.51-.03,1.01,.14,1.39,.48-.55-.02-1.1,.04-1.62,.18v.02Zm119.68-10.95s.25,.3,.6,.68c-.32,.04-.65,.06-.96,.08,.21-.44,.35-.77,.35-.77h0Zm-2.8-.2c.76,0,1.51-.09,2.24-.28l-1.23,1.21-.04,.04c-.86-.1-1.69-.35-2.46-.75,.46-.11,.93-.18,1.4-.2h.09Zm-9.26,8.62c.7,.56,1.26,1.27,1.64,2.08-1.47-.46-2.76-1.36-3.7-2.57-.25,.58-.55,1.14-.88,1.68-.42,.55-.89,1.06-1.41,1.52l.49-1.87c.09-.33,.26-.63,.51-.87l.91-.87c-.55,.15-1.11,.22-1.68,.22-.9,.08-1.79,.27-2.65,.56,.51-.61,1.21-1.04,1.99-1.21,.84-.07,1.68-.09,2.51-.07-.37-.23-.78-.41-1.2-.52-.98-.33-1.32-.18-1.32-.18h-1.08c.13-.27,.33-.5,.59-.65,.26-.15,.56-.22,.85-.2,1.09,0,2.29,1.3,2.29,1.3,0,0-.44-.43,.32-1.74,.51-.81,1.28-1.43,2.18-1.74-.34,.79-.74,1.56-1.21,2.29-.28,.38-.54,.79-.77,1.21,.65-.43,1.4-.66,2.18-.66s1.54,.23,2.18,.66c-.69,.29-1.43,.48-2.18,.56-1.21,.11-2.4,.16-2.4,.16,.61,.24,1.2,.55,1.75,.91l.07-.02Zm8.49,2.54c.19,.26,.32,.57,.36,.9l.3,1.94c-.39-.48-.74-1.01-1.02-1.56-.24-.57-.44-1.15-.6-1.75-.43,.66-.93,1.28-1.49,1.83-.45,.38-.94,.71-1.46,.98,.45-1.4,1.42-2.57,2.72-3.26,0,0-.92,0-1.84-.1-.59-.05-1.16-.23-1.68-.5,.5-.37,1.07-.63,1.68-.76,.59,.07,1.15,.27,1.65,.6-.16-.42-.35-.84-.56-1.24-.33-.77-.61-1.56-.83-2.37,.74,.36,1.32,.99,1.61,1.77,.56,1.36,.18,1.8,.18,1.8,0,0,.97-1.41,1.8-1.44,.25,0,.49,.1,.68,.26s.33,.38,.38,.62h-.75s-.25-.15-1.02,.23c-.35,.15-.67,.35-.95,.6,.64-.05,1.29-.05,1.94,0,.83,.08,1.48,1.21,1.48,1.21-.64-.26-1.32-.42-2.02-.47-.44,.02-.88-.05-1.3-.18l.73,.91Zm13.68-.15c.95,.75,1.72,1.71,2.24,2.8-.88-.31-1.72-.72-2.51-1.21-.92-.66-1.76-1.43-2.49-2.29-.34,.79-.75,1.56-1.21,2.29-.57,.75-1.21,1.45-1.92,2.07l.67-2.53c.11-.46,.35-.88,.69-1.21l1.23-1.21c-.75,.21-1.52,.31-2.3,.31-1.23,.1-2.44,.34-3.61,.71,0,0,1.2-1.45,2.7-1.6,1.13-.09,2.27-.12,3.41-.08-.5-.31-1.05-.55-1.63-.7-1.33-.44-1.81-.24-1.81-.24h-1.34c.16-.37,.43-.68,.77-.9,.34-.22,.74-.32,1.14-.31,1.48,0,3.1,1.8,3.1,1.8,0,0-.6-.6,.44-2.37,.69-1.1,1.73-1.94,2.96-2.37-.46,1.08-1,2.12-1.63,3.11-.38,.52-.73,1.06-1.03,1.63,.88-.58,1.9-.89,2.96-.89s2.08,.31,2.96,.89c-.94,.39-1.94,.64-2.95,.74-1.62,.15-3.24,.21-3.24,.21,.83,.35,1.61,.79,2.35,1.31l.05,.02Zm11.09,0l-.27,.16c0-.06-.03-.12-.07-.17h.34Zm0,.84l.26-.38c.16,.6,.36,1.19,.6,1.76,.22,.42,.47,.82,.76,1.2l-1.03-.77s-.22-.7-.62-1.8h.03Z"/><path class="cls-20" d="M216.21,66.81c-2.12-1.03-3.08-.17-3.85-1.03-.77-.86,2.12-3.09-3.66-5.32,0,0-.38-4.8-8.27-4.98-7.89-.18-5.78,4.81-7.89,6.01-2.12,1.21-2.69-.69-4.81,.51-2.12,1.2-1.15,3.6-2.88,3.95-1.73,.35-4.04-1.55-6.16-.35-2.12,1.2-2.12,2.24-3.08,2.24s-2.89-.68-4.04,0c-1.15,.68-2.51,1.55-2.51,1.55h48.7s.59-1.56-1.53-2.58Z"/><path class="cls-20" d="M121.75,76.07c-2.98-1.45-4.32-.24-5.41-1.45-1.09-1.21,2.98-4.34-5.14-7.48,0,0-.56-6.73-11.64-7-11.08-.27-8.12,6.73-11.09,8.41-2.97,1.68-3.76-.97-6.77,.72-3,1.69-1.62,5.07-4.07,5.55-2.44,.48-5.68-2.17-8.66-.48-2.17,1.26-2.76,2.33-3.44,2.84-.18,.02-.36,0-.53-.06-.17-.06-.32-.16-.45-.28-.63-.67,1.68-2.42-2.86-4.16,0,0-.3-3.77-6.48-3.9-6.17-.13-4.52,3.76-6.16,4.7-1.64,.94-2.11-.56-3.76,.4-1.65,.96-.91,2.8-2.24,3.09-1.33,.29-3.14-1.21-4.82-.27-1.68,.94-1.68,1.75-2.41,1.75s-2.24-.56-3.14,0l-1.96,1.21H123.94s.78-2.16-2.2-3.58Z"/><path class="cls-20" d="M168.71,35.58c-4.22-2.05-6.13-.35-7.67-2.05-1.54-1.7,4.22-6.17-7.28-10.61,0,0-.76-9.57-16.48-9.92-15.72-.34-11.51,9.57-15.73,11.97-4.22,2.39-5.37-1.37-9.58,1.03-4.22,2.4-2.3,7.17-5.75,7.85-3.45,.67-8.05-3.07-12.27-.68-4.22,2.39-4.21,4.45-6.13,4.45s-5.75-1.37-8.05,0c-2.3,1.37-5.04,3.07-5.04,3.07h97.08s1.15-3.06-3.08-5.11Z"/><g class="cls-24"><path class="cls-13" d="M216.21,66.81c-2.12-1.03-3.08-.17-3.85-1.03-.77-.86,2.12-3.09-3.66-5.32,0,0-.38-4.8-8.27-4.98-7.89-.18-5.78,4.81-7.89,6.01-2.12,1.21-2.69-.69-4.81,.51-2.12,1.2-1.15,3.6-2.88,3.95-1.73,.35-4.04-1.55-6.16-.35-2.12,1.2-2.12,2.24-3.08,2.24s-2.89-.68-4.04,0c-1.15,.68-2.51,1.55-2.51,1.55h48.7s.59-1.56-1.53-2.58Z"/><g class="cls-22"><path class="cls-13" d="M121.75,76.07c-2.98-1.45-4.32-.24-5.41-1.45-1.09-1.21,2.98-4.34-5.14-7.48,0,0-.56-6.73-11.64-7-11.08-.27-8.12,6.73-11.09,8.41-2.97,1.68-3.76-.97-6.77,.72-3,1.69-1.62,5.07-4.07,5.55-2.44,.48-5.68-2.17-8.66-.48-2.17,1.26-2.76,2.33-3.44,2.84-.18,.02-.36,0-.53-.06-.17-.06-.32-.16-.45-.28-.63-.67,1.68-2.42-2.86-4.16,0,0-.3-3.77-6.48-3.9-6.17-.13-4.52,3.76-6.16,4.7-1.64,.94-2.11-.56-3.76,.4-1.65,.96-.91,2.8-2.24,3.09-1.33,.29-3.14-1.21-4.82-.27-1.68,.94-1.68,1.75-2.41,1.75s-2.24-.56-3.14,0l-1.96,1.21H123.94s.78-2.16-2.2-3.58Z"/></g><path class="cls-13" d="M168.71,35.58c-4.22-2.05-6.13-.35-7.67-2.05-1.54-1.7,4.22-6.17-7.28-10.61,0,0-.76-9.57-16.48-9.92-15.72-.34-11.51,9.57-15.73,11.97-4.22,2.39-5.37-1.37-9.58,1.03-4.22,2.4-2.3,7.17-5.75,7.85-3.45,.67-8.05-3.07-12.27-.68-4.22,2.39-4.21,4.45-6.13,4.45s-5.75-1.37-8.05,0c-2.3,1.37-5.04,3.07-5.04,3.07h97.08s1.15-3.06-3.08-5.11Z"/></g><path class="cls-12" d="M227.13,109.45h6.2"/><path class="cls-12" d="M34.19,109.45H222.34"/><path class="cls-12" d="M21.4,109.45h8.79"/><path class="cls-12" d="M11.09,109.45h5.92"/><path class="cls-2" d="M121.25,230.2s-3.49-5.02-12.27-7.1c-8.78-2.08-15.82-1.72-15.82-7.21s3.81-22.98-3.52-26.42c-7.33-3.44-24.31-6.86-21.95-12.01,2.36-5.15,8.78-6.86,2.35-12.33-6.43-5.47-17.87-7.91-18.18-13.06-.32-5.15,8.5-7.53,14.35-7.2,5.85,.33,3.22-4.48,2.05-7.53-1.17-3.05,12.89-2.74,14.64-2.74s35.66,80.77,38.34,95.61Z"/><path class="cls-5" d="M122.43,230.88s3.49-5.02,12.28-7.1c8.78-2.09,15.82-1.72,15.82-7.21s-3.81-22.98,3.52-26.42c7.33-3.44,24.3-6.85,21.95-12.01-2.35-5.16-8.78-6.87-2.34-12.33,6.44-5.46,17.87-7.89,18.18-13.04,.32-5.15-8.5-7.53-14.35-7.21-5.85,.32-3.23-4.49-2.05-7.53,1.18-3.05-12.89-2.75-14.64-2.75s-35.68,80.74-38.35,95.6Z"/><path class="cls-15" d="M122.43,230.88s3.49-5.02,12.28-7.1c8.78-2.09,15.82-1.72,15.82-7.21s-3.81-22.98,3.52-26.42c7.33-3.44,24.3-6.85,21.95-12.01-2.35-5.16-8.78-6.87-2.34-12.33,6.44-5.46,17.87-7.89,18.18-13.04,.32-5.15-8.5-7.53-14.35-7.21-5.85,.32-3.23-4.49-2.05-7.53,1.18-3.05-12.89-2.75-14.64-2.75s-35.68,80.74-38.35,95.6Z"/><path class="cls-5" d="M94.62,223.55s-10.16,.45-11.71-5.95c-1.56-6.4,9.76-10.53,1.56-16.01-8.21-5.49-26.55-2.74-28.9-10.52-2.34-7.78,6.27-11.44,6.27-11.44,0,0-6.27,6.41,.39,9.15,6.66,2.74,28.9,5.04,30.47,14.65,1.28,8.02-8.05,15.12,1.93,20.13Z"/><path class="cls-5" d="M149.66,223.55s10.15,.45,11.71-5.95c1.56-6.4-9.76-10.53-1.56-16.01,8.2-5.49,26.56-2.74,28.9-10.52,2.35-7.78-6.27-11.44-6.27-11.44,0,0,6.27,6.41-.39,9.15-6.66,2.74-28.9,5.04-30.46,14.65-1.28,8.02,8.06,15.12-1.93,20.13Z"/><path class="cls-18" d="M184.37,181.32c.56,.39,1.16,.88,1.73,1.46,1.78,1.8,3.24,4.48,2.13,8.14-.52,1.74-1.95,2.94-4.07,3.84-2.12,.9-4.84,1.45-7.79,1.93-.82,.13-1.65,.26-2.5,.4-2.18,.34-4.42,.68-6.53,1.15-2.93,.64-5.69,1.51-7.82,2.94-2.11,1.41-3.08,2.81-3.21,4.29-.13,1.44,.55,2.8,1.36,4.06,.28,.44,.59,.89,.9,1.33,.14,.2,.27,.4,.41,.6,.44,.65,.86,1.29,1.2,1.95,.68,1.32,1.05,2.64,.7,4.08-.71,2.92-3.39,4.33-6.08,5.01-1.17,.29-2.3,.44-3.21,.51,1.51-1.03,2.41-2.17,2.87-3.41,.6-1.64,.38-3.38-.09-5.11-.24-.87-.54-1.76-.85-2.65l-.03-.1c-.3-.87-.6-1.74-.86-2.62-.53-1.84-.85-3.71-.55-5.61,.36-2.21,1.91-4.04,4.27-5.62,2.35-1.57,5.43-2.83,8.71-3.88,3.19-1.03,6.53-1.85,9.52-2.59,.08-.02,.16-.04,.24-.06,3.03-.75,5.71-1.41,7.42-2.12,1.76-.72,2.74-1.72,3.15-2.88,.4-1.14,.21-2.33-.18-3.36-.23-.6-.53-1.17-.84-1.68Z"/><path class="cls-6" d="M79.45,202.36c.67,.27,1.27,.71,1.74,1.26"/><path class="cls-6" d="M54.98,195.28c1.19,1.01,2.55,1.79,4.02,2.31,4.48,1.68,12.66,2.42,17.83,3.85"/><path class="cls-6" d="M52.48,191.07c.12,.85,.43,1.66,.91,2.38"/><path class="cls-6" d="M54.62,160.56c4.23,1.79,11.52,4.64,12.54,6.96,1.25,2.85-2.8,3.17-2.8,3.17"/><path class="cls-12" d="M50.46,157.83c.49,.55,1.06,1.04,1.68,1.44"/><path class="cls-6" d="M49.51,156.12c.04,.17,.1,.34,.17,.49"/><path class="cls-6" d="M166.7,202.36c-.67,.27-1.26,.71-1.73,1.26"/><path class="cls-6" d="M191.17,195.28c-1.19,1.01-2.55,1.79-4.02,2.31-4.48,1.68-12.66,2.42-17.84,3.85"/><path class="cls-6" d="M193.68,191.07c-.12,.85-.43,1.66-.91,2.38"/><path class="cls-6" d="M191.53,160.56c-4.23,1.79-11.51,4.64-12.54,6.96-1.25,2.85,2.8,3.17,2.8,3.17"/><path class="cls-6" d="M195.69,157.83c-.49,.55-1.06,1.04-1.68,1.44"/><path class="cls-6" d="M196.65,156.12c-.04,.17-.1,.34-.17,.49"/><path class="cls-1" d="M165.08,108.48H78.64l-3.76,3.6v26.57c0,1.04,.24,2.07,.69,3,2.51,5.09,12.54,28.39,18.68,38.19,11.29,18.08,26.1,48.45,26.89,50.35,.03,.17,.12,.32,.25,.43,.13,.11,.3,.17,.47,.17s.34-.06,.47-.17c.13-.11,.22-.26,.25-.43,.79-1.88,15.63-32.27,26.89-50.35,6.11-9.81,16.19-33.1,18.69-38.19,.46-.94,.69-1.96,.69-3v-26.57l-3.79-3.6Z"/><g><path class="cls-25" d="M165.08,108.48H78.64l-3.76,3.6v30.03c0,1.04,.24,2.07,.69,3.01,2.51,5.08,12.54,24.93,18.68,34.75,11.29,18.08,26.1,48.45,26.89,50.35,.03,.17,.12,.32,.25,.43,.13,.11,.3,.17,.47,.17s.34-.06,.47-.17c.13-.11,.22-.26,.25-.43,.79-1.88,15.63-32.27,26.89-50.35,6.11-9.81,16.19-29.65,18.69-34.75,.46-.94,.69-1.97,.69-3.01v-30.03l-3.79-3.6Z"/><path d="M165.08,108.48H78.64l-3.76,3.6v30.03c0,1.04,.24,2.07,.69,3.01,2.51,5.08,12.54,24.93,18.68,34.75,11.29,18.08,26.1,48.45,26.89,50.35,.03,.17,.12,.32,.25,.43,.13,.11,.3,.17,.47,.17s.34-.06,.47-.17c.13-.11,.22-.26,.25-.43,.79-1.88,15.63-32.27,26.89-50.35,6.11-9.81,16.19-29.65,18.69-34.75,.46-.94,.69-1.97,.69-3.01v-30.03l-3.79-3.6Z"/><path class="cls-4" d="M165.08,108.48H78.64l-3.76,3.6v30.03c0,1.04,.24,2.07,.69,3.01,2.51,5.08,12.54,24.93,18.68,34.75,11.29,18.08,26.1,48.45,26.89,50.35,.03,.17,.12,.32,.25,.43,.13,.11,.3,.17,.47,.17s.34-.06,.47-.17c.13-.11,.22-.26,.25-.43,.79-1.88,15.63-32.27,26.89-50.35,6.11-9.81,16.19-29.65,18.69-34.75,.46-.94,.69-1.97,.69-3.01v-30.03l-3.79-3.6Z"/><path class="cls-11" d="M165.08,108.48H78.64l-3.76,3.6v30.03c0,1.04,.24,2.07,.69,3.01,2.51,5.08,12.54,24.93,18.68,34.75,11.29,18.08,26.1,48.45,26.89,50.35,.03,.17,.12,.32,.25,.43,.13,.11,.3,.17,.47,.17s.34-.06,.47-.17c.13-.11,.22-.26,.25-.43,.79-1.88,15.63-32.27,26.89-50.35,6.11-9.81,16.19-29.65,18.69-34.75,.46-.94,.69-1.97,.69-3.01v-30.03l-3.79-3.6Z"/></g><path class="cls-9" d="M121.75,152.87v-5.72"/><path class="cls-9" d="M121.75,230.19v-67.49"/><path class="cls-23" d="M115.26,175.06c-3.03-11.68-10.23-21.83-20.25-28.55-6.64-.32-13.26-1.08-19.8-2.28,.1,.31,.21,.6,.35,.89,2.51,5.08,12.54,24.93,18.68,34.75,11.29,18.08,26.09,48.45,26.89,50.35,.07,.15,.16,.29,.29,.4,.13,.11,.28,.19,.44,.23-.11-.03-.22-.08-.31-.15-.43-10.63-1.9-38.51-6.3-55.64Zm-15.26,6.67c-1.25,.71-4.22-2.18-6.68-6.45-2.46-4.27-3.46-8.31-2.24-9.01,1.22-.71,4.22,2.18,6.68,6.44,2.46,4.27,3.47,8.31,2.24,9.02Z"/><path class="cls-4" d="M115.26,175.06c-3.03-11.68-10.23-21.83-20.25-28.55-6.64-.32-13.26-1.08-19.8-2.28,.1,.31,.21,.6,.35,.89,2.51,5.08,12.54,24.93,18.68,34.75,11.29,18.08,26.09,48.45,26.89,50.35,.07,.15,.16,.29,.29,.4,.13,.11,.28,.19,.44,.23-.11-.03-.22-.08-.31-.15-.43-10.63-1.9-38.51-6.3-55.64Zm-15.26,6.67c-1.25,.71-4.22-2.18-6.68-6.45-2.46-4.27-3.46-8.31-2.24-9.01,1.22-.71,4.22,2.18,6.68,6.44,2.46,4.27,3.47,8.31,2.24,9.02Z"/><path class="cls-11" d="M115.26,175.06c-3.03-11.68-10.23-21.83-20.25-28.55-6.64-.32-13.26-1.08-19.8-2.28,.1,.31,.21,.6,.35,.89,2.51,5.08,12.54,24.93,18.68,34.75,11.29,18.08,26.09,48.45,26.89,50.35,.07,.15,.16,.29,.29,.4,.13,.11,.28,.19,.44,.23-.11-.03-.22-.08-.31-.15-.43-10.63-1.9-38.51-6.3-55.64Zm-15.26,6.67c-1.25,.71-4.22-2.18-6.68-6.45-2.46-4.27-3.46-8.31-2.24-9.01,1.22-.71,4.22,2.18,6.68,6.44,2.46,4.27,3.47,8.31,2.24,9.02Z"/><path class="cls-23" d="M149.2,146.34c-10.24,6.67-17.62,16.92-20.73,28.74-4.45,17.16-5.94,45.1-6.36,55.68-.07,.04-.15,.08-.23,.1,.16-.04,.31-.12,.43-.23,.12-.11,.22-.24,.29-.4,.79-1.88,15.62-32.27,26.89-50.35,6.11-9.81,16.19-29.65,18.68-34.75,.25-.51,.44-1.04,.56-1.59-6.45,1.35-12.97,2.28-19.54,2.8Zm1.84,28.97c-2.46,4.27-5.45,7.15-6.68,6.44-1.23-.71-.24-4.75,2.24-9.01,2.48-4.26,5.45-7.15,6.68-6.45,1.23,.71,.24,4.72-2.24,8.97v.05Z"/><path class="cls-4" d="M149.2,146.34c-10.24,6.67-17.62,16.92-20.73,28.74-4.45,17.16-5.94,45.1-6.36,55.68-.07,.04-.15,.08-.23,.1,.16-.04,.31-.12,.43-.23,.12-.11,.22-.24,.29-.4,.79-1.88,15.62-32.27,26.89-50.35,6.11-9.81,16.19-29.65,18.68-34.75,.25-.51,.44-1.04,.56-1.59-6.45,1.35-12.97,2.28-19.54,2.8Zm1.84,28.97c-2.46,4.27-5.45,7.15-6.68,6.44-1.23-.71-.24-4.75,2.24-9.01,2.48-4.26,5.45-7.15,6.68-6.45,1.23,.71,.24,4.72-2.24,8.97v.05Z"/><path class="cls-11" d="M149.2,146.34c-10.24,6.67-17.62,16.92-20.73,28.74-4.45,17.16-5.94,45.1-6.36,55.68-.07,.04-.15,.08-.23,.1,.16-.04,.31-.12,.43-.23,.12-.11,.22-.24,.29-.4,.79-1.88,15.62-32.27,26.89-50.35,6.11-9.81,16.19-29.65,18.68-34.75,.25-.51,.44-1.04,.56-1.59-6.45,1.35-12.97,2.28-19.54,2.8Zm1.84,28.97c-2.46,4.27-5.45,7.15-6.68,6.44-1.23-.71-.24-4.75,2.24-9.01,2.48-4.26,5.45-7.15,6.68-6.45,1.23,.71,.24,4.72-2.24,8.97v.05Z"/><path class="cls-8" d="M122.38,108.48h-43.73l-3.76,3.6v7.75c10.86,6.32,27.82,10.39,46.9,10.39s36.04-4.09,46.93-10.39v-7.75l-3.76-3.6h-42.57Z"/><path class="cls-10" d="M121.28,50.05c-1.61,.04-3.2-.45-4.51-1.4v-5.04c0-1.13,.45-2.21,1.24-3,.79-.8,1.87-1.25,3-1.25,1.13,0,2.21,.45,3,1.24,.8,.8,1.24,1.88,1.24,3v4.83s.01,1.29-3.98,1.62Z"/><path class="cls-17" d="M113.97,68.28l3.43,2.4h8.4l3.94-2.75h-2.23l-2.57,1.89v-1.71h-7.37v1.54l-2.06-1.54-1.55,.17Z"/><path class="cls-1" d="M110.65,68.57c-1.61,.05-3.2-.44-4.51-1.38v-5.02c0-1.13,.45-2.21,1.24-3,.8-.8,1.88-1.24,3-1.24s2.21,.45,3,1.24c.8,.8,1.24,1.88,1.24,3v4.85s0,1.21-3.98,1.55Z"/><path class="cls-1" d="M132.25,68.57c-1.61,.04-3.2-.44-4.51-1.38v-5.02c0-1.13,.45-2.21,1.25-3,.8-.8,1.88-1.24,3-1.24s2.21,.45,3,1.24c.8,.8,1.24,1.88,1.24,3v4.85s0,1.21-3.99,1.55Z"/><path class="cls-17" d="M122.93,63.69v-2.84h-.71v-7.85h.97v-3.3h-4.16v3.3h.97v7.85h-.71v2.84h-1.32v3.3h6.28v-3.3h-1.32Z"/><path class="cls-1" d="M133.17,66.9h-24.35v1.54h24.35v-1.54Z"/><path class="cls-7" d="M121.97,117.16c17.97,0,34.28-2.1,46.28-5.5l-3.36-3.19H78.62l-3.25,3.13c12.06,3.44,28.49,5.56,46.61,5.56Z"/><path class="cls-7" d="M167.76,99.73c-.11-.81-.51-1.56-1.13-2.09-.62-.54-1.41-.83-2.23-.82H78.44c-.82,0-1.61,.28-2.23,.82-.62,.54-1.02,1.28-1.13,2.09-.39,2.74-.92,6.61-.92,7.89,0,2.06,.52,2.92,.52,2.92h93.47s.51-.86,.51-2.92c.02-1.28-.51-5.15-.9-7.89Z"/><path class="cls-25" d="M143.98,70.56h-45.78v1.72h45.78v-1.72Z"/><path d="M143.98,70.56h-45.78v1.72h45.78v-1.72Z"/><path class="cls-4" d="M143.98,70.56h-45.78v1.72h45.78v-1.72Z"/><path class="cls-11" d="M143.98,70.56h-45.78v1.72h45.78v-1.72Z"/><path class="cls-1" d="M98.2,72.28l-.17,2.91-2.75,3.44h51.62l-3.09-3.78,.17-2.57h-45.78Z"/><path class="cls-20" d="M100.25,72.28l-.15,2.91-2.5,3.44h46.98l-2.81-3.78,.16-2.57h-41.67Z"/><path class="cls-14" d="M100.25,72.28l-.15,2.91-2.5,3.44h46.98l-2.81-3.78,.16-2.57h-41.67Z"/><path class="cls-3" d="M100.25,72.28l-.15,2.91-2.5,3.44h46.98l-2.81-3.78,.16-2.57h-41.67Z"/><path class="cls-25" d="M92.52,77.95h57.7c.29,0,.57,.06,.84,.17,.27,.11,.51,.27,.71,.48,.2,.2,.36,.45,.47,.71,.11,.27,.17,.55,.17,.84v2.61h-62.1v-2.59c0-.29,.05-.58,.16-.85,.11-.27,.27-.51,.48-.72,.21-.21,.45-.37,.72-.48,.27-.11,.56-.17,.85-.16Z"/><path d="M92.52,77.95h57.7c.29,0,.57,.06,.84,.17,.27,.11,.51,.27,.71,.48,.2,.2,.36,.45,.47,.71,.11,.27,.17,.55,.17,.84v2.61h-62.1v-2.59c0-.29,.05-.58,.16-.85,.11-.27,.27-.51,.48-.72,.21-.21,.45-.37,.72-.48,.27-.11,.56-.17,.85-.16Z"/><path class="cls-4" d="M92.52,77.95h57.7c.29,0,.57,.06,.84,.17,.27,.11,.51,.27,.71,.48,.2,.2,.36,.45,.47,.71,.11,.27,.17,.55,.17,.84v2.61h-62.1v-2.59c0-.29,.05-.58,.16-.85,.11-.27,.27-.51,.48-.72,.21-.21,.45-.37,.72-.48,.27-.11,.56-.17,.85-.16Z"/><path class="cls-11" d="M92.52,77.95h57.7c.29,0,.57,.06,.84,.17,.27,.11,.51,.27,.71,.48,.2,.2,.36,.45,.47,.71,.11,.27,.17,.55,.17,.84v2.61h-62.1v-2.59c0-.29,.05-.58,.16-.85,.11-.27,.27-.51,.48-.72,.21-.21,.45-.37,.72-.48,.27-.11,.56-.17,.85-.16Z"/><path class="cls-3" d="M86.57,81.2h68.86c.43,0,.86,.08,1.26,.25,.4,.17,.76,.41,1.07,.71,.31,.31,.55,.67,.71,1.07,.17,.4,.25,.83,.25,1.26v2.87H83.28v-2.88c0-.87,.35-1.71,.97-2.32s1.45-.96,2.32-.96Z"/><path class="cls-20" d="M120.49,96.82h-21.61l-15.6-9.41c1.96-1.19,4.22-1.79,6.52-1.72h65.84s2.75-.35,3.09,1.72l-12.69,9.6-25.55-.19Z"/><path class="cls-4" d="M120.49,96.82h-21.61l-15.6-9.41c1.96-1.19,4.22-1.79,6.52-1.72h65.84s2.75-.35,3.09,1.72l-12.69,9.6-25.55-.19Z"/><path class="cls-11" d="M120.49,96.82h-21.61l-15.6-9.41c1.96-1.19,4.22-1.79,6.52-1.72h65.84s2.75-.35,3.09,1.72l-12.69,9.6-25.55-.19Z"/><path class="cls-25" d="M150.93,87.09h-58.77v10.34h58.77v-10.34Z"/><path d="M150.93,87.09h-58.77v10.34h58.77v-10.34Z"/><path class="cls-12" d="M150.93,87.09h-58.77v10.34h58.77v-10.34Z"/><path class="cls-17" d="M98.36,86.52h-1.54v11.67h1.54v-11.67Z"/><path class="cls-17" d="M145.7,86.52h-1.54v11.67h1.54v-11.67Z"/><path class="cls-17" d="M136.95,86.52h-2.4v11.67h2.4v-11.67Z"/><path class="cls-17" d="M107.97,86.52h-2.4v11.67h2.4v-11.67Z"/><path class="cls-17" d="M117.23,86.52h-2.75v11.67h2.75v-11.67Z"/><path class="cls-17" d="M128.04,86.52h-2.75v11.67h2.75v-11.67Z"/><path class="cls-7" d="M150.33,97.5h-58.48v6.52h58.48v-6.52Z"/><path class="cls-7" d="M134.32,97.5h-26.47v6.52h26.47v-6.52Z"/><path class="cls-7" d="M121.97,117.16c12.39,.08,24.75-1.02,36.93-3.29v-4l-8.58-5.84h-58.48l-7.03,5.49v4.34c12.25,2.28,24.69,3.39,37.15,3.3Z"/><path class="cls-7" d="M94.08,98.36v5.64l-2.58,5.65h-10.28c1.03-2.48,3-4.46,5.48-5.49,2.15-.89,4.22-1.98,6.16-3.26v-2.75l1.22,.21Z"/><path class="cls-12" d="M81.22,109.68s-.52-8.07-.18-11.5c.34-3.43,2.07-3.09,2.07-3.09l9.77,3.09"/><path class="cls-12" d="M84.3,95.61v9.95"/><path class="cls-12" d="M86.71,96.3v7.89"/><path class="cls-12" d="M88.59,96.82v6.17"/><path class="cls-12" d="M90.31,97.5v4.9"/><path class="cls-7" d="M148.27,98.36v5.64l2.57,5.65h10.29c-1.03-2.49-3.01-4.46-5.49-5.49-2.15-.89-4.22-1.98-6.16-3.26v-2.75l-1.21,.21Z"/><path class="cls-12" d="M149.47,98.19l9.78-3.09s1.72-.35,2.06,3.09c.34,3.44-.17,11.5-.17,11.5"/><path class="cls-12" d="M158.05,95.61v9.95"/><path class="cls-12" d="M155.64,96.3v7.89"/><path class="cls-12" d="M153.75,96.82v6.17"/><path class="cls-12" d="M152.05,97.5v4.9"/><path class="cls-7" d="M91.5,115.01c10.09,1.47,20.27,2.19,30.47,2.15,9.6,.03,19.19-.6,28.7-1.88v-5.61h-59.17v5.34Z"/><path class="cls-17" d="M151.34,78.16v-2.51s0-.91-2.06-.91h-55.82c-2.08,0-2.06,.91-2.06,.91v2.51"/><path class="cls-4" d="M151.34,78.16v-2.51s0-.91-2.06-.91h-55.82c-2.08,0-2.06,.91-2.06,.91v2.51"/><path class="cls-11" d="M151.34,78.16v-2.51s0-.91-2.06-.91h-55.82c-2.08,0-2.06,.91-2.06,.91v2.51"/><path class="cls-4" d="M101.64,74.73v2.98"/><path class="cls-11" d="M101.64,74.73v2.98"/><path class="cls-4" d="M114.64,74.73v2.98"/><path class="cls-11" d="M114.64,74.73v2.98"/><path class="cls-4" d="M127.64,74.73v2.98"/><path class="cls-11" d="M127.64,74.73v2.98"/><path class="cls-4" d="M140.64,74.73v2.98"/><path class="cls-11" d="M140.64,74.73v2.98"/></svg>