<?xml version="1.0" encoding="UTF-8"?><svg id="Layer_1" xmlns="http://www.w3.org/2000/svg" viewBox="0 0 250 250"><defs><style>.cls-1{opacity:.2;}.cls-1,.cls-2,.cls-3,.cls-4,.cls-5,.cls-6,.cls-7{fill:#273339;}.cls-1,.cls-8,.cls-9,.cls-3,.cls-4,.cls-5,.cls-6,.cls-7{isolation:isolate;}.cls-8,.cls-9{fill:#fff;}.cls-8,.cls-6{opacity:.3;}.cls-9{opacity:.07;}.cls-10{fill:#59898e;}.cls-3{opacity:.1;}.cls-11{fill:#d2e5e1;}.cls-4{opacity:.4;}.cls-5{opacity:.15;}.cls-7{opacity:.55;}.cls-12{fill:#f9f8f4;}</style></defs><path class="cls-12" d="M215.37,209.37l-50.24-27.03c-.22-.1-.46-.16-.7-.16s-.49,.05-.7,.16l-45.91,24.57c-.09,.03-.16,.08-.21,.15-.05,.07-.08,.15-.08,.23s.03,.16,.08,.23c.05,.07,.13,.12,.21,.14l50.25,27.03c.22,.1,.46,.16,.7,.16s.48-.05,.7-.16l45.92-24.57c.38-.21,.38-.54,0-.75Z"/><path class="cls-12" d="M243.1,105.42l-50.25-27.03c-.22-.1-.46-.15-.7-.15s-.48,.05-.7,.15L55.17,151.35c-.39,.21-.39,.54,0,.75l50.24,27.01c.22,.1,.46,.16,.7,.16s.48-.05,.7-.16L243.1,106.17c.09-.03,.16-.08,.21-.14,.05-.07,.08-.15,.08-.23s-.03-.16-.08-.23c-.05-.07-.13-.12-.21-.15Z"/><path class="cls-2" d="M230.94,111.39l-38.68,22.33v-23.5l38.68-22.33v23.51Z"/><path class="cls-2" d="M153.58,111.39l38.68,22.33v-23.5l-38.68-22.33v23.51Z"/><path class="cls-2" d="M230.93,87.88l-38.68-22.33-38.68,22.33,38.68,22.33,38.68-22.33Z"/><path class="cls-2" d="M199.06,92.25c1.88,1.08,2.82,2.51,2.82,3.93v3.81c0,1.42-.94,2.85-2.82,3.93-2.1,1.11-4.45,1.68-6.82,1.63v-14.95c2.38-.05,4.72,.52,6.82,1.64Z"/><path class="cls-2" d="M185.44,92.25c-1.88,1.08-2.82,2.51-2.82,3.93v3.81c0,1.42,.94,2.85,2.82,3.93,2.1,1.11,4.44,1.68,6.82,1.63v-14.95c-2.38-.05-4.72,.52-6.82,1.64Z"/><path class="cls-10" d="M185.44,92.25c-3.76,2.17-3.76,5.69,0,7.87,3.76,2.17,9.87,2.17,13.64,0,3.77-2.18,3.76-5.7,0-7.87-3.76-2.17-9.87-2.18-13.64,0Z"/><path class="cls-9" d="M185.44,92.25c-3.76,2.17-3.76,5.69,0,7.87,3.76,2.17,9.87,2.17,13.64,0,3.77-2.18,3.76-5.7,0-7.87-3.76-2.17-9.87-2.18-13.64,0Z"/><path class="cls-2" d="M199.06,70.47c1.88,1.08,2.82,2.51,2.82,3.93v3.81c0,1.42-.94,2.85-2.82,3.93-2.1,1.12-4.44,1.68-6.82,1.63v-14.93c2.38-.05,4.72,.52,6.82,1.63Z"/><path class="cls-2" d="M185.44,70.47c-1.88,1.08-2.82,2.51-2.82,3.93v3.81c0,1.42,.94,2.85,2.82,3.93,2.1,1.12,4.44,1.68,6.82,1.63v-14.93c-2.38-.05-4.72,.52-6.82,1.63Z"/><path class="cls-10" d="M185.44,70.47c-3.76,2.18-3.76,5.7,0,7.87,3.76,2.18,9.87,2.17,13.64,0,3.77-2.17,3.76-5.7,0-7.87-3.76-2.18-9.87-2.18-13.64,0Z"/><path class="cls-9" d="M185.44,70.47c-3.76,2.18-3.76,5.7,0,7.87,3.76,2.18,9.87,2.17,13.64,0,3.77-2.17,3.76-5.7,0-7.87-3.76-2.18-9.87-2.18-13.64,0Z"/><path class="cls-2" d="M217.93,81.37c1.88,1.08,2.83,2.51,2.83,3.93v3.81c0,1.42-.94,2.85-2.83,3.93-2.1,1.11-4.44,1.68-6.81,1.63v-14.93c2.37-.05,4.72,.51,6.81,1.63Z"/><path class="cls-2" d="M204.3,81.37c-1.88,1.08-2.82,2.51-2.82,3.93v3.81c0,1.42,.94,2.85,2.82,3.93,2.1,1.11,4.45,1.68,6.82,1.63v-14.93c-2.38-.05-4.72,.51-6.82,1.63Z"/><path class="cls-10" d="M204.3,81.37c-3.76,2.17-3.76,5.69,0,7.87,3.76,2.18,9.87,2.18,13.63,0,3.76-2.18,3.77-5.7,0-7.87s-9.87-2.18-13.63,0Z"/><path class="cls-9" d="M204.3,81.37c-3.76,2.17-3.76,5.69,0,7.87,3.76,2.18,9.87,2.18,13.63,0,3.76-2.18,3.77-5.7,0-7.87s-9.87-2.18-13.63,0Z"/><path class="cls-2" d="M180.22,81.35c1.88,1.09,2.82,2.52,2.82,3.94v3.81c0,1.42-.94,2.84-2.82,3.93-2.1,1.11-4.45,1.68-6.82,1.63v-14.94c2.37-.05,4.72,.52,6.82,1.63Z"/><path class="cls-2" d="M166.58,81.35c-1.88,1.09-2.82,2.52-2.82,3.94v3.81c0,1.42,.94,2.84,2.82,3.93,2.1,1.11,4.44,1.68,6.82,1.63v-14.94c-2.37-.05-4.72,.52-6.82,1.63Z"/><path class="cls-10" d="M166.58,81.35c-3.76,2.18-3.76,5.7,0,7.87,3.76,2.18,9.87,2.18,13.64,0,3.76-2.18,3.76-5.7,0-7.87-3.76-2.18-9.89-2.17-13.64,0Z"/><path class="cls-9" d="M166.58,81.35c-3.76,2.18-3.76,5.7,0,7.87,3.76,2.18,9.87,2.18,13.64,0,3.76-2.18,3.76-5.7,0-7.87-3.76-2.18-9.89-2.17-13.64,0Z"/><path class="cls-11" d="M206.66,208.97l-38.68,22.33v-23.51l38.68-22.33v23.51Z"/><path class="cls-3" d="M206.66,208.97l-38.68,22.33v-23.51l38.68-22.33v23.51Z"/><path class="cls-11" d="M129.32,208.97l38.67,22.33v-23.51l-38.67-22.33v23.51Z"/><path class="cls-1" d="M129.32,208.97l38.67,22.33v-23.51l-38.67-22.33v23.51Z"/><path class="cls-11" d="M206.67,185.46l-38.68-22.33-38.67,22.33,38.67,22.33,38.68-22.33Z"/><path class="cls-11" d="M177.63,171.99c0-1.43-.94-2.85-2.82-3.93-3.76-2.18-9.87-2.18-13.63,0-1.88,1.09-2.83,2.51-2.83,3.93v3.81c0,1.42,.94,2.84,2.83,3.93,3.76,2.18,9.87,2.18,13.63,0,1.88-1.09,2.83-2.51,2.82-3.93v-3.81Z"/><path class="cls-3" d="M174.81,168.05c1.88,1.09,2.83,2.51,2.82,3.93v3.81c0,1.43-.94,2.84-2.82,3.93-2.1,1.12-4.44,1.69-6.82,1.65v-14.95c2.38-.05,4.72,.51,6.82,1.63Z"/><path class="cls-1" d="M161.18,168.05c-1.88,1.09-2.83,2.51-2.83,3.93v3.81c0,1.43,.94,2.84,2.83,3.93,2.09,1.12,4.44,1.69,6.81,1.65v-14.95c-2.37-.05-4.72,.51-6.81,1.63Z"/><path class="cls-11" d="M161.18,168.05c-3.76,2.17-3.76,5.69,0,7.87,3.76,2.17,9.87,2.17,13.63,0,3.76-2.18,3.76-5.7,0-7.87-3.76-2.17-9.87-2.18-13.63,0Z"/><path class="cls-8" d="M161.18,168.05c-3.76,2.17-3.76,5.69,0,7.87,3.76,2.17,9.87,2.17,13.63,0,3.76-2.18,3.76-5.7,0-7.87-3.76-2.17-9.87-2.18-13.63,0Z"/><path class="cls-11" d="M177.63,193.76c0-1.42-.94-2.84-2.82-3.93-3.76-2.18-9.87-2.18-13.63,0-1.88,1.09-2.83,2.51-2.83,3.93v3.81c0,1.43,.94,2.85,2.83,3.93,3.76,2.18,9.87,2.18,13.63,0,1.88-1.09,2.83-2.51,2.82-3.93v-3.81Z"/><path class="cls-3" d="M174.81,189.83c1.88,1.09,2.83,2.51,2.82,3.93v3.81c0,1.42-.94,2.85-2.82,3.93-2.1,1.12-4.44,1.68-6.82,1.63v-14.93c2.38-.05,4.72,.51,6.82,1.63Z"/><path class="cls-1" d="M161.18,189.83c-1.88,1.09-2.83,2.51-2.83,3.93v3.81c0,1.42,.94,2.85,2.83,3.93,2.09,1.12,4.44,1.68,6.81,1.63v-14.93c-2.37-.05-4.72,.52-6.81,1.63Z"/><path class="cls-11" d="M161.18,189.83c-3.76,2.18-3.76,5.7,0,7.87,3.76,2.18,9.87,2.17,13.63,0,3.76-2.17,3.76-5.7,0-7.87-3.76-2.18-9.87-2.18-13.63,0Z"/><path class="cls-8" d="M161.18,189.83c-3.76,2.18-3.76,5.7,0,7.87,3.76,2.18,9.87,2.17,13.63,0,3.76-2.17,3.76-5.7,0-7.87-3.76-2.18-9.87-2.18-13.63,0Z"/><path class="cls-11" d="M158.79,182.87c0-1.43-.94-2.85-2.83-3.93-3.76-2.18-9.87-2.18-13.63,0-1.88,1.09-2.83,2.51-2.83,3.93v3.78c0,1.43,.94,2.85,2.83,3.93,3.76,2.18,9.87,2.18,13.63,0,1.88-1.09,2.83-2.51,2.83-3.93v-3.78Z"/><path class="cls-3" d="M155.95,178.94c1.88,1.09,2.83,2.51,2.83,3.93v3.81c0,1.42-.94,2.85-2.83,3.93-2.1,1.12-4.44,1.68-6.82,1.63v-14.93c2.38-.04,4.72,.52,6.82,1.63Z"/><path class="cls-1" d="M142.32,178.94c-1.88,1.09-2.83,2.51-2.83,3.93v3.78c0,1.42,.94,2.85,2.83,3.93,2.09,1.12,4.44,1.68,6.81,1.63v-14.91c-2.37-.04-4.72,.52-6.81,1.63Z"/><path class="cls-11" d="M142.32,178.94c-3.76,2.18-3.76,5.7,0,7.87,3.76,2.17,9.87,2.18,13.63,0,3.76-2.18,3.76-5.69,0-7.87-3.76-2.18-9.87-2.18-13.63,0Z"/><path class="cls-8" d="M142.32,178.94c-3.76,2.18-3.76,5.7,0,7.87,3.76,2.17,9.87,2.18,13.63,0,3.76-2.18,3.76-5.69,0-7.87-3.76-2.18-9.87-2.18-13.63,0Z"/><path class="cls-11" d="M196.49,182.88c0-1.43-.94-2.85-2.82-3.93-3.76-2.18-9.87-2.18-13.63,0-1.89,1.08-2.83,2.51-2.83,3.93v3.8c0,1.43,.94,2.85,2.82,3.94,3.77,2.17,9.87,2.17,13.64,0,1.88-1.09,2.82-2.51,2.82-3.94v-3.8Z"/><path class="cls-3" d="M193.67,178.94c1.88,1.08,2.82,2.51,2.82,3.93v3.8c0,1.43-.94,2.85-2.82,3.94-2.1,1.12-4.44,1.68-6.82,1.63v-14.93c2.38-.05,4.72,.51,6.82,1.63Z"/><path class="cls-1" d="M180.03,178.94c-1.89,1.08-2.83,2.51-2.83,3.93v3.8c0,1.43,.94,2.85,2.82,3.94,2.1,1.12,4.44,1.68,6.82,1.63v-14.93c-2.37-.05-4.72,.51-6.81,1.63Z"/><path class="cls-11" d="M180.03,178.94c-3.77,2.18-3.77,5.7,0,7.87,3.77,2.18,9.87,2.17,13.64,0,3.76-2.17,3.76-5.7,0-7.87-3.76-2.18-9.87-2.18-13.64,0Z"/><path class="cls-8" d="M180.03,178.94c-3.77,2.18-3.77,5.7,0,7.87,3.77,2.18,9.87,2.17,13.64,0,3.76-2.17,3.76-5.7,0-7.87-3.76-2.18-9.87-2.18-13.64,0Z"/><path class="cls-11" d="M230.94,86.18l-38.68,22.33v-23.51l38.68-22.33v23.51Z"/><path class="cls-6" d="M230.94,86.18l-38.68,22.33v-23.51l38.68-22.33v23.51Z"/><path class="cls-11" d="M153.58,86.18l38.68,22.33v-23.51l-38.68-22.33v23.51Z"/><path class="cls-4" d="M153.58,86.18l38.68,22.33v-23.51l-38.68-22.33v23.51Z"/><path class="cls-11" d="M230.93,62.67l-38.68-22.33-38.68,22.33,38.68,22.33,38.68-22.33Z"/><path class="cls-7" d="M230.93,62.67l-38.68-22.33-38.68,22.33,38.68,22.33,38.68-22.33Z"/><path class="cls-11" d="M201.9,49.2c0-1.42-.94-2.85-2.82-3.93-3.76-2.18-9.87-2.18-13.64,0-1.88,1.08-2.82,2.51-2.82,3.93v3.81c0,1.42,.94,2.85,2.82,3.93,3.76,2.18,9.87,2.18,13.64,0,1.88-1.08,2.82-2.51,2.82-3.93v-3.81Z"/><path class="cls-6" d="M199.06,45.26c1.88,1.08,2.82,2.51,2.82,3.93v3.81c0,1.42-.94,2.85-2.82,3.93-2.1,1.11-4.45,1.68-6.82,1.63v-14.93c2.38-.05,4.72,.51,6.82,1.63Z"/><path class="cls-4" d="M185.44,45.26c-1.88,1.08-2.82,2.51-2.82,3.93v3.81c0,1.42,.94,2.85,2.82,3.93,2.1,1.11,4.44,1.68,6.82,1.63v-14.93c-2.38-.05-4.72,.51-6.82,1.63Z"/><path class="cls-11" d="M185.44,45.26c-3.76,2.17-3.76,5.69,0,7.87,3.76,2.18,9.87,2.18,13.64,0,3.77-2.18,3.76-5.7,0-7.87-3.76-2.17-9.87-2.18-13.64,0Z"/><path class="cls-8" d="M185.44,45.26c-3.76,2.17-3.76,5.69,0,7.87,3.76,2.18,9.87,2.18,13.64,0,3.77-2.18,3.76-5.7,0-7.87-3.76-2.17-9.87-2.18-13.64,0Z"/><path class="cls-11" d="M201.9,70.98c0-1.42-.94-2.85-2.82-3.94-3.76-2.17-9.87-2.17-13.64,0-1.88,1.09-2.82,2.52-2.82,3.93v3.81c0,1.42,.94,2.85,2.82,3.94,3.76,2.17,9.87,2.17,13.64,0,1.88-1.09,2.82-2.52,2.82-3.94v-3.81Z"/><path class="cls-6" d="M199.06,67.04c1.88,1.09,2.82,2.52,2.82,3.93v3.81c0,1.42-.94,2.85-2.82,3.94-2.1,1.11-4.45,1.68-6.82,1.63v-14.95c2.38-.04,4.72,.52,6.82,1.64Z"/><path class="cls-4" d="M185.44,67.04c-1.88,1.09-2.82,2.52-2.82,3.93v3.81c0,1.42,.94,2.85,2.82,3.94,2.1,1.11,4.44,1.68,6.82,1.63v-14.95c-2.38-.04-4.72,.52-6.82,1.64Z"/><path class="cls-11" d="M185.44,67.04c-3.76,2.18-3.76,5.7,0,7.87,3.76,2.18,9.87,2.18,13.64,0,3.77-2.18,3.76-5.7,0-7.87-3.76-2.18-9.87-2.17-13.64,0Z"/><path class="cls-8" d="M185.44,67.04c-3.76,2.18-3.76,5.7,0,7.87,3.76,2.18,9.87,2.18,13.64,0,3.77-2.18,3.76-5.7,0-7.87-3.76-2.18-9.87-2.17-13.64,0Z"/><path class="cls-11" d="M183.04,60.08c0-1.42-.94-2.85-2.82-3.93-3.76-2.18-9.87-2.18-13.64,0-1.88,1.08-2.82,2.51-2.82,3.93v3.81c0,1.42,.94,2.85,2.82,3.93,3.76,2.18,9.87,2.18,13.64,0,1.88-1.08,2.82-2.51,2.82-3.93v-3.81Z"/><path class="cls-6" d="M180.22,56.15c1.88,1.08,2.82,2.51,2.82,3.93v3.81c0,1.42-.94,2.85-2.82,3.93-2.1,1.12-4.44,1.68-6.82,1.63v-14.93c2.38-.05,4.72,.52,6.82,1.63Z"/><path class="cls-4" d="M166.58,56.15c-1.88,1.08-2.82,2.51-2.82,3.93v3.81c0,1.42,.94,2.85,2.82,3.93,2.1,1.12,4.44,1.68,6.82,1.63v-14.93c-2.37-.05-4.72,.52-6.82,1.63Z"/><path class="cls-11" d="M166.58,56.15c-3.76,2.18-3.76,5.7,0,7.87,3.76,2.18,9.87,2.17,13.64,0,3.76-2.17,3.76-5.7,0-7.87-3.76-2.18-9.89-2.18-13.64,0Z"/><path class="cls-8" d="M166.58,56.15c-3.76,2.18-3.76,5.7,0,7.87,3.76,2.18,9.87,2.17,13.64,0,3.76-2.17,3.76-5.7,0-7.87-3.76-2.18-9.89-2.18-13.64,0Z"/><path class="cls-11" d="M220.76,60.09c0-1.42-.94-2.84-2.83-3.93-3.76-2.18-9.87-2.18-13.63,0-1.88,1.09-2.82,2.51-2.82,3.93v3.81c0,1.42,.94,2.85,2.82,3.93,3.76,2.18,9.87,2.18,13.63,0,1.89-1.08,2.83-2.51,2.83-3.93v-3.81Z"/><path class="cls-6" d="M217.93,56.15c1.88,1.09,2.83,2.51,2.83,3.93v3.81c0,1.42-.94,2.85-2.83,3.93-2.09,1.12-4.44,1.68-6.81,1.63v-14.93c2.37-.05,4.72,.52,6.81,1.63Z"/><path class="cls-4" d="M204.3,56.15c-1.88,1.09-2.82,2.51-2.82,3.93v3.81c0,1.42,.94,2.85,2.82,3.93,2.1,1.12,4.44,1.68,6.82,1.63v-14.93c-2.37-.05-4.72,.52-6.82,1.63Z"/><path class="cls-11" d="M204.3,56.15c-3.76,2.18-3.76,5.7,0,7.87,3.76,2.18,9.87,2.17,13.63,0,3.76-2.17,3.77-5.7,0-7.87-3.77-2.18-9.87-2.18-13.63,0Z"/><path class="cls-8" d="M204.3,56.15c-3.76,2.18-3.76,5.7,0,7.87,3.76,2.18,9.87,2.17,13.63,0,3.76-2.17,3.77-5.7,0-7.87-3.77-2.18-9.87-2.18-13.63,0Z"/><path class="cls-11" d="M190.22,134.89l-38.68,22.33v-23.51l38.68-22.33v23.5Z"/><path class="cls-6" d="M190.22,134.89l-38.68,22.33v-23.51l38.68-22.33v23.5Z"/><path class="cls-11" d="M112.87,134.89l38.68,22.33v-23.51l-38.68-22.33v23.5Z"/><path class="cls-4" d="M112.87,134.89l38.68,22.33v-23.51l-38.68-22.33v23.5Z"/><path class="cls-11" d="M190.22,111.39l-38.68-22.33-38.68,22.33,38.68,22.33,38.68-22.33Z"/><path class="cls-7" d="M190.22,111.39l-38.68-22.33-38.68,22.33,38.68,22.33,38.68-22.33Z"/><path class="cls-11" d="M161.19,97.91c0-1.43-.94-2.85-2.82-3.93-3.76-2.18-9.87-2.18-13.64,0-1.88,1.08-2.82,2.51-2.82,3.93v3.81c0,1.43,.94,2.85,2.82,3.93,3.76,2.18,9.87,2.18,13.64,0,1.88-1.08,2.82-2.51,2.82-3.93v-3.81Z"/><path class="cls-6" d="M158.37,93.98c1.88,1.08,2.82,2.51,2.82,3.93v3.81c0,1.43-.94,2.85-2.82,3.94-2.09,1.11-4.43,1.67-6.8,1.63v-14.91c2.37-.05,4.71,.5,6.8,1.6Z"/><path class="cls-4" d="M144.73,93.98c-1.88,1.08-2.82,2.51-2.82,3.93v3.81c0,1.43,.94,2.85,2.82,3.93,2.1,1.12,4.46,1.68,6.84,1.63v-14.9c-2.38-.06-4.73,.49-6.84,1.6Z"/><path class="cls-11" d="M144.73,93.98c-3.76,2.17-3.76,5.69,0,7.87,3.76,2.18,9.87,2.18,13.64,0,3.76-2.18,3.76-5.7,0-7.87-3.76-2.17-9.87-2.19-13.64,0Z"/><path class="cls-8" d="M144.73,93.98c-3.76,2.17-3.76,5.69,0,7.87,3.76,2.18,9.87,2.18,13.64,0,3.76-2.18,3.76-5.7,0-7.87-3.76-2.17-9.87-2.19-13.64,0Z"/><path class="cls-11" d="M161.19,119.69c0-1.42-.94-2.84-2.82-3.93-3.76-2.18-9.87-2.18-13.64,0-1.88,1.09-2.82,2.51-2.82,3.93v3.81c0,1.43,.94,2.85,2.82,3.94,3.76,2.18,9.87,2.18,13.64,0,1.88-1.09,2.82-2.51,2.82-3.94v-3.81Z"/><path class="cls-6" d="M158.37,115.75c1.88,1.09,2.82,2.51,2.82,3.93v3.81c0,1.43-.94,2.85-2.82,3.93-2.09,1.12-4.43,1.68-6.8,1.64v-14.94c2.37-.04,4.71,.52,6.8,1.63Z"/><path class="cls-4" d="M144.73,115.75c-1.88,1.09-2.82,2.51-2.82,3.93v3.81c0,1.43,.94,2.85,2.82,3.93,2.1,1.12,4.46,1.68,6.84,1.64v-14.94c-2.38-.05-4.74,.51-6.84,1.63Z"/><path class="cls-11" d="M144.73,115.75c-3.76,2.18-3.76,5.7,0,7.87,3.76,2.18,9.87,2.17,13.64,0,3.76-2.17,3.76-5.7,0-7.87-3.76-2.18-9.87-2.18-13.64,0Z"/><path class="cls-8" d="M144.73,115.75c-3.76,2.18-3.76,5.7,0,7.87,3.76,2.18,9.87,2.17,13.64,0,3.76-2.17,3.76-5.7,0-7.87-3.76-2.18-9.87-2.18-13.64,0Z"/><path class="cls-11" d="M142.33,108.79c0-1.43-.94-2.85-2.82-3.93-3.76-2.18-9.87-2.18-13.64,0-1.88,1.08-2.82,2.51-2.82,3.93v3.81c0,1.42,.94,2.85,2.82,3.93,3.77,2.18,9.87,2.18,13.64,0,1.88-1.08,2.82-2.51,2.82-3.93v-3.81Z"/><path class="cls-6" d="M139.51,104.86c1.88,1.08,2.82,2.51,2.82,3.93v3.81c0,1.43-.94,2.85-2.82,3.93-2.09,1.12-4.44,1.69-6.82,1.64v-14.95c2.38-.05,4.72,.52,6.82,1.63Z"/><path class="cls-4" d="M125.87,104.86c-1.88,1.08-2.82,2.51-2.82,3.93v3.81c0,1.43,.94,2.85,2.82,3.93,2.1,1.12,4.44,1.69,6.82,1.64v-14.95c-2.38-.04-4.72,.52-6.82,1.63Z"/><path class="cls-11" d="M125.87,104.86c-3.76,2.17-3.76,5.7,0,7.87,3.77,2.17,9.87,2.18,13.64,0,3.76-2.17,3.76-5.69,0-7.87-3.76-2.18-9.87-2.18-13.64,0Z"/><path class="cls-8" d="M125.87,104.86c-3.76,2.17-3.76,5.7,0,7.87,3.77,2.17,9.87,2.18,13.64,0,3.76-2.17,3.76-5.69,0-7.87-3.76-2.18-9.87-2.18-13.64,0Z"/><path class="cls-11" d="M180.05,108.79c0-1.43-.94-2.84-2.83-3.93-3.76-2.18-9.87-2.18-13.63,0-1.88,1.08-2.82,2.51-2.82,3.93v3.81c0,1.42,.94,2.85,2.82,3.93,3.76,2.18,9.87,2.18,13.63,0,1.89-1.08,2.83-2.51,2.83-3.93v-3.81Z"/><path class="cls-6" d="M177.22,104.86c1.88,1.08,2.83,2.51,2.83,3.93v3.81c0,1.43-.94,2.85-2.82,3.94-2.1,1.12-4.44,1.68-6.82,1.64v-14.94c2.37-.05,4.72,.52,6.81,1.63Z"/><path class="cls-4" d="M163.59,104.86c-1.88,1.08-2.82,2.51-2.82,3.93v3.81c0,1.43,.94,2.85,2.82,3.94,2.1,1.12,4.44,1.68,6.82,1.64v-14.94c-2.38-.05-4.72,.52-6.82,1.63Z"/><path class="cls-11" d="M163.59,104.86c-3.76,2.18-3.76,5.7,0,7.88,3.76,2.18,9.87,2.17,13.63,0,3.76-2.17,3.77-5.7,0-7.88-3.77-2.18-9.87-2.18-13.63,0Z"/><path class="cls-8" d="M163.59,104.86c-3.76,2.18-3.76,5.7,0,7.88,3.76,2.18,9.87,2.17,13.63,0,3.76-2.17,3.77-5.7,0-7.88-3.77-2.18-9.87-2.18-13.63,0Z"/><path class="cls-11" d="M190.22,109.68l-38.68,22.33v-23.5l38.68-22.33v23.5Z"/><path class="cls-3" d="M190.22,109.68l-38.68,22.33v-23.5l38.68-22.33v23.5Z"/><path class="cls-11" d="M112.87,109.68l38.68,22.33v-23.5l-38.68-22.33v23.5Z"/><path class="cls-1" d="M112.87,109.68l38.68,22.33v-23.5l-38.68-22.33v23.5Z"/><path class="cls-11" d="M190.22,86.18l-38.68-22.33-38.68,22.33,38.68,22.33,38.68-22.33Z"/><path class="cls-11" d="M161.19,72.7c0-1.42-.94-2.84-2.82-3.93-3.76-2.18-9.87-2.18-13.64,0-1.88,1.09-2.82,2.51-2.82,3.93v3.81c0,1.42,.94,2.85,2.82,3.93,3.76,2.18,9.87,2.18,13.64,0,1.88-1.08,2.82-2.51,2.82-3.93v-3.81Z"/><path class="cls-3" d="M158.37,68.76c1.88,1.09,2.82,2.51,2.82,3.93v3.81c0,1.42-.94,2.85-2.82,3.93-2.09,1.11-4.43,1.68-6.8,1.63v-14.9c2.37-.05,4.71,.5,6.8,1.6Z"/><path class="cls-1" d="M144.73,68.76c-1.88,1.09-2.82,2.51-2.82,3.93v3.81c0,1.42,.94,2.85,2.82,3.93,2.1,1.12,4.46,1.68,6.84,1.63v-14.9c-2.38-.06-4.73,.49-6.84,1.6Z"/><path class="cls-11" d="M144.73,68.76c-3.76,2.18-3.76,5.7,0,7.87,3.76,2.18,9.87,2.17,13.64,0,3.76-2.17,3.76-5.7,0-7.87-3.76-2.18-9.87-2.19-13.64,0Z"/><path class="cls-8" d="M144.73,68.76c-3.76,2.18-3.76,5.7,0,7.87,3.76,2.18,9.87,2.17,13.64,0,3.76-2.17,3.76-5.7,0-7.87-3.76-2.18-9.87-2.19-13.64,0Z"/><path class="cls-11" d="M161.19,94.48c0-1.42-.94-2.85-2.82-3.93-3.76-2.18-9.87-2.18-13.64,0-1.88,1.08-2.82,2.51-2.82,3.93v3.81c0,1.43,.94,2.85,2.82,3.93,3.76,2.18,9.87,2.18,13.64,0,1.88-1.09,2.82-2.51,2.82-3.93v-3.81Z"/><path class="cls-3" d="M158.37,90.55c1.88,1.08,2.82,2.51,2.82,3.93v3.81c0,1.43-.94,2.85-2.82,3.93-2.09,1.11-4.43,1.67-6.8,1.63v-14.93c2.37-.05,4.71,.52,6.8,1.63Z"/><path class="cls-1" d="M144.73,90.55c-1.88,1.08-2.82,2.51-2.82,3.93v3.81c0,1.42,.94,2.85,2.82,3.93,2.1,1.12,4.46,1.68,6.84,1.63v-14.93c-2.38-.05-4.74,.51-6.84,1.63Z"/><path class="cls-11" d="M144.73,90.55c-3.76,2.18-3.76,5.7,0,7.87,3.76,2.17,9.87,2.17,13.64,0,3.76-2.18,3.76-5.69,0-7.87-3.76-2.18-9.87-2.18-13.64,0Z"/><path class="cls-8" d="M144.73,90.55c-3.76,2.18-3.76,5.7,0,7.87,3.76,2.17,9.87,2.17,13.64,0,3.76-2.18,3.76-5.69,0-7.87-3.76-2.18-9.87-2.18-13.64,0Z"/><path class="cls-11" d="M142.33,83.58c0-1.42-.94-2.85-2.82-3.93-3.76-2.18-9.87-2.18-13.64,0-1.88,1.08-2.82,2.51-2.82,3.93v3.81c0,1.42,.94,2.84,2.82,3.93,3.77,2.17,9.87,2.18,13.64,0,1.88-1.09,2.82-2.52,2.82-3.93v-3.81Z"/><path class="cls-3" d="M139.51,79.65c1.88,1.08,2.82,2.51,2.82,3.93v3.81c0,1.42-.94,2.84-2.82,3.93-2.1,1.12-4.44,1.68-6.82,1.64v-14.95c2.38-.05,4.72,.52,6.82,1.64Z"/><path class="cls-1" d="M125.87,79.65c-1.88,1.08-2.82,2.51-2.82,3.93v3.81c0,1.42,.94,2.84,2.82,3.93,2.1,1.12,4.44,1.68,6.82,1.64v-14.95c-2.38-.05-4.72,.52-6.82,1.64Z"/><path class="cls-11" d="M125.87,79.65c-3.76,2.17-3.76,5.69,0,7.87,3.77,2.18,9.87,2.18,13.64,0,3.76-2.18,3.76-5.7,0-7.87-3.76-2.17-9.87-2.18-13.64,0Z"/><path class="cls-8" d="M125.87,79.65c-3.76,2.17-3.76,5.69,0,7.87,3.77,2.18,9.87,2.18,13.64,0,3.76-2.18,3.76-5.7,0-7.87-3.76-2.17-9.87-2.18-13.64,0Z"/><path class="cls-11" d="M180.05,83.58c0-1.42-.94-2.85-2.83-3.93-3.76-2.18-9.87-2.18-13.63,0-1.88,1.08-2.82,2.51-2.82,3.93v3.81c0,1.42,.94,2.85,2.82,3.93,3.76,2.18,9.87,2.18,13.63,0,1.89-1.08,2.83-2.51,2.83-3.93v-3.81Z"/><path class="cls-3" d="M177.22,79.66c1.88,1.08,2.83,2.51,2.83,3.93v3.81c0,1.42-.94,2.85-2.82,3.93-2.1,1.11-4.45,1.67-6.82,1.63v-14.93c2.37-.05,4.72,.51,6.81,1.63Z"/><path class="cls-1" d="M163.59,79.66c-1.88,1.08-2.82,2.51-2.82,3.93v3.81c0,1.42,.94,2.85,2.82,3.93,2.1,1.11,4.44,1.68,6.82,1.63v-14.93c-2.38-.05-4.72,.51-6.82,1.63Z"/><path class="cls-11" d="M163.59,79.66c-3.76,2.17-3.76,5.69,0,7.87,3.76,2.18,9.87,2.18,13.63,0,3.76-2.18,3.77-5.7,0-7.87-3.77-2.17-9.87-2.18-13.63,0Z"/><path class="cls-8" d="M163.59,79.66c-3.76,2.17-3.76,5.69,0,7.87,3.76,2.18,9.87,2.18,13.63,0,3.76-2.18,3.77-5.7,0-7.87-3.77-2.17-9.87-2.18-13.63,0Z"/><path class="cls-2" d="M149.51,158.39l-38.67,22.33v-23.5l38.67-22.33v23.51Z"/><path class="cls-2" d="M72.16,158.39l38.68,22.33v-23.5l-38.68-22.33v23.51Z"/><path class="cls-10" d="M149.51,134.89l-38.68-22.33-38.68,22.33,38.68,22.33,38.68-22.33Z"/><path class="cls-2" d="M117.66,139.28c1.88,1.09,2.82,2.51,2.82,3.93v3.81c0,1.43-.94,2.85-2.82,3.93-2.1,1.11-4.45,1.68-6.82,1.63v-14.96c2.38-.04,4.72,.53,6.82,1.65Z"/><path class="cls-2" d="M104.02,139.28c-1.88,1.09-2.82,2.51-2.82,3.93v3.81c0,1.43,.94,2.85,2.82,3.93,2.1,1.11,4.44,1.68,6.82,1.63v-14.96c-2.38-.04-4.73,.53-6.82,1.65Z"/><path class="cls-10" d="M104.02,139.28c-3.76,2.17-3.76,5.7,0,7.87,3.76,2.17,9.87,2.18,13.64,0,3.76-2.18,3.76-5.69,0-7.87-3.77-2.18-9.87-2.2-13.64,0Z"/><path class="cls-9" d="M104.02,139.28c-3.76,2.17-3.76,5.7,0,7.87,3.76,2.17,9.87,2.18,13.64,0,3.76-2.18,3.76-5.69,0-7.87-3.77-2.18-9.87-2.2-13.64,0Z"/><path class="cls-2" d="M117.66,117.48c1.88,1.08,2.82,2.51,2.82,3.94v3.8c0,1.42-.94,2.85-2.82,3.93-2.1,1.12-4.44,1.68-6.82,1.63v-14.95c2.38-.04,4.72,.53,6.82,1.65Z"/><path class="cls-2" d="M104.02,117.48c-1.88,1.08-2.82,2.51-2.82,3.94v3.8c0,1.42,.94,2.85,2.82,3.93,2.1,1.12,4.44,1.68,6.82,1.63v-14.95c-2.38-.04-4.72,.53-6.82,1.65Z"/><path class="cls-10" d="M104.02,117.48c-3.76,2.18-3.76,5.7,0,7.88,3.76,2.17,9.87,2.17,13.64,0,3.76-2.17,3.76-5.7,0-7.88-3.77-2.17-9.87-2.17-13.64,0Z"/><path class="cls-9" d="M104.02,117.48c-3.76,2.18-3.76,5.7,0,7.88,3.76,2.17,9.87,2.17,13.64,0,3.76-2.17,3.76-5.7,0-7.88-3.77-2.17-9.87-2.17-13.64,0Z"/><path class="cls-2" d="M136.51,128.37c1.88,1.08,2.83,2.51,2.83,3.93v3.81c0,1.43-.94,2.85-2.82,3.93-2.1,1.11-4.45,1.68-6.82,1.63v-14.93c2.37-.05,4.72,.51,6.81,1.63Z"/><path class="cls-2" d="M122.88,128.37c-1.88,1.08-2.82,2.51-2.82,3.93v3.81c0,1.43,.94,2.85,2.82,3.93,2.1,1.11,4.44,1.68,6.82,1.63v-14.93c-2.38-.05-4.72,.51-6.82,1.63Z"/><path class="cls-10" d="M122.88,128.37c-3.76,2.17-3.76,5.69,0,7.87,3.76,2.18,9.87,2.18,13.63,0,3.76-2.18,3.77-5.7,0-7.87-3.77-2.17-9.87-2.18-13.63,0Z"/><path class="cls-9" d="M122.88,128.37c-3.76,2.17-3.76,5.69,0,7.87,3.76,2.18,9.87,2.18,13.63,0,3.76-2.18,3.77-5.7,0-7.87-3.77-2.17-9.87-2.18-13.63,0Z"/><path class="cls-2" d="M98.8,128.36c1.88,1.09,2.82,2.51,2.82,3.94v3.81c0,1.42-.94,2.84-2.82,3.93-2.1,1.12-4.44,1.68-6.82,1.63v-14.94c2.37-.05,4.72,.51,6.82,1.63Z"/><path class="cls-2" d="M85.16,128.36c-1.88,1.09-2.82,2.51-2.82,3.94v3.81c0,1.42,.94,2.84,2.82,3.93,2.1,1.12,4.44,1.68,6.82,1.63v-14.94c-2.37-.04-4.72,.52-6.82,1.63Z"/><path class="cls-10" d="M85.16,128.36c-3.76,2.18-3.76,5.7,0,7.88,3.76,2.18,9.87,2.18,13.64,0,3.76-2.18,3.76-5.7,0-7.87-3.76-2.17-9.87-2.18-13.64,0Z"/><path class="cls-9" d="M85.16,128.36c-3.76,2.18-3.76,5.7,0,7.88,3.76,2.18,9.87,2.18,13.64,0,3.76-2.18,3.76-5.7,0-7.87-3.76-2.17-9.87-2.18-13.64,0Z"/><path class="cls-2" d="M230.94,60.97l-38.68,22.33v-23.51l38.68-22.33v23.5Z"/><path class="cls-2" d="M153.58,60.97l38.68,22.33v-23.51l-38.68-22.33v23.5Z"/><path class="cls-10" d="M230.93,37.47l-38.68-22.33-38.68,22.33,38.68,22.33,38.68-22.33Z"/><path class="cls-2" d="M199.06,41.84c1.88,1.09,2.82,2.52,2.82,3.93v3.8c0,1.42-.94,2.85-2.82,3.94-2.1,1.11-4.45,1.68-6.82,1.63v-14.95c2.38-.04,4.72,.53,6.82,1.65Z"/><path class="cls-2" d="M185.44,41.84c-1.88,1.09-2.82,2.52-2.82,3.93v3.8c0,1.42,.94,2.85,2.82,3.94,2.1,1.11,4.44,1.68,6.82,1.63v-14.95c-2.38-.04-4.72,.53-6.82,1.65Z"/><path class="cls-10" d="M185.44,41.84c-3.76,2.18-3.76,5.7,0,7.87,3.76,2.18,9.87,2.17,13.64,0,3.77-2.17,3.76-5.7,0-7.87-3.76-2.18-9.87-2.17-13.64,0Z"/><path class="cls-9" d="M185.44,41.84c-3.76,2.18-3.76,5.7,0,7.87,3.76,2.18,9.87,2.17,13.64,0,3.77-2.17,3.76-5.7,0-7.87-3.76-2.18-9.87-2.17-13.64,0Z"/><path class="cls-2" d="M199.06,20.06c1.88,1.08,2.82,2.51,2.82,3.93v3.81c0,1.42-.94,2.85-2.82,3.93-2.1,1.11-4.45,1.68-6.82,1.63v-14.93c2.38-.05,4.72,.51,6.82,1.63Z"/><path class="cls-2" d="M185.44,20.06c-1.88,1.08-2.82,2.51-2.82,3.93v3.81c0,1.42,.94,2.85,2.82,3.93,2.1,1.11,4.44,1.68,6.82,1.63v-14.93c-2.38-.05-4.72,.51-6.82,1.63Z"/><path class="cls-10" d="M185.44,20.06c-3.76,2.17-3.76,5.69,0,7.87,3.76,2.18,9.87,2.18,13.64,0,3.77-2.18,3.76-5.7,0-7.87-3.76-2.17-9.87-2.15-13.64,0Z"/><path class="cls-9" d="M185.44,20.06c-3.76,2.17-3.76,5.69,0,7.87,3.76,2.18,9.87,2.18,13.64,0,3.77-2.18,3.76-5.7,0-7.87-3.76-2.17-9.87-2.15-13.64,0Z"/><path class="cls-2" d="M217.93,30.95c1.88,1.09,2.83,2.51,2.83,3.93v3.81c0,1.42-.94,2.85-2.83,3.93-2.09,1.12-4.44,1.68-6.81,1.63v-14.93c2.37-.05,4.72,.52,6.81,1.63Z"/><path class="cls-2" d="M204.3,30.95c-1.88,1.09-2.82,2.51-2.82,3.93v3.81c0,1.42,.94,2.85,2.82,3.93,2.1,1.12,4.44,1.68,6.82,1.63v-14.93c-2.37-.05-4.72,.52-6.82,1.63Z"/><path class="cls-10" d="M204.3,30.95c-3.76,2.18-3.76,5.7,0,7.87,3.76,2.18,9.87,2.17,13.63,0,3.76-2.17,3.77-5.7,0-7.87-3.77-2.18-9.87-2.18-13.63,0Z"/><path class="cls-9" d="M204.3,30.95c-3.76,2.18-3.76,5.7,0,7.87,3.76,2.18,9.87,2.17,13.63,0,3.76-2.17,3.77-5.7,0-7.87-3.77-2.18-9.87-2.18-13.63,0Z"/><path class="cls-2" d="M180.22,30.95c1.88,1.08,2.82,2.51,2.82,3.93v3.81c0,1.42-.94,2.85-2.82,3.93-2.1,1.12-4.44,1.68-6.82,1.63v-14.93c2.38-.05,4.72,.52,6.82,1.63Z"/><path class="cls-2" d="M166.58,30.95c-1.88,1.08-2.82,2.51-2.82,3.93v3.81c0,1.42,.94,2.85,2.82,3.93,2.1,1.12,4.44,1.68,6.82,1.63v-14.93c-2.37-.05-4.72,.52-6.82,1.63Z"/><path class="cls-10" d="M166.58,30.94c-3.76,2.18-3.76,5.7,0,7.87,3.76,2.17,9.87,2.18,13.64,0,3.76-2.18,3.76-5.7,0-7.87-3.76-2.18-9.89-2.17-13.64,0Z"/><path class="cls-9" d="M166.58,30.94c-3.76,2.18-3.76,5.7,0,7.87,3.76,2.17,9.87,2.18,13.64,0,3.76-2.18,3.76-5.7,0-7.87-3.76-2.18-9.89-2.17-13.64,0Z"/><path class="cls-11" d="M95.92,110.11l-42.77,24.7v-25.99l42.77-24.69v25.99Z"/><path class="cls-6" d="M95.92,110.11l-42.77,24.7v-25.99l42.77-24.69v25.99Z"/><path class="cls-11" d="M10.39,110.11l42.77,24.7v-25.99L10.39,84.12v25.99Z"/><path class="cls-4" d="M10.39,110.11l42.77,24.7v-25.99L10.39,84.12v25.99Z"/><path class="cls-11" d="M95.92,84.12l-42.77-24.69L10.39,84.12l42.77,24.69,42.77-24.69Z"/><path class="cls-5" d="M95.92,84.12l-42.77-24.69L10.39,84.12l42.77,24.69,42.77-24.69Z"/><path class="cls-11" d="M63.81,69.22c0-1.58-1.04-3.15-3.13-4.35-4.16-2.41-10.91-2.41-15.08,0-2.08,1.2-3.12,2.78-3.12,4.35v4.23c0,1.58,1.04,3.14,3.12,4.35,4.16,2.4,10.91,2.41,15.08,0,2.09-1.21,3.13-2.78,3.13-4.35v-4.23Z"/><path class="cls-6" d="M60.69,64.87c2.08,1.2,3.13,2.78,3.13,4.35v4.23c0,1.58-1.04,3.14-3.13,4.35-2.32,1.23-4.91,1.85-7.53,1.8v-16.53c2.62-.06,5.22,.56,7.53,1.8Z"/><path class="cls-4" d="M45.61,64.87c-2.08,1.2-3.12,2.78-3.12,4.35v4.23c0,1.58,1.04,3.14,3.12,4.35,2.32,1.23,4.91,1.85,7.54,1.8v-16.53c-2.63-.06-5.22,.56-7.54,1.8Z"/><path class="cls-11" d="M45.61,64.87c-4.16,2.4-4.16,6.3,0,8.7,4.16,2.41,10.91,2.41,15.08,0,4.16-2.41,4.17-6.3,0-8.7-4.17-2.4-10.91-2.41-15.08,0Z"/><path class="cls-11" d="M63.81,93.3c0-1.58-1.04-3.14-3.13-4.35-4.16-2.41-10.91-2.41-15.08,0-2.08,1.2-3.12,2.78-3.12,4.35v4.21c0,1.58,1.04,3.15,3.12,4.35,4.16,2.41,10.91,2.41,15.08,0,2.09-1.2,3.13-2.78,3.13-4.35v-4.21Z"/><path class="cls-6" d="M60.69,88.95c2.08,1.2,3.13,2.78,3.13,4.35v4.21c0,1.58-1.04,3.15-3.13,4.35-2.32,1.23-4.91,1.86-7.53,1.8v-16.51c2.62-.05,5.22,.57,7.53,1.8Z"/><path class="cls-4" d="M45.61,88.95c-2.08,1.2-3.12,2.78-3.12,4.35v4.21c0,1.58,1.04,3.15,3.12,4.35,2.32,1.23,4.91,1.86,7.54,1.8v-16.51c-2.63-.05-5.22,.57-7.54,1.8Z"/><path class="cls-11" d="M45.61,88.95c-4.16,2.41-4.16,6.3,0,8.71,4.16,2.41,10.91,2.4,15.08,0,4.16-2.4,4.17-6.3,0-8.71-4.17-2.41-10.91-2.41-15.08,0Z"/><path class="cls-11" d="M42.96,81.23c0-1.58-1.04-3.15-3.12-4.35-4.17-2.41-10.92-2.41-15.08,0-2.08,1.2-3.12,2.78-3.12,4.35v4.21c0,1.58,1.04,3.15,3.12,4.35,4.16,2.41,10.91,2.41,15.08,0,2.08-1.2,3.12-2.78,3.12-4.35v-4.21Z"/><path class="cls-6" d="M39.84,76.9c2.08,1.2,3.12,2.78,3.12,4.35v4.21c0,1.58-1.04,3.15-3.12,4.35-2.32,1.23-4.92,1.84-7.54,1.79v-16.5c2.63-.05,5.22,.57,7.54,1.8Z"/><path class="cls-4" d="M24.74,76.9c-2.08,1.2-3.12,2.78-3.12,4.35v4.21c0,1.58,1.04,3.15,3.12,4.35,2.33,1.23,4.93,1.85,7.57,1.79v-16.5c-2.63-.05-5.24,.57-7.57,1.8Z"/><path class="cls-11" d="M24.74,76.9c-4.16,2.41-4.16,6.3,0,8.7,4.16,2.4,10.91,2.41,15.08,0,4.17-2.41,4.16-6.3,0-8.7-4.16-2.41-10.89-2.41-15.08,0Z"/><path class="cls-11" d="M84.67,81.26c0-1.58-1.04-3.15-3.13-4.35-4.16-2.41-10.91-2.41-15.08,0-2.08,1.2-3.13,2.78-3.12,4.35v4.21c0,1.58,1.04,3.15,3.12,4.35,4.16,2.41,10.91,2.41,15.08,0,2.08-1.2,3.13-2.78,3.13-4.35v-4.21Z"/><path class="cls-6" d="M81.54,76.91c2.08,1.2,3.13,2.78,3.13,4.35v4.21c0,1.58-1.04,3.15-3.13,4.35-2.32,1.23-4.91,1.84-7.53,1.78v-16.5c2.62-.05,5.21,.57,7.53,1.8Z"/><path class="cls-4" d="M66.47,76.91c-2.08,1.2-3.13,2.78-3.12,4.35v4.21c0,1.58,1.04,3.15,3.12,4.35,2.32,1.23,4.92,1.84,7.55,1.78v-16.5c-2.63-.05-5.23,.57-7.55,1.8Z"/><path class="cls-11" d="M66.47,76.91c-4.16,2.41-4.16,6.3,0,8.71,4.16,2.41,10.91,2.4,15.08,0,4.16-2.4,4.16-6.3,0-8.71-4.16-2.41-10.91-2.41-15.08,0Z"/></svg>