<?xml version="1.0" encoding="UTF-8"?><svg id="Layer_1" xmlns="http://www.w3.org/2000/svg" viewBox="0 0 250 250"><defs><style>.cls-1{fill:#aabdbd;}.cls-2,.cls-3,.cls-4,.cls-5{fill:#fff;}.cls-6{opacity:.5;}.cls-7{fill:#273339;}.cls-8{opacity:.8;}.cls-9,.cls-4{opacity:.7;}.cls-3,.cls-4,.cls-10,.cls-5{isolation:isolate;}.cls-3,.cls-11{opacity:.55;}.cls-12{opacity:.4;}.cls-13{opacity:.3;}.cls-14{fill:#59898e;}.cls-15{opacity:.6;}.cls-16{fill:#d2e5e1;}.cls-10{opacity:.1;}.cls-17,.cls-5{opacity:.2;}.cls-18{fill:#f9f8f4;}.cls-19{fill:#72818c;}</style></defs><path class="cls-14" d="M182.06,191.31l3.52,2.14c.06,.03,.12,.05,.18,.05,.06,0,.13-.01,.18-.04l2.47-1.04c.03,.2,0,.4-.09,.59l-2.96,5.61c-.07,.14-.09,.31-.05,.46,.04,.15,.14,.29,.28,.37l3.01,1.84,3.5,2.13c.14,.08,.3,.11,.46,.08,.16-.03,.3-.12,.39-.25l3.64-5.19c.12-.16,.28-.28,.47-.34l.2,2.68c0,.06,.01,.13,.04,.18,.03,.06,.07,.11,.13,.14h0l3.53,2.14c.06,.03,.13,.04,.19,.04,.07,0,.13-.02,.19-.06l4.81-2.62c.15-.1,.28-.22,.39-.37,.1-.15,.17-.32,.21-.49l.61-5.27c.06-.37,.24-.71,.52-.97,.96-.85,1.87-1.76,2.71-2.72,.12-.13,.27-.22,.43-.26,.17-.04,.34-.04,.51,.02l3.02,1.14c.16,.05,.33,.05,.48,0,.16-.05,.29-.16,.38-.3l3.64-5.96c.08-.14,.11-.31,.09-.47-.02-.16-.1-.31-.22-.43l-2.39-2.16c-.12-.12-.21-.28-.24-.44s-.03-.34,.03-.5c.48-1.19,.88-2.41,1.19-3.65,.11-.36,.33-.68,.63-.91l4.41-2.94c.15-.11,.27-.25,.35-.4,.09-.16,.14-.33,.15-.51l.14-5.48c0-.07,0-.14-.03-.2-.03-.06-.07-.12-.13-.16h0l-3.52-2.14c-.06-.03-.12-.04-.18-.04s-.13,.02-.18,.04l-2.47,1.04c-.03-.2,0-.4,.09-.59l2.96-5.61c.07-.14,.09-.31,.05-.46-.04-.15-.14-.29-.28-.37l-4.23-2.57-2.29-1.4c-.14-.08-.3-.11-.46-.08-.16,.03-.3,.12-.39,.25l-3.63,5.21c-.12,.16-.29,.27-.47,.34l-.2-2.68c0-.07-.01-.13-.04-.19-.03-.06-.07-.11-.13-.14h0l-3.53-2.15c-.06-.03-.13-.05-.2-.04s-.13,.03-.19,.07l-4.82,2.62c-.15,.09-.29,.22-.39,.37-.1,.15-.17,.32-.21,.49l-.61,5.27c-.06,.37-.24,.71-.51,.97-.96,.85-1.87,1.76-2.71,2.73-.12,.12-.27,.21-.43,.26s-.34,.04-.51-.01l-3.02-1.14c-.16-.05-.33-.05-.48,0-.16,.05-.29,.16-.38,.29l-3.61,5.95c-.08,.14-.11,.31-.09,.47,.02,.16,.1,.31,.22,.43l2.39,2.17c.12,.12,.21,.27,.24,.44,.04,.17,.03,.34-.03,.5-.48,1.19-.88,2.41-1.19,3.65-.11,.36-.33,.68-.63,.91l-4.41,2.94c-.14,.11-.27,.25-.35,.41-.09,.16-.14,.33-.16,.51l-.14,5.48c-.01,.07,0,.14,.02,.2,.02,.07,.07,.12,.12,.17h0Zm26.88-17.77c-.13,5.12-3.88,11.24-8.37,13.68-1.76,.96-3.37,1.2-4.67,.85-.65-.96-.98-2.4-.93-4.28,.13-5.12,3.87-11.24,8.37-13.68,1.76-.95,3.24-1.24,4.39-.94,.81,1,1.27,2.48,1.22,4.37Z"/><path class="cls-5" d="M182.06,191.31l3.52,2.14c.06,.03,.12,.05,.18,.05,.06,0,.13-.01,.18-.04l2.47-1.04c.03,.2,0,.4-.09,.59l-2.96,5.61c-.07,.14-.09,.31-.05,.46,.04,.15,.14,.29,.28,.37l3.01,1.84,3.5,2.13c.14,.08,.3,.11,.46,.08,.16-.03,.3-.12,.39-.25l3.64-5.19c.12-.16,.28-.28,.47-.34l.2,2.68c0,.06,.01,.13,.04,.18,.03,.06,.07,.11,.13,.14h0l3.53,2.14c.06,.03,.13,.04,.19,.04,.07,0,.13-.02,.19-.06l4.81-2.62c.15-.1,.28-.22,.39-.37,.1-.15,.17-.32,.21-.49l.61-5.27c.06-.37,.24-.71,.52-.97,.96-.85,1.87-1.76,2.71-2.72,.12-.13,.27-.22,.43-.26,.17-.04,.34-.04,.51,.02l3.02,1.14c.16,.05,.33,.05,.48,0,.16-.05,.29-.16,.38-.3l3.64-5.96c.08-.14,.11-.31,.09-.47-.02-.16-.1-.31-.22-.43l-2.39-2.16c-.12-.12-.21-.28-.24-.44s-.03-.34,.03-.5c.48-1.19,.88-2.41,1.19-3.65,.11-.36,.33-.68,.63-.91l4.41-2.94c.15-.11,.27-.25,.35-.4,.09-.16,.14-.33,.15-.51l.14-5.48c0-.07,0-.14-.03-.2-.03-.06-.07-.12-.13-.16h0l-3.52-2.14c-.06-.03-.12-.04-.18-.04s-.13,.02-.18,.04l-2.47,1.04c-.03-.2,0-.4,.09-.59l2.96-5.61c.07-.14,.09-.31,.05-.46-.04-.15-.14-.29-.28-.37l-4.23-2.57-2.29-1.4c-.14-.08-.3-.11-.46-.08-.16,.03-.3,.12-.39,.25l-3.63,5.21c-.12,.16-.29,.27-.47,.34l-.2-2.68c0-.07-.01-.13-.04-.19-.03-.06-.07-.11-.13-.14h0l-3.53-2.15c-.06-.03-.13-.05-.2-.04s-.13,.03-.19,.07l-4.82,2.62c-.15,.09-.29,.22-.39,.37-.1,.15-.17,.32-.21,.49l-.61,5.27c-.06,.37-.24,.71-.51,.97-.96,.85-1.87,1.76-2.71,2.73-.12,.12-.27,.21-.43,.26s-.34,.04-.51-.01l-3.02-1.14c-.16-.05-.33-.05-.48,0-.16,.05-.29,.16-.38,.29l-3.61,5.95c-.08,.14-.11,.31-.09,.47,.02,.16,.1,.31,.22,.43l2.39,2.17c.12,.12,.21,.27,.24,.44,.04,.17,.03,.34-.03,.5-.48,1.19-.88,2.41-1.19,3.65-.11,.36-.33,.68-.63,.91l-4.41,2.94c-.14,.11-.27,.25-.35,.41-.09,.16-.14,.33-.16,.51l-.14,5.48c-.01,.07,0,.14,.02,.2,.02,.07,.07,.12,.12,.17h0Zm26.88-17.77c-.13,5.12-3.88,11.24-8.37,13.68-1.76,.96-3.37,1.2-4.67,.85-.65-.96-.98-2.4-.93-4.28,.13-5.12,3.87-11.24,8.37-13.68,1.76-.95,3.24-1.24,4.39-.94,.81,1,1.27,2.48,1.22,4.37Z"/><path class="cls-10" d="M214.18,166.07c.02,.07,.05,.14,.1,.2,.05,.06,.11,.11,.17,.14,.07,.03,.14,.05,.22,.05,.07,0,.15-.02,.22-.05l1.8-.76c-.03-.2,0-.41,.1-.59l2.96-5.61c.07-.14,.09-.31,.05-.46-.04-.15-.14-.29-.28-.37l-4.22-2.57,.71,.44c.14,.08,.23,.22,.28,.37,.04,.15,.03,.32-.04,.46l-2.96,5.61c-.07,.16-.1,.34-.1,.52,0,.18,.05,.35,.14,.51,.38,.67,.67,1.38,.88,2.12h0Zm-10.03-10.84c.08,.08,.13,.19,.14,.31l.35,4.62c0,.07,.02,.15,.06,.21,.04,.07,.08,.12,.14,.17,.06,.04,.13,.07,.2,.09,.07,.01,.15,.01,.22,0,.76-.15,1.54-.21,2.32-.18,.15,0,.31-.03,.45-.08l-.2-2.68c0-.06-.01-.13-.04-.18-.03-.06-.07-.11-.13-.14h0l-3.51-2.12Z"/><path class="cls-10" d="M192.66,182.39c.13-5.12,3.87-11.24,8.37-13.69,2.84-1.55,5.3-1.25,6.69,.46-1.15-.32-2.63-.02-4.39,.94-4.49,2.44-8.24,8.57-8.36,13.69-.05,1.87,.27,3.32,.93,4.28-2.03-.55-3.3-2.57-3.23-5.68Z"/><path class="cls-14" d="M192.13,203.42c.14,.08,.3,.11,.46,.07,.16-.03,.29-.12,.38-.26l3.65-5.18c.06-.09,.14-.16,.24-.22l-3.52-2.14c-.09,.06-.17,.14-.24,.23l-3.63,5.21c-.09,.12-.21,.2-.35,.24-.14,.04-.29,.03-.42-.03l3.44,2.09Zm-6.54-9.97c.06,.03,.12,.04,.18,.04,.06,0,.13-.01,.19-.04l2.47-1.04c-.02-.15-.06-.29-.13-.43-.36-.64-.65-1.31-.85-2.01-.01-.03-.03-.07-.03-.1-.03-.08-.07-.15-.13-.22-.01-.02-.03-.04-.04-.07-.04-.03-.09-.06-.14-.08-.08-.03-.18-.04-.26-.02-.04,0-.08,.02-.12,.03l-4.31,1.8s-.07,.03-.11,.03c-.05,.01-.1,.02-.15,0-.04,0-.08-.02-.12-.04l3.54,2.14Zm15.4,9.42c.06,.03,.13,.04,.19,.04,.07,0,.13-.03,.19-.07l4.82-2.62c.22-.13,.39-.33,.49-.56l-3.51-2.14c-.1,.23-.27,.43-.49,.56l-4.82,2.62c-.06,.03-.12,.05-.18,.06-.06,0-.13,0-.19-.02l3.5,2.12Zm16.83-26.06c.09-.13,.21-.25,.34-.34l4.42-2.94c.12-.09,.22-.2,.31-.33l-3.51-2.13c-.08,.13-.18,.24-.31,.32l-4.41,2.94c-.13,.1-.25,.22-.35,.35l3.52,2.14Zm-3.01,14.51c.12,0,.24-.03,.35-.09,.11-.06,.2-.14,.27-.25l3.64-5.95c.08-.13,.11-.29,.09-.44l-3.52-2.14c.02,.15-.01,.31-.09,.45l-3.65,5.96c-.06,.1-.14,.18-.24,.24s-.21,.1-.32,.1l3.47,2.13Z"/><path class="cls-4" d="M192.13,203.42c.14,.08,.3,.11,.46,.07,.16-.03,.29-.12,.38-.26l3.65-5.18c.06-.09,.14-.16,.24-.22l-3.52-2.14c-.09,.06-.17,.14-.24,.23l-3.63,5.21c-.09,.12-.21,.2-.35,.24-.14,.04-.29,.03-.42-.03l3.44,2.09Zm-6.54-9.97c.06,.03,.12,.04,.18,.04,.06,0,.13-.01,.19-.04l2.47-1.04c-.02-.15-.06-.29-.13-.43-.36-.64-.65-1.31-.85-2.01-.01-.03-.03-.07-.03-.1-.03-.08-.07-.15-.13-.22-.01-.02-.03-.04-.04-.07-.04-.03-.09-.06-.14-.08-.08-.03-.18-.04-.26-.02-.04,0-.08,.02-.12,.03l-4.31,1.8s-.07,.03-.11,.03c-.05,.01-.1,.02-.15,0-.04,0-.08-.02-.12-.04l3.54,2.14Zm15.4,9.42c.06,.03,.13,.04,.19,.04,.07,0,.13-.03,.19-.07l4.82-2.62c.22-.13,.39-.33,.49-.56l-3.51-2.14c-.1,.23-.27,.43-.49,.56l-4.82,2.62c-.06,.03-.12,.05-.18,.06-.06,0-.13,0-.19-.02l3.5,2.12Zm16.83-26.06c.09-.13,.21-.25,.34-.34l4.42-2.94c.12-.09,.22-.2,.31-.33l-3.51-2.13c-.08,.13-.18,.24-.31,.32l-4.41,2.94c-.13,.1-.25,.22-.35,.35l3.52,2.14Zm-3.01,14.51c.12,0,.24-.03,.35-.09,.11-.06,.2-.14,.27-.25l3.64-5.95c.08-.13,.11-.29,.09-.44l-3.52-2.14c.02,.15-.01,.31-.09,.45l-3.65,5.96c-.06,.1-.14,.18-.24,.24s-.21,.1-.32,.1l3.47,2.13Z"/><path class="cls-14" d="M182.03,185.47l-.14,5.48c-.01,.07,0,.14,.02,.2,.03,.06,.07,.12,.12,.15,.06,.04,.12,.06,.19,.06,.07,0,.13-.01,.19-.05l4.27-1.8c.07-.03,.14-.05,.22-.05s.15,.02,.22,.05c.07,.03,.13,.08,.17,.14,.05,.06,.08,.13,.1,.2,.21,.74,.51,1.45,.89,2.12,.08,.16,.13,.33,.14,.51,0,.18-.03,.35-.1,.51l-2.96,5.61c-.07,.14-.09,.31-.05,.46,.04,.15,.14,.29,.28,.37l3.01,1.84c.14,.08,.3,.11,.46,.08,.16-.03,.3-.12,.39-.25l3.63-5.21c.11-.14,.25-.25,.41-.33,.16-.08,.34-.11,.51-.11,.77,.04,1.54-.02,2.29-.17,.07-.02,.15-.02,.22,0,.07,.01,.14,.04,.2,.09s.11,.1,.14,.17c.04,.07,.06,.14,.06,.21l.35,4.62c0,.07,0,.14,.04,.2,.03,.06,.08,.11,.14,.14,.06,.03,.13,.05,.19,.04,.07,0,.13-.03,.19-.07l4.81-2.62c.15-.1,.29-.22,.39-.37s.17-.32,.21-.49l.61-5.27c.07-.37,.25-.71,.53-.97,.96-.85,1.87-1.76,2.71-2.72,.12-.12,.27-.22,.43-.26,.17-.04,.34-.04,.51,.02l3.02,1.14c.16,.05,.32,.05,.48,0,.16-.05,.29-.16,.38-.3l3.64-5.96c.08-.14,.11-.31,.09-.47-.02-.16-.1-.32-.22-.43l-2.39-2.17c-.12-.12-.21-.27-.24-.44-.04-.17-.03-.34,.03-.5,.48-1.19,.88-2.41,1.19-3.65,.11-.36,.33-.68,.63-.91l4.41-2.94c.15-.11,.27-.25,.35-.41,.09-.16,.14-.33,.15-.51l.14-5.48c.01-.07,0-.14-.02-.2-.03-.06-.07-.12-.13-.15-.06-.04-.12-.06-.19-.06-.07,0-.13,.02-.19,.05l-4.29,1.81c-.07,.03-.14,.05-.22,.05-.07,0-.15-.02-.22-.05-.07-.03-.13-.08-.17-.14-.05-.06-.08-.13-.1-.2-.21-.74-.51-1.45-.89-2.12-.08-.16-.13-.33-.14-.51,0-.18,.03-.35,.1-.52l2.96-5.61c.07-.14,.09-.31,.05-.46-.04-.15-.14-.29-.28-.37l-3.01-1.84c-.14-.08-.3-.11-.46-.07-.16,.03-.29,.12-.39,.25l-3.63,5.21c-.11,.14-.26,.25-.42,.32-.16,.07-.34,.11-.51,.11-.77-.04-1.54,.02-2.29,.17-.07,.02-.15,.02-.22,0-.07-.01-.14-.04-.2-.09-.06-.04-.11-.1-.14-.17-.04-.07-.06-.14-.06-.21l-.35-4.62c0-.07,0-.14-.04-.2-.03-.06-.08-.11-.14-.14-.06-.03-.13-.05-.2-.04s-.13,.03-.19,.07l-4.82,2.62c-.15,.09-.29,.22-.39,.37-.1,.15-.17,.32-.21,.49l-.61,5.27c-.06,.37-.24,.71-.51,.97-.96,.85-1.87,1.76-2.71,2.72-.12,.12-.27,.21-.44,.26-.17,.04-.34,.04-.5-.01l-3.02-1.14c-.16-.05-.32-.05-.48,0-.16,.05-.29,.16-.38,.29l-3.61,5.93c-.08,.14-.11,.31-.09,.47,.02,.16,.1,.31,.22,.43l2.39,2.17c.12,.12,.21,.27,.24,.44,.04,.17,.03,.34-.03,.5-.48,1.19-.88,2.41-1.19,3.65-.11,.36-.33,.68-.63,.91l-4.41,2.94c-.15,.11-.27,.25-.37,.41s-.15,.34-.16,.52h0Zm19-16.76c4.49-2.44,8.03-.28,7.91,4.84-.13,5.12-3.88,11.24-8.37,13.68-4.49,2.44-8.04,.28-7.91-4.84,.13-5.12,3.88-11.24,8.37-13.68h0Z"/><path class="cls-3" d="M182.03,185.47l-.14,5.48c-.01,.07,0,.14,.02,.2,.03,.06,.07,.12,.12,.15,.06,.04,.12,.06,.19,.06,.07,0,.13-.01,.19-.05l4.27-1.8c.07-.03,.14-.05,.22-.05s.15,.02,.22,.05c.07,.03,.13,.08,.17,.14,.05,.06,.08,.13,.1,.2,.21,.74,.51,1.45,.89,2.12,.08,.16,.13,.33,.14,.51,0,.18-.03,.35-.1,.51l-2.96,5.61c-.07,.14-.09,.31-.05,.46,.04,.15,.14,.29,.28,.37l3.01,1.84c.14,.08,.3,.11,.46,.08,.16-.03,.3-.12,.39-.25l3.63-5.21c.11-.14,.25-.25,.41-.33,.16-.08,.34-.11,.51-.11,.77,.04,1.54-.02,2.29-.17,.07-.02,.15-.02,.22,0,.07,.01,.14,.04,.2,.09s.11,.1,.14,.17c.04,.07,.06,.14,.06,.21l.35,4.62c0,.07,0,.14,.04,.2,.03,.06,.08,.11,.14,.14,.06,.03,.13,.05,.19,.04,.07,0,.13-.03,.19-.07l4.81-2.62c.15-.1,.29-.22,.39-.37s.17-.32,.21-.49l.61-5.27c.07-.37,.25-.71,.53-.97,.96-.85,1.87-1.76,2.71-2.72,.12-.12,.27-.22,.43-.26,.17-.04,.34-.04,.51,.02l3.02,1.14c.16,.05,.32,.05,.48,0,.16-.05,.29-.16,.38-.3l3.64-5.96c.08-.14,.11-.31,.09-.47-.02-.16-.1-.32-.22-.43l-2.39-2.17c-.12-.12-.21-.27-.24-.44-.04-.17-.03-.34,.03-.5,.48-1.19,.88-2.41,1.19-3.65,.11-.36,.33-.68,.63-.91l4.41-2.94c.15-.11,.27-.25,.35-.41,.09-.16,.14-.33,.15-.51l.14-5.48c.01-.07,0-.14-.02-.2-.03-.06-.07-.12-.13-.15-.06-.04-.12-.06-.19-.06-.07,0-.13,.02-.19,.05l-4.29,1.81c-.07,.03-.14,.05-.22,.05-.07,0-.15-.02-.22-.05-.07-.03-.13-.08-.17-.14-.05-.06-.08-.13-.1-.2-.21-.74-.51-1.45-.89-2.12-.08-.16-.13-.33-.14-.51,0-.18,.03-.35,.1-.52l2.96-5.61c.07-.14,.09-.31,.05-.46-.04-.15-.14-.29-.28-.37l-3.01-1.84c-.14-.08-.3-.11-.46-.07-.16,.03-.29,.12-.39,.25l-3.63,5.21c-.11,.14-.26,.25-.42,.32-.16,.07-.34,.11-.51,.11-.77-.04-1.54,.02-2.29,.17-.07,.02-.15,.02-.22,0-.07-.01-.14-.04-.2-.09-.06-.04-.11-.1-.14-.17-.04-.07-.06-.14-.06-.21l-.35-4.62c0-.07,0-.14-.04-.2-.03-.06-.08-.11-.14-.14-.06-.03-.13-.05-.2-.04s-.13,.03-.19,.07l-4.82,2.62c-.15,.09-.29,.22-.39,.37-.1,.15-.17,.32-.21,.49l-.61,5.27c-.06,.37-.24,.71-.51,.97-.96,.85-1.87,1.76-2.71,2.72-.12,.12-.27,.21-.44,.26-.17,.04-.34,.04-.5-.01l-3.02-1.14c-.16-.05-.32-.05-.48,0-.16,.05-.29,.16-.38,.29l-3.61,5.93c-.08,.14-.11,.31-.09,.47,.02,.16,.1,.31,.22,.43l2.39,2.17c.12,.12,.21,.27,.24,.44,.04,.17,.03,.34-.03,.5-.48,1.19-.88,2.41-1.19,3.65-.11,.36-.33,.68-.63,.91l-4.41,2.94c-.15,.11-.27,.25-.37,.41s-.15,.34-.16,.52h0Zm19-16.76c4.49-2.44,8.03-.28,7.91,4.84-.13,5.12-3.88,11.24-8.37,13.68-4.49,2.44-8.04,.28-7.91-4.84,.13-5.12,3.88-11.24,8.37-13.68h0Z"/><g class="cls-11"><path class="cls-2" d="M188.92,200.97s-.07-.01-.11-.03l-3.01-1.84s-.08-.08-.1-.14,0-.11,.01-.17l2.96-5.6c.11-.22,.16-.47,.15-.71,0-.25-.07-.49-.2-.7-.36-.64-.64-1.31-.84-2.02-.05-.19-.16-.36-.31-.48-.15-.12-.34-.19-.54-.2-.14,0-.27,.03-.39,.08l-4.24,1.78,.13-5.46c.03-.23,.15-.45,.33-.6l4.42-2.94c.38-.28,.66-.69,.8-1.14,.31-1.22,.7-2.43,1.17-3.6,.09-.24,.1-.5,.04-.74-.06-.25-.19-.47-.37-.64l-2.39-2.17c-.05-.05-.08-.12-.09-.19,0-.07,0-.14,.04-.21l3.64-5.95s.08-.09,.13-.11c.05-.03,.11-.04,.16-.04,.03,0,.06,0,.08,.01l3.02,1.14c.12,.05,.25,.07,.38,.07,.19,0,.38-.03,.55-.1,.17-.07,.33-.18,.46-.32,.83-.95,1.72-1.85,2.67-2.68,.35-.33,.58-.76,.66-1.23l.61-5.27c.02-.12,.07-.22,.13-.32,.07-.1,.15-.18,.25-.24l4.79-2.6,.34,4.59c.01,.23,.11,.44,.27,.6,.16,.16,.38,.25,.61,.25,.07,0,.15,0,.22-.02,.65-.13,1.32-.19,1.98-.18h.21s.02,0,.02,0c.24,0,.48-.05,.69-.16,.22-.1,.41-.26,.56-.45l3.63-5.21s.05-.06,.09-.07c.03-.02,.07-.03,.11-.02,.04,0,.08,.01,.11,.03l3.01,1.84s.08,.08,.1,.14,0,.11-.02,.17l-2.96,5.6c-.1,.22-.16,.47-.15,.71s.07,.49,.2,.7c.36,.64,.64,1.31,.84,2.02,.05,.19,.16,.36,.31,.48s.34,.19,.54,.2c.14,0,.27-.02,.39-.08l4.29-1.72-.14,5.45c-.03,.23-.14,.45-.33,.6l-4.42,2.94c-.38,.29-.66,.69-.8,1.14-.32,1.22-.71,2.41-1.19,3.57-.09,.24-.1,.5-.04,.74,.06,.25,.19,.47,.37,.64l2.39,2.17c.05,.05,.08,.12,.09,.19,0,.07,0,.14-.04,.21l-3.64,5.96s-.08,.09-.13,.11-.11,.04-.16,.04c-.03,0-.06,0-.08-.01l-3.02-1.14c-.12-.05-.25-.07-.38-.07-.19,0-.38,.03-.55,.1-.17,.07-.33,.18-.46,.32-.83,.95-1.72,1.85-2.67,2.68-.35,.33-.58,.76-.65,1.23l-.61,5.27c-.02,.12-.07,.22-.13,.32-.07,.1-.15,.18-.25,.25l-4.79,2.6-.34-4.59c-.01-.23-.11-.44-.28-.6-.17-.16-.38-.25-.61-.25-.07,0-.15,0-.22,.02-.65,.13-1.32,.19-1.98,.18h-.21s-.02,0-.02,0c-.24,0-.48,.05-.69,.16s-.4,.26-.55,.45l-3.64,5.19s-.05,.06-.09,.07c-.04,.02-.07,.02-.11,.02m15.74-33.65c-1.34,0-2.66,.37-3.81,1.05-4.6,2.5-8.44,8.79-8.58,14.03-.04,1.84,.37,3.4,1.2,4.51,.4,.54,.93,.98,1.53,1.28,.6,.3,1.27,.46,1.94,.46,1.34-.01,2.65-.38,3.81-1.06,4.6-2.5,8.45-8.79,8.58-14.03,.09-3.72-1.75-6.17-4.68-6.24m-15.74,34.07c.1,0,.21-.02,.3-.07,.09-.05,.18-.12,.24-.2l3.63-5.21c.11-.13,.25-.24,.4-.32,.16-.07,.33-.11,.5-.11h.02s.22,0,.22,0c.7,.01,1.39-.05,2.07-.18,.04,0,.09-.01,.13-.01,.13,0,.25,.05,.34,.14,.09,.09,.15,.21,.15,.33l.35,4.62c0,.09,.03,.18,.09,.25,.06,.07,.15,.11,.24,.12,.08,0,.17-.02,.24-.06l4.81-2.62c.15-.09,.29-.22,.39-.37,.1-.15,.17-.32,.21-.49l.61-5.27c.06-.38,.25-.74,.53-1,.96-.85,1.87-1.76,2.71-2.72,.09-.1,.2-.17,.31-.22,.12-.05,.25-.07,.38-.07,.09,0,.17,.02,.25,.05l3.02,1.14c.07,.03,.14,.04,.22,.04,.13,0,.25-.03,.37-.08,.11-.06,.21-.15,.28-.25l3.64-5.96c.08-.14,.12-.31,.09-.47-.02-.16-.1-.32-.22-.43l-2.39-2.17c-.12-.12-.21-.27-.24-.44-.04-.17-.03-.34,.03-.5,.48-1.19,.88-2.41,1.19-3.65,.11-.36,.33-.68,.63-.91l4.41-2.94c.15-.11,.27-.25,.35-.41,.09-.16,.14-.33,.15-.51l.14-5.48s0-.1,0-.15c-.01-.05-.03-.09-.06-.13-.03-.04-.07-.07-.11-.09-.04-.02-.09-.04-.14-.04-.07,0-.15,.01-.21,.05l-4.29,1.81c-.07,.03-.15,.04-.23,.04-.11,0-.22-.04-.31-.11-.09-.07-.15-.17-.18-.28-.21-.74-.51-1.45-.89-2.12-.08-.16-.13-.33-.14-.51,0-.18,.03-.35,.1-.52l2.96-5.61c.07-.14,.09-.31,.05-.46-.04-.15-.14-.29-.28-.37l-3.01-1.84c-.09-.06-.2-.09-.31-.09-.11,0-.21,.02-.3,.07-.09,.05-.18,.11-.24,.2l-3.63,5.21c-.11,.13-.25,.24-.41,.32-.16,.07-.33,.11-.5,.11-.07,0-.15,0-.22-.01-.69-.01-1.39,.05-2.07,.18h-.13c-.13,.01-.25-.04-.34-.13-.09-.09-.15-.21-.15-.34l-.35-4.62c0-.09-.03-.18-.09-.25-.06-.07-.15-.11-.24-.12-.08,0-.17,.02-.24,.07l-4.82,2.62c-.15,.09-.29,.22-.39,.37-.1,.15-.17,.32-.21,.49l-.61,5.27c-.06,.37-.24,.71-.51,.97-.96,.85-1.87,1.76-2.71,2.73-.09,.09-.2,.17-.32,.22-.12,.05-.25,.07-.38,.07-.08,0-.16-.02-.24-.04l-3.02-1.14c-.07-.03-.14-.04-.22-.04-.13,0-.25,.03-.37,.08-.11,.06-.21,.15-.28,.25l-3.62,5.94c-.08,.14-.11,.31-.09,.47,.02,.16,.1,.31,.22,.43l2.39,2.17c.12,.12,.21,.27,.24,.44,.04,.17,.03,.34-.03,.5-.48,1.19-.88,2.41-1.19,3.65-.11,.36-.33,.68-.63,.91l-4.41,2.94c-.14,.11-.27,.25-.35,.41-.09,.16-.14,.33-.16,.51l-.14,5.48s0,.1,0,.15c.01,.05,.04,.09,.07,.13,.03,.04,.07,.07,.11,.09,.04,.02,.09,.03,.14,.04,.07,0,.14-.01,.21-.04l4.27-1.8c.07-.03,.15-.05,.23-.04,.11,0,.21,.05,.3,.12,.09,.07,.15,.17,.17,.27,.21,.74,.51,1.45,.89,2.12,.08,.16,.13,.33,.14,.51s-.03,.35-.1,.51l-2.96,5.61c-.07,.14-.09,.31-.05,.46,.04,.15,.14,.29,.28,.37l3.01,1.84c.09,.05,.2,.09,.31,.09v.05Zm15.72-33.67c2.63,.07,4.39,2.21,4.29,5.84-.13,5.12-3.88,11.24-8.37,13.68-1.09,.65-2.34,.99-3.61,1-2.63-.07-4.39-2.21-4.29-5.83,.13-5.12,3.87-11.24,8.37-13.69,1.1-.64,2.34-.99,3.61-1h0Z"/></g><path class="cls-14" d="M145.8,201.84c-.37,.3-.81,.48-1.28,.51l-3.4,.02c-.22,.01-.44,.08-.64,.19-.2,.11-.37,.26-.5,.44l-1.49,2.33c-.04,.06-.08,.14-.09,.21-.01,.08,0,.16,.01,.23h0l1.05,3.26c.03,.09,.09,.16,.16,.22,.07,.06,.16,.09,.26,.09l1.27,.2-2.65,1.38c-.14,.07-.25,.18-.3,.32-.06,.14-.06,.3,0,.44h0l1.05,3.26c.03,.06,.06,.12,.11,.18l1.11,1.58c.13,.16,.3,.28,.5,.35,.2,.06,.41,.06,.61,0l3.58-1.31c.31-.09,.64-.1,.96,0l-.12,.25c-.06,.12-.08,.27-.04,.41h0l1.02,3.29c.04,.1,.1,.18,.18,.23,.08,.06,.18,.09,.28,.09l3.58,.25c.23,0,.45-.04,.66-.13,.21-.09,.39-.23,.54-.39l1.68-2.1c.32-.35,.74-.58,1.2-.67,.71-.1,1.43-.24,2.13-.4,.22-.04,.45-.04,.66,.02,.21,.06,.41,.17,.58,.32l1.28,1.29c.16,.15,.36,.24,.57,.28,.21,.04,.43,.02,.63-.06l3.83-1.69c.16-.07,.29-.2,.37-.36,.07-.16,.09-.35,.03-.52h0l-.71-2.21c.06-.17,.17-.31,.32-.42,.51-.35,.99-.74,1.46-1.14,.37-.29,.82-.47,1.29-.5l3.4-.02c.22-.01,.44-.08,.64-.19,.2-.11,.37-.26,.5-.44l1.48-2.33c.04-.06,.07-.13,.09-.21,.01-.07,.01-.15,0-.22h0l-1.05-3.28c-.03-.08-.09-.16-.16-.21-.07-.05-.16-.09-.25-.09l-1.27-.2,2.66-1.38c.13-.06,.24-.17,.3-.31,.06-.13,.07-.29,.03-.43h0l-1-3.32c-.02-.07-.05-.14-.09-.21l-1.11-1.58c-.13-.16-.31-.28-.5-.34-.2-.06-.41-.06-.61,0l-3.58,1.31c-.31,.09-.64,.1-.96,0l.12-.25c.03-.06,.05-.13,.06-.2,0-.07,0-.14-.02-.21h0l-1.04-3.24-.02-.03c-.04-.09-.1-.17-.18-.22-.08-.05-.18-.08-.27-.08l-3.58-.25c-.23,0-.45,.04-.66,.13-.21,.09-.39,.23-.54,.39l-1.71,2.12c-.32,.35-.74,.58-1.2,.66-.71,.1-1.43,.24-2.13,.41-.22,.04-.45,.03-.66-.03-.21-.06-.41-.17-.58-.31l-1.28-1.29c-.16-.15-.36-.24-.57-.28-.21-.04-.43-.02-.63,.06l-3.83,1.68c-.09,.04-.17,.1-.24,.17-.07,.07-.12,.15-.15,.24-.04,.09-.05,.19-.05,.28,0,.1,.03,.19,.07,.28l.67,1.45c.08,.19,.09,.4,.04,.6-.06,.2-.18,.37-.34,.49-.5,.35-.99,.73-1.45,1.14h0Zm16.73,3.97c-1.75,2.75-6.31,4.76-10.19,4.49-1.19-.03-2.35-.41-3.33-1.09,.13-.39,.31-.77,.53-1.11,1.74-2.75,6.31-4.76,10.19-4.49,1.2,.04,2.36,.42,3.34,1.09-.13,.39-.31,.76-.53,1.1h0Z"/><path class="cls-5" d="M145.8,201.84c-.37,.3-.81,.48-1.28,.51l-3.4,.02c-.22,.01-.44,.08-.64,.19-.2,.11-.37,.26-.5,.44l-1.49,2.33c-.04,.06-.08,.14-.09,.21-.01,.08,0,.16,.01,.23h0l1.05,3.26c.03,.09,.09,.16,.16,.22,.07,.06,.16,.09,.26,.09l1.27,.2-2.65,1.38c-.14,.07-.25,.18-.3,.32-.06,.14-.06,.3,0,.44h0l1.05,3.26c.03,.06,.06,.12,.11,.18l1.11,1.58c.13,.16,.3,.28,.5,.35,.2,.06,.41,.06,.61,0l3.58-1.31c.31-.09,.64-.1,.96,0l-.12,.25c-.06,.12-.08,.27-.04,.41h0l1.02,3.29c.04,.1,.1,.18,.18,.23,.08,.06,.18,.09,.28,.09l3.58,.25c.23,0,.45-.04,.66-.13,.21-.09,.39-.23,.54-.39l1.68-2.1c.32-.35,.74-.58,1.2-.67,.71-.1,1.43-.24,2.13-.4,.22-.04,.45-.04,.66,.02,.21,.06,.41,.17,.58,.32l1.28,1.29c.16,.15,.36,.24,.57,.28,.21,.04,.43,.02,.63-.06l3.83-1.69c.16-.07,.29-.2,.37-.36,.07-.16,.09-.35,.03-.52h0l-.71-2.21c.06-.17,.17-.31,.32-.42,.51-.35,.99-.74,1.46-1.14,.37-.29,.82-.47,1.29-.5l3.4-.02c.22-.01,.44-.08,.64-.19,.2-.11,.37-.26,.5-.44l1.48-2.33c.04-.06,.07-.13,.09-.21,.01-.07,.01-.15,0-.22h0l-1.05-3.28c-.03-.08-.09-.16-.16-.21-.07-.05-.16-.09-.25-.09l-1.27-.2,2.66-1.38c.13-.06,.24-.17,.3-.31,.06-.13,.07-.29,.03-.43h0l-1-3.32c-.02-.07-.05-.14-.09-.21l-1.11-1.58c-.13-.16-.31-.28-.5-.34-.2-.06-.41-.06-.61,0l-3.58,1.31c-.31,.09-.64,.1-.96,0l.12-.25c.03-.06,.05-.13,.06-.2,0-.07,0-.14-.02-.21h0l-1.04-3.24-.02-.03c-.04-.09-.1-.17-.18-.22-.08-.05-.18-.08-.27-.08l-3.58-.25c-.23,0-.45,.04-.66,.13-.21,.09-.39,.23-.54,.39l-1.71,2.12c-.32,.35-.74,.58-1.2,.66-.71,.1-1.43,.24-2.13,.41-.22,.04-.45,.03-.66-.03-.21-.06-.41-.17-.58-.31l-1.28-1.29c-.16-.15-.36-.24-.57-.28-.21-.04-.43-.02-.63,.06l-3.83,1.68c-.09,.04-.17,.1-.24,.17-.07,.07-.12,.15-.15,.24-.04,.09-.05,.19-.05,.28,0,.1,.03,.19,.07,.28l.67,1.45c.08,.19,.09,.4,.04,.6-.06,.2-.18,.37-.34,.49-.5,.35-.99,.73-1.45,1.14h0Zm16.73,3.97c-1.75,2.75-6.31,4.76-10.19,4.49-1.19-.03-2.35-.41-3.33-1.09,.13-.39,.31-.77,.53-1.11,1.74-2.75,6.31-4.76,10.19-4.49,1.2,.04,2.36,.42,3.34,1.09-.13,.39-.31,.76-.53,1.1h0Z"/><path class="cls-10" d="M168.64,203.24c-.02,.09-.02,.19,0,.29,.02,.09,.06,.18,.11,.26,.05,.08,.12,.15,.21,.2,.08,.05,.17,.09,.26,.1l1.68,.27,2.66-1.38c.13-.06,.24-.17,.3-.31,.06-.13,.07-.29,.03-.43l-1.04-3.23c.03,.14,.02,.28-.04,.41-.06,.13-.16,.23-.29,.29l-3.26,1.69c-.18,.12-.33,.28-.43,.46-.1,.19-.15,.4-.15,.61,.01,.25,0,.51-.03,.76h0Zm-3.55-9.02c.04,.14,.03,.28-.04,.4l-.95,2c-.04,.08-.06,.18-.07,.27,0,.09,.02,.19,.05,.27,.04,.08,.09,.16,.16,.22,.07,.06,.15,.11,.24,.14,.39,.14,.76,.3,1.12,.49,.12,.06,.24,.11,.37,.13l.12-.26c.06-.13,.08-.27,.04-.41h0l-1.05-3.26Z"/><path class="cls-10" d="M158.67,200.33c3.35,.24,5.1,2.09,4.38,4.36-.98-.68-2.14-1.06-3.33-1.09-3.88-.27-8.44,1.73-10.2,4.49-.22,.34-.4,.72-.53,1.11-1.34-1.02-1.63-2.63-.52-4.37,1.75-2.76,6.31-4.76,10.2-4.49Z"/><path class="cls-14" d="M158.02,216.61c.17,.06,.32,.15,.46,.26l1.28,1.29c.2,.19,.47,.29,.74,.3l-1.05-3.26c-.27,0-.54-.12-.74-.3l-1.28-1.29c-.13-.12-.28-.22-.45-.27l1.04,3.27Zm-11.06,3.07c.03,.1,.1,.18,.18,.23,.08,.06,.18,.09,.28,.08l3.58,.26c.3,0,.6-.08,.86-.25l-1.05-3.26c-.25,.16-.54,.24-.84,.23l-3.58-.25c-.1,0-.2-.03-.28-.09-.08-.06-.15-.14-.18-.23h0l1.03,3.28Zm20.61-8.13l3.36-.02c.27-.02,.54-.11,.76-.27l-1.05-3.26c-.22,.16-.48,.26-.75,.28h-3.35s1.03,3.27,1.03,3.27Zm-28.37,3.4c.02,.07,.06,.13,.11,.18l1.11,1.58c.13,.16,.31,.28,.5,.35,.2,.06,.41,.06,.61,0l3.58-1.31c.19-.06,.4-.08,.6-.06l-1.05-3.27c-.2-.02-.41,0-.6,.07l-3.56,1.33c-.2,.07-.41,.07-.61,0-.2-.06-.38-.18-.51-.35l-1.11-1.58c-.04-.06-.07-.11-.11-.17l1.03,3.24Zm.24-5.91c.03,.09,.09,.16,.16,.22,.07,.05,.16,.09,.25,.1l1.27,.19,.6-.31c.18-.11,.33-.28,.43-.47,.1-.19,.15-.4,.15-.62,0-.26,0-.51,.04-.77,0-.06,0-.13,0-.19l-.03-.13c-.02-.09-.07-.17-.12-.24-.07-.09-.15-.16-.26-.21-.06-.04-.12-.06-.19-.06l-2.96-.46c-.07-.01-.13-.03-.2-.06-.07-.03-.12-.07-.17-.13-.02-.03-.04-.07-.06-.1l1.05,3.25Z"/><path class="cls-4" d="M158.02,216.61c.17,.06,.32,.15,.46,.26l1.28,1.29c.2,.19,.47,.29,.74,.3l-1.05-3.26c-.27,0-.54-.12-.74-.3l-1.28-1.29c-.13-.12-.28-.22-.45-.27l1.04,3.27Zm-11.06,3.07c.03,.1,.1,.18,.18,.23,.08,.06,.18,.09,.28,.08l3.58,.26c.3,0,.6-.08,.86-.25l-1.05-3.26c-.25,.16-.54,.24-.84,.23l-3.58-.25c-.1,0-.2-.03-.28-.09-.08-.06-.15-.14-.18-.23h0l1.03,3.28Zm20.61-8.13l3.36-.02c.27-.02,.54-.11,.76-.27l-1.05-3.26c-.22,.16-.48,.26-.75,.28h-3.35s1.03,3.27,1.03,3.27Zm-28.37,3.4c.02,.07,.06,.13,.11,.18l1.11,1.58c.13,.16,.31,.28,.5,.35,.2,.06,.41,.06,.61,0l3.58-1.31c.19-.06,.4-.08,.6-.06l-1.05-3.27c-.2-.02-.41,0-.6,.07l-3.56,1.33c-.2,.07-.41,.07-.61,0-.2-.06-.38-.18-.51-.35l-1.11-1.58c-.04-.06-.07-.11-.11-.17l1.03,3.24Zm.24-5.91c.03,.09,.09,.16,.16,.22,.07,.05,.16,.09,.25,.1l1.27,.19,.6-.31c.18-.11,.33-.28,.43-.47,.1-.19,.15-.4,.15-.62,0-.26,0-.51,.04-.77,0-.06,0-.13,0-.19l-.03-.13c-.02-.09-.07-.17-.12-.24-.07-.09-.15-.16-.26-.21-.06-.04-.12-.06-.19-.06l-2.96-.46c-.07-.01-.13-.03-.2-.06-.07-.03-.12-.07-.17-.13-.02-.03-.04-.07-.06-.1l1.05,3.25Z"/><path class="cls-14" d="M139.99,203.01l-1.49,2.33c-.06,.06-.11,.14-.12,.23-.02,.09,0,.18,.03,.26,.04,.08,.1,.15,.17,.19,.08,.04,.17,.07,.26,.06l2.96,.46c.1,.02,.18,.05,.27,.1,.08,.05,.15,.12,.21,.19,.06,.08,.09,.17,.12,.26,.02,.09,.02,.19,0,.28-.03,.26-.05,.51-.04,.77,0,.22-.04,.43-.15,.62-.1,.19-.25,.35-.43,.46l-3.26,1.7c-.08,.04-.16,.1-.22,.17-.06,.07-.1,.16-.12,.25-.02,.09-.03,.18,0,.28,.02,.09,.06,.18,.11,.25l1.11,1.58c.13,.16,.31,.29,.51,.35,.2,.06,.41,.06,.61,0l3.58-1.31c.45-.13,.92-.08,1.34,.12,.36,.19,.73,.35,1.12,.5,.09,.03,.17,.07,.24,.13,.07,.06,.13,.14,.16,.22s.05,.18,.05,.27c0,.09-.03,.19-.07,.27l-.95,1.99c-.04,.07-.07,.16-.07,.24s.02,.17,.07,.24c.04,.07,.11,.13,.18,.17,.08,.04,.16,.06,.25,.05l3.58,.25c.23,0,.45-.04,.66-.13,.21-.09,.39-.22,.54-.39l1.68-2.1c.32-.35,.74-.58,1.2-.67,.72-.1,1.43-.24,2.14-.41,.22-.04,.45-.03,.66,.03,.21,.06,.41,.17,.58,.32l1.28,1.29c.16,.15,.36,.24,.57,.28,.21,.04,.43,.02,.63-.06l3.83-1.69c.09-.04,.17-.09,.24-.16s.12-.15,.15-.24c.03-.09,.05-.19,.05-.28,0-.1-.03-.19-.07-.28l-.66-1.45c-.08-.19-.09-.4-.04-.6,.06-.2,.18-.37,.34-.49,.51-.35,.99-.74,1.46-1.14,.37-.3,.82-.47,1.29-.51l3.4-.02c.22-.01,.44-.08,.64-.19,.2-.11,.37-.26,.5-.44l1.49-2.33c.06-.06,.11-.14,.12-.23,.02-.09,0-.18-.03-.26-.04-.08-.1-.15-.18-.19-.08-.04-.16-.06-.25-.06l-2.95-.46c-.19-.04-.36-.14-.47-.3-.11-.16-.15-.35-.12-.54,.03-.25,.05-.51,.04-.77,0-.21,.05-.43,.15-.61,.1-.19,.25-.35,.43-.46l3.26-1.7c.08-.04,.16-.1,.22-.17,.06-.07,.1-.16,.12-.25,.02-.09,.02-.18,0-.28-.02-.09-.06-.18-.11-.25l-1.11-1.58c-.13-.16-.31-.28-.5-.34-.2-.06-.41-.06-.61,0l-3.58,1.31c-.44,.13-.92,.08-1.33-.12-.36-.19-.74-.35-1.12-.49-.09-.03-.17-.07-.24-.14-.07-.06-.12-.14-.16-.22-.04-.09-.05-.18-.05-.27,0-.09,.03-.18,.07-.27l.95-1.99c.04-.07,.07-.16,.07-.24s-.02-.17-.07-.24c-.04-.07-.11-.13-.18-.17-.08-.04-.16-.06-.25-.05l-3.58-.25c-.23,0-.45,.04-.66,.13-.21,.09-.39,.23-.54,.39l-1.69,2.08c-.32,.35-.74,.58-1.2,.66-.71,.1-1.43,.24-2.13,.41-.22,.04-.44,.03-.66-.03-.22-.06-.41-.16-.58-.31l-1.28-1.29c-.16-.15-.36-.24-.57-.28-.21-.04-.43-.02-.63,.06l-3.83,1.68c-.09,.04-.17,.1-.24,.17-.07,.07-.12,.15-.15,.24-.03,.09-.05,.19-.05,.28,0,.1,.03,.19,.07,.28l.67,1.45c.08,.19,.09,.4,.04,.6-.05,.2-.18,.37-.34,.49-.51,.35-.99,.73-1.46,1.14-.37,.3-.81,.48-1.28,.51l-3.4,.02c-.22,.02-.44,.08-.63,.2-.19,.11-.36,.26-.49,.45Zm18.69-2.67c3.88,.27,5.61,2.73,3.86,5.48-1.75,2.75-6.31,4.76-10.19,4.49-3.88-.27-5.61-2.73-3.86-5.48s6.3-4.78,10.18-4.5h0Z"/><path class="cls-3" d="M139.99,203.01l-1.49,2.33c-.06,.06-.11,.14-.12,.23-.02,.09,0,.18,.03,.26,.04,.08,.1,.15,.17,.19,.08,.04,.17,.07,.26,.06l2.96,.46c.1,.02,.18,.05,.27,.1,.08,.05,.15,.12,.21,.19,.06,.08,.09,.17,.12,.26,.02,.09,.02,.19,0,.28-.03,.26-.05,.51-.04,.77,0,.22-.04,.43-.15,.62-.1,.19-.25,.35-.43,.46l-3.26,1.7c-.08,.04-.16,.1-.22,.17-.06,.07-.1,.16-.12,.25-.02,.09-.03,.18,0,.28,.02,.09,.06,.18,.11,.25l1.11,1.58c.13,.16,.31,.29,.51,.35,.2,.06,.41,.06,.61,0l3.58-1.31c.45-.13,.92-.08,1.34,.12,.36,.19,.73,.35,1.12,.5,.09,.03,.17,.07,.24,.13,.07,.06,.13,.14,.16,.22s.05,.18,.05,.27c0,.09-.03,.19-.07,.27l-.95,1.99c-.04,.07-.07,.16-.07,.24s.02,.17,.07,.24c.04,.07,.11,.13,.18,.17,.08,.04,.16,.06,.25,.05l3.58,.25c.23,0,.45-.04,.66-.13,.21-.09,.39-.22,.54-.39l1.68-2.1c.32-.35,.74-.58,1.2-.67,.72-.1,1.43-.24,2.14-.41,.22-.04,.45-.03,.66,.03,.21,.06,.41,.17,.58,.32l1.28,1.29c.16,.15,.36,.24,.57,.28,.21,.04,.43,.02,.63-.06l3.83-1.69c.09-.04,.17-.09,.24-.16s.12-.15,.15-.24c.03-.09,.05-.19,.05-.28,0-.1-.03-.19-.07-.28l-.66-1.45c-.08-.19-.09-.4-.04-.6,.06-.2,.18-.37,.34-.49,.51-.35,.99-.74,1.46-1.14,.37-.3,.82-.47,1.29-.51l3.4-.02c.22-.01,.44-.08,.64-.19,.2-.11,.37-.26,.5-.44l1.49-2.33c.06-.06,.11-.14,.12-.23,.02-.09,0-.18-.03-.26-.04-.08-.1-.15-.18-.19-.08-.04-.16-.06-.25-.06l-2.95-.46c-.19-.04-.36-.14-.47-.3-.11-.16-.15-.35-.12-.54,.03-.25,.05-.51,.04-.77,0-.21,.05-.43,.15-.61,.1-.19,.25-.35,.43-.46l3.26-1.7c.08-.04,.16-.1,.22-.17,.06-.07,.1-.16,.12-.25,.02-.09,.02-.18,0-.28-.02-.09-.06-.18-.11-.25l-1.11-1.58c-.13-.16-.31-.28-.5-.34-.2-.06-.41-.06-.61,0l-3.58,1.31c-.44,.13-.92,.08-1.33-.12-.36-.19-.74-.35-1.12-.49-.09-.03-.17-.07-.24-.14-.07-.06-.12-.14-.16-.22-.04-.09-.05-.18-.05-.27,0-.09,.03-.18,.07-.27l.95-1.99c.04-.07,.07-.16,.07-.24s-.02-.17-.07-.24c-.04-.07-.11-.13-.18-.17-.08-.04-.16-.06-.25-.05l-3.58-.25c-.23,0-.45,.04-.66,.13-.21,.09-.39,.23-.54,.39l-1.69,2.08c-.32,.35-.74,.58-1.2,.66-.71,.1-1.43,.24-2.13,.41-.22,.04-.44,.03-.66-.03-.22-.06-.41-.16-.58-.31l-1.28-1.29c-.16-.15-.36-.24-.57-.28-.21-.04-.43-.02-.63,.06l-3.83,1.68c-.09,.04-.17,.1-.24,.17-.07,.07-.12,.15-.15,.24-.03,.09-.05,.19-.05,.28,0,.1,.03,.19,.07,.28l.67,1.45c.08,.19,.09,.4,.04,.6-.05,.2-.18,.37-.34,.49-.51,.35-.99,.73-1.46,1.14-.37,.3-.81,.48-1.28,.51l-3.4,.02c-.22,.02-.44,.08-.63,.2-.19,.11-.36,.26-.49,.45Zm18.69-2.67c3.88,.27,5.61,2.73,3.86,5.48-1.75,2.75-6.31,4.76-10.19,4.49-3.88-.27-5.61-2.73-3.86-5.48s6.3-4.78,10.18-4.5h0Z"/><g class="cls-11"><path class="cls-2" d="M139.81,213.25s-.03-.05-.04-.07l-1.11-1.57s-.03-.05-.04-.08c0-.03-.01-.06,0-.09,.01-.03,.03-.05,.04-.07,.02-.02,.04-.04,.07-.05l3.26-1.7c.26-.15,.47-.38,.61-.64,.14-.26,.22-.56,.21-.86,0-.24,0-.47,.03-.7,.03-.19,0-.39-.06-.58s-.17-.35-.32-.49c-.17-.15-.37-.25-.59-.28l-2.96-.46h-.05s.02-.05,.02-.05l1.48-2.34c.09-.12,.21-.22,.34-.29,.13-.07,.27-.12,.42-.13l3.4-.02c.58-.03,1.13-.25,1.58-.62,.45-.4,.93-.77,1.42-1.11,.25-.18,.43-.44,.51-.74,.08-.3,.06-.62-.06-.9l-.66-1.45s-.02-.07-.03-.11c0-.04,0-.07,.02-.11,.01-.04,.03-.07,.06-.1,.03-.03,.06-.05,.09-.06l3.83-1.68c.12-.04,.25-.05,.37-.03,.12,.02,.24,.08,.33,.15h0l1.28,1.29s.02,.04,.03,.06c.22,.19,.48,.32,.76,.39s.57,.08,.86,.02c.7-.17,1.4-.3,2.09-.4,.58-.1,1.1-.39,1.49-.83l1.68-2.1c.21-.22,.5-.34,.8-.35l3.58,.25s.06,0,.07,0l-.02,.07-.95,1.99c-.1,.21-.13,.45-.08,.68,.05,.23,.17,.44,.34,.59,.12,.1,.25,.18,.39,.24,.36,.13,.72,.29,1.06,.47,.52,.27,1.13,.32,1.7,.15l3.58-1.31c.09-.02,.19-.03,.29,0,.1,.02,.18,.07,.26,.13,.02,.02,.03,.05,.05,.07l1.11,1.58s.03,.05,.04,.08c0,.03,0,.06,0,.09,0,.03-.02,.05-.04,.08-.02,.02-.04,.04-.07,.05l-3.26,1.7c-.26,.15-.47,.38-.61,.64-.14,.26-.21,.56-.2,.86,0,.24,0,.47-.04,.7-.03,.19,0,.39,.06,.57,.07,.18,.17,.35,.32,.48,.16,.15,.37,.25,.59,.28l2.96,.46h.05s-.02,.06-.02,.06l-1.49,2.33c-.09,.12-.2,.22-.34,.29-.13,.07-.27,.12-.42,.13l-3.4,.02c-.58,.03-1.13,.25-1.58,.62-.45,.4-.93,.76-1.42,1.11-.25,.18-.43,.44-.52,.74-.08,.3-.06,.62,.06,.9l.67,1.45s.02,.07,.03,.11c0,.04,0,.07-.02,.11-.03,.07-.08,.12-.15,.15l-3.84,1.69c-.12,.04-.24,.05-.37,.03-.12-.02-.24-.08-.33-.16l-1.28-1.29s-.02-.04-.03-.06c-.22-.19-.48-.32-.76-.39-.28-.07-.57-.08-.85-.02-.7,.17-1.4,.3-2.09,.4-.58,.1-1.1,.4-1.49,.83l-1.68,2.1c-.11,.11-.23,.2-.37,.26-.14,.06-.29,.1-.45,.1l-3.58-.25h-.07s.01-.06,.02-.08l.95-1.99c.1-.21,.13-.45,.08-.68-.05-.23-.17-.44-.34-.59-.12-.1-.25-.19-.4-.24-.36-.13-.72-.29-1.06-.47-.53-.27-1.13-.32-1.7-.15l-3.56,1.31c-.09,.03-.19,.03-.29,0-.1-.02-.18-.07-.26-.13m22.74-11.97c-.89-.8-2.22-1.29-3.86-1.39-4.02-.28-8.78,1.82-10.61,4.7-1.12,1.76-.98,3.54,.36,4.76,.89,.81,2.22,1.29,3.86,1.4,4.02,.28,8.78-1.82,10.6-4.7,1.12-1.76,.99-3.54-.36-4.76m-23.04,12.31c.13,.12,.3,.2,.47,.24,.18,.04,.36,.03,.53-.03l3.58-1.31c.44-.13,.92-.08,1.33,.12,.36,.19,.73,.35,1.11,.5,.09,.03,.18,.08,.25,.14,.1,.09,.17,.22,.2,.35,.02,.14,0,.28-.06,.4l-.95,1.99c-.06,.09-.08,.2-.07,.31,.01,.11,.06,.21,.14,.28,.1,.08,.22,.13,.35,.13l3.58,.25c.23,0,.45-.04,.66-.13,.21-.09,.39-.22,.54-.39l1.68-2.1c.31-.35,.74-.58,1.2-.67,.72-.1,1.43-.24,2.14-.41,.21-.04,.43-.03,.63,.03,.21,.06,.4,.15,.57,.29,0,.01,.02,.02,.02,.04l1.28,1.29,.02,.03c.16,.13,.35,.22,.56,.26,.21,.04,.42,.02,.61-.06l3.83-1.69c.09-.04,.17-.09,.24-.16,.07-.07,.12-.15,.15-.24,.03-.09,.05-.19,.05-.28,0-.1-.03-.19-.07-.28l-.66-1.45c-.08-.19-.09-.4-.04-.6,.05-.2,.17-.37,.34-.49,.51-.35,.99-.74,1.46-1.14,.37-.3,.82-.47,1.29-.5l3.4-.02c.22-.01,.44-.08,.64-.19,.2-.11,.37-.26,.5-.44l1.49-2.33c.07-.09,.11-.2,.1-.31,0-.11-.05-.22-.13-.3-.09-.07-.19-.12-.31-.13l-2.95-.46c-.13-.02-.26-.08-.36-.17-.09-.08-.16-.19-.2-.31-.04-.12-.05-.24-.03-.36,.03-.26,.05-.51,.04-.77,0-.21,.05-.43,.15-.62,.1-.19,.25-.35,.43-.46l3.26-1.7c.08-.04,.16-.1,.22-.17,.06-.07,.1-.16,.12-.25,.02-.09,.02-.18,0-.28s-.06-.18-.11-.25l-1.11-1.58c-.03-.05-.07-.1-.12-.14-.13-.12-.3-.2-.47-.24-.18-.04-.36-.03-.53,.03l-3.58,1.31c-.44,.12-.92,.08-1.33-.12-.36-.19-.74-.35-1.12-.49-.09-.03-.17-.08-.24-.15-.1-.09-.18-.22-.2-.35-.02-.14,0-.28,.06-.4l.95-1.99c.06-.09,.08-.2,.07-.31-.01-.11-.06-.21-.14-.28-.1-.08-.22-.13-.35-.13l-3.58-.25c-.23,0-.45,.04-.65,.13-.21,.09-.39,.22-.54,.39l-1.67,2.06c-.31,.35-.74,.58-1.2,.66-.71,.1-1.43,.24-2.13,.41-.21,.04-.43,.03-.64-.03-.21-.05-.4-.15-.57-.29l-.02-.03-1.28-1.29-.02-.03c-.16-.13-.35-.22-.56-.26-.21-.03-.42-.01-.61,.06l-3.83,1.68c-.09,.04-.17,.1-.24,.17-.07,.07-.12,.15-.15,.24-.03,.09-.05,.19-.05,.28,0,.1,.03,.19,.07,.28l.67,1.45c.08,.19,.09,.4,.04,.6-.05,.2-.18,.37-.34,.49-.51,.35-.99,.73-1.45,1.14-.37,.3-.81,.48-1.28,.51l-3.4,.02c-.22,.01-.44,.08-.64,.19-.2,.11-.37,.26-.5,.44l-1.48,2.34c-.08,.09-.11,.2-.11,.31,0,.11,.05,.22,.14,.29,.09,.07,.19,.12,.3,.14l2.96,.46c.13,.02,.26,.07,.36,.17,.09,.09,.15,.19,.2,.31,.04,.12,.05,.24,.03,.37-.03,.25-.05,.51-.04,.77,0,.22-.04,.43-.15,.62-.1,.19-.25,.35-.43,.46l-3.26,1.69c-.08,.04-.16,.1-.22,.17-.06,.07-.1,.16-.12,.25-.02,.09-.02,.18,0,.28,.02,.09,.06,.18,.11,.25l1.11,1.58s.08,.1,.12,.14v.04Zm22.74-11.97c1.12,1.03,1.32,2.55,.29,4.19-1.75,2.75-6.31,4.76-10.19,4.49-1.58-.11-2.8-.59-3.58-1.29-1.13-1.04-1.32-2.56-.28-4.19,1.75-2.75,6.31-4.76,10.19-4.49,1.58,.11,2.8,.58,3.58,1.29h0Z"/></g><path class="cls-19" d="M96.45,42.73l-3.11,2.68,4.17,4.85,3.11-2.68-4.17-4.85Z"/><path d="M96.45,42.73l-3.11,2.68,4.17,4.85,3.11-2.68-4.17-4.85Z"/><path class="cls-19" d="M99.39,42.78l-6.4,5.51-4.5-5.23c1.61-2.38,3.82-4.28,6.41-5.51l4.49,5.23Z"/><path d="M99.39,42.78l-6.4,5.51-4.5-5.23c1.61-2.38,3.82-4.28,6.41-5.51l4.49,5.23Z"/><path class="cls-19" d="M94.05,47.37c-.96-.73-1.81-1.6-2.54-2.56-.85-.84-1.58-1.79-2.18-2.82,.96,.73,1.82,1.59,2.55,2.55,.85,.84,1.58,1.79,2.17,2.83h0Z"/><path d="M94.05,47.37c-.96-.73-1.81-1.6-2.54-2.56-.85-.84-1.58-1.79-2.18-2.82,.96,.73,1.82,1.59,2.55,2.55,.85,.84,1.58,1.79,2.17,2.83h0Z"/><path class="cls-19" d="M95.27,46.33c-.95-.79-1.8-1.69-2.52-2.69-.82-.92-1.55-1.91-2.19-2.96,.13-.12,1.28,1.08,2.57,2.64,.85,.9,1.57,1.91,2.15,3.01h0Z"/><path d="M95.27,46.33c-.95-.79-1.8-1.69-2.52-2.69-.82-.92-1.55-1.91-2.19-2.96,.13-.12,1.28,1.08,2.57,2.64,.85,.9,1.57,1.91,2.15,3.01h0Z"/><path class="cls-19" d="M96.89,44.92c-.95-.8-1.8-1.71-2.52-2.73-.84-.92-1.57-1.94-2.18-3.02,.98,.77,1.85,1.68,2.56,2.71,.85,.91,1.57,1.93,2.15,3.04Z"/><path d="M96.89,44.92c-.95-.8-1.8-1.71-2.52-2.73-.84-.92-1.57-1.94-2.18-3.02,.98,.77,1.85,1.68,2.56,2.71,.85,.91,1.57,1.93,2.15,3.04Z"/><path class="cls-19" d="M98.38,43.61c-.95-.75-1.8-1.62-2.53-2.59-.84-.87-1.57-1.84-2.15-2.9,.96,.75,1.81,1.62,2.53,2.59,.84,.87,1.57,1.84,2.15,2.9h0Z"/><path d="M98.38,43.61c-.95-.75-1.8-1.62-2.53-2.59-.84-.87-1.57-1.84-2.15-2.9,.96,.75,1.81,1.62,2.53,2.59,.84,.87,1.57,1.84,2.15,2.9h0Z"/><path class="cls-19" d="M151.59,46.47l-2.83-2.97-4.63,4.42,2.83,2.97,4.63-4.42Z"/><path d="M151.59,46.47l-2.83-2.97-4.63,4.42,2.83,2.97,4.63-4.42Z"/><path class="cls-19" d="M151.72,49.39l-5.83-6.11,4.99-4.77c2.46,1.49,4.47,3.6,5.84,6.12l-5,4.76Z"/><path d="M151.72,49.39l-5.83-6.11,4.99-4.77c2.46,1.49,4.47,3.6,5.84,6.12l-5,4.76Z"/><path class="cls-19" d="M146.87,44.31c1.49-1.89,3.22-3.57,5.17-5-.68,.99-1.49,1.89-2.41,2.67-.81,.89-1.74,1.68-2.76,2.32h0Z"/><path d="M146.87,44.31c1.49-1.89,3.22-3.57,5.17-5-.68,.99-1.49,1.89-2.41,2.67-.81,.89-1.74,1.68-2.76,2.32h0Z"/><path class="cls-19" d="M147.98,45.47c.73-.99,1.59-1.89,2.56-2.66,.87-.87,1.81-1.65,2.82-2.34,.13,.12-1.01,1.34-2.51,2.71-.85,.89-1.82,1.66-2.87,2.3h0Z"/><path d="M147.98,45.47c.73-.99,1.59-1.89,2.56-2.66,.87-.87,1.81-1.65,2.82-2.34,.13,.12-1.01,1.34-2.51,2.71-.85,.89-1.82,1.66-2.87,2.3h0Z"/><path class="cls-19" d="M149.45,47.02c.75-1,1.62-1.9,2.6-2.67,.88-.88,1.85-1.66,2.9-2.33,.11,.11-1.04,1.33-2.57,2.7-.87,.89-1.85,1.67-2.93,2.31h0Z"/><path d="M149.45,47.02c.75-1,1.62-1.9,2.6-2.67,.88-.88,1.85-1.66,2.9-2.33,.11,.11-1.04,1.33-2.57,2.7-.87,.89-1.85,1.67-2.93,2.31h0Z"/><path class="cls-19" d="M150.85,48.43c1.51-1.88,3.27-3.55,5.23-4.96-.69,.99-1.51,1.88-2.45,2.65-.82,.89-1.76,1.67-2.79,2.31h0Z"/><path d="M150.85,48.43c1.51-1.88,3.27-3.55,5.23-4.96-.69,.99-1.51,1.88-2.45,2.65-.82,.89-1.76,1.67-2.79,2.31h0Z"/><path class="cls-19" d="M125.43,32.31h-4.86v7.57h4.86v-7.57Z"/><path d="M125.43,32.31h-4.86v7.57h4.86v-7.57Z"/><path class="cls-1" d="M128.04,34.58h-10v-8.17c3.28-.89,6.73-.89,10,0v8.17Z"/><path class="cls-19" d="M128.15,26.45c-1.57,.83-3.31,1.27-5.08,1.27s-3.52-.43-5.08-1.27c3.31,1.03,6.85,1.03,10.16,0h0Z"/><path d="M128.15,26.45c-1.57,.83-3.31,1.27-5.08,1.27s-3.52-.43-5.08-1.27c3.31,1.03,6.85,1.03,10.16,0h0Z"/><path class="cls-19" d="M121.34,34.56c-.24-1.15-.32-2.33-.25-3.5-.08-1.18,0-2.36,.25-3.51,.24,1.15,.32,2.33,.24,3.51,.08,1.17,0,2.35-.24,3.5h0Z"/><path d="M121.34,34.56c-.24-1.15-.32-2.33-.25-3.5-.08-1.18,0-2.36,.25-3.51,.24,1.15,.32,2.33,.24,3.51,.08,1.17,0,2.35-.24,3.5h0Z"/><path class="cls-19" d="M123.24,34.6c-.24-1.16-.32-2.34-.24-3.52-.08-1.18,0-2.36,.24-3.52,.25,1.16,.33,2.34,.25,3.52,.08,1.18,0,2.36-.25,3.52h0Z"/><path d="M123.24,34.6c-.24-1.16-.32-2.34-.24-3.52-.08-1.18,0-2.36,.24-3.52,.25,1.16,.33,2.34,.25,3.52,.08,1.18,0,2.36-.25,3.52h0Z"/><path class="cls-19" d="M125.15,34.58c-.25-1.16-.33-2.34-.25-3.52-.08-1.18,0-2.36,.25-3.52,.24,1.16,.32,2.34,.25,3.52,.08,1.18,0,2.36-.25,3.52Z"/><path d="M125.15,34.58c-.25-1.16-.33-2.34-.25-3.52-.08-1.18,0-2.36,.25-3.52,.24,1.16,.32,2.34,.25,3.52,.08,1.18,0,2.36-.25,3.52Z"/><path class="cls-19" d="M126.73,34.58c-.24-1.24-.32-2.5-.24-3.76-.07-1.26,0-2.52,.24-3.76,.24,1.24,.32,2.5,.24,3.76,.08,1.26,0,2.52-.24,3.76h0Z"/><path d="M126.73,34.58c-.24-1.24-.32-2.5-.24-3.76-.07-1.26,0-2.52,.24-3.76,.24,1.24,.32,2.5,.24,3.76,.08,1.26,0,2.52-.24,3.76h0Z"/><path class="cls-19" d="M119.54,34.52c-.24-1.24-.33-2.5-.24-3.76-.08-1.26,0-2.52,.24-3.76,.24,1.24,.32,2.5,.25,3.76,.08,1.26,0,2.52-.25,3.76Z"/><path d="M119.54,34.52c-.24-1.24-.33-2.5-.24-3.76-.08-1.26,0-2.52,.24-3.76,.24,1.24,.32,2.5,.25,3.76,.08,1.26,0,2.52-.25,3.76Z"/><path class="cls-1" d="M122.42,108.22c19.51,0,35.33-15.82,35.33-35.33s-15.82-35.33-35.33-35.33-35.33,15.82-35.33,35.33,15.82,35.33,35.33,35.33Z"/><path class="cls-2" d="M143.4,93.58c11.59-11.59,11.59-30.37,0-41.96-11.59-11.59-30.37-11.59-41.96,0-11.59,11.59-11.59,30.37,0,41.96,11.59,11.59,30.37,11.59,41.96,0Z"/><path class="cls-19" d="M152.09,72.6c0-.16,0-.32,0-.48,0-.34-.06-.81-.09-1.41,0-.31,0-.66-.07-1.04-.07-.38-.12-.79-.19-1.24-.13-1.03-.34-2.05-.62-3.06-.7-2.77-1.81-5.42-3.29-7.86-2.15-3.58-5.04-6.67-8.48-9.06-3.43-2.39-7.33-4.02-11.44-4.8-1.24-.23-2.5-.38-3.76-.43-.64,0-1.28-.08-1.88-.08l-1.96,.1c-.32,0-.65,0-.94,.07l-.99,.15c-.65,.1-1.32,.19-1.98,.32-1.33,.3-2.64,.69-3.92,1.16-1.32,.47-2.6,1.03-3.84,1.68-.62,.34-1.22,.73-1.83,1.1-.62,.36-1.22,.77-1.78,1.22-2.41,1.72-4.51,3.83-6.22,6.25-1.83,2.46-3.25,5.2-4.21,8.11-2.03,6.02-2.03,12.54,0,18.57,.96,2.91,2.38,5.65,4.22,8.11,.88,1.21,1.84,2.35,2.88,3.42,1.05,1.01,2.17,1.96,3.34,2.82,.56,.45,1.16,.86,1.78,1.22,.61,.37,1.21,.76,1.84,1.1,1.24,.65,2.52,1.21,3.84,1.68,1.28,.47,2.59,.86,3.92,1.16,.66,.13,1.33,.21,1.98,.32l.94,.15c.33,.05,.66,0,.94,.07l1.95,.1c.64,0,1.28-.06,1.88-.08,1.26-.06,2.52-.2,3.76-.43,4.1-.76,8-2.39,11.43-4.77,3.43-2.38,6.32-5.45,8.48-9.03,1.49-2.44,2.6-5.09,3.29-7.87,.28-1,.49-2.03,.62-3.06,.07-.44,.15-.86,.19-1.23,.04-.38,0-.72,.07-1.04,0-.6,.07-1.06,.09-1.4,0-.16,0-.32,0-.48v2.94c0,.39-.11,.79-.17,1.24-.12,1.04-.32,2.07-.58,3.09-.66,2.8-1.76,5.48-3.24,7.95-2.15,3.64-5.06,6.78-8.52,9.22-3.46,2.43-7.4,4.1-11.56,4.9-1.24,.23-2.5,.38-3.76,.44-.64,0-1.29,.09-1.95,.08l-1.98-.1c-.33,0-.67,0-1-.06l-1-.15c-.67-.11-1.35-.19-2.01-.32-1.35-.3-2.69-.69-3.99-1.17-1.36-.47-2.68-1.03-3.96-1.68-.63-.35-1.23-.74-1.88-1.11-.63-.38-1.23-.79-1.81-1.24-2.44-1.75-4.58-3.89-6.33-6.34-1.86-2.5-3.3-5.29-4.28-8.24-2.06-6.13-2.06-12.76,0-18.89,.97-2.96,2.42-5.74,4.28-8.23,1.75-2.44,3.88-4.59,6.32-6.34,.57-.45,1.18-.87,1.81-1.24,.63-.37,1.23-.77,1.88-1.11,1.26-.66,2.56-1.23,3.9-1.7,1.3-.48,2.64-.87,3.99-1.17,.67-.13,1.34-.22,2.01-.32l1-.15c.33-.05,.67,0,1-.07l1.98-.09c.66,0,1.31,.06,1.95,.08,1.26,.07,2.52,.22,3.76,.45,4.16,.8,8.1,2.47,11.56,4.9,3.46,2.43,6.37,5.57,8.52,9.22,1.48,2.47,2.57,5.15,3.24,7.95,.27,1.01,.46,2.05,.58,3.09,.06,.45,.13,.87,.17,1.25,.04,.39,0,.72,0,1.04v1.41c0,.34,.12,.44,.12,.44Z"/><path d="M152.09,72.6c0-.16,0-.32,0-.48,0-.34-.06-.81-.09-1.41,0-.31,0-.66-.07-1.04-.07-.38-.12-.79-.19-1.24-.13-1.03-.34-2.05-.62-3.06-.7-2.77-1.81-5.42-3.29-7.86-2.15-3.58-5.04-6.67-8.48-9.06-3.43-2.39-7.33-4.02-11.44-4.8-1.24-.23-2.5-.38-3.76-.43-.64,0-1.28-.08-1.88-.08l-1.96,.1c-.32,0-.65,0-.94,.07l-.99,.15c-.65,.1-1.32,.19-1.98,.32-1.33,.3-2.64,.69-3.92,1.16-1.32,.47-2.6,1.03-3.84,1.68-.62,.34-1.22,.73-1.83,1.1-.62,.36-1.22,.77-1.78,1.22-2.41,1.72-4.51,3.83-6.22,6.25-1.83,2.46-3.25,5.2-4.21,8.11-2.03,6.02-2.03,12.54,0,18.57,.96,2.91,2.38,5.65,4.22,8.11,.88,1.21,1.84,2.35,2.88,3.42,1.05,1.01,2.17,1.96,3.34,2.82,.56,.45,1.16,.86,1.78,1.22,.61,.37,1.21,.76,1.84,1.1,1.24,.65,2.52,1.21,3.84,1.68,1.28,.47,2.59,.86,3.92,1.16,.66,.13,1.33,.21,1.98,.32l.94,.15c.33,.05,.66,0,.94,.07l1.95,.1c.64,0,1.28-.06,1.88-.08,1.26-.06,2.52-.2,3.76-.43,4.1-.76,8-2.39,11.43-4.77,3.43-2.38,6.32-5.45,8.48-9.03,1.49-2.44,2.6-5.09,3.29-7.87,.28-1,.49-2.03,.62-3.06,.07-.44,.15-.86,.19-1.23,.04-.38,0-.72,.07-1.04,0-.6,.07-1.06,.09-1.4,0-.16,0-.32,0-.48v2.94c0,.39-.11,.79-.17,1.24-.12,1.04-.32,2.07-.58,3.09-.66,2.8-1.76,5.48-3.24,7.95-2.15,3.64-5.06,6.78-8.52,9.22-3.46,2.43-7.4,4.1-11.56,4.9-1.24,.23-2.5,.38-3.76,.44-.64,0-1.29,.09-1.95,.08l-1.98-.1c-.33,0-.67,0-1-.06l-1-.15c-.67-.11-1.35-.19-2.01-.32-1.35-.3-2.69-.69-3.99-1.17-1.36-.47-2.68-1.03-3.96-1.68-.63-.35-1.23-.74-1.88-1.11-.63-.38-1.23-.79-1.81-1.24-2.44-1.75-4.58-3.89-6.33-6.34-1.86-2.5-3.3-5.29-4.28-8.24-2.06-6.13-2.06-12.76,0-18.89,.97-2.96,2.42-5.74,4.28-8.23,1.75-2.44,3.88-4.59,6.32-6.34,.57-.45,1.18-.87,1.81-1.24,.63-.37,1.23-.77,1.88-1.11,1.26-.66,2.56-1.23,3.9-1.7,1.3-.48,2.64-.87,3.99-1.17,.67-.13,1.34-.22,2.01-.32l1-.15c.33-.05,.67,0,1-.07l1.98-.09c.66,0,1.31,.06,1.95,.08,1.26,.07,2.52,.22,3.76,.45,4.16,.8,8.1,2.47,11.56,4.9,3.46,2.43,6.37,5.57,8.52,9.22,1.48,2.47,2.57,5.15,3.24,7.95,.27,1.01,.46,2.05,.58,3.09,.06,.45,.13,.87,.17,1.25,.04,.39,0,.72,0,1.04v1.41c0,.34,.12,.44,.12,.44Z"/><path class="cls-19" d="M147.76,72.14c-2.71,0-4.91-.09-4.92-.29,0-.2,2.18-.5,4.88-.65,2.7-.15,4.9,0,4.91,.28,0,.28-2.17,.61-4.87,.66Z"/><path d="M147.76,72.14c-2.71,0-4.91-.09-4.92-.29,0-.2,2.18-.5,4.88-.65,2.7-.15,4.9,0,4.91,.28,0,.28-2.17,.61-4.87,.66Z"/><path class="cls-19" d="M140.76,90.08c-1.96-1.88-3.43-3.51-3.29-3.66,.13-.15,1.88,1.19,3.93,2.97,2.05,1.79,3.5,3.43,3.28,3.66-.22,.24-1.98-1.1-3.92-2.97Z"/><path d="M140.76,90.08c-1.96-1.88-3.43-3.51-3.29-3.66,.13-.15,1.88,1.19,3.93,2.97,2.05,1.79,3.5,3.43,3.28,3.66-.22,.24-1.98-1.1-3.92-2.97Z"/><path class="cls-19" d="M123.16,97.93c-.07-2.71,0-4.9,.24-4.91,.24,0,.52,2.16,.71,4.86,.19,2.7,.07,4.91-.24,4.92-.31,0-.64-2.17-.71-4.87Z"/><path d="M123.16,97.93c-.07-2.71,0-4.9,.24-4.91,.24,0,.52,2.16,.71,4.86,.19,2.7,.07,4.91-.24,4.92-.31,0-.64-2.17-.71-4.87Z"/><path class="cls-19" d="M105.13,91.14c1.88-1.98,3.47-3.47,3.62-3.34,.15,.13-1.16,1.88-2.93,3.96-1.77,2.08-3.39,3.55-3.62,3.33-.24-.22,1.07-1.99,2.93-3.95Z"/><path d="M105.13,91.14c1.88-1.98,3.47-3.47,3.62-3.34,.15,.13-1.16,1.88-2.93,3.96-1.77,2.08-3.39,3.55-3.62,3.33-.24-.22,1.07-1.99,2.93-3.95Z"/><path class="cls-19" d="M97.1,73.62c2.7-.1,4.9,0,4.91,.18,0,.18-2.16,.54-4.87,.75-2.7,.22-4.89,.14-4.92-.18-.03-.32,2.16-.65,4.87-.75Z"/><path d="M97.1,73.62c2.7-.1,4.9,0,4.91,.18,0,.18-2.16,.54-4.87,.75-2.7,.22-4.89,.14-4.92-.18-.03-.32,2.16-.65,4.87-.75Z"/><path class="cls-19" d="M103.69,55.52c2,1.83,3.5,3.43,3.37,3.59-.13,.15-1.88-1.14-3.99-2.88-2.11-1.74-3.59-3.35-3.37-3.59,.22-.24,1.99,1.04,3.99,2.88Z"/><path d="M103.69,55.52c2,1.83,3.5,3.43,3.37,3.59-.13,.15-1.88-1.14-3.99-2.88-2.11-1.74-3.59-3.35-3.37-3.59,.22-.24,1.99,1.04,3.99,2.88Z"/><path class="cls-19" d="M121.11,47.27c.13,2.7,.08,4.9-.12,4.92-.2,.02-.56-2.15-.81-4.86-.24-2.7-.19-4.9,.12-4.92,.31-.02,.69,2.17,.81,4.86Z"/><path d="M121.11,47.27c.13,2.7,.08,4.9-.12,4.92-.2,.02-.56-2.15-.81-4.86-.24-2.7-.19-4.9,.12-4.92,.31-.02,.69,2.17,.81,4.86Z"/><path class="cls-19" d="M139.29,53.69c-1.81,2.01-3.4,3.55-3.56,3.42-.16-.13,1.12-1.94,2.82-4.03,1.7-2.09,3.31-3.61,3.55-3.41,.24,.21-1.01,2-2.81,4.02Z"/><path d="M139.29,53.69c-1.81,2.01-3.4,3.55-3.56,3.42-.16-.13,1.12-1.94,2.82-4.03,1.7-2.09,3.31-3.61,3.55-3.41,.24,.21-1.01,2-2.81,4.02Z"/><path class="cls-19" d="M147.71,71.02c-2.7,.16-4.91,.12-4.92-.08-.01-.2,2.15-.58,4.85-.87,2.69-.28,4.89-.24,4.92,.08,.03,.31-2.17,.71-4.85,.87Z"/><path d="M147.71,71.02c-2.7,.16-4.91,.12-4.92-.08-.01-.2,2.15-.58,4.85-.87,2.69-.28,4.89-.24,4.92,.08,.03,.31-2.17,.71-4.85,.87Z"/><path class="cls-2" d="M110.87,40.5c-.5,.27-1.01,.5-1.53,.7-5.36,2.27-10.06,5.85-13.65,10.43-3.59,4.58-5.96,9.99-6.89,15.74-.25,1.51-.41,3.03-.47,4.55,.02,.57,0,1.14-.05,1.7-.04-.14-.06-.29-.06-.44,0-.28-.06-.71-.05-1.25-.01-1.54,.09-3.07,.31-4.59,.72-5.06,2.59-9.89,5.47-14.11,2.89-4.22,6.71-7.72,11.16-10.22,1.34-.76,2.73-1.42,4.17-1.97,.51-.21,.94-.32,1.19-.4,.12-.06,.25-.1,.39-.13Z"/><path class="cls-2" d="M120.76,38.58c-1.13,.32-2.3,.51-3.47,.57-1.15,.23-2.33,.34-3.5,.33,1.09-.47,2.26-.74,3.44-.81,1.16-.23,2.36-.26,3.53-.09Z"/><g class="cls-12"><path class="cls-19" d="M98.7,90.43s15.38,24.27,39.24,11.84c24.89-12.97,11.14-42.71,11.14-42.71,0,0,11.71,23.7-12.56,39.15-6.04,3.85-12.62,3.85-17.64,3.35-12.83-1.29-20.17-11.63-20.17-11.63Z"/><path d="M98.7,90.43s15.38,24.27,39.24,11.84c24.89-12.97,11.14-42.71,11.14-42.71,0,0,11.71,23.7-12.56,39.15-6.04,3.85-12.62,3.85-17.64,3.35-12.83-1.29-20.17-11.63-20.17-11.63Z"/></g><path class="cls-1" d="M130.69,56.83c.14,4.35,0,8.71-.39,13.04-.09,1.57-.41,3.13-.94,4.61-.55,1.5-1.66,2.72-3.1,3.42-.72,.32-1.52,.41-2.3,.26-.77-.15-1.48-.54-2.03-1.11l8.76-20.22Z"/><path class="cls-1" d="M121.77,70.26l10.78-18.16-6.51,20.5-3.32,1-.95-3.34Z"/><g class="cls-12"><path class="cls-19" d="M132.55,52.1l-8,18.56,1.49,1.95,6.51-20.5Z"/><path d="M132.55,52.1l-8,18.56,1.49,1.95,6.51-20.5Z"/></g><path class="cls-2" d="M126.19,73.62c0,.69-.2,1.36-.58,1.93-.38,.57-.92,1.02-1.56,1.28-.64,.26-1.33,.33-2.01,.2-.67-.13-1.29-.46-1.78-.95-.49-.49-.82-1.1-.95-1.78-.13-.67-.07-1.37,.2-2.01,.26-.63,.71-1.18,1.28-1.56,.57-.38,1.24-.59,1.93-.59,.46,0,.91,.09,1.33,.26,.42,.17,.8,.43,1.13,.75s.58,.71,.75,1.13c.17,.42,.26,.87,.26,1.33h0Z"/><path class="cls-19" d="M126.19,73.62s0-.31-.2-.83c-.22-.72-.67-1.35-1.28-1.8-.49-.36-1.06-.58-1.67-.63-.6-.05-1.21,.06-1.75,.34-.54,.27-1,.69-1.31,1.2-.32,.52-.49,1.11-.49,1.71s.17,1.2,.49,1.71c.32,.52,.77,.93,1.31,1.2,.54,.27,1.15,.39,1.75,.34,.6-.05,1.18-.27,1.67-.63,.61-.45,1.06-1.08,1.28-1.8,.05-.28,.12-.55,.2-.82,.07,.28,.07,.58,0,.87-.16,.8-.61,1.52-1.25,2.02-.48,.38-1.05,.64-1.66,.74-.61,.1-1.23,.05-1.81-.16-.72-.25-1.34-.72-1.79-1.34-.44-.62-.68-1.37-.68-2.13s.24-1.51,.68-2.13c.44-.62,1.07-1.09,1.79-1.34,.58-.21,1.2-.26,1.81-.16,.61,.1,1.18,.35,1.66,.74,.64,.5,1.09,1.22,1.25,2.02,.07,.29,.07,.59,0,.88h0Z"/><path d="M126.19,73.62s0-.31-.2-.83c-.22-.72-.67-1.35-1.28-1.8-.49-.36-1.06-.58-1.67-.63-.6-.05-1.21,.06-1.75,.34-.54,.27-1,.69-1.31,1.2-.32,.52-.49,1.11-.49,1.71s.17,1.2,.49,1.71c.32,.52,.77,.93,1.31,1.2,.54,.27,1.15,.39,1.75,.34,.6-.05,1.18-.27,1.67-.63,.61-.45,1.06-1.08,1.28-1.8,.05-.28,.12-.55,.2-.82,.07,.28,.07,.58,0,.87-.16,.8-.61,1.52-1.25,2.02-.48,.38-1.05,.64-1.66,.74-.61,.1-1.23,.05-1.81-.16-.72-.25-1.34-.72-1.79-1.34-.44-.62-.68-1.37-.68-2.13s.24-1.51,.68-2.13c.44-.62,1.07-1.09,1.79-1.34,.58-.21,1.2-.26,1.81-.16,.61,.1,1.18,.35,1.66,.74,.64,.5,1.09,1.22,1.25,2.02,.07,.29,.07,.59,0,.88h0Z"/><path class="cls-19" d="M122.72,76.19c1.43,0,2.59-1.16,2.59-2.59s-1.16-2.59-2.59-2.59-2.59,1.16-2.59,2.59,1.16,2.59,2.59,2.59Z"/><path d="M122.72,76.19c1.43,0,2.59-1.16,2.59-2.59s-1.16-2.59-2.59-2.59-2.59,1.16-2.59,2.59,1.16,2.59,2.59,2.59Z"/><path class="cls-2" d="M168.4,121.53l-3.72,27.64,34.57,4.66,3.72-27.64-34.57-4.66Z"/><path class="cls-19" d="M202.97,126.19h-.17l-.48-.06-1.89-.24-7.08-.93-24.95-3.34,.11-.08c-1.11,8.23-2.38,17.66-3.71,27.64l-.09-.11,34.57,4.7-.09,.07c1.14-8.32,2.08-15.22,2.75-20.04,.33-2.41,.6-4.3,.77-5.6,.09-.67,.16-1.13,.21-1.48l.08-.51s0,.17-.06,.5c-.06,.33-.1,.83-.18,1.46-.18,1.29-.42,3.18-.73,5.58-.67,4.84-1.56,11.76-2.68,20.14v.08h-.08l-34.59-4.71h-.1v-.1c1.34-9.98,2.62-19.41,3.73-27.64v-.09h.09l25.02,3.42,7.05,.97,1.86,.26,.48,.07,.18,.03Z"/><path d="M202.97,126.19h-.17l-.48-.06-1.89-.24-7.08-.93-24.95-3.34,.11-.08c-1.11,8.23-2.38,17.66-3.71,27.64l-.09-.11,34.57,4.7-.09,.07c1.14-8.32,2.08-15.22,2.75-20.04,.33-2.41,.6-4.3,.77-5.6,.09-.67,.16-1.13,.21-1.48l.08-.51s0,.17-.06,.5c-.06,.33-.1,.83-.18,1.46-.18,1.29-.42,3.18-.73,5.58-.67,4.84-1.56,11.76-2.68,20.14v.08h-.08l-34.59-4.71h-.1v-.1c1.34-9.98,2.62-19.41,3.73-27.64v-.09h.09l25.02,3.42,7.05,.97,1.86,.26,.48,.07,.18,.03Z"/><path class="cls-16" d="M169.37,123.43l-3.25,24.16,32.14,4.33,3.25-24.16-32.14-4.33Z"/><path class="cls-16" d="M166.1,147.59l13.25-13.51,5.69,10.33,5.39-4.39,7.81,11.89-32.15-4.33Z"/><path class="cls-16" d="M189.51,133.58c-.07,.5-.28,.97-.61,1.35-.33,.38-.77,.65-1.26,.78-.49,.13-1,.11-1.48-.05-.48-.16-.9-.46-1.2-.86-.31-.4-.49-.88-.52-1.39-.03-.5,.09-1.01,.34-1.44,.25-.44,.63-.79,1.08-1.01s.96-.3,1.46-.24c.67,.09,1.27,.44,1.68,.98,.41,.54,.59,1.21,.5,1.88h0Z"/><g class="cls-17"><path class="cls-19" d="M166.1,147.59l13.25-13.51,5.69,10.33,5.39-4.39,7.81,11.89-32.15-4.33Z"/><path d="M166.1,147.59l13.25-13.51,5.69,10.33,5.39-4.39,7.81,11.89-32.15-4.33Z"/></g><g class="cls-17"><path class="cls-19" d="M189.51,133.58c-.07,.5-.28,.97-.61,1.35-.33,.38-.77,.65-1.26,.78-.49,.13-1,.11-1.48-.05-.48-.16-.9-.46-1.2-.87-.31-.4-.49-.88-.52-1.39-.03-.5,.09-1.01,.34-1.44,.25-.44,.63-.79,1.08-1.01s.96-.31,1.46-.24c.67,.09,1.27,.44,1.68,.98s.59,1.22,.5,1.89h0Z"/><path d="M189.51,133.58c-.07,.5-.28,.97-.61,1.35-.33,.38-.77,.65-1.26,.78-.49,.13-1,.11-1.48-.05-.48-.16-.9-.46-1.2-.87-.31-.4-.49-.88-.52-1.39-.03-.5,.09-1.01,.34-1.44,.25-.44,.63-.79,1.08-1.01s.96-.31,1.46-.24c.67,.09,1.27,.44,1.68,.98s.59,1.22,.5,1.89h0Z"/></g><path class="cls-2" d="M192.74,98.09l-6.22,41.68,52.13,7.78,6.22-41.69-52.13-7.78Z"/><path class="cls-19" d="M244.89,105.89l-.26-.03-.73-.1-2.83-.41-10.68-1.56-37.66-5.53,.15-.12c-1.85,12.41-3.97,26.63-6.21,41.68l-.13-.17,52.13,7.81-.14,.11c1.9-12.55,3.48-22.94,4.58-30.21,.56-3.64,1-6.49,1.3-8.44,.15-.97,.27-1.71,.35-2.23,.08-.52,.13-.77,.13-.77,0,0,0,.25-.09,.74-.09,.5-.18,1.25-.32,2.21-.29,1.95-.67,4.79-1.23,8.42l-4.46,30.32v.13h-.13l-52.13-7.81h-.15v-.15c2.26-15.05,4.38-29.27,6.24-41.68v-.13h.13l37.72,5.71,10.64,1.62,2.8,.44,.72,.11,.25,.03Z"/><path d="M244.89,105.89l-.26-.03-.73-.1-2.83-.41-10.68-1.56-37.66-5.53,.15-.12c-1.85,12.41-3.97,26.63-6.21,41.68l-.13-.17,52.13,7.81-.14,.11c1.9-12.55,3.48-22.94,4.58-30.21,.56-3.64,1-6.49,1.3-8.44,.15-.97,.27-1.71,.35-2.23,.08-.52,.13-.77,.13-.77,0,0,0,.25-.09,.74-.09,.5-.18,1.25-.32,2.21-.29,1.95-.67,4.79-1.23,8.42l-4.46,30.32v.13h-.13l-52.13-7.81h-.15v-.15c2.26-15.05,4.38-29.27,6.24-41.68v-.13h.13l37.72,5.71,10.64,1.62,2.8,.44,.72,.11,.25,.03Z"/><path class="cls-16" d="M194.14,100.98l-5.44,36.43,48.48,7.24,5.44-36.43-48.48-7.24Z"/><path class="cls-16" d="M188.72,137.42l20.31-20.12,8.37,15.73,8.24-6.51,11.54,18.14-48.47-7.24Z"/><path class="cls-16" d="M224.38,116.76c-.12,.75-.46,1.46-.97,2.02-.51,.56-1.19,.96-1.93,1.14-.74,.18-1.52,.14-2.24-.12-.72-.26-1.34-.73-1.79-1.34-.45-.61-.71-1.35-.75-2.11-.03-.76,.16-1.52,.55-2.17s.97-1.17,1.66-1.5c.69-.32,1.46-.44,2.21-.32,.5,.07,.99,.25,1.42,.51,.44,.26,.82,.61,1.12,1.02,.3,.41,.52,.88,.64,1.37,.12,.49,.14,1.01,.07,1.51h0Z"/><g class="cls-17"><path class="cls-19" d="M188.72,137.42l20.31-20.12,8.37,15.73,8.24-6.51,11.54,18.14-48.47-7.24Z"/><path d="M188.72,137.42l20.31-20.12,8.37,15.73,8.24-6.51,11.54,18.14-48.47-7.24Z"/></g><g class="cls-17"><path class="cls-19" d="M224.38,116.76c-.12,.75-.46,1.46-.97,2.02-.51,.56-1.19,.96-1.93,1.14-.74,.18-1.52,.14-2.24-.12-.72-.26-1.34-.73-1.79-1.34-.45-.61-.71-1.35-.75-2.11-.03-.76,.16-1.52,.55-2.17,.39-.65,.97-1.17,1.66-1.5,.69-.32,1.46-.44,2.21-.32,.5,.07,.99,.25,1.42,.51,.44,.26,.82,.61,1.12,1.02,.3,.41,.52,.88,.64,1.37,.12,.49,.14,1.01,.07,1.51h0Z"/><path d="M224.38,116.76c-.12,.75-.46,1.46-.97,2.02-.51,.56-1.19,.96-1.93,1.14-.74,.18-1.52,.14-2.24-.12-.72-.26-1.34-.73-1.79-1.34-.45-.61-.71-1.35-.75-2.11-.03-.76,.16-1.52,.55-2.17,.39-.65,.97-1.17,1.66-1.5,.69-.32,1.46-.44,2.21-.32,.5,.07,.99,.25,1.42,.51,.44,.26,.82,.61,1.12,1.02,.3,.41,.52,.88,.64,1.37,.12,.49,.14,1.01,.07,1.51h0Z"/></g><path class="cls-18" d="M66.26,189.58l14.46-13.9c.46-.44,.73-1.05,.75-1.69,.02-.64-.21-1.26-.65-1.73L27.72,116.98c-.46-.45-1.07-.7-1.71-.7s-1.25,.25-1.71,.7l-14.46,13.86c-.46,.44-.73,1.05-.75,1.69-.02,.64,.21,1.26,.65,1.73l53.11,55.28c.45,.45,1.06,.71,1.7,.72,.64,0,1.26-.24,1.72-.68h0Z"/><path class="cls-7" d="M66.26,189.58c-.12,.13-.26,.25-.41,.34-.45,.29-.99,.43-1.53,.38-.4-.03-.78-.16-1.11-.38-.37-.29-.72-.62-1.03-.97l-2.44-2.52-15.54-16.07-23-23.88-6.64-6.91-3.43-3.56c-.58-.62-1.15-1.18-1.74-1.84-.27-.37-.44-.81-.49-1.27s.02-.92,.21-1.34c.19-.41,.47-.77,.81-1.07l.93-.89,1.86-1.79,3.76-3.62,7.69-7.39c.35-.34,.79-.58,1.27-.68,.48-.11,.98-.08,1.44,.08,.45,.16,.86,.44,1.17,.81l.96,.96,3.67,3.82,7.14,7.43,13.54,14.16c8.63,9.02,16.4,17.13,22.94,23.95l4.65,4.87c.37,.4,.6,.92,.65,1.46,.05,.55-.07,1.1-.36,1.56-.29,.41-.64,.78-1.02,1.1l-1.03,.99-6.96,6.63-4.41,4.19c-.5,.46-.88,.81-1.15,1.08l-.41,.36s.12-.14,.37-.39l1.13-1.11,4.35-4.24,6.92-6.69,1.02-.99c.37-.31,.7-.67,.97-1.06,.26-.42,.37-.91,.32-1.4-.05-.49-.26-.95-.59-1.31l-4.68-4.87-23-23.88-13.51-14.09-7.18-7.47-3.67-3.82-.93-.96c-.19-.24-.43-.43-.71-.57-.27-.14-.57-.22-.88-.24-.31-.02-.61,.03-.9,.14-.29,.11-.55,.27-.77,.48l-7.69,7.39-3.76,3.61-1.87,1.79-.93,.89c-.31,.26-.55,.58-.72,.94-.16,.35-.22,.74-.18,1.13,.04,.38,.18,.75,.41,1.07,.52,.6,1.14,1.21,1.71,1.81l3.43,3.57,6.63,6.92,22.87,23.94,15.42,16.17,2.44,2.54c.3,.36,.64,.68,1,.97,.32,.21,.68,.34,1.06,.38,.52,.06,1.04-.06,1.49-.32,.29-.19,.42-.32,.43-.31Z"/><path class="cls-16" d="M11.67,133.26l9.77,10.04,14.64-14.25-9.77-10.04-14.64,14.25Z"/><path class="cls-16" d="M43.49,165.97l9.77,10.04,14.64-14.25-9.77-10.04-14.64,14.25Z"/><path class="cls-16" d="M32.87,155.06l9.77,10.04,14.64-14.25-9.77-10.04-14.64,14.25Z"/><path class="cls-16" d="M22.24,144.13l9.77,10.04,14.64-14.25-9.77-10.04-14.64,14.25Z"/><g class="cls-8"><path class="cls-7" d="M11.67,133.26l9.77,10.04,14.64-14.25-9.77-10.04-14.64,14.25Z"/></g><g class="cls-6"><path class="cls-7" d="M43.5,165.97l9.77,10.04,14.64-14.25-9.77-10.04-14.64,14.25Z"/></g><g class="cls-15"><path class="cls-7" d="M32.87,155.06l9.77,10.04,14.64-14.25-9.77-10.04-14.64,14.25Z"/></g><g class="cls-9"><path class="cls-7" d="M22.24,144.13l9.77,10.04,14.64-14.25-9.77-10.04-14.64,14.25Z"/></g><path class="cls-18" d="M63.79,188.65l17.56-9.74c.56-.3,.97-.81,1.16-1.42,.19-.61,.13-1.26-.16-1.83L45.77,109.53c-.32-.54-.84-.93-1.45-1.09-.6-.16-1.25-.09-1.8,.21l-17.55,9.74c-.56,.3-.98,.81-1.16,1.42-.19,.61-.13,1.26,.16,1.83l36.53,66.14c.33,.54,.85,.94,1.47,1.1,.61,.16,1.27,.08,1.82-.24Z"/><path class="cls-7" d="M63.79,188.65c-.15,.1-.31,.17-.48,.23-.51,.17-1.05,.17-1.56,0-.37-.12-.71-.34-.97-.63-.28-.37-.53-.77-.74-1.18l-1.7-3.03-10.76-19.32-15.91-28.67-4.59-8.3-2.37-4.28-.6-1.09c-.23-.36-.42-.75-.56-1.16-.12-.44-.12-.9,0-1.34,.12-.44,.34-.84,.66-1.17,.32-.3,.69-.55,1.1-.74l1.1-.62c.75-.41,1.49-.81,2.23-1.23,1.49-.81,3-1.62,4.52-2.5,3.04-1.67,6.11-3.37,9.23-5.11,.42-.24,.9-.35,1.39-.34,.48,.01,.96,.16,1.36,.42,.4,.27,.71,.64,.92,1.07l.64,1.15,2.53,4.6,4.93,8.93,9.36,16.95,15.83,28.73c1.12,2.05,2.21,3.97,3.2,5.85,.2,.51,.22,1.06,.08,1.59-.15,.52-.46,.99-.89,1.32-.86,.57-1.7,.97-2.52,1.43-3.25,1.79-6.05,3.32-8.34,4.57-2.3,1.25-4.06,2.21-5.28,2.87l-1.38,.74c-.31,.17-.48,.24-.48,.24,0,0,.15-.1,.45-.28,.3-.17,.77-.45,1.36-.81,1.21-.68,2.97-1.67,5.24-2.94l8.31-4.63c.81-.46,1.68-.9,2.44-1.42,.38-.3,.66-.72,.79-1.18,.13-.47,.1-.97-.07-1.42-.98-1.83-2.09-3.78-3.25-5.81l-15.91-28.68-9.38-16.95-4.96-8.93-2.53-4.59-.64-1.15c-.18-.38-.46-.69-.81-.92-.34-.22-.74-.34-1.15-.35-.41-.01-.81,.09-1.17,.28l-9.23,5.11-4.52,2.49-2.23,1.23-1.1,.62c-.36,.17-.7,.39-1,.66-.27,.27-.47,.61-.56,.98-.1,.37-.1,.76,0,1.14,.14,.37,.31,.73,.52,1.07l.6,1.08,2.37,4.28,4.58,8.3,15.83,28.72,10.78,19.39,1.62,3.04c.2,.42,.44,.81,.71,1.18,.25,.28,.56,.5,.92,.62,.49,.18,1.02,.2,1.52,.06,.37-.11,.53-.2,.53-.19Z"/><path class="cls-16" d="M27.14,122.05l6.85,12.22,17.82-9.99-6.85-12.22-17.82,9.99Z"/><path class="cls-16" d="M49.45,161.85l6.85,12.22,17.82-9.99-6.85-12.22-17.82,9.99Z"/><path class="cls-16" d="M42.01,148.57l6.85,12.22,17.82-9.99-6.85-12.22-17.82,9.99Z"/><path class="cls-16" d="M34.56,135.28l6.85,12.22,17.82-9.99-6.85-12.22-17.82,9.99Z"/><g class="cls-6"><path class="cls-7" d="M27.14,122.05l6.85,12.22,17.82-9.99-6.85-12.22-17.82,9.99Z"/></g><g class="cls-17"><path class="cls-7" d="M49.45,161.85l6.85,12.22,17.82-9.99-6.85-12.22-17.82,9.99Z"/></g><g class="cls-13"><path class="cls-7" d="M42.01,148.57l6.85,12.22,17.82-9.99-6.85-12.22-17.82,9.99Z"/></g><g class="cls-12"><path class="cls-7" d="M34.56,135.28l6.85,12.22,17.82-9.99-6.85-12.22-17.82,9.99Z"/></g><path class="cls-18" d="M63.63,191.08l19.59-4.29c.32-.07,.62-.2,.88-.38,.27-.18,.49-.42,.66-.69,.17-.27,.29-.58,.34-.9,.05-.32,.04-.65-.03-.96l-16.95-77.56c-.06-.32-.19-.62-.37-.89s-.42-.5-.69-.67c-.27-.18-.58-.3-.9-.35-.32-.06-.65-.05-.96,.02l-19.59,4.28c-.32,.07-.62,.2-.88,.38-.27,.19-.49,.42-.67,.69-.17,.27-.29,.58-.35,.9-.05,.32-.04,.65,.03,.96l16.96,77.56c.06,.32,.19,.62,.37,.89,.18,.27,.42,.5,.69,.67s.58,.3,.89,.36,.65,.05,.96-.02h0Z"/><path class="cls-7" d="M63.63,191.08c-.18,.05-.37,.07-.55,.07-.55,0-1.09-.18-1.53-.53-.32-.26-.57-.58-.74-.96-.16-.46-.28-.93-.37-1.4l-.81-3.51-4.97-22.43-7.31-33.28-2.11-9.62-1.09-4.97-.55-2.52c-.13-.44-.15-.91-.07-1.36,.09-.47,.3-.9,.62-1.26,.31-.37,.71-.65,1.17-.81,.46-.13,.87-.2,1.3-.3,.86-.19,1.73-.38,2.59-.57,1.74-.38,3.48-.77,5.24-1.15,3.52-.77,7.08-1.55,10.7-2.34,.49-.11,1.01-.07,1.48,.1,.47,.17,.89,.48,1.19,.88,.29,.39,.49,.85,.57,1.34l.29,1.34,1.16,5.32,2.27,10.41,4.29,19.66,7.22,33.28,1.47,6.76c.05,.27,.12,.53,.15,.81,.05,.42,0,.84-.16,1.23-.15,.39-.39,.74-.7,1.01-.4,.34-.9,.57-1.42,.64-.49,.1-.97,.2-1.44,.31-3.77,.81-7,1.5-9.66,2.07-2.65,.57-4.7,1-6.11,1.3-.69,.14-1.22,.24-1.62,.32-.41,.08-.54,.1-.54,.1,0,0,.18-.06,.54-.14l1.58-.37c1.4-.32,3.46-.81,6.09-1.37,2.63-.56,5.89-1.31,9.65-2.14,.46-.11,.94-.21,1.43-.32,.48-.07,.94-.27,1.31-.58,.37-.33,.63-.78,.73-1.27,.08-.52,.04-1.05-.12-1.54l-1.49-6.75-7.31-33.28-4.31-19.65-2.27-10.4-1.16-5.32-.29-1.34c-.06-.43-.23-.83-.49-1.18-.26-.33-.61-.58-1.01-.73-.4-.14-.83-.17-1.24-.08-3.61,.79-7.18,1.57-10.7,2.34-1.76,.39-3.51,.77-5.24,1.14-.86,.19-1.73,.38-2.59,.57-.41,.1-.88,.18-1.26,.28-.38,.12-.73,.35-.99,.66s-.44,.68-.52,1.07c-.08,.4-.05,.81,.08,1.19l.54,2.52,1.09,4.97,2.09,9.62,7.22,33.28,4.87,22.45,.75,3.53c.08,.47,.2,.93,.34,1.39,.16,.36,.4,.68,.7,.93,.42,.34,.93,.53,1.47,.55,.37,.06,.55,0,.55,.02Z"/><path class="cls-7" d="M63.71,191.24c.07,0,0,.97,.32,2.68,.47,2.39,1.53,4.62,3.09,6.49,2.34,2.75,5.67,4.47,9.26,4.81,3.08,.25,6.16-.55,8.72-2.28,2.56-1.73,4.46-4.28,5.38-7.23s.81-6.13-.32-9.01c-1.13-2.88-3.2-5.29-5.88-6.83-2.11-1.22-4.5-1.87-6.94-1.88h-1.15c-.34,0-.61,.07-.81,.09-.23,.04-.47,.04-.71,0,.22-.09,.45-.16,.68-.19,.23-.05,.5-.12,.81-.17,.31-.05,.73-.07,1.17-.11,2.52-.11,5.03,.48,7.24,1.7,1.65,.9,3.11,2.12,4.28,3.6,1.17,1.47,2.03,3.17,2.54,4.98,.63,2.23,.71,4.58,.23,6.84-.48,2.26-1.52,4.38-3.01,6.15-.78,.92-1.67,1.74-2.65,2.43-2.95,2.1-6.59,3-10.17,2.51-3.59-.49-6.85-2.32-9.14-5.13-1.58-1.97-2.6-4.33-2.95-6.83-.09-.67-.12-1.35-.1-2.03,0-.2,.03-.39,.1-.58h0Z"/><path class="cls-7" d="M71.58,175.89c.59-.13,1.2-.08,1.77,.14,.56,.22,1.05,.6,1.39,1.1,.34,.5,.53,1.08,.55,1.68,.01,.6-.16,1.2-.48,1.71-.33,.51-.79,.91-1.35,1.15-.55,.24-1.17,.31-1.76,.21-.59-.11-1.14-.39-1.58-.8-.44-.42-.74-.96-.87-1.54-.17-.79-.02-1.62,.41-2.3,.44-.68,1.13-1.16,1.92-1.34h0Z"/><path class="cls-16" d="M46.38,111.06l2.99,13.69,19.96-4.36-2.99-13.69-19.96,4.36Z"/><path class="cls-16" d="M49.61,125.87l2.99,13.69,19.96-4.36-2.99-13.69-19.96,4.36Z"/><path class="cls-16" d="M52.87,140.76l2.99,13.69,19.96-4.36-2.99-13.69-19.96,4.36Z"/><path class="cls-16" d="M56.12,155.63l2.99,13.69,19.96-4.36-2.99-13.69-19.96,4.36Z"/><g class="cls-8"><path class="cls-2" d="M56.12,155.63l2.99,13.69,19.96-4.36-2.99-13.69-19.96,4.36Z"/></g><g class="cls-15"><path class="cls-2" d="M52.87,140.76l2.99,13.69,19.96-4.36-2.99-13.69-19.96,4.36Z"/></g><g class="cls-12"><path class="cls-2" d="M49.61,125.87l2.99,13.69,19.96-4.36-2.99-13.69-19.96,4.36Z"/></g><path class="cls-16" d="M56.46,62.13c1.26-5.3-2.02-10.61-7.31-11.87-5.3-1.26-10.61,2.02-11.87,7.31-1.26,5.3,2.02,10.61,7.31,11.87,5.3,1.26,10.61-2.02,11.87-7.31Z"/><path class="cls-16" d="M51.1,64.19c-.18-1.47-.24-2.95-.18-4.44-.06-1.48,0-2.96,.18-4.43,.18,1.47,.24,2.95,.18,4.43,.06,1.48,0,2.96-.18,4.44h0Z"/><path class="cls-16" d="M50.59,99.47c-.18-1.74-.24-3.49-.18-5.24-.06-1.75,0-3.5,.18-5.24,.18,1.74,.24,3.49,.18,5.24,.06,1.75,0,3.5-.18,5.24h0Z"/><path class="cls-16" d="M36.2,76.67c-2.3,.25-4.61,.25-6.91,0,2.3-.25,4.61-.25,6.91,0Z"/><path class="cls-16" d="M73.02,75.36c-1.43,.19-2.86,.25-4.3,.18-1.43,.06-2.87,0-4.29-.18,1.42-.18,2.86-.24,4.29-.18,1.44-.06,2.88,0,4.3,.18h0Z"/><path class="cls-16" d="M65.73,64.9c-1.19,1.54-2.57,2.92-4.11,4.11,.54-.81,1.19-1.54,1.92-2.19,.65-.73,1.38-1.38,2.19-1.92h0Z"/><path class="cls-16" d="M64.42,89c-.71-.45-1.36-1-1.9-1.64-.64-.55-1.19-1.19-1.65-1.9,.71,.45,1.35,1,1.9,1.64,.64,.55,1.19,1.19,1.65,1.9h0Z"/><path class="cls-16" d="M41.63,85.46c-.55,.79-1.19,1.5-1.92,2.12-.65,.7-1.38,1.31-2.19,1.83,.55-.79,1.2-1.5,1.93-2.12,.64-.7,1.38-1.32,2.18-1.83Z"/><path class="cls-16" d="M41.79,67.35c-.1,.05-.71-.9-1.62-1.86-.91-.96-1.86-1.58-1.8-1.68,.81,.28,1.52,.76,2.07,1.41,.64,.57,1.1,1.3,1.35,2.12Z"/><path class="cls-16" d="M192.19,76.51c0-3.32,1.2-6.53,3.38-9.04,2.18-2.51,5.19-4.14,8.48-4.61-.64-.09-1.29-.13-1.94-.13-3.66,0-7.17,1.45-9.75,4.04-2.59,2.59-4.04,6.1-4.04,9.75s1.45,7.17,4.04,9.75c2.59,2.59,6.1,4.04,9.75,4.04,.65,0,1.3-.05,1.94-.13-3.29-.47-6.31-2.11-8.48-4.62-2.18-2.51-3.37-5.73-3.37-9.05h0Z"/><path class="cls-16" d="M207,75.04l.37,.62c.42,.69,1.02,1.25,1.75,1.61l.64,.32-.62,.37c-.69,.42-1.25,1.02-1.61,1.75l-.33,.65-.37-.62c-.42-.69-1.02-1.25-1.75-1.61l-.64-.32,.62-.37c.69-.41,1.25-1.02,1.61-1.75l.32-.64Z"/><path class="cls-16" d="M180.22,83.06l.18,.32c.22,.35,.52,.63,.89,.81l.32,.16-.31,.19c-.35,.21-.64,.52-.82,.88l-.16,.33-.18-.31c-.21-.35-.52-.63-.89-.81l-.32-.16,.31-.19c.35-.21,.64-.52,.82-.88l.16-.33Z"/><path class="cls-16" d="M173.53,77.03l.1,.16c.11,.17,.26,.31,.44,.4l.16,.08-.16,.1c-.18,.1-.32,.25-.4,.44l-.08,.16-.09-.16c-.1-.18-.26-.32-.44-.4l-.16-.08,.16-.09c.17-.11,.31-.26,.4-.44l.08-.16Z"/><path class="cls-16" d="M219.68,84.57l.09,.16c.1,.18,.26,.32,.44,.41l.16,.08-.16,.09c-.17,.11-.31,.26-.4,.45l-.09,.16-.09-.16c-.1-.18-.26-.32-.44-.41l-.16-.08,.16-.09c.17-.11,.31-.26,.4-.45l.09-.16Z"/><path class="cls-16" d="M212.19,72.67l.1,.16c.1,.18,.26,.32,.44,.4l.16,.08-.16,.09c-.18,.1-.32,.25-.4,.44l-.09,.16-.09-.16c-.11-.17-.26-.31-.44-.4l-.16-.08,.16-.1c.17-.11,.31-.26,.4-.44l.08-.16Z"/><path class="cls-16" d="M57.35,69.04c-.15,.58-.42,1.13-.79,1.6-.52,.82-1.01,1.41-1.1,1.41,.16-.58,.42-1.12,.79-1.59,.5-.85,.99-1.48,1.1-1.42Z"/><path class="cls-16" d="M61.5,63.34c.08,.06-.33,.74-.93,1.51-.59,.77-1.15,1.35-1.22,1.29-.08-.06,.33-.71,.93-1.51,.59-.81,1.15-1.36,1.22-1.29Z"/><path class="cls-16" d="M66.17,58.04c.07,.07-.4,.71-1.06,1.41-.66,.71-1.26,1.25-1.34,1.17-.08-.07,.4-.71,1.06-1.41,.66-.71,1.27-1.25,1.34-1.17Z"/><path class="cls-16" d="M71.29,53.17c.06,.08-.47,.71-1.18,1.32-.71,.62-1.37,1.13-1.41,1.05-.05-.08,.46-.67,1.19-1.32,.73-.66,1.34-1.13,1.41-1.05Z"/><path class="cls-16" d="M76.82,48.74c.06,.08-.52,.63-1.29,1.22-.44,.41-.95,.72-1.51,.93-.07-.08,.51-.62,1.29-1.22,.78-.6,1.46-1.01,1.52-.93Z"/><path class="cls-16" d="M82.7,44.8c.05,.09-.57,.59-1.41,1.11-.47,.37-1.01,.64-1.59,.8-.06-.08,.57-.58,1.41-1.11,.47-.37,1.01-.64,1.59-.8h0Z"/><path class="cls-16" d="M88.89,41.38c.05,.09-.62,.53-1.48,.98-.5,.33-1.06,.56-1.65,.67-.05-.09,.61-.53,1.48-.99,.5-.33,1.06-.55,1.65-.66h0Z"/><path class="cls-16" d="M95.35,38.49c-.46,.39-.99,.68-1.56,.86-.52,.29-1.1,.47-1.7,.52,.45-.39,.98-.68,1.56-.86,.53-.29,1.11-.46,1.71-.52h0Z"/><path class="cls-16" d="M102.03,36.16c-.49,.35-1.04,.59-1.63,.71-.55,.24-1.14,.37-1.74,.38,.49-.35,1.04-.59,1.63-.71,.55-.24,1.14-.37,1.74-.37h0Z"/><path class="cls-16" d="M108.89,34.42c-1.08,.51-2.25,.78-3.44,.79,.51-.3,1.08-.5,1.68-.57,.57-.19,1.17-.27,1.77-.22h0Z"/><path class="cls-16" d="M115.87,33.31c-.54,.25-1.13,.4-1.73,.42-.58,.14-1.19,.16-1.78,.06,.54-.25,1.13-.39,1.73-.42,.59-.14,1.19-.16,1.78-.06Z"/><path class="cls-16" d="M122.92,32.85c-.57,.2-1.16,.28-1.76,.25-.59,.08-1.19,.05-1.77-.1,.56-.21,1.16-.31,1.75-.27,.59-.08,1.2-.04,1.78,.12h0Z"/><path class="cls-16" d="M130,33.04c-.58,.15-1.18,.18-1.78,.09-.6,.03-1.2-.06-1.76-.27,1.18-.19,2.38-.13,3.54,.18Z"/><path class="cls-16" d="M137.02,33.87c-.59,.1-1.19,.08-1.77-.06-.6-.03-1.19-.17-1.73-.43,.59-.1,1.2-.08,1.78,.06,.6,.02,1.19,.17,1.73,.43h0Z"/><path class="cls-16" d="M143.93,35.3c-.6,.05-1.2-.02-1.76-.21-.59-.08-1.17-.27-1.68-.58,.6-.05,1.2,.03,1.77,.22,.59,.07,1.16,.27,1.68,.57Z"/><path class="cls-16" d="M150.73,37.34c-.6,0-1.19-.13-1.74-.37-.58-.13-1.14-.37-1.63-.71,.6,0,1.19,.13,1.74,.37,.58,.12,1.14,.36,1.63,.71Z"/><path class="cls-16" d="M157.29,39.94c-1.17-.22-2.28-.69-3.26-1.37,.6,.05,1.18,.23,1.71,.52,.57,.17,1.1,.46,1.56,.86h0Z"/><path class="cls-16" d="M163.63,43.09c-1.15-.33-2.21-.89-3.13-1.64,.59,.1,1.15,.33,1.65,.66,.87,.45,1.53,.89,1.48,.98Z"/><path class="cls-16" d="M169.69,46.76c-.58-.16-1.12-.43-1.59-.8-.83-.52-1.45-1.02-1.41-1.1,.58,.16,1.12,.42,1.59,.79,.86,.52,1.47,1.03,1.42,1.11Z"/><path class="cls-16" d="M175.4,50.94c-.56-.21-1.08-.52-1.51-.93-.78-.59-1.36-1.14-1.29-1.22,.56,.2,1.06,.52,1.49,.93,.8,.59,1.42,1.15,1.32,1.22Z"/><path class="cls-16" d="M180.72,55.59c-.07,.08-.71-.4-1.41-1.05-.71-.66-1.25-1.25-1.18-1.33,.07-.08,.71,.4,1.41,1.06,.71,.67,1.25,1.25,1.18,1.32Z"/><path class="cls-16" d="M185.61,60.69c-.08,.07-.67-.46-1.33-1.18-.44-.4-.8-.88-1.06-1.41,.08-.07,.67,.46,1.33,1.18,.66,.72,1.14,1.35,1.06,1.41Z"/><path class="cls-16" d="M189.37,65.35c-.09,.06-.48-.33-.89-.86-.41-.53-.71-1.02-.6-1.08,.11-.06,.48,.32,.89,.86,.41,.54,.68,1.01,.6,1.08Z"/><path class="cls-14" d="M143.89,154.2c-.44-6.98-2.74-13.71-6.67-19.49-3.93-5.78-9.35-10.4-15.67-13.38-6.33-2.97-13.34-4.19-20.3-3.52-6.96,.67-13.61,3.19-19.26,7.31-5.65,4.12-10.09,9.68-12.85,16.1-2.76,6.42-3.75,13.47-2.86,20.41s3.64,13.5,7.94,19.01c4.3,5.51,10.01,9.77,16.52,12.32,.29,4.6,.63,9.75,.63,9.75l34.08-2.2s-.15-5.57-.39-10.43c6.13-3.68,11.13-8.97,14.45-15.3,3.32-6.33,4.85-13.44,4.4-20.58h0Z"/><path class="cls-2" d="M113.11,201.19v-1.87c.07-1.24,.17-3.06,.36-5.42,.19-2.35,.47-5.24,1-8.55,.56-3.77,1.5-7.47,2.79-11.05,.75-2.08,1.68-4.1,2.79-6.02,.61-1.05,1.47-1.93,2.51-2.56,.56-.31,1.19-.49,1.84-.51,.65-.02,1.29,.12,1.87,.39,.6,.28,1.07,.78,1.32,1.39,.26,.64,.26,1.36,0,2.01-.56,1.24-1.55,2.23-2.79,2.79-2.6,1.07-5.52,1.07-8.12,0-1.35-.57-2.57-1.4-3.58-2.46-1.02-1.05-1.81-2.3-2.32-3.67-.58-1.41-.76-2.95-.51-4.46,.13-.82,.55-1.56,1.18-2.09,.63-.54,1.42-.84,2.25-.85,.42,.02,.83,.15,1.19,.37,.36,.22,.66,.52,.87,.89,.44,.71,.61,1.55,.47,2.37-.38,1.58-1.24,2.99-2.48,4.04-1.17,1.13-2.57,2-4.1,2.55-1.53,.55-3.16,.78-4.79,.67-1.63-.15-3.2-.7-4.57-1.59-1.37-.89-2.51-2.11-3.31-3.54-.41-.7-.68-1.48-.78-2.28-.1-.81-.03-1.62,.21-2.4,.13-.4,.33-.77,.61-1.09,.28-.32,.61-.57,.99-.75,.38-.17,.79-.26,1.21-.26s.83,.09,1.21,.26c.72,.36,1.32,.93,1.7,1.64,.39,.68,.64,1.43,.74,2.2,.21,1.5,.1,3.03-.31,4.49-.75,2.85-2.56,5.3-5.06,6.87-2.38,1.47-5.2,2.05-7.97,1.63-1.35-.14-2.62-.71-3.62-1.63-.48-.48-.79-1.11-.88-1.79-.08-.68,.06-1.36,.42-1.95,.42-.53,1.03-.88,1.7-.98,.64-.09,1.29,0,1.88,.25,1.1,.53,2,1.41,2.55,2.51,1.11,2.05,2.02,4.04,2.95,5.95,3.61,7.63,6.23,13.93,8,18.32,.88,2.2,1.55,3.9,1.98,5.07,.22,.56,.38,1,.5,1.39l.15,.46s-.08-.15-.21-.45l-.53-1.31c-.49-1.17-1.17-2.86-2.06-5.03-1.82-4.35-4.49-10.64-8.14-18.24-.93-1.89-1.87-3.91-2.97-5.91-.52-1.02-1.35-1.85-2.38-2.35-.51-.25-1.1-.32-1.66-.21-.56,.11-1.07,.4-1.45,.82-.3,.51-.42,1.1-.33,1.68,.08,.58,.36,1.12,.78,1.52,.93,.86,2.12,1.39,3.39,1.51,2.67,.39,5.38-.17,7.68-1.59,2.39-1.51,4.13-3.88,4.85-6.62,.39-1.4,.48-2.86,.28-4.29-.04-.72-.27-1.41-.66-2.01-.39-.6-.92-1.1-1.56-1.43-.31-.15-.66-.24-1.01-.25-.35-.01-.7,.05-1.02,.18-.33,.15-.62,.36-.86,.63-.24,.27-.42,.58-.53,.93-.21,.72-.27,1.47-.17,2.21,.09,.74,.34,1.45,.72,2.1,.76,1.36,1.85,2.51,3.15,3.36s2.8,1.37,4.35,1.51c1.56,.11,3.12-.11,4.58-.64,1.47-.53,2.8-1.37,3.93-2.45,1.16-.97,1.98-2.29,2.34-3.76,.11-.71-.03-1.44-.39-2.06-.17-.3-.42-.54-.71-.72-.29-.18-.63-.28-.97-.29-.7,0-1.38,.27-1.89,.75-.52,.48-.86,1.12-.99,1.81-.23,1.41-.06,2.86,.49,4.18,.48,1.28,1.21,2.45,2.15,3.45,.94,.99,2.06,1.79,3.31,2.35,1.25,.56,2.6,.86,3.96,.89,1.37,.03,2.72-.21,4-.72,1.16-.5,2.1-1.41,2.63-2.55,.23-.54,.25-1.15,.05-1.7-.2-.55-.61-1-1.13-1.27-.53-.25-1.1-.37-1.68-.35-.58,.02-1.15,.17-1.66,.45-.98,.6-1.79,1.43-2.37,2.42-1.11,1.89-2.04,3.88-2.79,5.95-1.32,3.55-2.28,7.22-2.88,10.96-.56,3.3-.86,6.17-1.09,8.53-.22,2.36-.35,4.18-.45,5.42,0,.6-.1,1.07-.11,1.39-.01,.32,0,.45,0,.45Z"/><path class="cls-19" d="M123.23,207.03l-29.26,1.88c-.58,.04-1.15-.16-1.59-.54-.44-.38-.71-.93-.75-1.51h0c-.03-.58,.16-1.16,.55-1.6,.39-.44,.93-.71,1.51-.75l29.26-1.9c.58-.03,1.16,.16,1.6,.55,.44,.39,.71,.93,.74,1.51h0c.02,.29-.02,.58-.11,.85-.09,.27-.24,.53-.43,.74-.19,.22-.42,.4-.68,.52-.26,.13-.54,.2-.83,.22Z"/><path d="M123.23,207.03l-29.26,1.88c-.58,.04-1.15-.16-1.59-.54-.44-.38-.71-.93-.75-1.51h0c-.03-.58,.16-1.16,.55-1.6,.39-.44,.93-.71,1.51-.75l29.26-1.9c.58-.03,1.16,.16,1.6,.55,.44,.39,.71,.93,.74,1.51h0c.02,.29-.02,.58-.11,.85-.09,.27-.24,.53-.43,.74-.19,.22-.42,.4-.68,.52-.26,.13-.54,.2-.83,.22Z"/><path class="cls-19" d="M123.36,208.95l-29.26,1.9c-.3,0-.59,.07-.86,.19-.27,.12-.52,.3-.72,.52-.2,.22-.36,.48-.46,.76-.1,.28-.14,.58-.12,.88,.02,.3,.1,.59,.23,.85,.13,.27,.32,.5,.55,.69,.23,.19,.49,.34,.78,.42s.58,.11,.88,.08l3.22-.21,4.78,7.83c.26,.45,.64,.82,1.1,1.07,.46,.25,.98,.36,1.49,.33l10.46-.67c.52-.04,1.02-.22,1.44-.51,.42-.3,.76-.71,.97-1.18l3.61-8.36,2.19-.14c.56-.06,1.08-.34,1.44-.77,.36-.43,.55-.99,.51-1.55-.04-.56-.29-1.09-.7-1.48-.42-.38-.96-.59-1.53-.58v-.04Z"/><path d="M123.36,208.95l-29.26,1.9c-.3,0-.59,.07-.86,.19-.27,.12-.52,.3-.72,.52-.2,.22-.36,.48-.46,.76-.1,.28-.14,.58-.12,.88,.02,.3,.1,.59,.23,.85,.13,.27,.32,.5,.55,.69,.23,.19,.49,.34,.78,.42s.58,.11,.88,.08l3.22-.21,4.78,7.83c.26,.45,.64,.82,1.1,1.07,.46,.25,.98,.36,1.49,.33l10.46-.67c.52-.04,1.02-.22,1.44-.51,.42-.3,.76-.71,.97-1.18l3.61-8.36,2.19-.14c.56-.06,1.08-.34,1.44-.77,.36-.43,.55-.99,.51-1.55-.04-.56-.29-1.09-.7-1.48-.42-.38-.96-.59-1.53-.58v-.04Z"/><g class="cls-17"><path class="cls-2" d="M78.42,133.55c2.16-2.29,4.67-4.2,7.45-5.67,1.84-1,3.82-1.72,5.88-2.13,1.39-.25,2.3-.15,2.4,.15,.21,.68-2.66,1.92-6.46,4.83-4.97,3.62-8.8,8.59-11.02,14.32-2.22,5.73-2.75,11.99-1.52,18.01,.84,4.71,2.13,7.57,1.5,7.93-.28,.17-.96-.33-1.87-1.51-1.25-1.7-2.23-3.58-2.91-5.57-1.06-2.96-1.63-6.07-1.67-9.21-.07-3.9,.6-7.77,1.99-11.41"/></g><g class="cls-17"><path class="cls-2" d="M103.65,126.98c-2.47,.13-4.69-.4-5.03-1.68-.14-.64,.26-1.39,1.11-1.97,1.09-.69,2.34-1.08,3.62-1.13,1.28-.11,2.57,.13,3.73,.7,.92,.49,1.39,1.16,1.39,1.81"/></g><path class="cls-19" d="M117.34,222.57c-.69-.13-1.37-.29-2.05-.49-1.65-.35-3.34-.46-5.01-.31-1.67,.17-3.3,.58-4.85,1.23-.62,.32-1.27,.61-1.92,.86,.51-.5,1.11-.89,1.77-1.17,1.56-.76,3.24-1.23,4.96-1.39,1.72-.16,3.46,0,5.13,.45,.7,.16,1.37,.44,1.98,.82h0Z"/><path d="M117.34,222.57c-.69-.13-1.37-.29-2.05-.49-1.65-.35-3.34-.46-5.01-.31-1.67,.17-3.3,.58-4.85,1.23-.62,.32-1.27,.61-1.92,.86,.51-.5,1.11-.89,1.77-1.17,1.56-.76,3.24-1.23,4.96-1.39,1.72-.16,3.46,0,5.13,.45,.7,.16,1.37,.44,1.98,.82h0Z"/><path class="cls-19" d="M121.52,213.58c0,.14-5.27,.58-11.8,1s-11.81,.65-11.81,.53,5.27-.59,11.79-1c6.52-.42,11.83-.65,11.83-.53Z"/><path d="M121.52,213.58c0,.14-5.27,.58-11.8,1s-11.81,.65-11.81,.53,5.27-.59,11.79-1c6.52-.42,11.83-.65,11.83-.53Z"/><path class="cls-19" d="M119.92,217.17c-.94,.24-1.9,.4-2.87,.47-1.77,.24-4.18,.49-6.97,.71-2.79,.22-5.2,.33-6.97,.39-.96,.09-1.93,.09-2.9,0,.95-.17,1.92-.27,2.88-.31l6.97-.53,6.97-.57c.95-.13,1.92-.19,2.88-.17Z"/><path d="M119.92,217.17c-.94,.24-1.9,.4-2.87,.47-1.77,.24-4.18,.49-6.97,.71-2.79,.22-5.2,.33-6.97,.39-.96,.09-1.93,.09-2.9,0,.95-.17,1.92-.27,2.88-.31l6.97-.53,6.97-.57c.95-.13,1.92-.19,2.88-.17Z"/></svg>