<?xml version="1.0" encoding="UTF-8"?><svg id="Layer_1" xmlns="http://www.w3.org/2000/svg" viewBox="0 0 250 250"><defs><style>.cls-1{isolation:isolate;opacity:.4;}.cls-1,.cls-2{fill:#d2e5e1;}.cls-3{fill:#59898e;}.cls-4{fill:#5cc6ba;}.cls-5{fill:#f9f8f4;}</style></defs><path class="cls-5" d="M126.89,234.49c65.45,0,118.5-18.25,118.5-40.76s-53.05-40.76-118.5-40.76S8.39,171.22,8.39,193.73s53.05,40.76,118.5,40.76Z"/><path class="cls-2" d="M106.03,41.09c0-.94,.2-1.87,.61-2.72,.4-.84,.98-1.58,1.7-2.14,.72-.56,1.55-.94,2.44-1.1,.88-.16,1.79-.1,2.64,.17-.25-1.82-.13-3.67,.35-5.44,.49-1.76,1.33-3.4,2.47-4.79,1.14-1.39,2.55-2.5,4.14-3.27,1.59-.76,3.31-1.16,5.06-1.16,.75,0,1.5,.07,2.23,.22,1.2-2.07,3-3.68,5.14-4.58,2.14-.9,4.5-1.04,6.72-.4,2.22,.64,4.19,2.02,5.6,3.94s2.19,4.27,2.23,6.69h.18c2.6,0,5.09,1.09,6.92,3.02,1.83,1.93,2.87,4.55,2.87,7.29s-1.03,5.35-2.87,7.29c-1.84,1.93-4.33,3.02-6.92,3.02h-35.95c-1.49-.04-2.91-.7-3.95-1.83s-1.62-2.64-1.62-4.22Z"/><path class="cls-2" d="M222.07,211.41H8.39v.57H222.07v-.57Z"/><path class="cls-2" d="M245.39,220.79h-18.43v.14h18.43v-.14Z"/><path class="cls-2" d="M179.34,222.34h-4.83v.14h4.83v-.14Z"/><path class="cls-2" d="M226.4,215.51h-10.68v.14h10.68v-.14Z"/><path class="cls-2" d="M48.26,216.47H24.22v.14h24.03v-.14Z"/><path class="cls-2" d="M56.74,216.47h-3.52v.14h3.52v-.14Z"/><path class="cls-2" d="M120.32,218.87h-52.13v.14h52.13v-.14Z"/><path class="cls-2" d="M68.33,106.24h-4.18v105.22h4.18V106.24Z"/><path class="cls-2" d="M83.67,120.46h-4.18v91h4.18V120.46Z"/><path class="cls-2" d="M99,133.26h-4.18v78.2h4.18v-78.2Z"/><path class="cls-2" d="M114.34,124.73h-2.79v86.73h2.79V124.73Z"/><path class="cls-2" d="M131.07,120.46h-4.18v91h4.18V120.46Z"/><path class="cls-2" d="M146.4,111.93h-4.18v99.53h4.18V111.93Z"/><path class="cls-2" d="M161.74,116.19h-4.18v95.27h4.18V116.19Z"/><path class="cls-2" d="M178.47,111.93h-4.18v99.53h4.18V111.93Z"/><path class="cls-2" d="M193.8,101.98h-4.18v109.49h4.18V101.98Z"/><path class="cls-2" d="M209.14,93.44h-4.18v118.02h4.18V93.44Z"/><path class="cls-2" d="M224.47,84.91h-2.79v126.55h2.79V84.91Z"/><path class="cls-4" d="M97.16,127.57c-.22,0-.44-.1-.6-.24l-33.54-31.37c-.17-.16-.27-.38-.27-.6s.09-.45,.25-.61c.17-.16,.39-.26,.63-.26,.24,0,.47,.09,.64,.24l33,30.87,46.47-32.55c.18-.12,.4-.18,.62-.16,.22,.02,.42,.12,.57,.28l15.22,16.53,62.98-34.62c.1-.06,.21-.09,.33-.11,.12-.01,.24,0,.35,.02,.11,.03,.22,.08,.31,.15,.09,.07,.17,.15,.23,.25,.06,.1,.1,.21,.11,.32,.01,.11,0,.23-.02,.33-.03,.11-.08,.21-.16,.3-.07,.09-.16,.16-.26,.22l-63.61,34.97c-.18,.1-.39,.13-.59,.1-.2-.03-.39-.13-.52-.28l-15.16-16.45-46.43,32.49c-.16,.11-.35,.17-.55,.16Z"/><path class="cls-4" d="M73.82,211.12l-27.36-110.37,1.37-5.52h-1.42v-31.52h-3.67v31.52h-1.42l1.37,5.52L15.3,211.12h3.79l23.63-95.33v95.91h3.67V115.79l23.63,95.33h3.78Z"/><path class="cls-4" d="M65.18,99.65c2.69-11.65-4.36-23.32-15.75-26.07-11.39-2.75-22.8,4.46-25.48,16.11-2.69,11.65,4.36,23.32,15.75,26.07,11.39,2.75,22.8-4.46,25.48-16.11Z"/><path class="cls-2" d="M44.56,113.18c9.99,0,18.09-8.28,18.09-18.5s-8.1-18.5-18.09-18.5-18.09,8.28-18.09,18.5,8.1,18.5,18.09,18.5Z"/><path class="cls-4" d="M44.56,109.16c7.82,0,14.16-6.48,14.16-14.48s-6.34-14.48-14.16-14.48-14.16,6.48-14.16,14.48,6.34,14.48,14.16,14.48Z"/><path class="cls-2" d="M49.01,105.64c5.92-2.51,8.73-9.45,6.28-15.51-2.45-6.06-9.24-8.93-15.16-6.42-5.92,2.51-8.73,9.45-6.28,15.51,2.45,6.06,9.24,8.93,15.16,6.42Z"/><path class="cls-4" d="M52.4,96.56c1.02-4.43-1.66-8.86-5.99-9.91-4.33-1.04-8.66,1.7-9.69,6.12-1.02,4.43,1.66,8.86,5.99,9.91s8.66-1.7,9.69-6.12Z"/><path class="cls-2" d="M46.78,100.14c2.95-1.25,4.35-4.71,3.13-7.73-1.22-3.02-4.6-4.45-7.55-3.2-2.95,1.25-4.35,4.71-3.13,7.73,1.22,3.02,4.6,4.45,7.55,3.2Z"/><path class="cls-4" d="M47.18,94.68c0,.53-.15,1.05-.44,1.49-.29,.44-.7,.79-1.18,.99-.48,.2-1.01,.26-1.52,.15-.51-.1-.98-.36-1.34-.74-.37-.38-.62-.86-.72-1.38-.1-.52-.05-1.06,.15-1.55,.2-.49,.54-.91,.97-1.2,.43-.29,.94-.45,1.46-.45,.34,0,.69,.07,1,.2,.32,.14,.61,.33,.85,.58,.24,.25,.44,.55,.57,.87,.13,.33,.2,.68,.2,1.03Z"/><path class="cls-4" d="M17.37,76.81l.57,3.92-3.98,1.37,3.98,2.14,3.97-1.43-.7-3.86-3.85-2.14Z"/><path class="cls-4" d="M44.56,95.25c-.09,0-.18-.02-.26-.06l-28.51-14.95c-.13-.07-.22-.19-.26-.33-.04-.14-.03-.29,.04-.43,.07-.13,.18-.23,.32-.28,.14-.05,.29-.04,.42,.02l28.51,14.92c.13,.07,.23,.19,.28,.33,.05,.14,.03,.3-.03,.43-.04,.1-.11,.18-.2,.24-.09,.06-.19,.09-.3,.09Z"/><path class="cls-2" d="M199.52,49.38c0-.64,.25-1.26,.69-1.71,.44-.45,1.04-.71,1.67-.71,.23,0,.46,.04,.68,.1-.03-.24-.05-.49-.05-.74,0-.75,.16-1.5,.47-2.18,.31-.68,.77-1.28,1.33-1.77,.57-.48,1.23-.83,1.94-1.02,.71-.19,1.46-.21,2.18-.08,.5-.83,1.24-1.47,2.12-1.83,.88-.36,1.85-.41,2.77-.15,.91,.26,1.72,.81,2.3,1.58,.58,.77,.9,1.71,.92,2.68h.07c1.07,0,2.1,.43,2.85,1.21,.76,.77,1.18,1.82,1.18,2.92s-.43,2.14-1.18,2.92c-.76,.77-1.78,1.21-2.85,1.21h-14.81c-.62-.02-1.21-.28-1.64-.74-.43-.46-.67-1.07-.66-1.7Z"/><path class="cls-2" d="M79.49,71.87c0-.21,.04-.42,.12-.62,.08-.2,.2-.38,.35-.53,.15-.15,.32-.27,.52-.35,.19-.08,.4-.12,.61-.12,.15,0,.31,.02,.46,.07-.02-.17-.04-.33-.04-.5,0-.9,.36-1.77,.99-2.41,.62-.64,1.47-1,2.35-1.01,.21,0,.42,.02,.62,.06,.33-.56,.83-.99,1.42-1.24,.59-.24,1.25-.28,1.86-.11,.62,.17,1.16,.54,1.55,1.06,.39,.52,.61,1.15,.61,1.8h.05c.7,.03,1.36,.34,1.84,.86,.48,.52,.75,1.2,.75,1.92s-.27,1.4-.75,1.92c-.48,.52-1.14,.82-1.84,.86h-9.93c-.21,0-.41-.05-.6-.14-.19-.09-.36-.21-.51-.36-.14-.15-.26-.34-.33-.53-.07-.2-.11-.41-.11-.62Z"/><path class="cls-3" d="M224.17,85l-3.49-22.77-18.41,13.31,6.12,2.65c-5.91,13.85-25.08,54.44-58.07,84.37-42.12,38.22-101.07,57.03-101.66,57.21l3.26,10.89c2.5-.79,61.81-19.68,105.81-59.6,35.06-31.81,54.77-73.76,60.96-88.44l5.49,2.37Z"/><path class="cls-1" d="M220.84,81.02l-.16-18.78-18.41,13.31,6.12,2.65c-5.91,13.85-25.08,54.44-58.07,84.37-42.12,38.22-101.07,57.03-101.66,57.21l1.03,6.9c2.5-.79,61.81-17.98,105.81-57.89,35.06-31.81,53.65-74.33,59.84-89.01l5.49,1.24Z"/></svg>