<?xml version="1.0" encoding="UTF-8"?><svg id="Layer_1" xmlns="http://www.w3.org/2000/svg" viewBox="0 0 250 250"><defs><style>.cls-1{fill:#aabdbd;}.cls-2{opacity:.3;}.cls-3{fill:#59898e;}.cls-4{fill:#d2e5e1;}.cls-5{fill:#f9f8f4;}.cls-6{fill:#72818c;}</style></defs><path class="cls-5" d="M223.81,27H50.16v116.31H223.81V27Z"/><path class="cls-1" d="M223.81,27H50.16v11.62H223.81v-11.62Z"/><path class="cls-5" d="M57.68,32.81c.02,.29-.04,.57-.18,.82-.14,.25-.35,.45-.61,.58-.26,.13-.55,.17-.83,.13-.28-.04-.55-.17-.76-.36-.21-.19-.36-.45-.42-.73-.07-.28-.04-.57,.06-.84,.1-.27,.28-.5,.52-.66,.24-.16,.52-.25,.8-.25,.18,0,.36,.02,.53,.08,.17,.06,.32,.15,.46,.28,.13,.12,.24,.27,.31,.43,.08,.16,.12,.34,.12,.52h0Z"/><path class="cls-5" d="M62.21,32.81c.02,.29-.04,.57-.18,.82-.14,.25-.35,.45-.61,.58-.26,.13-.55,.17-.83,.13-.28-.04-.55-.17-.76-.36s-.36-.45-.42-.73c-.07-.28-.04-.57,.06-.84,.1-.27,.28-.5,.52-.66,.24-.16,.52-.25,.8-.25,.18,0,.36,.02,.53,.08,.17,.06,.32,.15,.46,.28,.13,.12,.24,.27,.31,.43,.08,.16,.12,.34,.12,.52h0Z"/><path class="cls-5" d="M66.74,32.81c.02,.29-.04,.57-.18,.82-.14,.25-.35,.45-.61,.58-.26,.13-.55,.17-.83,.13-.28-.04-.55-.17-.76-.36s-.36-.45-.42-.73c-.07-.28-.04-.57,.06-.84,.1-.27,.28-.5,.52-.66,.24-.16,.52-.25,.8-.25,.18,0,.36,.02,.53,.08,.17,.06,.32,.15,.46,.28,.13,.12,.24,.27,.31,.43,.08,.16,.12,.34,.12,.52h0Z"/><path class="cls-6" d="M203.32,49.51H26.3c-3.82,0-6.92,3.1-6.92,6.92v112.38c0,3.82,3.1,6.92,6.92,6.92H203.32c3.82,0,6.92-3.1,6.92-6.92V56.43c0-3.82-3.1-6.92-6.92-6.92Z"/><path d="M203.32,49.51H26.3c-3.82,0-6.92,3.1-6.92,6.92v112.38c0,3.82,3.1,6.92,6.92,6.92H203.32c3.82,0,6.92-3.1,6.92-6.92V56.43c0-3.82-3.1-6.92-6.92-6.92Z"/><path class="cls-6" d="M11.41,166.39H218.18v2.6c0,2.24-.89,4.39-2.47,5.98-1.59,1.58-3.73,2.47-5.98,2.47H19.84c-2.24,0-4.39-.89-5.98-2.47-1.58-1.59-2.48-3.73-2.48-5.98v-2.6h.02Z"/><path d="M11.41,166.39H218.18v2.6c0,2.24-.89,4.39-2.47,5.98-1.59,1.58-3.73,2.47-5.98,2.47H19.84c-2.24,0-4.39-.89-5.98-2.47-1.58-1.59-2.48-3.73-2.48-5.98v-2.6h.02Z"/><path class="cls-3" d="M204.58,54.53H24.5v106.59H204.58V54.53Z"/><path class="cls-3" d="M95.99,166.39l2.57,4.08h36.1l2.38-4.08h-41.05Z"/><path class="cls-1" d="M199.69,58.14H29.76c-.86,0-1.55,.69-1.55,1.55v99.53c0,.86,.69,1.55,1.55,1.55H199.69c.86,0,1.55-.69,1.55-1.55V59.69c0-.86-.69-1.55-1.55-1.55Z"/><path class="cls-5" d="M201.24,65.66H28.21v95.12H201.24V65.66Z"/><path class="cls-6" d="M42.41,62.1c0,.27-.08,.54-.23,.77-.15,.23-.37,.41-.62,.51-.25,.1-.53,.13-.8,.08-.27-.05-.52-.19-.71-.38-.19-.19-.33-.44-.38-.71-.05-.27-.03-.55,.08-.8s.28-.47,.51-.62c.23-.15,.5-.23,.77-.23,.37,0,.72,.15,.98,.41,.26,.26,.41,.61,.41,.98Z"/><path d="M42.41,62.1c0,.27-.08,.54-.23,.77-.15,.23-.37,.41-.62,.51-.25,.1-.53,.13-.8,.08-.27-.05-.52-.19-.71-.38-.19-.19-.33-.44-.38-.71-.05-.27-.03-.55,.08-.8s.28-.47,.51-.62c.23-.15,.5-.23,.77-.23,.37,0,.72,.15,.98,.41,.26,.26,.41,.61,.41,.98Z"/><path class="cls-6" d="M34.03,62.1c0,.27-.08,.54-.24,.77-.15,.23-.37,.4-.62,.51-.25,.1-.53,.13-.8,.08-.27-.05-.51-.19-.71-.38-.19-.19-.32-.44-.38-.71-.05-.27-.03-.55,.08-.8,.1-.25,.28-.47,.51-.62,.23-.15,.49-.23,.77-.23,.18,0,.36,.04,.53,.11,.17,.07,.32,.17,.45,.3,.13,.13,.23,.28,.3,.45,.07,.17,.1,.35,.1,.53h0Z"/><path d="M34.03,62.1c0,.27-.08,.54-.24,.77-.15,.23-.37,.4-.62,.51-.25,.1-.53,.13-.8,.08-.27-.05-.51-.19-.71-.38-.19-.19-.32-.44-.38-.71-.05-.27-.03-.55,.08-.8,.1-.25,.28-.47,.51-.62,.23-.15,.49-.23,.77-.23,.18,0,.36,.04,.53,.11,.17,.07,.32,.17,.45,.3,.13,.13,.23,.28,.3,.45,.07,.17,.1,.35,.1,.53h0Z"/><path class="cls-6" d="M38.05,62.1c0,.27-.08,.54-.24,.77-.15,.23-.37,.4-.62,.51-.25,.1-.53,.13-.8,.08-.27-.05-.51-.19-.71-.38-.19-.19-.32-.44-.38-.71-.05-.27-.03-.55,.08-.8,.1-.25,.28-.47,.51-.62,.23-.15,.49-.23,.77-.23,.18,0,.36,.04,.53,.11,.17,.07,.32,.17,.45,.3,.13,.13,.23,.28,.3,.45,.07,.17,.1,.35,.1,.53h0Z"/><path d="M38.05,62.1c0,.27-.08,.54-.24,.77-.15,.23-.37,.4-.62,.51-.25,.1-.53,.13-.8,.08-.27-.05-.51-.19-.71-.38-.19-.19-.32-.44-.38-.71-.05-.27-.03-.55,.08-.8,.1-.25,.28-.47,.51-.62,.23-.15,.49-.23,.77-.23,.18,0,.36,.04,.53,.11,.17,.07,.32,.17,.45,.3,.13,.13,.23,.28,.3,.45,.07,.17,.1,.35,.1,.53h0Z"/><path class="cls-3" d="M208.6,166.39c0,.07-42.36,.12-94.6,.12s-94.61-.05-94.61-.12,42.35-.12,94.61-.12,94.6,.07,94.6,.12Z"/><path class="cls-1" d="M79.69,113.57H40.2v2.64h39.48v-2.64Z"/><path class="cls-1" d="M130.68,76.9h-39.48v2.64h39.48v-2.64Z"/><path class="cls-1" d="M189.43,86.73c0,.07-21.99,.12-49.1,.12s-49.11-.06-49.11-.12,21.98-.12,49.11-.12,49.1,.06,49.1,.12Z"/><path class="cls-1" d="M189.43,92.5c0,.07-21.99,.12-49.1,.12s-49.11-.06-49.11-.12,21.98-.12,49.11-.12,49.1,.06,49.1,.12Z"/><path class="cls-1" d="M189.43,98.27c0,.07-21.99,.12-49.1,.12s-49.11-.06-49.11-.12,21.98-.12,49.11-.12,49.1,.05,49.1,.12Z"/><path class="cls-1" d="M189.43,104.04c0,.07-21.99,.12-49.1,.12s-49.11-.06-49.11-.12,21.98-.12,49.11-.12,49.1,.05,49.1,.12Z"/><path class="cls-1" d="M189.43,109.81c0,.07-21.99,.12-49.1,.12s-49.11-.06-49.11-.12,21.98-.12,49.11-.12,49.1,.05,49.1,.12Z"/><path class="cls-1" d="M129.54,115.57c0,.07-8.58,.12-19.17,.12s-19.17-.06-19.17-.12,8.58-.12,19.17-.12,19.17,.05,19.17,.12Z"/><path class="cls-1" d="M188.7,126.77c0,.07-14.46,.12-32.28,.12s-32.28-.06-32.28-.12,14.45-.12,32.28-.12,32.28,.05,32.28,.12Z"/><path class="cls-1" d="M188.7,132.89c0,.07-14.46,.12-32.28,.12s-32.28-.05-32.28-.12,14.45-.12,32.28-.12,32.28,.06,32.28,.12Z"/><path class="cls-1" d="M188.7,139.01c0,.07-14.46,.12-32.28,.12s-32.28-.06-32.28-.12,14.45-.12,32.28-.12,32.28,.06,32.28,.12Z"/><path class="cls-1" d="M188.7,145.13c0,.07-14.46,.12-32.28,.12s-32.28-.06-32.28-.12,14.45-.12,32.28-.12,32.28,.05,32.28,.12Z"/><path class="cls-1" d="M79.77,126.18c0,.07-8.62,.12-19.24,.12s-19.24-.05-19.24-.12,8.61-.12,19.24-.12,19.24,.06,19.24,.12Z"/><path class="cls-1" d="M79.77,130.99c0,.07-8.62,.12-19.24,.12s-19.24-.06-19.24-.12,8.61-.12,19.24-.12,19.24,.06,19.24,.12Z"/><path class="cls-1" d="M79.77,135.8c0,.07-8.62,.12-19.24,.12s-19.24-.06-19.24-.12,8.61-.12,19.24-.12,19.24,.05,19.24,.12Z"/><path class="cls-1" d="M79.77,140.61c0,.07-8.62,.12-19.24,.12s-19.21-.06-19.21-.12,8.61-.12,19.24-.12,19.21,.05,19.21,.12Z"/><path class="cls-1" d="M79.77,145.41c0,.07-8.62,.13-19.24,.13s-19.24-.06-19.24-.13,8.61-.12,19.24-.12,19.24,.06,19.24,.12Z"/><path class="cls-4" d="M119.19,123.84h-28.01v27.1h28.01v-27.1Z"/><path class="cls-1" d="M93.35,148.63l7.75-13.95,6.34,8.92,3.85-4.73,5.73,9.76h-23.67Z"/><path class="cls-1" d="M110.15,131.97c0,.4-.12,.79-.34,1.12-.22,.33-.54,.59-.91,.74-.37,.15-.77,.19-1.17,.12-.39-.08-.75-.27-1.03-.55-.28-.28-.47-.64-.55-1.03-.08-.39-.04-.8,.12-1.17,.15-.37,.41-.68,.74-.91,.33-.22,.72-.34,1.12-.34,.26,0,.53,.05,.77,.15,.24,.1,.47,.25,.65,.44,.19,.19,.34,.41,.44,.65,.1,.25,.15,.51,.15,.77Z"/><path class="cls-1" d="M117.02,148.7s0-.08,0-.11v-1.53c0-1.08,0-2.63-.03-4.6,0-3.96-.03-9.6-.06-16.36l.11,.11h-23.67s.25-.25,.13-.13v22.61l-.11-.12,17.11,.06,4.83,.03h.05l-4.8,.03-17.19,.06h-.12v-22.65c-.12,.11,.16-.17,.13-.14h23.78v.11c0,6.8-.05,12.46-.06,16.44,0,1.96,0,3.51-.03,4.58v1.5s-.05,.08-.08,.11h0Z"/><path class="cls-4" d="M78.95,72.39H40.95v36.76h38v-36.76Z"/><path class="cls-1" d="M43.9,106l10.51-18.92,8.6,12.09,5.22-6.42,7.77,13.25H43.9Z"/><path class="cls-1" d="M66.66,83.41c0,.54-.16,1.07-.46,1.52-.3,.45-.73,.8-1.23,1.01-.5,.21-1.05,.26-1.58,.16-.53-.11-1.02-.37-1.4-.75-.38-.38-.64-.87-.75-1.4-.11-.53-.05-1.08,.16-1.58,.21-.5,.56-.93,1.01-1.23,.45-.3,.98-.46,1.52-.46,.73,0,1.42,.29,1.93,.8,.51,.51,.8,1.21,.8,1.93Z"/><path class="cls-1" d="M76,106.1v-2.23c0-1.46-.02-3.56-.04-6.24,0-5.37-.05-13.02-.08-22.2l.16,.16H43.93l.18-.18v30.67l-.16-.16,23.21,.08,6.55,.04h2.37s-.09,0-.14,0h-2.14l-6.51,.04-23.31,.08h-.16v-30.73l.19-.19,32.1,.02h.16v.15c-.03,9.22-.06,16.9-.08,22.31,0,2.66-.03,4.75-.04,6.21v2.04s-.09,.09-.14,.12Z"/><path class="cls-4" d="M233.05,97.21l-38.57-1.08h-39.32c-2.52,.05-4.93,1.11-6.68,2.94-1.75,1.83-2.71,4.29-2.66,6.82v26.9c-.13,18.59,4.27,36.92,12.83,53.4,7.27,13.72,18.51,27.84,35.83,36.81,15.93-6.01,27.81-22.05,35.08-35.79,8.56-16.48,12.96-34.81,12.83-53.4v-26.85c.05-2.54-.91-4.99-2.66-6.82-1.75-1.83-4.15-2.88-6.68-2.93Z"/><path class="cls-5" d="M192.67,160.51l-14.67-12.16,4.94-6,8.84,7.33,14.46-16.63,5.85,5.1-19.42,22.36Z"/><g class="cls-2"><path class="cls-6" d="M232.97,97.21l-38.79-1.09h-39.55c-2.54,.05-4.95,1.11-6.71,2.94-1.76,1.83-2.72,4.28-2.68,6.82v26.9c-.13,18.59,4.3,36.92,12.91,53.39,7.31,13.72,18.62,27.84,36.04,36.81,16.02-6.01,27.97-22.05,35.28-35.79,8.61-16.47,13.04-34.81,12.91-53.39v-26.84c.05-2.54-.92-4.99-2.68-6.82-1.76-1.83-4.18-2.88-6.71-2.93h0Zm-1.28,38.57c.1,14.7-3.4,29.2-10.22,42.23-5.78,10.85-14.28,22.03-28.07,29.13-13.77-7.1-21.96-18.27-27.74-29.13-6.8-13.03-10.29-27.53-10.18-42.23v-21.22c-.04-2.01,.73-3.95,2.12-5.39s3.3-2.29,5.3-2.33h61.39c2.01,.04,3.92,.88,5.31,2.33,1.39,1.45,2.15,3.39,2.12,5.4l-.02,21.22Z"/><path d="M232.97,97.21l-38.79-1.09h-39.55c-2.54,.05-4.95,1.11-6.71,2.94-1.76,1.83-2.72,4.28-2.68,6.82v26.9c-.13,18.59,4.3,36.92,12.91,53.39,7.31,13.72,18.62,27.84,36.04,36.81,16.02-6.01,27.97-22.05,35.28-35.79,8.61-16.47,13.04-34.81,12.91-53.39v-26.84c.05-2.54-.92-4.99-2.68-6.82-1.76-1.83-4.18-2.88-6.71-2.93h0Zm-1.28,38.57c.1,14.7-3.4,29.2-10.22,42.23-5.78,10.85-14.28,22.03-28.07,29.13-13.77-7.1-21.96-18.27-27.74-29.13-6.8-13.03-10.29-27.53-10.18-42.23v-21.22c-.04-2.01,.73-3.95,2.12-5.39s3.3-2.29,5.3-2.33h61.39c2.01,.04,3.92,.88,5.31,2.33,1.39,1.45,2.15,3.39,2.12,5.4l-.02,21.22Z"/></g></svg>