<?xml version="1.0" encoding="UTF-8"?><svg id="Layer_1" xmlns="http://www.w3.org/2000/svg" xmlns:xlink="http://www.w3.org/1999/xlink" viewBox="0 0 250 250"><defs><style>.cls-1{fill:#fff;}.cls-2{fill:#273339;}.cls-3{fill:#ec9a6f;}.cls-4{opacity:.4;}.cls-5{fill:#fbbd9e;}.cls-6{fill:#73807f;}.cls-7{fill:#f5f6f6;}.cls-8{opacity:.3;}.cls-9{clip-path:url(#clippath);}.cls-10{fill:#d2e5e1;}.cls-11{fill:none;}.cls-12{opacity:.1;}.cls-13{opacity:.2;}.cls-14{fill:#d9d9d9;}.cls-15{fill:#fafbfc;}.cls-16{fill:#e0e1e0;}.cls-17{fill:#010101;}</style><clipPath id="clippath"><rect class="cls-11" x="7.04" y="20" width="235.91" height="210"/></clipPath></defs><g class="cls-9"><g><path class="cls-7" d="M157.18,180.89h-50.85v34.58h50.85v-34.58Z"/><path class="cls-16" d="M157.18,180.89h-50.85v5.67h50.85v-5.67Z"/><path class="cls-7" d="M110.1,183.85c0,.39-.31,.71-.7,.71s-.7-.32-.7-.71,.31-.71,.7-.71,.7,.32,.7,.71Z"/><path class="cls-7" d="M112.79,183.85c0,.39-.31,.71-.7,.71s-.7-.32-.7-.71,.31-.71,.7-.71h0c.39,0,.7,.32,.7,.71Z"/><path class="cls-7" d="M115.45,183.85c0,.39-.31,.71-.7,.71s-.7-.32-.7-.71,.31-.71,.7-.71h0c.38,0,.7,.32,.7,.7h0Z"/><path class="cls-7" d="M157.33,27.08c0,.34-.26,.61-.6,.61-.33,0-.6-.27-.61-.6,0-.34,.26-.61,.6-.61h0c.33,0,.6,.27,.6,.6h0Z"/><path class="cls-7" d="M159.03,27.68c.33,0,.6-.27,.6-.6s-.27-.6-.6-.6-.6,.27-.6,.6,.27,.6,.6,.6Z"/><path class="cls-7" d="M161.32,27.68c.33,0,.6-.27,.6-.6s-.27-.6-.6-.6-.6,.27-.6,.6,.27,.6,.6,.6Z"/><path class="cls-7" d="M64.13,134.14H8.31v37.96h55.82v-37.96Z"/><path class="cls-16" d="M64.13,134.14H8.31v6.23h55.82v-6.23Z"/><path class="cls-7" d="M12.44,137.39c0,.43-.34,.77-.76,.77s-.76-.35-.76-.77,.34-.77,.76-.77,.76,.35,.76,.77Z"/><path class="cls-7" d="M15.38,137.39c0,.43-.34,.78-.76,.78-.42,0-.77-.34-.77-.77,0-.43,.34-.78,.76-.78h0c.42,0,.76,.35,.76,.77Z"/><path class="cls-7" d="M18.32,137.39c0,.43-.34,.78-.76,.78-.42,0-.77-.34-.77-.77,0-.43,.34-.78,.76-.78h0c.42,0,.76,.35,.76,.77Z"/><path class="cls-7" d="M67.59,26.5H11.77v37.96h55.82V26.5Z"/><path class="cls-16" d="M67.59,26.5H11.77v6.23h55.82v-6.23Z"/><path class="cls-7" d="M15.9,29.75c0,.43-.33,.78-.75,.79-.42,0-.77-.33-.78-.76,0-.43,.33-.78,.75-.79h.01c.42,0,.76,.34,.77,.76Z"/><path class="cls-7" d="M18.84,29.75c0,.43-.33,.78-.75,.79-.42,0-.77-.33-.78-.76,0-.43,.33-.78,.75-.79h.01c.42,0,.76,.34,.77,.76Z"/><path class="cls-7" d="M21.01,30.52c.42,0,.76-.35,.76-.77s-.34-.77-.76-.77-.76,.35-.76,.77,.34,.77,.76,.77Z"/><path class="cls-16" d="M30.02,51.56c-2.33,0-4.22-1.91-4.22-4.27s1.89-4.27,4.22-4.27,4.22,1.91,4.22,4.27-1.89,4.27-4.22,4.27Zm0-8.08c-2.08,0-3.76,1.71-3.76,3.81s1.69,3.81,3.76,3.81,3.77-1.71,3.77-3.81h0c0-2.11-1.69-3.81-3.77-3.81Z"/><path class="cls-16" d="M32.63,50.34l-.33,.31,2.8,3.07,.33-.31-2.8-3.07Z"/><path class="cls-16" d="M48.07,52.25c-2.71,0-4.9-2.22-4.91-4.96,0-2.74,2.19-4.96,4.9-4.97,2.71,0,4.9,2.22,4.91,4.96h0c0,2.74-2.19,4.96-4.9,4.97Zm0-8.08c-1.7,0-3.09,1.39-3.09,3.12,0,1.72,1.38,3.12,3.08,3.12,1.7,0,3.09-1.39,3.09-3.12h0c0-1.73-1.38-3.13-3.08-3.13h0Z"/><path class="cls-16" d="M53.31,54.48c-.25,0-.5-.11-.67-.29l-2.81-3.07c-.33-.38-.29-.96,.09-1.3,.36-.32,.91-.3,1.25,.05l2.81,3.05c.34,.37,.32,.96-.05,1.3-.17,.16-.39,.25-.62,.25h0s0,.01,0,.01Z"/><path class="cls-15" d="M206.32,113.91h-52.8v35.91h52.8v-35.91Z"/><path class="cls-16" d="M167.78,135.97h-5.06l-1.11,2.48h-.69l4.02-8.83h.64l4.02,8.83h-.69l-1.12-2.48h0Zm-.24-.54l-2.27-5.1-2.27,5.1h4.55Z"/><path class="cls-16" d="M175.67,134.27v4.18h-.57v-1.17c-.49,.82-1.4,1.3-2.35,1.22-1.46,0-2.34-.76-2.34-1.88,0-.99,.62-1.84,2.43-1.84h2.23v-.53c0-1.22-.66-1.88-1.93-1.88-.82,0-1.62,.29-2.24,.83l-.31-.46c.73-.61,1.66-.94,2.61-.92,1.59,0,2.48,.83,2.48,2.45h0Zm-.62,2.24v-1.24h-2.22c-1.37,0-1.82,.56-1.82,1.33,0,.86,.66,1.38,1.82,1.38,.98,.06,1.88-.54,2.22-1.47h0Z"/><path class="cls-16" d="M189.92,136.56h-4.05l-.77,1.89h-2.07l3.91-8.83h2l3.9,8.83h-2.12l-.79-1.89h0Zm-.64-1.56l-1.36-3.38-1.39,3.38h2.75Z"/><path class="cls-16" d="M199.52,134.58v3.88h-1.82v-.85c-.36,.62-1.06,.95-2.05,.95-1.57,0-2.51-.88-2.51-2.06s.84-2.03,2.88-2.03h1.55c0-.84-.5-1.33-1.55-1.33-.69,0-1.37,.21-1.93,.63l-.7-1.38c.86-.56,1.87-.84,2.89-.82,2.05,0,3.23,.98,3.23,3.02h0Zm-1.94,1.73v-.69h-1.34c-.91,0-1.2,.34-1.2,.79s.41,.82,1.1,.82c.63,.04,1.21-.33,1.44-.92Z"/><path class="cls-16" d="M206.32,113.91h-52.8v5.89h52.8v-5.89Z"/><path class="cls-7" d="M157.42,116.99c0,.4-.32,.73-.72,.73s-.72-.33-.72-.73,.32-.73,.72-.73,.72,.33,.72,.73Z"/><path class="cls-7" d="M160.21,116.99c0,.41-.32,.74-.72,.74-.4,0-.73-.32-.73-.73,0-.41,.32-.74,.72-.74h0c.4,0,.72,.33,.72,.73Z"/><path class="cls-7" d="M162.99,116.99c0,.41-.32,.74-.72,.74-.4,0-.73-.32-.73-.73,0-.41,.32-.74,.72-.74h0c.4,0,.72,.33,.72,.73Z"/><path class="cls-16" d="M206.32,149.83v-2.55c0-1.67,0-4.11-.02-7.23,0-6.24-.03-15.19-.05-26.14l.09,.1h-52.8l.12-.12v35.9l-.11-.11,38.04,.05,10.87,.03h.05l-10.85,.03-38.11,.06h-.11v-36.13h.12l52.8,.03h.1v.09c0,10.95-.04,19.94-.05,26.2,0,3.11,0,5.55-.02,7.2v1.88c0,.43-.06,.71-.06,.71h0Z"/><path class="cls-2" d="M202.54,229.87c0,.07-41.21,.12-92.02,.12s-92.03-.05-92.03-.12,41.2-.12,92.03-.12,92.02,.05,92.02,.12Z"/><path class="cls-2" d="M159.83,192.71l-98.69-.06c-3.05,0-5.53-2.51-5.53-5.6l.08-148.19c0-3.09,2.48-5.59,5.53-5.59l98.69,.05c3.05,0,5.53,2.51,5.53,5.6l-.08,148.19c0,3.09-2.48,5.59-5.53,5.59Z"/><path class="cls-1" d="M161.73,44.3H58.9V177.42h102.84V44.3Z"/><path class="cls-6" d="M114.69,184.68c0,2.35-1.89,4.26-4.22,4.26-2.33,0-4.21-1.91-4.21-4.26,0-2.35,1.89-4.26,4.21-4.26,2.32,0,4.21,1.9,4.21,4.25h0Z"/><path class="cls-6" d="M126.53,37.88h-31.95c-.31,0-.55,.25-.55,.56v.64c0,.31,.25,.56,.55,.56h31.95c.31,0,.55-.25,.55-.56v-.64c0-.31-.25-.56-.55-.56Z"/><path class="cls-1" d="M126.33,113.34c0,.07-7.44,.12-16.62,.12s-16.62-.05-16.62-.12,7.44-.12,16.62-.12,16.62,.05,16.62,.12Z"/><path class="cls-1" d="M90.29,100.57c.07,0,.12,2.6,.12,5.79s-.05,5.79-.12,5.79-.12-2.6-.12-5.79,.05-5.79,.12-5.79Z"/><path class="cls-1" d="M130.61,94.84c-.13,0-.27,0-.4,0l-1.14,.03-4.2,.07-13.86,.14-13.87,.07h-5.34c-.13,0-.27,0-.4-.02l.4-.03,1.15-.03,4.2-.07,13.87-.14,13.87-.07h5.34c.13,0,.27,.02,.4,.05Z"/><path class="cls-1" d="M125.07,142.13c0,.06-5.95,.12-13.28,.12s-13.29-.05-13.29-.12,5.95-.12,13.29-.12,13.28,.06,13.28,.12Z"/><path class="cls-1" d="M123.38,124.46c0,.06-5.61,.12-12.52,.12s-12.52-.06-12.52-.12,5.6-.12,12.52-.12,12.52,.05,12.52,.12Z"/><path class="cls-1" d="M131.99,136.99s.23-.57,.46-1.52c.14-.56,.24-1.12,.28-1.69,.04-.7,.03-1.4-.06-2.09-.1-.69-.26-1.37-.49-2.03-.19-.54-.43-1.06-.71-1.56-.48-.85-.91-1.3-.86-1.33s.12,.1,.3,.3c.11,.12,.22,.25,.32,.39,.14,.18,.26,.36,.38,.56,.31,.49,.57,1.02,.77,1.57,.24,.67,.42,1.37,.52,2.08,.09,.71,.11,1.43,.05,2.15-.06,.58-.17,1.16-.34,1.72-.06,.22-.13,.43-.22,.64-.05,.16-.12,.31-.2,.46-.05,.13-.12,.26-.2,.38h0Z"/><path class="cls-1" d="M90.24,85.22c-.06,0-.12-3.56-.12-7.95s.05-7.95,.12-7.95,.12,3.56,.12,7.95-.05,7.95-.12,7.95Z"/><path class="cls-1" d="M131.76,85.92c0,.06-9.04,.12-20.18,.12s-20.19-.05-20.19-.12,9.04-.12,20.19-.12,20.18,.05,20.18,.12Z"/><path class="cls-7" d="M161.7,150.74H58.87v26.7h102.82v-26.7Z"/><path class="cls-10" d="M144.59,158.69h-.66c-3.52,0-6.38,2.89-6.38,6.45v.67c0,3.56,2.86,6.45,6.38,6.45h.66c3.52,0,6.38-2.89,6.38-6.45v-.67c0-3.56-2.85-6.45-6.38-6.45Z"/><path class="cls-10" d="M110.02,158.69h-.66c-3.52,0-6.38,2.89-6.38,6.45v.67c0,3.56,2.85,6.45,6.38,6.45h.66c3.52,0,6.38-2.89,6.38-6.45v-.67c0-3.56-2.85-6.45-6.38-6.45Z"/><path class="cls-2" d="M110.02,172.27c.56-.04,1.1-.14,1.65-.27,1.47-.42,2.74-1.35,3.58-2.64,.57-.88,.92-1.89,1.02-2.95,.12-1.2-.02-2.42-.41-3.56-.48-1.25-1.34-2.31-2.46-3.03-.58-.39-1.23-.66-1.9-.82-.7-.15-1.42-.21-2.14-.18-1.42,0-2.8,.49-3.91,1.38-1.03,.84-1.78,1.98-2.13,3.27-.16,.6-.24,1.22-.23,1.84-.02,.59,.02,1.18,.12,1.75,.21,1.04,.66,2,1.32,2.82,.97,1.19,2.33,1.99,3.83,2.25l.37,.06,.33,.02c.21,0,.38,0,.53,.03h.43s-.07,0-.11,0h-.32c-.18,0-.35,0-.53,0h-.33l-.38-.05c-.66-.09-1.29-.29-1.89-.6-.79-.4-1.49-.95-2.06-1.63-.68-.84-1.15-1.83-1.36-2.89-.1-.59-.15-1.19-.13-1.79,0-.64,.07-1.28,.23-1.9,.36-1.34,1.12-2.53,2.19-3.4,1.15-.93,2.58-1.43,4.06-1.44,.74-.03,1.48,.03,2.2,.19,.7,.17,1.37,.46,1.97,.86,1.15,.75,2.04,1.85,2.53,3.15,.86,2.49,.46,5.06-.67,6.69-.5,.74-1.14,1.36-1.88,1.84-.56,.36-1.17,.63-1.82,.79l-.37,.09-.33,.05c-.17,.03-.35,.05-.52,.05h-.45v.04s0,0,0,0Z"/><path class="cls-10" d="M75.61,158.69h-.66c-3.52,0-6.38,2.89-6.38,6.45v.67c0,3.56,2.85,6.45,6.38,6.45h.66c3.52,0,6.38-2.89,6.38-6.45v-.67c0-3.56-2.85-6.45-6.38-6.45Z"/><g class="cls-8"><path class="cls-17" d="M75.61,158.69h-.66c-3.52,0-6.38,2.89-6.38,6.45v.67c0,3.56,2.85,6.45,6.38,6.45h.66c3.52,0,6.38-2.89,6.38-6.45v-.67c0-3.56-2.85-6.45-6.38-6.45Z"/></g><path class="cls-10" d="M75.61,157.61h-.66c-3.52,0-6.38,2.89-6.38,6.45v.67c0,3.56,2.85,6.45,6.38,6.45h.66c3.52,0,6.38-2.89,6.38-6.45v-.67c0-3.56-2.85-6.45-6.38-6.45Z"/><g class="cls-8"><path class="cls-1" d="M75.28,158.42c-3.26,0-5.91,2.68-5.91,5.98h11.83c0-3.3-2.65-5.98-5.91-5.98Z"/></g><path class="cls-1" d="M76.28,170.16c-.16,.06-.32,.1-.49,.11-.45,.07-.91,.07-1.36,0-1.51-.23-2.88-1.06-3.79-2.3-.89-1.25-1.32-2.77-1.21-4.31,.03-.46,.11-.91,.25-1.35,.04-.16,.1-.32,.19-.46-.14,.6-.22,1.22-.26,1.84-.05,1.48,.38,2.94,1.24,4.14,.48,.65,1.09,1.19,1.79,1.59,.56,.32,1.18,.55,1.82,.68,.61,.09,1.23,.1,1.84,.06h0Z"/><path class="cls-1" d="M78.57,168.78s.42-.37,.95-1.06c1.42-1.84,1.7-4.33,.72-6.44-.37-.8-.73-1.22-.7-1.25,.03-.03,.11,.09,.27,.28,.22,.28,.41,.58,.57,.9,1.11,2.16,.81,4.79-.75,6.64-.22,.28-.48,.53-.75,.75-.1,.08-.21,.14-.32,.19Z"/><path class="cls-1" d="M73.27,158.83c0,.06-.29,.17-.64,.33-.35,.16-.62,.32-.66,.27-.04-.06,.19-.31,.56-.48,.38-.18,.73-.17,.74-.11h0Z"/><path class="cls-16" d="M91.54,177.41c-.07,0-.12-5.98-.12-13.35s.05-13.35,.12-13.35,.12,5.98,.12,13.35-.05,13.35-.12,13.35Z"/><path class="cls-16" d="M127.84,177.41c-.06,0-.12-5.98-.12-13.35s.05-13.35,.12-13.35,.12,5.98,.12,13.35-.06,13.35-.12,13.35Z"/><path class="cls-16" d="M159.06,59.26c0,.07-22,.12-49.12,.12s-49.14-.05-49.14-.12,22-.12,49.14-.12,49.12,.05,49.12,.12Z"/><path class="cls-7" d="M203.09,185.06h-57.82v31.8h57.82v-31.8Z"/><path class="cls-16" d="M203.09,185.06h-57.82v5.21h57.82v-5.21Z"/><path class="cls-7" d="M148.73,187.78c0,.36-.28,.65-.64,.66-.36,0-.65-.29-.65-.65,0-.36,.28-.66,.64-.66h0c.36,0,.64,.29,.65,.65Z"/><path class="cls-7" d="M151.19,187.78c0,.36-.29,.65-.64,.65s-.64-.29-.64-.65,.29-.65,.64-.65,.64,.29,.64,.65Z"/><path class="cls-7" d="M153.65,187.78c0,.36-.29,.65-.64,.65s-.64-.29-.64-.65,.29-.65,.64-.65,.64,.29,.64,.65Z"/><path class="cls-10" d="M164.55,197.19h-13.48v13.64h13.48v-13.64Z"/><path class="cls-10" d="M180.92,197.19h-13.48v13.64h13.48v-13.64Z"/><path class="cls-6" d="M197.29,197.19h-13.47v13.64h13.47v-13.64Z"/><g class="cls-4"><path class="cls-17" d="M180.92,197.19h-13.48v13.64h13.48v-13.64Z"/></g><path class="cls-2" d="M203.09,216.86v-2.24c0-1.46,0-3.6-.02-6.35,0-5.5-.03-13.44-.04-23.21l.09,.09-57.82,.03,.12-.12v31.8l-.11-.11,41.57,.06,11.96,.03h.02l-11.93,.03-41.64,.06h-.1v-32.03h.12l57.82,.03h.09v.09c0,9.79-.04,17.75-.05,23.26,0,2.76,0,4.88-.02,6.34v1.64c0,.38-.05,.61-.05,.61h0Z"/><path class="cls-15" d="M19.87,76.28c7,0,12.68-5.74,12.68-12.83s-5.68-12.83-12.68-12.83-12.68,5.74-12.68,12.83,5.68,12.83,12.68,12.83Z"/><path class="cls-1" d="M19.87,76.32c7.02,0,12.72-5.76,12.72-12.87s-5.69-12.87-12.72-12.87-12.72,5.76-12.72,12.87,5.69,12.87,12.72,12.87Z"/><path class="cls-2" d="M32.98,69.87s-.13,.04-.35,.16c-.3,.18-.53,.44-.68,.75-.1,.21-.16,.45-.16,.69,0,.27,.08,.54,.23,.76,.43,.73,1.37,.96,2.08,.52,.38-.23,.64-.61,.71-1.05,.06-.27,.04-.54-.05-.8-.08-.22-.22-.42-.39-.59-.25-.25-.57-.41-.91-.46-.24-.04-.38,0-.38-.02,.03,0,.07,0,.1,0h.12c.05,0,.11,0,.16,0,.36,.05,.69,.21,.95,.46,.18,.17,.33,.38,.42,.61,.1,.27,.13,.57,.07,.86-.06,.31-.21,.6-.43,.84-.46,.54-1.24,.69-1.86,.35-.29-.14-.53-.35-.7-.63-.16-.25-.24-.53-.24-.82,.02-.62,.36-1.19,.91-1.48,.05-.03,.09-.06,.15-.09,.04-.02,.08-.03,.11-.04l.12-.04h0Z"/><path class="cls-2" d="M32.6,62.84v-.21c0-.13-.04-.34-.07-.61,0-.13-.03-.28-.05-.46-.02-.18-.06-.34-.1-.53-.04-.19-.08-.4-.13-.63-.02-.11-.05-.23-.09-.34-.03-.11-.07-.23-.11-.36-.35-1.19-.88-2.33-1.56-3.36-.9-1.38-2.05-2.56-3.39-3.5l-.59-.4c-.2-.12-.41-.23-.61-.34l-.31-.17c-.1-.06-.21-.12-.32-.16l-.67-.29-.35-.15-.36-.11-.72-.23c-.25-.07-.5-.11-.76-.17l-.38-.08-.19-.02h-.2c-.54-.07-1.08-.11-1.62-.11h-.83l-.84,.08c-.14,0-.28,0-.42,.05l-.42,.09c-.28,.06-.56,.11-.85,.18-.56,.15-1.11,.34-1.65,.57l-.41,.18-.21,.09-.2,.11-.81,.44c-.26,.16-.51,.34-.77,.52-.12,.09-.26,.17-.38,.27l-.36,.3c-.5,.4-.97,.83-1.41,1.28l-.61,.75-.16,.19c-.05,.06-.09,.13-.14,.2l-.27,.41-.28,.41-.24,.43-.23,.46-.12,.22c-.04,.07-.07,.15-.1,.23-.13,.31-.26,.62-.39,.92-.13,.3-.2,.64-.3,.97-.75,2.67-.62,5.51,.37,8.1,.13,.31,.26,.62,.39,.92l.45,.88,.12,.22,.14,.21,.27,.41,.28,.41,.31,.38,.31,.38,.16,.18,.17,.18,.68,.69c.48,.43,.99,.82,1.52,1.18l.39,.27c.13,.09,.27,.15,.41,.23,.27,.15,.54,.31,.81,.46l.84,.36,.21,.09,.21,.07,.43,.13c.56,.18,1.14,.32,1.72,.42,.29,.05,.57,.07,.86,.1l.42,.05h1.27c.28,0,.55-.05,.83-.07,.54-.05,1.07-.14,1.6-.27l.19-.04,.19-.05,.38-.12c.25-.08,.5-.14,.74-.23l.7-.3,.35-.15,.33-.18,.65-.35c.11-.06,.21-.12,.3-.19l.3-.2c.2-.14,.4-.26,.58-.4l.53-.44c1.25-1.06,2.29-2.35,3.06-3.81,.08-.16,.17-.31,.25-.46s.14-.32,.2-.46l.2-.46c.03-.08,.06-.15,.09-.23l.07-.23c.09-.29,.18-.58,.26-.85,.08-.27,.12-.54,.18-.79l.08-.36c.03-.11,.05-.23,.06-.35,0-.23,.05-.46,.07-.63s.05-.38,.05-.54c0-.16,0-.32,0-.46v.46c0,.17-.03,.35-.05,.55-.02,.2-.04,.41-.06,.64,0,.12-.03,.23-.05,.34,0,.12-.05,.24-.07,.37-.05,.25-.09,.52-.17,.79-.08,.27-.17,.56-.26,.86l-.07,.23c-.03,.07-.06,.15-.09,.22l-.19,.46c-.07,.16-.13,.32-.2,.46l-.25,.46c-.77,1.47-1.81,2.77-3.06,3.83l-.53,.46c-.19,.14-.39,.27-.58,.41l-.3,.2c-.1,.07-.2,.14-.3,.19l-.65,.36-.33,.18-.35,.15-.71,.3c-.24,.1-.49,.16-.74,.24l-.34,.11-.19,.06-.2,.04c-.53,.13-1.07,.22-1.61,.27-.28,0-.55,.06-.83,.07h-1.29l-.43-.05c-.29-.03-.58-.05-.86-.1-.59-.1-1.17-.25-1.73-.43l-.45-.14c-.07,0-.15-.04-.21-.07l-.21-.09-.85-.36c-.28-.13-.55-.29-.82-.46-.13-.08-.28-.15-.41-.23l-.39-.27c-.53-.36-1.03-.75-1.51-1.18l-.68-.69-.17-.17-.16-.19-.31-.38-.31-.39-.28-.41-.28-.41-.14-.21-.12-.22-.45-.89-.39-.92c-1-2.61-1.13-5.48-.37-8.17,.1-.33,.2-.65,.3-.98l.4-.92c.03-.08,.06-.16,.1-.23l.12-.22,.24-.46,.24-.46,.27-.41,.28-.41,.14-.21,.16-.19,.62-.75c.44-.46,.91-.9,1.4-1.3l.36-.3c.12-.1,.25-.18,.38-.27,.26-.18,.51-.36,.78-.52l.81-.46,.2-.11,.21-.09,.42-.18c.55-.23,1.11-.43,1.68-.59,.28-.07,.57-.12,.86-.18l.42-.09c.14,0,.29-.03,.43-.05l.85-.08h.83c.55,0,1.09,.04,1.63,.12l.19,.02,.2,.04,.39,.08c.25,.06,.51,.1,.76,.17l.73,.23,.36,.11,.35,.15,.68,.29c.11,.04,.22,.1,.32,.16l.32,.18c.2,.12,.41,.23,.61,.35,.2,.12,.38,.26,.57,.39,1.35,.94,2.5,2.14,3.4,3.53,.68,1.04,1.2,2.18,1.55,3.38,.04,.13,.07,.25,.11,.36,.04,.11,.07,.23,.09,.34,.04,.23,.08,.43,.12,.63,.04,.19,.08,.37,.1,.54l.04,.46c0,.27,.04,.46,.05,.61,0,.15,.02,.22,.02,.22h0Z"/><path class="cls-10" d="M24.53,62.27c0-2.6-2.09-4.71-4.65-4.71-2.57,0-4.65,2.11-4.65,4.71,0,1.82,1.04,3.48,2.67,4.26v1.19h4.09s0-.67,.03-1.26c1.55-.81,2.51-2.43,2.51-4.19Z"/><path class="cls-2" d="M20.5,67.7v-.23c0-.15,.04-.37,.09-.65s.09-.63,.18-1.02c.1-.45,.24-.89,.42-1.31,.11-.24,.24-.48,.38-.7,.08-.12,.19-.22,.32-.29,.14-.08,.31-.08,.45,0,.07,.04,.12,.11,.15,.18,.03,.08,.03,.16,0,.24-.08,.14-.21,.26-.36,.31-.67,.22-1.39-.14-1.61-.82,0-.01,0-.02-.01-.03-.06-.18-.07-.36-.03-.54,.05-.2,.22-.33,.42-.33,.1,.01,.19,.07,.24,.17,.05,.09,.06,.19,.04,.29-.06,.18-.17,.35-.32,.46-.3,.25-.7,.37-1.09,.32-.39-.06-.73-.32-.91-.68-.09-.18-.1-.38-.03-.57,.04-.09,.11-.17,.2-.21,.09-.03,.2-.02,.29,.03,.09,.05,.15,.12,.2,.21,.04,.09,.07,.18,.07,.27,.01,.18-.01,.37-.07,.54-.11,.34-.35,.62-.66,.79-.3,.16-.64,.21-.96,.13-.16-.03-.31-.1-.42-.22-.11-.13-.12-.32-.02-.46,.05-.06,.13-.1,.21-.11,.08,0,.15,.01,.22,.05,.13,.07,.23,.19,.29,.32,.12,.26,.21,.51,.3,.74,.37,.95,.64,1.73,.81,2.27,.09,.27,.16,.46,.2,.63,.02,.07,.04,.12,.05,.17v0l-.05-.16-.21-.62c-.18-.54-.45-1.32-.83-2.27-.09-.23-.19-.46-.31-.73-.05-.13-.14-.23-.26-.3-.12-.07-.27-.05-.37,.05-.08,.12-.07,.28,.03,.39,.11,.11,.24,.18,.39,.21,.31,.06,.63,.02,.91-.13,.3-.17,.52-.44,.63-.76,.06-.17,.08-.34,.07-.52,0-.18-.09-.34-.24-.43-.08-.04-.16-.04-.24,0-.08,.03-.14,.1-.17,.18-.06,.17-.05,.36,.03,.52,.16,.34,.48,.58,.86,.64,.37,.05,.75-.06,1.04-.3,.15-.11,.26-.28,.3-.46,.02-.08,0-.17-.03-.25-.03-.08-.11-.13-.19-.14-.08,0-.17,.02-.23,.07-.06,.06-.11,.13-.13,.21-.04,.17-.03,.35,.03,.51,.19,.66,.87,1.03,1.52,.83,0,0,.02,0,.03,0,.14-.05,.26-.15,.34-.28,.06-.13,.02-.29-.11-.37-.13-.06-.27-.06-.4,0-.12,.07-.22,.16-.3,.28-.15,.22-.28,.45-.38,.69-.18,.42-.33,.85-.43,1.3-.09,.39-.15,.74-.2,1.02l-.09,.65v.17c-.02,.05-.02,.08-.02,.08h0Z"/><path class="cls-2" d="M21.66,68.49h-3.5c-.15,0-.26-.12-.26-.27s.12-.27,.26-.27h3.5c.15,0,.26,.12,.26,.27s-.12,.27-.26,.27Z"/><path class="cls-2" d="M21.66,68.72h-3.5c-.15,0-.26,.12-.26,.27s.12,.27,.26,.27h.38l.51,.98c.06,.11,.17,.18,.3,.18h1.25c.13,0,.24-.07,.3-.18l.48-.98h.26c.15,0,.26-.12,.26-.27s-.12-.27-.26-.27h.02Z"/><g class="cls-13"><path class="cls-1" d="M16.89,59.27c.27-.26,.57-.47,.91-.63,.23-.11,.47-.18,.71-.21,.18,0,.28,0,.29,.04,0,.04-.33,.21-.81,.53-1.27,.81-1.95,2.3-1.74,3.8,.06,.57,.2,.92,.12,.97-.08,.05-.11-.05-.21-.2-.14-.21-.24-.44-.3-.69-.11-.37-.15-.75-.13-1.13,.02-.48,.13-.95,.33-1.38"/></g><g class="cls-13"><path class="cls-1" d="M19.94,58.67c-.3,0-.55-.08-.59-.24,0-.08,.04-.16,.15-.23,.27-.15,.6-.15,.88,0,.1,.06,.16,.15,.15,.23"/></g><path class="cls-6" d="M20.84,70.31s-.09-.03-.24-.07c-.19-.06-.39-.08-.59-.08-.2,0-.4,.05-.59,.11-.08,.03-.16,.06-.24,.09,.07-.05,.14-.09,.22-.12,.19-.08,.39-.12,.6-.13,.21,0,.41,.02,.61,.09,.08,.02,.16,.06,.23,.11h0Z"/><path class="cls-6" d="M21.41,69.27s-.63,.03-1.41,.03-1.41,0-1.41-.03,.63-.03,1.41-.03,1.41,.01,1.41,.03Z"/><path class="cls-6" d="M21.19,69.68c-.11,.02-.23,.04-.35,.04-.21,0-.51,.02-.84,.03-.33,0-.62,0-.83,0-.12,0-.23,0-.35-.03,.11,0,.23,0,.35,0h1.67c.11-.02,.23-.03,.35-.04h0Z"/><path class="cls-2" d="M242.96,128.94c-.09,.05-.18,.09-.28,.12-.28,.08-.57,.09-.86,.04-.45-.08-.88-.26-1.26-.52-.45-.3-.91-.69-1.46-1.05-.61-.38-1.3-.6-2.02-.64-.82-.04-1.65,.08-2.43,.33-1.69,.48-3.32,1.57-5.28,2.2-.95,.33-1.96,.44-2.96,.3-.91-.18-1.79-.52-2.57-1.02-.76-.45-1.44-.94-2.1-1.36-.6-.4-1.25-.72-1.93-.97-.56-.2-1.14-.32-1.73-.36-.45-.02-.9,.04-1.32,.17-.36,.13-.7,.31-1.01,.54,0,0,.01-.02,.05-.05l.17-.14c.23-.17,.49-.3,.76-.4,.43-.15,.89-.22,1.35-.2,.6,.02,1.2,.14,1.78,.34,.69,.24,1.35,.57,1.96,.97,.67,.41,1.35,.9,2.11,1.34,.77,.49,1.63,.83,2.53,1,.97,.13,1.96,.02,2.88-.3,1.92-.61,3.55-1.71,5.28-2.19,.8-.26,1.64-.37,2.48-.32,.74,.05,1.45,.28,2.07,.68,.56,.37,1.01,.78,1.45,1.07,.37,.26,.78,.44,1.22,.53,.28,.06,.56,.06,.84,0,.19-.06,.28-.1,.28-.1h0Z"/><path class="cls-2" d="M49.51,128.86c0-.07,0-.15,0-.22,.03-.21,.1-.42,.2-.6,.42-.68,1.13-1.13,1.92-1.23,.54-.06,1.08-.01,1.6,.16,.59,.19,1.15,.43,1.69,.73,.59,.33,1.19,.62,1.81,.87,.66,.27,1.37,.38,2.07,.3,.7-.14,1.34-.49,1.86-.99,.49-.47,1.01-.91,1.55-1.32,.97-.65,2.14-.94,3.3-.83,.44,.04,.88,.14,1.29,.3,.31,.11,.61,.26,.89,.43,.24,.15,.47,.32,.67,.53,0,.02-.23-.19-.7-.47-.28-.16-.58-.3-.89-.4-.41-.14-.84-.23-1.27-.26-1.13-.1-2.26,.2-3.21,.84-.52,.37-1,.85-1.53,1.32-.28,.24-.57,.46-.89,.64-.33,.19-.69,.32-1.06,.38-.73,.09-1.48-.01-2.16-.3-.63-.26-1.24-.55-1.83-.88-.53-.3-1.09-.54-1.66-.73-.5-.17-1.02-.23-1.55-.17-.76,.08-1.45,.5-1.88,1.15-.13,.24-.2,.5-.23,.77h0Z"/><path class="cls-2" d="M225.08,133.73s-.13,.05-.4,.15l-.5,.18-.71,.16c-.14,.04-.29,.06-.43,.07l-.48,.05c-.18,.02-.36,.03-.54,.02h-.59c-.93-.06-1.85-.21-2.75-.44-1.12-.31-2.23-.68-3.31-1.11-1.19-.46-2.47-.99-3.88-1.5-1.49-.55-3.04-.93-4.61-1.16-1.76-.24-3.55-.32-5.33-.24-3.74,.16-7.78,.99-12.07,1.98-2.15,.49-4.37,1.01-6.68,1.45-2.37,.48-4.77,.79-7.19,.93-2.54,.1-5.08-.03-7.6-.39-2.57-.34-5.17-.87-7.81-1.44-2.64-.57-5.3-1.18-8.05-1.66-2.77-.53-5.58-.83-8.4-.9-5.72-.09-11.25,.8-16.58,1.56-2.67,.39-5.3,.75-7.88,.98-2.53,.24-5.07,.33-7.61,.27-4.96-.13-9.64-.74-14.01-1.29-4.37-.55-8.45-1.08-12.19-1.28-3.36-.22-6.74-.15-10.09,.19-.74,.07-1.45,.18-2.14,.28-.68,.1-1.34,.24-1.96,.35-.62,.11-1.22,.27-1.78,.42-.56,.15-1.1,.3-1.6,.45-1.54,.48-3.04,1.06-4.5,1.75l-1.12,.58-.38,.19s.12-.07,.38-.21l1.11-.6c1.45-.7,2.95-1.3,4.49-1.78,.5-.16,1.04-.3,1.6-.46,.56-.16,1.16-.27,1.78-.42,.62-.15,1.28-.25,1.96-.36,.68-.11,1.39-.22,2.14-.3,3.36-.35,6.74-.43,10.11-.22,3.75,.19,7.82,.71,12.19,1.26s9.05,1.15,14,1.28c2.53,.06,5.07-.03,7.59-.27,2.58-.24,5.21-.6,7.87-.99,5.33-.76,10.88-1.66,16.62-1.57,2.83,.07,5.64,.37,8.42,.9,2.75,.49,5.43,1.1,8.06,1.67,2.63,.57,5.23,1.1,7.8,1.44,2.51,.36,5.04,.49,7.57,.39,2.41-.14,4.8-.44,7.17-.92,2.3-.44,4.53-.96,6.68-1.44,4.29-.98,8.34-1.8,12.09-1.96,1.78-.08,3.57,0,5.33,.25,1.58,.23,3.13,.62,4.62,1.18,1.4,.51,2.68,1.05,3.87,1.5,1.08,.43,2.18,.81,3.3,1.12,.9,.24,1.82,.39,2.74,.46h.59c.18,0,.36,0,.53-.01l.48-.05c.15,0,.29-.03,.43-.06l.71-.15,.5-.17c.27-.05,.41-.1,.41-.1h0Z"/><path class="cls-2" d="M213.04,156.34c-.24-.26-.51-.49-.79-.7-.81-.53-1.75-.81-2.71-.8-.66-.01-1.32,.05-1.97,.19-.74,.17-1.47,.4-2.17,.69-.75,.3-1.53,.63-2.37,.93-.86,.33-1.75,.55-2.66,.65-.91,.08-1.84,0-2.73-.23-.86-.2-1.66-.48-2.43-.72-.72-.24-1.46-.43-2.21-.57-.65-.11-1.32-.13-1.98-.07-.54,.05-1.07,.19-1.58,.4-.38,.16-.73,.38-1.04,.66-.26,.24-.49,.51-.68,.81,0,0,0-.02,.03-.06l.11-.18c.06-.1,.12-.19,.2-.27,.09-.12,.19-.23,.3-.34,.31-.29,.66-.52,1.05-.69,.51-.22,1.05-.37,1.6-.43,.67-.07,1.34-.06,2.01,.05,.76,.13,1.5,.32,2.23,.57,.77,.24,1.58,.51,2.43,.71,.87,.22,1.77,.3,2.67,.22,.89-.1,1.77-.32,2.62-.64,.82-.3,1.61-.63,2.37-.9,.71-.29,1.45-.52,2.2-.68,.66-.14,1.33-.2,2-.17,.98,0,1.93,.31,2.74,.87,.13,.09,.24,.19,.35,.3,.09,.07,.17,.15,.23,.24l.13,.16c.07,.01,.08,.03,.08,.03h0Z"/><path class="cls-2" d="M110.89,157.74c-.24-.26-.5-.49-.79-.7-.81-.53-1.75-.81-2.71-.8-.66-.01-1.32,.05-1.97,.19-.74,.16-1.47,.39-2.17,.69-.75,.3-1.53,.63-2.37,.92-.86,.33-1.75,.55-2.67,.65-.91,.08-1.83,0-2.72-.22-.86-.21-1.66-.48-2.43-.72-.72-.24-1.46-.43-2.21-.58-.65-.1-1.32-.13-1.98-.07-.54,.05-1.07,.19-1.58,.4-.38,.16-.73,.38-1.04,.66-.26,.24-.49,.51-.69,.81,.01-.02,.02-.04,.03-.06l.1-.18c.06-.1,.12-.19,.2-.28,.09-.12,.19-.23,.3-.34,.31-.29,.66-.52,1.05-.69,.51-.22,1.05-.36,1.6-.43,.67-.07,1.34-.06,2.01,.04,.76,.14,1.5,.33,2.23,.57,.77,.24,1.58,.51,2.43,.71,.87,.22,1.77,.3,2.67,.22,.9-.1,1.77-.32,2.62-.64,.83-.3,1.61-.63,2.37-.91,.71-.29,1.45-.52,2.2-.68,.66-.14,1.33-.19,2-.17,.98,0,1.94,.31,2.75,.86,.13,.09,.24,.19,.35,.3,.09,.07,.16,.15,.23,.24l.13,.16s.04,.03,.06,.05h0Z"/><path class="cls-2" d="M211.54,144.64l-.36,.13-1.05,.37c-.93,.32-2.3,.8-4.08,1.36-1.78,.56-3.96,1.22-6.54,1.78-2.93,.67-5.92,.99-8.91,.95-1.74-.03-3.48-.24-5.18-.63-1.84-.43-3.64-1.04-5.37-1.8-1.8-.77-3.62-1.66-5.52-2.53-1.93-.93-3.93-1.7-5.98-2.31-.52-.17-1.07-.27-1.6-.4-.27-.06-.55-.1-.82-.14-.27-.06-.55-.1-.83-.12-.56-.04-1.12-.11-1.69-.14h-1.71c-2.34,.14-4.66,.52-6.92,1.16-4.62,1.22-9.24,3.12-14.24,4.11-.62,.13-1.25,.21-1.88,.31-.62,.1-1.26,.13-1.88,.19-.62,.06-1.26,.03-1.88,.04-.62,.02-1.24-.08-1.86-.11-2.42-.28-4.81-.81-7.13-1.58-4.57-1.45-8.83-3.3-13.11-4.31-.54-.12-1.07-.25-1.6-.35l-1.59-.27c-1.04-.14-2.09-.21-3.15-.21-2.01,.07-4.01,.38-5.95,.93-1.89,.51-3.67,1.12-5.39,1.73l-4.92,1.76c-2.81,1.03-5.68,1.89-8.59,2.59-1.28,.3-2.5,.52-3.62,.71-.56,.07-1.1,.16-1.61,.22-.51,.06-1,.12-1.47,.15-1.42,.12-2.85,.17-4.28,.14l-1.11-.04-.38-.02h.38l1.11,.03c.98,0,2.42,0,4.27-.17,.47-.04,.95-.1,1.46-.15,.51-.05,1.05-.15,1.61-.22,1.11-.19,2.33-.41,3.61-.72,2.91-.71,5.77-1.58,8.59-2.61l4.91-1.77c1.71-.6,3.5-1.23,5.39-1.74,1.95-.56,3.96-.88,5.98-.95,1.06,0,2.12,.07,3.17,.21l1.6,.26c.53,.1,1.06,.23,1.6,.35,4.29,1.03,8.57,2.86,13.12,4.31,2.31,.76,4.69,1.29,7.11,1.57,.61,.04,1.23,.1,1.85,.11,.62,.02,1.24,0,1.86-.04,.62-.04,1.25-.11,1.87-.19,.62-.09,1.25-.18,1.87-.3,4.97-.99,9.59-2.89,14.21-4.1,2.27-.64,4.6-1.02,6.95-1.16h1.72c.57,.02,1.13,.09,1.7,.14,.28,.03,.56,.07,.84,.12,.28,.05,.55,.09,.83,.15,.54,.13,1.09,.24,1.62,.4,2.06,.61,4.07,1.38,6.01,2.31,1.89,.87,3.71,1.76,5.51,2.53,1.73,.76,3.52,1.36,5.35,1.8,1.69,.39,3.42,.6,5.16,.64,2.99,.05,5.97-.26,8.88-.92,2.58-.55,4.76-1.2,6.54-1.75,1.78-.55,3.14-1.02,4.07-1.33l1.06-.36,.36-.1h0Z"/><path class="cls-10" d="M92.25,111.95v-8.19h18.61v-17.52s-10.52-6.72-28.16-1.97l3.55-9.99,74.27-2.62,36.39,24.99-26.68,21.02-77.98-.66v-5.08h0Z"/><path class="cls-2" d="M125.83,95.28c.65,0,67.12-1.34,67.12-1.34l-16.05-11.02h-17.02s-18.74,.19-24.89,5.07c-6.9,5.48-9.16,7.29-9.16,7.29Z"/><path class="cls-10" d="M121.45,73.05l-32.04-11.45-12.21,1.39,19.54,10.93,24.71-.87Z"/><path class="cls-10" d="M96.75,73.92l24.77-1-27.81-.7,3.04,1.7Z"/><g class="cls-13"><path class="cls-17" d="M96.75,73.92l24.77-1-27.81-.7,3.04,1.7Z"/></g><path class="cls-10" d="M110.86,103.76h4.52v-14.97l-4.52-2.55v17.52Z"/><g class="cls-13"><path class="cls-17" d="M110.86,103.76h4.52v-14.97l-4.52-2.55v17.52Z"/></g><path class="cls-10" d="M82.7,84.28l1.29-.33,4.05-9.72-1.79,.06"/><g class="cls-13"><path class="cls-17" d="M82.7,84.28l1.29-.33,4.05-9.72-1.79,.06"/></g><path class="cls-15" d="M162.93,82.92l-8.18,11.79,3.55-.07,8.73-11.72h-4.1Z"/><path class="cls-15" d="M168.58,82.92l-8.73,11.68,1.03-.02,8.63-11.66h-.93Z"/><path class="cls-6" d="M120.11,110.18c-.25,0-.45-.2-.44-.45,0-.07,.01-.13,.04-.19l5.63-11.93c.05-.1,.14-.19,.24-.23,.12-.04,11.84-4.54,31.7-8.14,18.31-3.32,47.48-6.55,82.46-3.06,.24,.03,.42,.25,.4,.49,0,.06-.02,.11-.05,.17l-5.56,10.49c-.12,.22-.38,.3-.6,.18-.22-.12-.3-.39-.18-.61l5.25-9.89c-34.59-3.39-63.42-.18-81.54,3.11-18.51,3.36-29.91,7.48-31.39,8.04l-5.55,11.76c-.07,.16-.23,.26-.4,.26h0Z"/><path class="cls-6" d="M229.73,86.37l-5.64,12.66,.27,.12,5.64-12.66-.27-.12Z"/><path class="cls-6" d="M217.27,85.09l-5.62,12.7,.27,.12,5.62-12.7-.27-.12Z"/><path class="cls-6" d="M205.71,85.22l-5.62,12.7,.27,.12,5.62-12.7-.27-.12Z"/><path class="cls-6" d="M182.1,86.83l-5.62,12.7,.27,.12,5.62-12.7-.27-.12Z"/><path class="cls-6" d="M194.21,85.26l-5.62,12.7,.27,.12,5.62-12.7-.27-.12Z"/><path class="cls-6" d="M170.48,87.94l-5.62,12.7,.27,.12,5.62-12.7-.27-.12Z"/><path class="cls-6" d="M158.46,89.69l-5.62,12.7,.27,.12,5.62-12.7-.27-.12Z"/><path class="cls-6" d="M146.3,92.57l-5.61,12.71,.27,.12,5.61-12.71-.27-.12Z"/><path class="cls-10" d="M92.44,125.96c8.96,.77,17.87,2.62,26.86,2.36,10.3-.3,20.47-3.39,30.76-2.74,9.77,.62,19.2,4.59,28.98,4.35,12-.3,24.04-6.91,35.54-3.36,1.15,.36,2.31,.81,3.47,1.27l19.12-31.23s-94.06-4.23-122.64,16.44h-47.62l3.55,15c6.89-2.56,14.6-2.74,21.99-2.1h0Z"/><g class="cls-12"><path class="cls-17" d="M92.44,125.96c8.96,.77,17.87,2.62,26.86,2.36,10.3-.3,20.47-3.39,30.76-2.74,9.77,.62,19.2,4.59,28.98,4.35,12-.3,24.04-6.91,35.54-3.36,1.15,.36,2.31,.81,3.47,1.27l19.12-31.23s-94.06-4.23-122.64,16.44h-47.62l3.55,15c6.89-2.56,14.6-2.74,21.99-2.1h0Z"/></g><path class="cls-10" d="M179.44,129.92c12-.3,24.04-6.91,35.54-3.36,1.04,.32,2.1,.73,3.16,1.15l9.5-15.56s-32.28,11.67-62.98,15.85c4.9,1.07,9.8,2.04,14.79,1.91Z"/><path class="cls-10" d="M73.91,127.07c-2.28-.17-3.61-.25-3.75-.21l.31,1.32c1.13-.43,2.28-.8,3.44-1.11h0Z"/><g class="cls-8"><path class="cls-17" d="M179.44,129.92c12-.3,24.04-6.91,35.54-3.36,1.04,.32,2.1,.73,3.16,1.15l9.5-15.56s-32.28,11.67-62.98,15.85c4.9,1.07,9.8,2.04,14.79,1.91Z"/><path class="cls-17" d="M73.91,127.07c-2.28-.17-3.61-.25-3.75-.21l.31,1.32c1.13-.43,2.28-.8,3.44-1.11h0Z"/></g><path class="cls-2" d="M162.54,113.68c3.04,0,5.5-2.51,5.5-5.62s-2.46-5.62-5.5-5.62-5.5,2.51-5.5,5.62,2.46,5.62,5.5,5.62Z"/><path class="cls-6" d="M165.62,103.23l-7.36,9.31,1.03,.88,7.41-9.37-1.08-.83Z"/><path class="cls-6" d="M160.4,114.01l6.91-9.26,.29,.42-6.83,9.05-.37-.2Z"/><path class="cls-2" d="M189.36,113.68c3.04,0,5.51-2.51,5.51-5.62s-2.47-5.62-5.51-5.62-5.5,2.51-5.5,5.62,2.46,5.62,5.5,5.62Z"/><path class="cls-6" d="M192.43,103.23l-7.36,9.31,1.03,.88,7.41-9.37-1.08-.83Z"/><path class="cls-6" d="M187.21,114.01l6.91-9.26,.29,.42-6.83,9.05-.37-.2Z"/><path class="cls-15" d="M165.62,103.23l-7.36,9.31,1.03,.88,7.41-9.37-1.08-.83Z"/><path class="cls-15" d="M160.4,114.01l6.91-9.26,.29,.42-6.83,9.05-.37-.2Z"/><path class="cls-2" d="M214.1,113.68c3.04,0,5.5-2.51,5.5-5.62s-2.46-5.62-5.5-5.62-5.5,2.51-5.5,5.62,2.46,5.62,5.5,5.62Z"/><path class="cls-6" d="M217.18,103.23l-7.35,9.31,1.02,.88,7.41-9.37-1.08-.83Z"/><path class="cls-6" d="M211.96,114.01l6.91-9.26,.29,.42-6.83,9.05-.37-.2Z"/><path class="cls-15" d="M217.18,103.23l-7.35,9.31,1.02,.88,7.41-9.37-1.08-.83Z"/><path class="cls-15" d="M211.96,114.01l6.91-9.26,.29,.42-6.83,9.05-.37-.2Z"/><path class="cls-15" d="M192.43,103.23l-7.36,9.31,1.03,.88,7.41-9.37-1.08-.83Z"/><path class="cls-15" d="M187.21,114.01l6.91-9.26,.29,.42-6.83,9.05-.37-.2Z"/><path class="cls-10" d="M110.88,122.41c0,.86-6.69,1.56-14.93,1.56s-14.93-.7-14.93-1.56,6.69-1.56,14.93-1.56,14.93,.7,14.93,1.56Z"/><g class="cls-13"><path class="cls-17" d="M110.88,122.41c0,.86-6.69,1.56-14.93,1.56s-14.93-.7-14.93-1.56,6.69-1.56,14.93-1.56,14.93,.7,14.93,1.56Z"/></g><path class="cls-10" d="M220.47,58.5c1.17-4.98-1.87-9.99-6.8-11.17-4.93-1.18-9.87,1.9-11.04,6.88-1.17,4.98,1.87,9.99,6.8,11.17,4.93,1.18,9.87-1.9,11.04-6.88Z"/><path class="cls-10" d="M212.2,78.59c-.17,0-.3-2.57-.3-5.75s.13-5.75,.3-5.75,.3,2.57,.3,5.75-.14,5.75-.3,5.75Z"/><path class="cls-10" d="M233.84,54.73c0,.17-2.32,.3-5.21,.3s-5.21-.13-5.21-.3,2.32-.3,5.21-.3,5.21,.14,5.21,.3Z"/><path class="cls-10" d="M210.8,35.67c.17,0,.3,2.16,.3,4.81s-.13,4.81-.3,4.81-.3-2.15-.3-4.81,.13-4.81,.3-4.81Z"/><path class="cls-10" d="M198.65,56.94c0,.17-2.26,.3-5.06,.3s-5.07-.11-5.07-.3,2.27-.3,5.06-.3,5.07,.13,5.07,.3Z"/><path class="cls-10" d="M203.47,64.66c.12,.12-1.01,1.45-2.51,2.97-1.5,1.52-2.82,2.66-2.94,2.54-.12-.12,1.01-1.45,2.51-2.97,1.51-1.52,2.82-2.66,2.94-2.54Z"/><path class="cls-10" d="M226.52,69.7c-.12,.12-1.47-1.05-3.02-2.62-1.55-1.57-2.71-2.93-2.59-3.05,.12-.12,1.47,1.05,3.02,2.62,1.55,1.57,2.71,2.93,2.59,3.05Z"/><path class="cls-10" d="M225.43,41.82c.12,.12-.9,1.34-2.27,2.74-1.37,1.39-2.59,2.43-2.71,2.3-.12-.12,.9-1.34,2.28-2.74,1.38-1.39,2.59-2.42,2.7-2.3Z"/><path class="cls-10" d="M203,48.43c-.12,.12-1.12-.7-2.24-1.83-1.12-1.13-1.93-2.14-1.81-2.26,.12-.12,1.12,.7,2.24,1.83,1.12,1.13,1.94,2.14,1.81,2.26Z"/><path class="cls-10" d="M65.88,215.48l-.39,9.21s9.1,3.49,9.19,5.2l-17.64-.13,.04-14.35,8.8,.07h0Z"/><path class="cls-16" d="M60.16,223.9c-.36,.11-.58,.46-.51,.83,.09,.36,.45,.59,.81,.51,.38-.11,.6-.49,.53-.88-.13-.38-.53-.58-.91-.46"/><path class="cls-2" d="M57.04,229.74v-1.44l17.07,.65s.79,.36,.69,.92l-17.76-.13Z"/><path class="cls-2" d="M65.65,224.74c0,.09-.45,.12-.87,.4-.41,.28-.66,.65-.74,.61-.08-.04,.05-.54,.58-.87,.52-.33,1.05-.22,1.03-.14Z"/><path class="cls-2" d="M67.5,225.53c.02,.08-.36,.23-.66,.6-.3,.37-.38,.76-.45,.75-.07,0-.14-.5,.24-.95,.38-.46,.87-.49,.87-.4Z"/><path class="cls-2" d="M68.54,227.8c-.08,0-.2-.42,.03-.92,.23-.5,.63-.67,.67-.6,.04,.07-.21,.33-.4,.72-.18,.4-.22,.79-.3,.79h0Z"/><path class="cls-2" d="M65.49,222.62c-.04,.08-.45-.05-.91,0-.45,.05-.87,.18-.91,.11-.04-.07,.32-.39,.91-.41,.59-.03,.96,.24,.91,.3h0Z"/><path class="cls-2" d="M65.84,220.64c-.3,.09-.61,.09-.91,0-.31-.06-.62-.16-.91-.29-.18-.08-.35-.17-.51-.28-.1-.05-.19-.13-.27-.21-.11-.13-.12-.32-.04-.46,.09-.12,.23-.19,.38-.2,.11,0,.22,.02,.33,.05,.19,.05,.38,.11,.55,.2,.3,.14,.57,.33,.81,.55,.41,.39,.55,.72,.52,.73-.03,.01-.24-.25-.66-.57-.24-.19-.51-.34-.79-.46-.17-.07-.34-.12-.51-.17-.19-.05-.35-.05-.4,.03-.05,.08,0,.04,0,.1,.06,.06,.12,.11,.2,.16,.16,.11,.31,.19,.45,.28,.28,.14,.56,.26,.86,.34,.3,.05,.59,.11,.87,.2h0Z"/><path class="cls-2" d="M65.72,220.76c-.17-.26-.25-.56-.23-.87,0-.33,.03-.67,.13-.99,.06-.19,.13-.37,.23-.55,.1-.24,.32-.42,.57-.46,.16,0,.31,.11,.37,.26,.05,.1,.08,.21,.09,.33,.03,.2,.03,.4,0,.61-.05,.33-.19,.65-.39,.92-.35,.46-.71,.56-.72,.53,0-.03,.27-.21,.54-.66,.15-.26,.25-.54,.29-.84,.02-.17,.02-.35,0-.52-.03-.19-.1-.35-.17-.33-.07,.02-.24,.14-.31,.29-.09,.16-.16,.32-.22,.49-.1,.29-.16,.59-.18,.9-.04,.57,.05,.88,0,.89h0Z"/><g class="cls-8"><path class="cls-17" d="M57.04,220.9l.02,2.04h8.5l.09-2.04h-8.61Z"/></g><path class="cls-10" d="M43.45,214.9l-.63,15.1-8.06-.18,.61-15.13,8.09,.21Z"/><path class="cls-2" d="M38.86,229.34c-.07,0,.05-3.31,.28-7.36,.22-4.05,.45-7.36,.52-7.36s-.06,3.31-.28,7.36c-.22,4.06-.46,7.37-.52,7.36Z"/><path class="cls-2" d="M42.86,228.96l-8.06-.21-.04,1.07,8.06,.18,.04-1.04Z"/><path class="cls-2" d="M34.95,224.98c.06-.12,.13-.23,.22-.32,.23-.27,.49-.52,.76-.74,.4-.34,.85-.61,1.34-.82,1.73-.76,3.75-.29,4.98,1.17,.22,.28,.41,.59,.55,.92,.06,.12,.1,.24,.11,.37-.23-.41-.5-.8-.79-1.17-.77-.84-1.83-1.33-2.96-1.38-1.13-.02-2.23,.36-3.12,1.06-.71,.51-1.06,.94-1.09,.91h0Z"/><g class="cls-8"><path class="cls-17" d="M35.19,218.99l-.07,1.66,8.08,.15,.05-1.25-8.06-.56Z"/></g><path class="cls-6" d="M48.53,156.74l-2.61,25.42-1.87,38.28h-9.98l-.27-81.47,28.58,2.06,5.92,42.75-1.19,37.41h-10.95l-1.38-35.58-6.26-28.87Z"/><path class="cls-2" d="M48.54,156.74c.59,.7,1.23,1.35,1.94,1.94,.65,.65,1.36,1.24,2.11,1.75-.59-.7-1.24-1.35-1.94-1.94-.65-.65-1.35-1.23-2.11-1.75Z"/><path class="cls-2" d="M48.56,156.24c.04-1.09,.03-2.18-.05-3.26,0-1.09-.06-2.18-.19-3.26-.16,2.18-.08,4.36,.24,6.52Z"/><path class="cls-2" d="M45.26,146.75c-.05,0-.11,0-.16,0l-.5-.03-1.89-.09-6.78-.28h-.11v7.45l.08,.03,4.4,1.79h.08l3.89-1.38,.06-.02v-.06c.29-2.22,.52-4.07,.69-5.39,.08-.62,.14-1.11,.18-1.48,.03-.17,.04-.34,.05-.51-.01,.05-.02,.1-.03,.15,0,.11-.04,.24-.06,.4-.06,.37-.14,.88-.24,1.5-.2,1.3-.45,3.12-.79,5.31l.07-.08-3.9,1.34h.08l-4.4-1.8,.08,.12v-7.25l-.12,.11,6.69,.17,1.92,.04h.52c.06,0,.12,0,.19-.01h0Z"/><path class="cls-2" d="M59.67,146.87s-.1,0-.15,0h-.45l-1.71-.06-6.18-.14h-.11v.11c.07,2.11,.15,4.54,.23,7.13v.06l.05,.04,.71,.46,3.64,2.39,.06,.04,.06-.04,4.09-2.51,.05-.03v-.06c-.07-2.22-.14-4.07-.19-5.38,0-.62-.05-1.11-.06-1.48,0-.17-.01-.34-.03-.51,0,.05,0,.1,0,.15v1.91c0,1.31,.05,3.13,.08,5.32l.05-.09-4.09,2.49h.13l-3.62-2.39-.71-.46,.05,.1c-.09-2.59-.18-5.02-.25-7.13l-.11,.11,6.1,.04h2.19c.05-.01,.11-.04,.16-.06h0Z"/><path class="cls-2" d="M36.89,158.39c.45,.04,.91,.02,1.36-.04,.84-.06,1.98-.18,3.25-.34,1.27-.17,2.41-.35,3.22-.51,.45-.05,.89-.16,1.32-.31-.46,0-.91,.05-1.36,.13l-3.23,.43-3.23,.42c-.45,.04-.89,.11-1.33,.22h0Z"/><path class="cls-2" d="M37.12,186.72s.04,.15,.24,.32c.29,.23,.65,.36,1.02,.35,.55-.02,1.07-.22,1.49-.58,.5-.41,.95-.88,1.36-1.38,.76-.9,1.44-1.86,2.02-2.88,.26-.41,.47-.85,.63-1.31-.28,.39-.54,.8-.78,1.22-.62,.98-1.31,1.92-2.06,2.81-.4,.5-.84,.96-1.31,1.38-.38,.34-.86,.55-1.36,.58-.34,.02-.67-.06-.96-.25-.19-.14-.27-.27-.29-.26h0Z"/><path class="cls-2" d="M56.85,187.62s0,.13,.13,.32c.18,.27,.41,.5,.69,.67,.41,.24,.89,.37,1.36,.36,.59-.02,1.16-.21,1.65-.53,.86-.6,1.55-1.43,1.99-2.4,.21-.38,.38-.77,.49-1.19-.24,.35-.46,.72-.65,1.11-.47,.9-1.14,1.68-1.97,2.26-.45,.3-.98,.48-1.52,.51-.44,.02-.88-.08-1.28-.29-.36-.21-.67-.49-.91-.83h0Z"/><path class="cls-6" d="M56.2,183.78c.24,.21,.52,.36,.82,.46,.71,.3,1.47,.47,2.24,.51,.77,.03,1.54-.07,2.27-.32,.31-.08,.6-.22,.86-.41,0-.08-1.36,.56-3.12,.46-1.05-.08-2.09-.31-3.07-.7h0Z"/><path class="cls-5" d="M50.79,98.13l-11.22-.14,1.25-9.33s-.76-.16-.82-4.22c-.05-4.05-.24-10.95-.24-10.95,4.81-2.02,10.31-1.34,14.5,1.78l.61,.46-4.09,22.4h0Z"/><path class="cls-5" d="M53.58,80.72c.07-.03,2.86-.82,2.76,1.95-.09,2.78-2.92,2.11-2.92,2.03s.16-3.98,.16-3.98Z"/><path class="cls-5" d="M40.25,80.15c-.07-.03-2.6-.69-2.51,2.08,.09,2.77,2.92,2.12,2.92,2.03s-.41-4.11-.41-4.11Z"/><path class="cls-2" d="M54.51,80.42c-.43,2.32-.34,3.54-.74,5.09-.62,2.46-1.87,4.34-4.13,5.57s-5.33,1.21-7.28-.46c-1.36-1.16-2.31-2.47-2.51-4.22-.2-1.75-.4-4.83-.41-6.59,0-3.17-.24-6.2-.24-6.2l9.26-1.64,5.27,3.06,.78,5.37h0Z"/><path class="cls-2" d="M44.95,92.5c.52,.19,1.08,.24,1.62,.14,.55-.02,1.09-.18,1.55-.48,0-.07-.71,.14-1.58,.23-.87,.09-1.58,.03-1.6,.11Z"/><path class="cls-2" d="M54.06,84.37c.27-2.38,.45-5.1,.83-7.62,.15-.94,.49-2.3,.41-3.25-.03-.96-.24-1.91-.61-2.79-.57-1.1-1.61-1.88-2.81-2.12-1.22-.23-2.48,.09-3.44,.89-.73-1.01-1.98-1.49-3.18-1.23-1.19,.28-2.1,1.25-2.3,2.47-.7-.62-1.71-.72-2.52-.27-.77,.48-1.14,1.41-.91,2.3-.67,.11-1.24,.55-1.53,1.16-.27,.62-.21,1.33,.16,1.89,.43,.64,1.2,1,1.68,1.62,.54,.73,.6,1.72,.14,2.5"/><path class="cls-6" d="M41.2,75.76c.01,.09,.05,.18,.1,.26,.14,.23,.32,.43,.55,.59,.35,.25,.77,.38,1.2,.37,.57-.01,1.1-.26,1.49-.68l-.2-.05c.15,.65,.61,1.17,1.24,1.38,.7,.26,1.47,.17,2.09-.26,.54-.36,.95-.89,1.17-1.5l-.22,.03c.48,.69,1.26,1.11,2.1,1.12,.66,.01,1.29-.24,1.76-.7,.3-.29,.52-.66,.64-1.06,.06-.15,.07-.3,.05-.46,0,0-.04,.15-.14,.41-.14,.37-.37,.71-.66,.98-.45,.41-1.04,.63-1.65,.6-.76-.03-1.46-.41-1.89-1.04l-.14-.21-.09,.23c-.21,.56-.59,1.05-1.08,1.38-.54,.38-1.23,.47-1.85,.24-.55-.18-.97-.63-1.11-1.2l-.04-.23-.16,.18c-.34,.38-.81,.61-1.32,.64-.4,.02-.79-.08-1.12-.3-.29-.19-.53-.43-.72-.72h0Z"/><path class="cls-6" d="M41.21,74.66c.06-.36,.19-.71,.4-1.01,.24-.32,.58-.55,.97-.64,.49-.11,1-.02,1.41,.26l.22,.16v-.27c-.02-.27,.01-.54,.09-.8,.19-.57,.6-1.04,1.14-1.29,.45-.2,.96-.25,1.45-.12,.45,.13,.86,.35,1.2,.66,0,0-.05-.13-.23-.31-.26-.25-.57-.43-.91-.53-1.21-.37-2.49,.3-2.88,1.51-.1,.3-.13,.61-.1,.92l.2-.11c-.47-.32-1.06-.42-1.61-.27-.43,.11-.81,.38-1.06,.76-.16,.24-.26,.51-.28,.8-.05,.18-.03,.28-.01,.28h0Z"/><path class="cls-6" d="M47.12,74.74s0-.16,0-.38c.03-.29,.13-.58,.29-.82,.17-.25,.34-.5,.54-.74,.14-.14,.27-.04,.3-.05,.02-.01,0-.06-.06-.11-.11-.06-.25-.04-.35,.03-.12,.09-.23,.2-.32,.31-.12,.14-.22,.28-.32,.43-.19,.28-.28,.62-.25,.96,.04,.26,.16,.39,.18,.38Z"/><path class="cls-6" d="M52.62,71.25s0-.22-.17-.51c-.11-.17-.25-.32-.42-.43-.22-.14-.49-.2-.75-.16-.45,.08-.85,.32-1.12,.69-.21,.26-.3,.43-.28,.46,.02,.03,.18-.12,.41-.33,.28-.29,.64-.48,1.03-.56,.39-.03,.76,.14,.99,.46,.2,.22,.29,.4,.32,.39h0Z"/><path class="cls-6" d="M51.17,83.02c.45-.51,.79-1.11,.98-1.77,.27-.62,.38-1.3,.34-1.98-.08,0-.22,.87-.59,1.9-.36,1.03-.8,1.81-.73,1.85h0Z"/><path class="cls-6" d="M49.93,83.68c.32-.36,.55-.8,.69-1.26,.21-.43,.33-.9,.34-1.38-.25,.4-.45,.84-.58,1.3-.21,.43-.36,.88-.45,1.34h0Z"/><path class="cls-6" d="M42.13,83.87c-.14,.83-.02,1.67,.32,2.43,.27,.8,.76,1.51,1.41,2.04,.06-.05-.69-.87-1.17-2.13-.48-1.25-.48-2.35-.56-2.35Z"/><path class="cls-6" d="M40.88,81.85c-.3,.69-.36,1.46-.18,2.19,.1,.76,.43,1.47,.96,2.01-.3-.66-.53-1.34-.7-2.04-.23-1.18,0-2.15-.08-2.17Z"/><path class="cls-14" d="M25.02,120.51v11.05c0,.39,.08,.77,.24,1.13,1.3,2.91,7.66,13.7,8.48,15.08-.5-1.63,4.02-9.32,4.02-9.32l-4.55-8.75-.12-9.53-7.32-10.91-.75,11.25Z"/><path class="cls-14" d="M81.87,92.22l-16.65-9.07-4.64,7.43,9.47,5.02-11.47,.2h-1.77c-.77,0-6.4-.16-6.4-.16,0,0-3.8,1.06-5.98,1.01-2.35-.05-5.74-1.05-5.74-1.05l-3.54,1.75s-7.25,4.14-8.21,5.42c-.97,1.28-1.16,6.44-1.16,6.44l7.04,12.81,2.92,7.33s-3.43,12.4-2.58,18.58h30.58l-1.66-37.69,9.65-4.02,9.55-4.53c1.54-.84,3.27-3.02,3.27-4.79s-1.07-3.89-2.68-4.71Z"/><path class="cls-5" d="M63.83,85.49l-4.35-2.56-6.62-3.63s-2.18-1.67-3.04-1.62c-.74,.13-1.39,.58-1.78,1.23-.04,.2,.32,.57,.87,.41,.18-.05,.69-.42,.98-.36,.51,.12,.96,.44,1.23,.9,.09,.14,.05,.32-.09,.41-.04,.03-.09,.04-.15,.05,0,0-3.75-.96-5.14-.19-.34,.17-.5,.56-.38,.92,.1,.25,.37,.46,1.02,.34,1.31-.25,3.49,.77,3.49,.77,0,0-4.86-.16-5.69,.26-.33,.16-.69,1.24,.3,1.35,1.17,.13,3.47,.08,3.47,.08,0,0,2.17,.3,1.82,.71-.35,.41-3.68,.46-3.93,.5-.25,.04-1.36,0-1.32,.92,.04,.53,1.01,.86,2.27,.82,1.07-.03,4.4-.1,4.8,.51,.41,.61,.12,1.06-.18,1.22-.97,.23-1.97,.39-2.97,.46-.45,0-1.02,.82,.05,1.09,1.16,.28,2.15,.05,3.18,.05s2.3,.08,5.13-1.05c0,0,1.91-.87,4.52,.64l2.48-4.22h0Z"/><path class="cls-3" d="M61.32,89.76c-.06-.02-.11-.04-.16-.07-.11-.05-.25-.14-.45-.22-.6-.28-1.24-.45-1.89-.52-.47-.05-.95-.03-1.41,.06-.26,.05-.53,.13-.77,.24-.27,.11-.55,.21-.84,.31-.62,.22-1.26,.39-1.91,.52-.73,.13-1.48,.19-2.22,.16-.81,.07-1.63,.09-2.45,.07-.22-.02-.44-.05-.65-.1-.24-.04-.46-.15-.63-.32-.09-.11-.13-.25-.11-.39,.02-.13,.08-.26,.17-.36,.09-.1,.21-.17,.33-.2,.12-.02,.24-.03,.36-.04,.45-.05,.91-.11,1.36-.19,.23-.04,.45-.07,.7-.12,.23-.03,.45-.1,.66-.19,.18-.12,.28-.33,.26-.55-.01-.11-.05-.22-.09-.33-.03-.05-.06-.1-.09-.15-.03-.05-.05-.07-.11-.09-.22-.11-.45-.19-.69-.22-.25-.05-.5-.07-.76-.1-1.06-.08-2.12-.09-3.18-.04-.57,.03-1.14-.05-1.68-.24-.14-.05-.28-.13-.4-.23-.14-.1-.24-.26-.26-.43-.05-.34,.1-.68,.4-.85,.27-.14,.57-.22,.88-.23,.29-.04,.59-.05,.87-.06,.58-.03,1.17-.06,1.76-.12,.29-.03,.59-.06,.87-.12,.29-.06,.66-.19,.45-.23-.25-.14-.52-.23-.81-.29-.29-.07-.59-.12-.91-.17h-2.47l-.64-.03c-.22,0-.45-.04-.66-.1-.12-.04-.23-.12-.31-.22-.08-.1-.13-.23-.15-.36-.03-.25,.03-.5,.16-.71,.04-.06,.09-.12,.15-.18,.06-.05,.13-.09,.2-.11,.13-.05,.26-.08,.39-.1,.26-.04,.51-.06,.77-.09,.5-.04,1.01-.05,1.51-.06,1,0,1.99,0,2.97,.02l-.05,.23c-.86-.41-1.78-.68-2.73-.79-.23-.02-.46,0-.68,.03-.25,.06-.52,.05-.76-.03-.28-.11-.46-.37-.45-.67,0-.28,.13-.54,.36-.7,.42-.24,.89-.37,1.36-.38,.45-.02,.91-.01,1.36,.03,.88,.09,1.75,.25,2.61,.46h-.05c.2-.03,.25-.16,.13-.35-.12-.18-.28-.34-.45-.46-.17-.13-.36-.23-.57-.29-.09-.03-.19-.03-.27,0-.1,.03-.2,.06-.29,.11l-.29,.15c-.11,.06-.23,.1-.35,.11-.25,.04-.5-.03-.69-.2-.12-.09-.17-.24-.15-.39,.05-.11,.12-.22,.2-.31,.14-.17,.29-.32,.45-.46,.33-.28,.74-.47,1.17-.52,.42,.03,.83,.16,1.19,.38,.67,.37,1.32,.8,1.93,1.27l4.6,2.54,1.88,1.05,1.56,.92,2.15,1.29,.55,.34,.19,.12c-.07-.03-.14-.06-.2-.1l-.57-.32-2.17-1.25-1.57-.92-1.81-1.03-4.61-2.51c-.61-.46-1.25-.87-1.91-1.24-.33-.2-.7-.32-1.08-.36-.39,.06-.76,.23-1.06,.49-.17,.12-.32,.27-.45,.43-.06,.07-.12,.14-.16,.23,0,.04,.03,.12,.09,.18,.14,.12,.34,.18,.52,.14,.2-.05,.4-.13,.57-.25,.11-.05,.22-.1,.34-.13,.13-.03,.26-.02,.39,.02,.23,.07,.45,.18,.64,.33,.2,.14,.37,.32,.5,.53,.09,.12,.12,.28,.08,.43-.07,.14-.21,.24-.36,.26-.01,0-.02,0-.04,0-.85-.21-1.71-.35-2.57-.44-.44-.04-.89-.05-1.33-.03-.44,0-.87,.12-1.25,.33-.16,.12-.26,.31-.26,.51-.01,.2,.11,.39,.29,.46,.21,.06,.42,.06,.63,0,.25-.04,.49-.05,.74-.03,.98,.11,1.94,.38,2.83,.8,.06,.03,.09,.1,.06,.17-.02,.05-.07,.07-.12,.07-.97-.03-1.96-.04-2.96,0-.5,0-1,.02-1.5,.06-.25,0-.5,.05-.75,.08-.12,.02-.23,.05-.35,.09-.05,.01-.09,.03-.13,.06-.04,.03-.07,.07-.09,.12-.2,.32-.19,.8,.18,.92,.19,.05,.39,.08,.59,.09l.63,.03c.83,.03,1.66,.02,2.46,0,.3,.05,.61,.1,.91,.17,.32,.06,.63,.17,.91,.33,.04,.03,.08,.07,.11,.11,.05,.06,.06,.14,.04,.21-.02,.06-.06,.11-.11,.14-.04,.03-.08,.06-.12,.08-.15,.06-.3,.11-.45,.13-.3,.06-.6,.09-.91,.12-.59,.05-1.18,.09-1.76,.11-.3,0-.57,0-.86,.06-.27,0-.54,.07-.78,.19-.21,.12-.33,.37-.29,.61,.03,.21,.27,.38,.51,.46,.51,.18,1.05,.25,1.59,.23,1.07-.04,2.15-.02,3.22,.05,.26,.02,.52,.05,.78,.1,.27,.04,.53,.12,.76,.25,.07,.04,.12,.09,.17,.16,.04,.06,.07,.11,.1,.18,.06,.12,.1,.26,.11,.4,.03,.29-.11,.58-.36,.74-.23,.11-.48,.18-.74,.22-.24,.05-.45,.08-.71,.12-.45,.07-.94,.14-1.4,.18-.11,0-.22,.02-.33,.03-.09,.03-.17,.08-.24,.15-.14,.12-.17,.33-.06,.49,.15,.14,.33,.23,.53,.26,.2,.05,.41,.08,.62,.1,.81,.03,1.63,0,2.44-.05,.73,.03,1.47-.02,2.19-.14,.64-.12,1.28-.29,1.9-.5,.29-.1,.57-.2,.83-.3,.26-.11,.52-.19,.8-.24,.48-.09,.96-.1,1.44-.04,.66,.08,1.3,.27,1.9,.57,.21,.08,.41,.18,.61,.29h0Z"/><g class="cls-8"><path class="cls-17" d="M69.95,95.59c1.15,.27,2.35,.25,3.49-.06-1.79-1.38-5.08-1.67-7.31-1.98l3.82,2.04Z"/></g><path class="cls-2" d="M77.34,95.78c-.37,.04-.74,.04-1.11,0l-2.67-.08-2.67-.05c-.37,.02-.74,0-1.11-.06,.36-.08,.74-.12,1.11-.11,.68-.03,1.63-.05,2.68-.03,1.05,.02,1.99,.09,2.68,.15,.37,.02,.74,.08,1.1,.18h0Z"/><path class="cls-2" d="M27.79,128.36c.22,.11,.43,.26,.61,.43,.46,.37,.96,.68,1.49,.92,.53,.24,1.12,.32,1.69,.22,.45-.08,.68-.24,.7-.2,.02,.04-.2,.24-.66,.38-.61,.15-1.25,.1-1.82-.16-.56-.26-1.06-.61-1.51-1.04-.34-.3-.53-.5-.5-.54h0Z"/><path class="cls-2" d="M33.15,147.96c-.03-.12-.04-.24-.05-.37,0-.24-.06-.6-.08-1.07-.04-1.32,.01-2.64,.14-3.95,.48-4.36,1.33-8.67,2.55-12.89v.08l-.36-.92c-1.96-5-3.73-9.54-5-12.84-.62-1.63-1.14-2.96-1.5-3.9-.17-.46-.3-.8-.4-1.07-.05-.12-.09-.25-.12-.38,.06,.12,.12,.24,.17,.36,.11,.26,.26,.61,.45,1.05l1.52,3.87c1.31,3.29,3.11,7.82,5.09,12.81l.36,.92v.08c-1.21,4.21-2.08,8.5-2.61,12.85-.15,1.31-.22,2.62-.21,3.94,0,.46,.03,.82,.04,1.07,.01,.12,.02,.24,0,.36h0Z"/><path class="cls-2" d="M61.21,109.41c-.13-.1-.24-.21-.34-.33-.3-.32-.57-.65-.82-1-1.69-2.34-2.61-5.16-2.62-8.06,0-.44,.02-.87,.07-1.3,0-.16,.03-.31,.08-.46,.04,0-.03,.68,0,1.77,.06,1.42,.3,2.82,.74,4.17,.44,1.35,1.06,2.63,1.85,3.8,.62,.88,1.07,1.39,1.04,1.42Z"/><path class="cls-2" d="M50.03,112.08c.01,.08,.01,.17,0,.25-.02,.19-.05,.43-.08,.72-.07,.63-.2,1.53-.37,2.64-.35,2.22-.91,5.28-1.74,8.62-.83,3.34-1.74,6.31-2.47,8.44-.36,1.06-.67,1.92-.91,2.5l-.27,.68c-.03,.08-.06,.15-.1,.23,0-.08,.03-.17,.06-.24,.06-.18,.14-.41,.22-.69,.21-.63,.49-1.48,.83-2.53,.69-2.14,1.57-5.11,2.4-8.44,.82-3.33,1.42-6.37,1.82-8.59l.45-2.63c.05-.28,.09-.52,.12-.71,0-.08,.02-.16,.04-.24Z"/></g></g></svg>