<?xml version="1.0" encoding="UTF-8"?><svg id="Layer_1" xmlns="http://www.w3.org/2000/svg" xmlns:xlink="http://www.w3.org/1999/xlink" viewBox="0 0 250 250"><defs><style>.cls-1{fill:#aabdbd;}.cls-2,.cls-3{fill:#fff;}.cls-4{stroke:#d2e5e1;}.cls-4,.cls-5,.cls-6,.cls-7{fill:none;}.cls-4,.cls-6,.cls-7{stroke-miterlimit:10;}.cls-8,.cls-3{opacity:.5;}.cls-3,.cls-9{isolation:isolate;}.cls-10{opacity:.3;}.cls-11{clip-path:url(#clippath);}.cls-12,.cls-9{fill:#d2e5e1;}.cls-9{opacity:.2;}.cls-6{stroke:rgba(0,0,0,.2);}.cls-7{stroke:#72818c;}.cls-13{fill:#f9f8f4;}.cls-14{fill:#72818c;}</style><clipPath id="clippath"><rect class="cls-5" x="13" y="24.5" width="224" height="201"/></clipPath></defs><g class="cls-11"><g><path class="cls-2" d="M228.2,175.57l.04-5.17-64.17-15.65-111.74,37.52v5.39c0,.26,.08,.51,.25,.71,.2,.23,.45,.4,.74,.5l62.82,26.01c.51,.2,1.05,.34,1.6,.41,1.22,.18,2.46,.14,3.67-.1,.55-.1,1.1-.27,1.61-.5l104.44-47.86c.22-.08,.4-.22,.53-.42,.17-.25,.25-.55,.22-.84h0Z"/><path class="cls-9" d="M227.98,176.43c.17-.24,.25-.54,.22-.84l.04-5.18-64.17-15.67-43.24,14.51v56c.19,0,.38-.05,.57-.09,.55-.1,1.1-.27,1.61-.5l104.44-47.84c.22-.07,.4-.21,.53-.4h0Z"/><path class="cls-9" d="M119.11,225.5v-8.69h-2.19v8.42c.71,.21,1.45,.3,2.19,.27Z"/><path class="cls-4" d="M228.2,175.57l.04-5.17-64.17-15.65-111.74,37.52v5.39c0,.26,.08,.51,.25,.71,.2,.23,.45,.4,.74,.5l62.82,26.01c.51,.2,1.05,.34,1.6,.41,1.22,.18,2.46,.14,3.67-.1,.55-.1,1.1-.27,1.61-.5l104.44-47.86c.22-.08,.4-.22,.53-.42,.17-.25,.25-.55,.22-.84h0Z"/><path class="cls-2" d="M195.37,163.97l-8.22-2.09c-.12-.03-.24-.05-.37-.06h-.4c-.13,0-.25,.01-.38,.03-.1,.02-.21,.04-.31,.08-.07,.02-.13,.06-.18,.11-.02,.04-.02,.08,0,.12,.03,.05,.08,.1,.13,.12,.09,.05,.18,.08,.28,.1l8.22,2.11c.13,.03,.26,.05,.38,.06h.41c.13,0,.26-.02,.38-.04,.1-.01,.21-.04,.31-.08,.07-.02,.13-.06,.18-.11,.02-.04,.02-.09,0-.13-.03-.05-.08-.1-.14-.13-.09-.04-.19-.08-.28-.1"/><path class="cls-3" d="M219.44,171.09l-13.87-3.55h-3.01c-.24,0-.49-.03-.72-.06-.23-.03-.47-.06-.7-.1-.23-.04-.43-.09-.63-.14l-24.18-6.23-.49-.15c-.15-.06-.28-.11-.4-.17-.11-.06-.21-.12-.3-.19-.07-.06-.13-.12-.19-.2l-.49-.71-12.41-3.15-94.53,32.69,59.66,22.92,92.25-40.97"/><path class="cls-1" d="M228.42,169.97c-.16-.19-.35-.34-.58-.44-.34-.17-.7-.29-1.08-.38l-60.55-15.14c-.38-.09-.77-.16-1.16-.2-.42-.04-.84-.05-1.26-.04-.41,0-.82,.04-1.22,.1-.35,.05-.7,.12-1.03,.23l-107.78,36.68c-.4,.13-.78,.31-1.13,.54-.24,.14-.43,.35-.54,.59-.08,.19-.05,.42,.08,.58,.19,.23,.44,.41,.73,.5l63.22,25.69c.51,.2,1.05,.34,1.6,.42,1.22,.18,2.46,.14,3.67-.1,.55-.1,1.09-.27,1.61-.5l104.93-47.67c.22-.08,.4-.23,.54-.42,.06-.15,.04-.31-.06-.43h0Zm-101.24,42.08l-59.66-22.92,94.52-32.74,12.41,3.15,.49,.71c.05,.07,.12,.14,.19,.2,.09,.07,.2,.13,.3,.19,.12,.06,.25,.11,.4,.17l.49,.15,24.16,6.25c.2,.05,.41,.1,.63,.14,.21,.04,.46,.08,.7,.1,.24,.02,.48,.05,.72,.06,.24,.01,.49,0,.74,0h2.27l13.87,3.55-92.24,40.99Zm58.32-50.04c.05-.05,.11-.09,.18-.11,.1-.03,.2-.06,.31-.08,.12-.02,.25-.03,.38-.03h.4c.12,0,.25,.03,.37,.06l8.22,2.09c.1,.02,.19,.06,.28,.1,.06,.03,.1,.07,.14,.13,.02,.04,.02,.09,0,.13-.05,.05-.11,.09-.18,.11-.1,.04-.2,.06-.31,.08-.13,.02-.25,.03-.38,.04h-.41c-.13-.01-.26-.04-.38-.06l-8.22-2.11c-.1-.02-.19-.05-.28-.1-.06-.02-.1-.07-.13-.12-.02-.04-.01-.08,.01-.12h0Zm-91.48,39.84c-.15,.12-.31,.21-.49,.28-.23,.09-.47,.15-.71,.19-.26,.05-.52,.08-.79,.08-.26,0-.51,0-.77-.04-.22-.03-.43-.09-.63-.16-.15-.06-.29-.14-.41-.26-.08-.08-.11-.19-.1-.3,.03-.12,.1-.23,.21-.3,.14-.12,.31-.21,.49-.28,.23-.09,.47-.15,.71-.19,.26-.04,.52-.07,.78-.08,.25,0,.51,0,.76,.04,.21,.03,.43,.08,.63,.16,.15,.05,.29,.14,.41,.25,.08,.07,.12,.19,.11,.3-.03,.12-.1,.23-.2,.31h0Z"/><path class="cls-2" d="M93.7,201c-.2-.07-.41-.13-.63-.16-.25-.03-.51-.04-.76-.04-.26,0-.52,.03-.78,.08-.24,.04-.48,.1-.71,.19-.18,.06-.34,.16-.49,.28-.1,.07-.18,.18-.21,.3-.01,.11,.03,.22,.1,.3,.12,.12,.25,.2,.41,.26,.2,.08,.41,.13,.63,.16,.25,.03,.51,.04,.77,.04,.26,0,.53-.03,.79-.08,.24-.04,.48-.1,.71-.19,.18-.07,.34-.16,.49-.28,.1-.08,.17-.19,.2-.31,.01-.11-.02-.22-.11-.3-.12-.11-.25-.2-.41-.25"/><path class="cls-7" d="M72.72,173.64l1.8,3.05"/><path class="cls-6" d="M72.72,173.64l1.8,3.05"/><path class="cls-7" d="M46.29,128.8l24.39,41.39"/><path class="cls-6" d="M46.29,128.8l24.39,41.39"/><path class="cls-7" d="M93.35,164.79l1.03,2.46"/><path class="cls-6" d="M93.35,164.79l1.03,2.46"/><path class="cls-7" d="M86.36,148.02l5.84,14.02"/><path class="cls-6" d="M86.36,148.02l5.84,14.02"/><path class="cls-7" d="M208.12,126.48l-12.85,31.69"/><path class="cls-6" d="M208.12,126.48l-12.85,31.69"/><path class="cls-7" d="M211.29,118.66l-1.59,3.9"/><path class="cls-6" d="M211.29,118.66l-1.59,3.9"/><path class="cls-7" d="M218.43,157.51l-2.8,3.1"/><path class="cls-6" d="M218.43,157.51l-2.8,3.1"/><path class="cls-7" d="M236.52,137.54l-15.29,16.88"/><path class="cls-6" d="M236.52,137.54l-15.29,16.88"/><path class="cls-7" d="M82.18,169l10.45,20.27"/><path class="cls-6" d="M82.18,169l10.45,20.27"/><path class="cls-7" d="M210.4,156.41l-11.5,15.73"/><path class="cls-6" d="M210.4,156.41l-11.5,15.73"/><path class="cls-7" d="M136.88,156.41l2.79,13.98"/><path class="cls-6" d="M136.88,156.41l2.79,13.98"/><path class="cls-13" d="M236.08,62.84l-10.79-6.25c-.88-.47-1.94-.49-2.84-.05-.81,.53-1.32,1.42-1.37,2.38,0,.88-.65,1.21-1.46,.74l-10.79-6.23c-.86-.57-1.41-1.51-1.46-2.54v-2.96c-.05-1.03-.6-1.98-1.46-2.54l-10.79-6.25c-.92-.47-2.01-.47-2.93,0l-17.74,10.28c-8.23,4.76-21.92-3.18-32.92,3.18-10.99,6.35-14.74,8.54-29.74,17.73-14.8,9.06-45.21,31.74-46.98,50.49-.01,1.03,.51,2,1.38,2.54l27.25,15.79c.97,.52,2.05,.8,3.15,.81,17.44-.7,56.9-11.66,86.09-28.57,18.87-10.93,39.76-25.38,45.25-29.23,.88-.67,1.6-1.52,2.1-2.5l6.79-14.42c.4-.87,.08-1.91-.74-2.4h0Z"/><path class="cls-13" d="M192.19,39.11l-17.74,10.28c-8.23,4.76-21.92-3.18-32.92,3.18-11,6.35-14.74,8.54-29.74,17.73-14.8,9.06-45.21,31.74-46.98,50.49-.07,.86,.56,1.61,1.42,1.68,.06,0,.12,0,.19,0,32.66-.6,73.64-18.19,88.84-27l30.18-17.5c10.96-6.35,24.69,1.59,32.91-3.18l17.74-10.28c.81-.47,.81-1.23,0-1.69l-10.79-6.25c-.88-.47-1.94-.49-2.84-.05-.81,.53-1.32,1.42-1.37,2.38,0,.88-.65,1.21-1.46,.74l-10.79-6.22c-.86-.56-1.41-1.51-1.47-2.54v-2.96c-.05-1.03-.6-1.98-1.46-2.54l-10.79-6.25c-.91-.48-2-.49-2.92-.02h0Z"/><path class="cls-13" d="M207.39,50.88v-2.94c-.01-.51-.16-1.01-.43-1.45l-5.05,2.91v6.35l5.92-3.43c-.27-.44-.42-.93-.44-1.45h0Z"/><path class="cls-13" d="M68.02,118.08c4.29-16.58,30.66-36.58,45.18-45.47,14.97-9.18,18.69-11.32,29.68-17.68,2.63-1.53,5.7-2.23,9.66-2.23,2.49,.04,4.98,.22,7.45,.53,2.36,.29,4.74,.46,7.12,.5,3.6,0,6.36-.63,8.69-2l16.39-9.5c.92-.47,2.01-.47,2.93,0l8.05,4.7c.86,.57,1.41,1.51,1.46,2.54v3c.05,1.03,.6,1.98,1.46,2.55l10.79,6.25c.88,.47,1.94,.49,2.83,.05,.81-.53,1.32-1.42,1.37-2.38,0-.88,.66-1.22,1.46-.74l8.13,4.67c.81,.46,.81,1.22,0,1.69l-13.69,7.93c-1.49,.85-3.37,1.26-5.98,1.26-2.19-.06-4.38-.22-6.56-.5-2.66-.32-5.34-.5-8.02-.54-4.95,0-8.88,.94-12.36,2.96l-30.18,17.5c-14.3,8.28-52.73,24.98-84.52,26.52-.68,.1-1.3-.37-1.4-1.05-.03-.18-.01-.36,.04-.54h0Z"/><path class="cls-13" d="M230.68,62.85l-8.13-4.67c-.81-.47-1.46-.13-1.46,.74-.05,.97-.56,1.85-1.37,2.38-.9,.44-1.95,.42-2.84-.05l-10.79-6.25c-.86-.57-1.4-1.51-1.46-2.55v-3c-.06-1.03-.6-1.97-1.46-2.54l-8.05-4.67c-.47-.25-1-.37-1.54-.34l-1.59,9.87,29.96,17.82,8.73-5.06c.81-.48,.8-1.24,0-1.7h0Z"/><path class="cls-1" d="M225.48,67.55l-8.47,4.92c-1.47,.85-3.37,1.25-5.98,1.25-2.13-.04-4.26-.19-6.37-.46l-27.82-16.16,13.88-8.04c.92-.47,2-.47,2.92,0l31.83,18.49h0Z"/><g class="cls-8"><path class="cls-14" d="M225.48,67.55l-8.47,4.92c-1.47,.85-3.37,1.25-5.98,1.25-2.13-.04-4.26-.19-6.37-.46l-27.82-16.16,13.88-8.04c.92-.47,2-.47,2.92,0l31.83,18.49h0Z"/><path d="M225.48,67.55l-8.47,4.92c-1.47,.85-3.37,1.25-5.98,1.25-2.13-.04-4.26-.19-6.37-.46l-27.82-16.16,13.88-8.04c.92-.47,2-.47,2.92,0l31.83,18.49h0Z"/></g><path class="cls-12" d="M204.71,73.27l-.26-.03c-2.66-.32-5.34-.51-8.02-.56-4.95,0-8.88,.95-12.36,2.96l-30.17,17.47c-14.31,8.3-52.73,25-84.52,26.54-.26,.01-.52-.04-.75-.17,7.69-15.31,30.11-32.13,43.08-40.07,14.99-9.17,18.7-11.32,29.7-17.69,2.62-1.53,5.69-2.23,9.66-2.23,2.49,.04,4.97,.21,7.44,.5,2.36,.29,4.74,.46,7.12,.5,3.6,0,6.36-.63,8.69-2l2.49-1.45,27.91,16.22h0Z"/><g class="cls-10"><path class="cls-14" d="M73.78,111.5l-.37,.47,10.46,6.08,.92-.15-11.01-6.39h0Z"/><path d="M73.78,111.5l-.37,.47,10.46,6.08,.92-.15-11.01-6.39h0Z"/><path class="cls-14" d="M74.99,119.25l1-.1-5.4-3.13c-.1,.16-.22,.34-.32,.5l4.72,2.74h0Z"/><path d="M74.99,119.25l1-.1-5.4-3.13c-.1,.16-.22,.34-.32,.5l4.72,2.74h0Z"/><path class="cls-14" d="M81.26,103.12l-.44,.43,19.05,11.02,.81-.21-19.43-11.24Z"/><path d="M81.26,103.12l-.44,.43,19.05,11.02,.81-.21-19.43-11.24Z"/><path class="cls-14" d="M77.4,107.18l-.4,.45,15.13,8.82,.85-.19-15.58-9.08Z"/><path d="M77.4,107.18l-.4,.45,15.13,8.82,.85-.19-15.58-9.08Z"/><path class="cls-14" d="M89.76,95.34l-.5,.4,25.04,14.5,.75-.25-25.3-14.65Z"/><path d="M89.76,95.34l-.5,.4,25.04,14.5,.75-.25-25.3-14.65Z"/><path class="cls-14" d="M85.4,99.17l-.46,.42,22.3,12.91,.78-.23-22.62-13.1Z"/><path d="M85.4,99.17l-.46,.42,22.3,12.91,.78-.23-22.62-13.1Z"/><path class="cls-14" d="M99.04,88l-.5,.38,29.26,16.95,.7-.28-29.47-17.06Z"/><path d="M99.04,88l-.5,.38,29.26,16.95,.7-.28-29.47-17.06Z"/><path class="cls-14" d="M94.31,91.62l-.5,.4,27.35,15.85,.72-.26-27.58-15.98Z"/><path d="M94.31,91.62l-.5,.4,27.35,15.85,.72-.26-27.58-15.98Z"/><path class="cls-14" d="M109.05,81.08l-.56,.37,31.95,18.5,.66-.31-32.05-18.56Z"/><path d="M109.05,81.08l-.56,.37,31.95,18.5,.66-.31-32.05-18.56Z"/><path class="cls-14" d="M103.96,84.49l-.54,.37,30.8,17.84,.68-.29-30.94-17.93h0Z"/><path d="M103.96,84.49l-.54,.37,30.8,17.84,.68-.29-30.94-17.93h0Z"/><path class="cls-14" d="M119.7,74.54l-.58,.35,33.1,19.18c.2-.12,.41-.23,.6-.34l-33.13-19.19h0Z"/><path d="M119.7,74.54l-.58,.35,33.1,19.18c.2-.12,.41-.23,.6-.34l-33.13-19.19h0Z"/><path class="cls-14" d="M146.46,97.08l.63-.32-32.74-18.97-.57,.35,32.69,18.94h0Z"/><path d="M146.46,97.08l.63-.32-32.74-18.97-.57,.35,32.69,18.94h0Z"/><path class="cls-14" d="M130.49,68.07l-.59,.35,33.32,19.31,.59-.34-33.33-19.31Z"/><path d="M130.49,68.07l-.59,.35,33.32,19.31,.59-.34-33.33-19.31Z"/><path class="cls-14" d="M125.07,71.29l-.58,.35,33.25,19.28,.59-.34-33.25-19.29h0Z"/><path d="M125.07,71.29l-.58,.35,33.25,19.28,.59-.34-33.25-19.29h0Z"/></g><path class="cls-14" d="M93.44,139.12c.97,.52,2.05,.8,3.15,.81,17.44-.7,56.9-11.66,86.09-28.57,18.87-10.93,39.76-25.38,45.25-29.23,.88-.67,1.6-1.52,2.1-2.5l1.34-2.84s-6.39,3.83-15.24,9.45c-6.84,4.34-15.2,9.41-24.06,14.66-8.87,5.25-20.27,10.87-25.85,13.63-24.31,12.03-57.36,21.31-75.67,21.9-.93,.03-2.49-.23-3.11-.79l5.99,3.47h0Z"/><path d="M93.44,139.12c.97,.52,2.05,.8,3.15,.81,17.44-.7,56.9-11.66,86.09-28.57,18.87-10.93,39.76-25.38,45.25-29.23,.88-.67,1.6-1.52,2.1-2.5l1.34-2.84s-6.39,3.83-15.24,9.45c-6.84,4.34-15.2,9.41-24.06,14.66-8.87,5.25-20.27,10.87-25.85,13.63-24.31,12.03-57.36,21.31-75.67,21.9-.93,.03-2.49-.23-3.11-.79l5.99,3.47h0Z"/><path class="cls-12" d="M193.69,82.71c-1.62,1.06-2.64,2.83-2.74,4.76,0,1.75,1.23,2.47,2.74,1.59,1.62-1.06,2.64-2.83,2.75-4.76,0-1.76-1.23-2.47-2.75-1.59Z"/><path class="cls-12" d="M185.07,87.71c-1.62,1.06-2.64,2.83-2.75,4.77,0,1.75,1.23,2.47,2.75,1.59,1.62-1.06,2.64-2.83,2.74-4.77,0-1.75-1.23-2.47-2.74-1.59Z"/><path class="cls-12" d="M176.46,92.72c-1.62,1.06-2.64,2.83-2.74,4.77,0,1.75,1.23,2.47,2.74,1.59,1.62-1.06,2.64-2.83,2.74-4.77,0-1.75-1.2-2.47-2.74-1.59Z"/><path class="cls-13" d="M169.06,31.87l-29.19,18.06c-1.61,1.03-2.92,2.45-3.83,4.13l-11.36,23.82-.1,.2-.07,.15c-2.15,4.5-.47,9.21,5.3,12.55,9.43,5.46,25.67,4.28,36.28-2.64l24.91-14.96c.85-.58,1.36-1.54,1.37-2.56l-1.29-26.06c-.11-1.04-.67-1.97-1.54-2.54l-17.57-10.18c-.91-.46-2-.45-2.9,.04h0Z"/><path class="cls-14" d="M149.02,65.51l-.85,25.5c-1.22,.12-2.45,.17-3.67,.13-4.75,0-9.12-.92-12.41-2.61l6.58-24c2.33,.82,4.79,1.21,7.26,1.17,1.03,0,2.07-.07,3.09-.18h0Z"/><path d="M149.02,65.51l-.85,25.5c-1.22,.12-2.45,.17-3.67,.13-4.75,0-9.12-.92-12.41-2.61l6.58-24c2.33,.82,4.79,1.21,7.26,1.17,1.03,0,2.07-.07,3.09-.18h0Z"/><path class="cls-14" d="M129.42,86.81l6.48-23.71c-.25-.18-.5-.36-.71-.54-.43-.39-.79-.87-1.03-1.4-3.62,7.2-8.03,17.25-8.08,17.35-.04,.09-.09,.19-.14,.27l-.05,.12c-1.42,3.11,1.86,6.44,3.08,7.54l.12,.11c.2,.17,.33,.27,.33,.27Z"/><path d="M129.42,86.81l6.48-23.71c-.25-.18-.5-.36-.71-.54-.43-.39-.79-.87-1.03-1.4-3.62,7.2-8.03,17.25-8.08,17.35-.04,.09-.09,.19-.14,.27l-.05,.12c-1.42,3.11,1.86,6.44,3.08,7.54l.12,.11c.2,.17,.33,.27,.33,.27Z"/><path class="cls-14" d="M166.81,84.02l-2.38,1.55c-3.05,2-9.47,4.67-12.95,5.14l.26-25.63c2.03-.37,3.99-1.04,5.83-1.97,2.54-1.21,6.09-3.12,7.52-3.98l1.71,24.89Z"/><path d="M166.81,84.02l-2.38,1.55c-3.05,2-9.47,4.67-12.95,5.14l.26-25.63c2.03-.37,3.99-1.04,5.83-1.97,2.54-1.21,6.09-3.12,7.52-3.98l1.71,24.89Z"/><path class="cls-13" d="M169.06,31.87c.9-.49,1.99-.51,2.9-.04l17.57,10.18c.81,.47,.79,1.18-.05,1.6l-33.27,16.74c-5.68,2.79-13.77,3.03-18.05,.56-4.29-2.48-3.52-7.39,1.7-11l29.19-18.04h0Z"/><path class="cls-13" d="M169.06,31.87l-15.88,9.82,16.13-8.84c.73-.4,1.62-.42,2.36-.04l17.57,9.04-17.28-10c-.91-.47-2-.46-2.9,.02h0Z"/><path class="cls-13" d="M158.95,47.8l19.97-11.94-.9-.51-20.03,11.79,.96,.67Z"/><path class="cls-14" d="M183.08,57.19c-1.62,1.06-2.64,2.83-2.75,4.77,0,1.75,1.23,2.47,2.75,1.59,1.62-1.06,2.64-2.83,2.74-4.77,0-1.75-1.23-2.47-2.74-1.59Z"/><path d="M183.08,57.19c-1.62,1.06-2.64,2.83-2.75,4.77,0,1.75,1.23,2.47,2.75,1.59,1.62-1.06,2.64-2.83,2.74-4.77,0-1.75-1.23-2.47-2.74-1.59Z"/><path class="cls-14" d="M174.45,62.2c-1.62,1.06-2.64,2.83-2.74,4.76,0,1.75,1.23,2.47,2.74,1.59,1.62-1.06,2.64-2.83,2.74-4.77,0-1.75-1.23-2.47-2.74-1.58Z"/><path d="M174.45,62.2c-1.62,1.06-2.64,2.83-2.74,4.76,0,1.75,1.23,2.47,2.74,1.59,1.62-1.06,2.64-2.83,2.74-4.77,0-1.75-1.23-2.47-2.74-1.58Z"/><path class="cls-12" d="M157.99,47.8c-.04-.2-.03-.4,.02-.59,.07-.31,.41-.46,.76-.75l3.01-2.27c1.25-.94,2.69-2.05,4.27-3.21l4.93-3.63,9.28-6.74,3.06-2.22,.86-.62,.23-.16c.05-.04,.16,.04,.15,.04,0,0,.05,.12,0,.15l-.22,.18-.83,.65-2.96,2.35-8.97,7.12-4.83,3.77c-1.54,1.2-2.99,2.3-4.24,3.25l-2.99,2.29c-.37,.26-.61,.54-.93,.53-.21,0-.42-.04-.61-.13h0Z"/><path class="cls-12" d="M185.08,27.64c0,.28-.22,.5-.5,.5s-.5-.22-.5-.5,.22-.5,.5-.5,.5,.22,.5,.5Z"/><path class="cls-14" d="M66.73,74.37c12.96,0,23.46-10.49,23.46-23.42s-10.5-23.42-23.46-23.42-23.46,10.49-23.46,23.42,10.5,23.42,23.46,23.42Z"/><path d="M66.73,74.37c12.96,0,23.46-10.49,23.46-23.42s-10.5-23.42-23.46-23.42-23.46,10.49-23.46,23.42,10.5,23.42,23.46,23.42Z"/><path class="cls-1" d="M37.97,118.2c11.28,0,20.43-9.13,20.43-20.4s-9.15-20.4-20.43-20.4-20.43,9.13-20.43,20.4,9.15,20.4,20.43,20.4Z"/><path class="cls-2" d="M32.68,157.49c8.36,0,15.14-7.1,15.14-15.87s-6.78-15.87-15.14-15.87-15.14,7.1-15.14,15.87,6.78,15.87,15.14,15.87Z"/></g></g></svg>