<?xml version="1.0" encoding="UTF-8"?><svg id="Layer_1" xmlns="http://www.w3.org/2000/svg" viewBox="0 0 585.36 585.36"><defs><style>.cls-1{fill:#273339;}</style></defs><path class="cls-1" d="m17.81,292.53c0-39.64-.41-79.3,2.21-118.88,2.78-41.98,15.79-79.72,48.47-109.1,22.82-20.51,50.13-31.53,80.31-36.18,31.93-4.92,64.2-4.2,96.37-4.44,49.99-.38,99.99-.54,149.98.86,26.86.75,53.53,3.18,78.69,13.38,49.36,20,77.83,56.71,88.05,107.32,6.45,31.94,5.56,64.43,5.68,96.78.16,44.04.22,88.1-.33,132.14-.34,27.27-.9,54.64-9.22,81.09-17.45,55.46-55.98,88.27-113.51,100.1-29.48,6.06-59.54,5.38-89.47,5.69-54.05.54-108.1.73-162.14-.63-27.52-.7-54.91-2.94-80.74-13.31-48.9-19.65-77.4-55.82-88.04-105.84-7.04-33.03-5.39-66.65-6.24-100.07-.41-16.29-.07-32.6-.07-48.89Zm49.63.14c0,19.6-.21,39.2.05,58.79.33,24.64.5,49.29,3.87,73.8,5.78,42.04,32.36,71.35,74.33,81.65,14.49,3.55,29.29,4.54,44.14,5.07,56.95,2.06,113.92,1.45,170.88.92,24.71-.23,49.58.05,74-4.85,39.18-7.87,65.27-29.83,76.26-68,4.87-16.9,5.72-34.26,6.32-51.64,1.63-47.99,1.45-96,.92-143.99-.33-29.9.68-59.96-4.94-89.56-5.89-31.02-22.1-55.05-51.71-69.12-20.5-9.73-42.74-11.54-65.08-12.43-41.86-1.66-83.75-1.29-125.63-1.21-37.36.07-74.81-.93-111.95,3.88-38.6,4.99-67.23,23.75-81.41,60.48-6.26,16.24-7.91,33.35-8.75,50.54-1.72,35.21-1.42,70.45-1.31,105.67h0Z"/><path class="cls-1" d="m293.25,154.61c78.45.51,141.19,62.34,140.7,138.67-.49,76.88-64.02,138.12-142.61,137.46-77.28-.64-140.16-62.81-139.9-138.34.26-76.26,64.11-138.29,141.81-137.8Zm.21,48.35c-50.49-.21-92.04,39.75-92.31,88.76-.27,49.79,40.62,90.51,91.04,90.67,50.74.16,92.17-39.92,92.43-89.43.26-49.04-41.03-89.8-91.17-90h0Z"/><path class="cls-1" d="m406.59,133.84c.03-17.73,14.92-32.24,33.08-32.23,18.19.02,32.96,14.46,33.01,32.29.05,17.53-15.2,32.45-33.08,32.35-18.08-.09-33.03-14.78-33-32.41h0Z"/></svg>