<?xml version="1.0" encoding="UTF-8"?><svg id="Layer_1" xmlns="http://www.w3.org/2000/svg" viewBox="0 0 250 250"><defs><style>.cls-1{fill:#aabdbd;}.cls-2{opacity:.4;}.cls-2,.cls-3{isolation:isolate;}.cls-2,.cls-3,.cls-4{fill:#f9f8f4;}.cls-5{fill:#f5f5f5;}.cls-3{opacity:.7;}.cls-6{fill:#e6e6e6;}.cls-7{fill:#59898e;}.cls-8{fill:#d2e5e1;}.cls-9{opacity:.1;}.cls-10{fill:#72818c;}</style></defs><path class="cls-4" d="M57.05,215.59c43.01,23.02,112.75,23.02,155.77,0,43.01-23.02,43.02-60.37,0-83.39-43.02-23.02-112.75-23.03-155.77,0-43.01,23.03-43.01,60.36,0,83.39Z"/><path class="cls-4" d="M225.47,158.46l-6.27-3.66s-1.54-13.48-.52-23.92c1.44-14.68,10.89-32.32,22.15-28.18,11.27,4.13-5.17,19.12-8.82,31.56-3.65,12.44-6.54,24.21-6.54,24.21Z"/><g class="cls-9"><path class="cls-10" d="M225.47,158.46l-6.27-3.66s-1.54-13.48-.52-23.92c1.44-14.68,10.89-32.32,22.15-28.18,11.27,4.13-5.17,19.12-8.82,31.56-3.65,12.44-6.54,24.21-6.54,24.21Z"/><path d="M225.47,158.46l-6.27-3.66s-1.54-13.48-.52-23.92c1.44-14.68,10.89-32.32,22.15-28.18,11.27,4.13-5.17,19.12-8.82,31.56-3.65,12.44-6.54,24.21-6.54,24.21Z"/></g><path class="cls-4" d="M222.2,156.81c-.06,0-.12-.02-.16-.06-.04-.04-.07-.09-.08-.15-2.13-16.46,3.71-41.35,15.5-50.79,.02-.02,.05-.03,.08-.04,.03,0,.06-.01,.09,0,.03,0,.06,.01,.09,.03,.03,.02,.05,.04,.07,.06,.04,.05,.06,.11,.05,.18,0,.06-.04,.12-.09,.16-11.67,9.34-17.44,34.03-15.32,50.34,0,.06,0,.13-.05,.18-.04,.05-.1,.09-.16,.09h-.03Z"/><path class="cls-4" d="M228.82,161.07l-4.46-2.59s-.76-9.25,3.76-20.49c3.93-9.76,13.7-17.9,18.62-16.2,4.91,1.71,4.79,5.2,2.4,8.87-2.4,3.66-16.97,12.4-20.31,30.41Z"/><path class="cls-4" d="M226.05,161.31s-.06,0-.09-.02c-.03-.01-.05-.03-.07-.06-.02-.02-.04-.05-.05-.08-.01-.03-.01-.06-.01-.09,1.47-23.02,13.08-34.35,20.06-36.07,.06-.01,.13,0,.18,.03,.06,.03,.1,.09,.11,.15,.01,.06,0,.13-.03,.18-.03,.05-.09,.09-.15,.11-7.35,1.83-18.32,14.09-19.69,35.63,0,.03-.01,.06-.03,.09-.01,.03-.04,.05-.06,.08-.02,.02-.05,.04-.09,.05-.03,0-.06,.01-.1,0Z"/><path class="cls-4" d="M44.76,160.26s.83-13.52-7-22.79c-7.83-9.27-18.03-9.23-21.4-7.51-3.37,1.73-5.64,6.66,.16,10.19,5.81,3.53,18.15,10.6,20.21,16.9l8.03,3.2Z"/><g class="cls-9"><path class="cls-10" d="M44.76,160.26s.83-13.52-7-22.79c-7.83-9.27-18.03-9.23-21.4-7.51-3.37,1.73-5.64,6.66,.16,10.19,5.81,3.53,18.15,10.6,20.21,16.9l8.03,3.2Z"/><path d="M44.76,160.26s.83-13.52-7-22.79c-7.83-9.27-18.03-9.23-21.4-7.51-3.37,1.73-5.64,6.66,.16,10.19,5.81,3.53,18.15,10.6,20.21,16.9l8.03,3.2Z"/></g><path class="cls-4" d="M41.07,156.87c-.08,0-.15-.03-.2-.08-.06-.05-.09-.12-.1-.19-1.61-14.96-16.52-23.24-22.46-24.18-.04,0-.08-.02-.11-.04-.03-.02-.06-.05-.09-.08-.02-.03-.04-.07-.05-.11,0-.04-.01-.08,0-.12,0-.04,.02-.08,.04-.11,.02-.03,.05-.06,.08-.09,.03-.02,.07-.04,.11-.05,.04,0,.08-.01,.12,0,6.08,.96,21.32,9.43,22.98,24.73,0,.04,0,.08-.01,.12-.01,.04-.03,.07-.06,.11-.03,.03-.06,.06-.09,.08-.04,.02-.07,.03-.11,.03h-.03Z"/><path class="cls-4" d="M38.17,153.44c-1.96-4.49-4.18-6.5-10.57-5.43-6.38,1.07-5.47,.91-13.28-1.1-3.3-.84-7-.98-10.16,.45-2.67,1.22-4.66,3.66-2.08,6.26,2.91,2.9,7.24,3.9,10.45,6.45,.73,.52,1.31,1.22,1.68,2.03,.85,2.16-.85,4.59-.35,6.85,.49,2.26,2.86,3.47,5.09,3.62,2.23,.15,4.42-.52,6.64-.78,2.22-.26,4.71,0,6.24,1.65,1.64,1.75,1.68,4.55,3.21,6.41,2.29,2.79,7.9,3.56,10.94,1.83l7.96-4.6c5.26-7.11-3.04-12.74-7.39-18.26-2.11-2.69-7.2-2.68-8.38-5.38Z"/><path class="cls-4" d="M49.01,172.79c-.05,0-.1-.01-.15-.04-.04-.03-.08-.06-.11-.11-9.08-14.75-33.79-22.21-42.53-22.82-.08,0-.15-.04-.21-.1-.05-.06-.08-.14-.07-.22,0-.08,.04-.16,.1-.21,.06-.05,.14-.08,.22-.08,8.86,.61,33.81,8.18,43.01,23.13,.04,.07,.05,.15,.03,.23-.02,.08-.07,.15-.14,.19-.05,.02-.1,.03-.16,.03Z"/><path class="cls-4" d="M20.26,165.84s-.09,0-.14-.03c-.04-.02-.08-.05-.11-.09-.05-.06-.07-.15-.06-.23,.01-.08,.05-.15,.12-.2,.32-.24,7.85-5.79,15.2-5.9,.04,0,.08,0,.12,.02,.04,.01,.07,.04,.1,.06,.03,.03,.05,.06,.07,.1,.02,.04,.02,.08,.02,.12,0,.04,0,.08-.02,.12-.01,.04-.04,.07-.06,.1-.03,.03-.06,.05-.1,.07-.04,.02-.08,.02-.12,.03-7.13,.1-14.75,5.72-14.83,5.77-.05,.04-.12,.07-.19,.06Z"/><path class="cls-1" d="M48.45,177.97c.06,.89,.34,1.75,.79,2.51,.46,.76,1.09,1.4,1.84,1.88l73.76,42.71c.82,.42,1.72,.63,2.63,.63s1.82-.22,2.63-.63l100.92-58.45c.8-.42,1.46-1.05,1.93-1.82,.46-.77,.71-1.66,.71-2.56s-.25-1.79-.71-2.56c-.46-.77-1.13-1.4-1.93-1.82l-73.76-42.68c-.82-.42-1.72-.63-2.63-.63s-1.82,.22-2.63,.63l-100.93,58.43c-.75,.47-1.38,1.11-1.84,1.87-.46,.76-.73,1.62-.8,2.5Z"/><path class="cls-1" d="M78.88,157.49l-27.8,16.11c-.8,.42-1.46,1.05-1.93,1.82-.46,.77-.71,1.66-.71,2.56s.25,1.79,.71,2.56c.46,.77,1.13,1.4,1.93,1.82l73.77,42.71c.81,.42,1.72,.63,2.63,.61v-68.2h-48.6Z"/><path class="cls-8" d="M45.97,173.68c-.73-.5-1.34-1.17-1.77-1.95-.43-.78-.67-1.65-.7-2.54V80.92c.05-.92,.31-1.81,.77-2.6,.46-.79,1.1-1.47,1.86-1.97L147.06,17.9c.76-.48,1.64-.74,2.54-.76,.9-.02,1.79,.21,2.56,.66,.78,.45,1.42,1.11,1.86,1.89,.44,.79,.65,1.68,.62,2.58V110.57c-.05,.92-.31,1.81-.77,2.6-.46,.79-1.1,1.47-1.86,1.97l-100.92,58.45c-.78,.42-1.66,.64-2.54,.65-.89,.01-1.77-.18-2.56-.57Z"/><path class="cls-1" d="M55.86,85.02l-11.58-6.71c-.46,.79-.71,1.69-.74,2.6v88.29c.03,.89,.27,1.76,.7,2.54,.43,.78,1.03,1.45,1.77,1.95,.8,.39,1.68,.58,2.56,.56,.89-.02,1.76-.24,2.54-.66l11.51-6.66-6.77-81.9Z"/><path class="cls-1" d="M48.45,83.78v88.28c0,1.68,1.18,2.37,2.63,1.52l100.92-58.44c.77-.5,1.4-1.18,1.86-1.97,.46-.79,.72-1.69,.77-2.6V22.29c0-1.68-1.18-2.37-2.63-1.52L51.08,79.21c-.77,.5-1.4,1.18-1.86,1.97-.46,.79-.72,1.69-.77,2.6Z"/><path class="cls-8" d="M51.08,176.65l73.77,42.68c.82,.42,1.72,.63,2.63,.63s1.82-.22,2.63-.63l100.92-58.45c1.46-.84,1.46-2.21,0-3.05l-73.76-42.68c-.82-.42-1.72-.63-2.63-.63s-1.82,.22-2.63,.63l-100.93,58.45c-1.46,.83-1.46,2.2,0,3.05Z"/><path class="cls-4" d="M52.49,84.1L150.59,27.31c.87-.51,1.58-.1,1.58,.91V104.64c-.03,.55-.19,1.08-.46,1.56-.27,.48-.66,.88-1.12,1.18l-98.1,56.8c-.88,.51-1.58,.1-1.58-.91V86.85c.03-.55,.19-1.09,.46-1.56,.27-.48,.66-.88,1.12-1.18Z"/><path class="cls-1" d="M59.64,174.35l93.68-54.27c.41-.21,.86-.32,1.32-.32s.91,.11,1.32,.32l4.8,2.77c.16,.05,.3,.16,.39,.29,.1,.14,.15,.3,.15,.47s-.05,.33-.15,.47c-.1,.14-.24,.24-.39,.29l-93.7,54.26c-.41,.21-.86,.32-1.32,.32s-.91-.11-1.32-.32l-4.78-2.77c-.16-.05-.3-.16-.39-.29-.1-.14-.15-.3-.15-.47s.05-.33,.15-.47,.24-.24,.39-.29Z"/><path class="cls-1" d="M71.99,181.53l93.68-54.27c.41-.21,.86-.32,1.32-.32s.91,.11,1.32,.32l29.47,17.07c.16,.05,.3,.16,.39,.29,.1,.14,.15,.3,.15,.47s-.05,.33-.15,.47c-.1,.14-.24,.24-.39,.29l-93.57,54.16c-.41,.21-.86,.32-1.32,.32s-.91-.11-1.32-.32l-29.57-16.99c-.15-.06-.28-.16-.37-.29-.09-.13-.14-.29-.14-.45s.05-.32,.14-.45c.09-.13,.22-.24,.37-.29Z"/><path class="cls-8" d="M155.96,151.65l2.94-1.7c.12-.07,.12-.19,0-.27l-3.39-1.96c-.07-.04-.15-.06-.23-.06s-.16,.02-.23,.06l-2.93,1.7c-.13,.07-.12,.19,0,.27l3.39,1.96c.07,.04,.15,.06,.23,.06s.16-.02,.23-.06Zm-5.79-6.71l-2.93,1.7c-.13,.07-.12,.19,0,.27l3.39,1.96c.07,.04,.15,.06,.23,.06s.16-.02,.23-.06l2.94-1.7c.12-.07,.12-.2,0-.27l-3.4-1.96c-.07-.04-.15-.06-.23-.06s-.16,.02-.23,.06Zm-9.47,5.49l-4.97,2.87c-.12,.07-.12,.2,0,.27l3.39,1.96c.07,.04,.15,.06,.23,.06s.16-.02,.23-.06l4.96-2.87c.13-.07,.12-.2,0-.27l-3.39-1.97c-.07-.04-.15-.06-.23-.06s-.16,.02-.23,.06Zm5.19-3.01l-2.93,1.7c-.13,.07-.12,.2,0,.27l3.39,1.96c.07,.04,.15,.06,.23,.06s.16-.02,.23-.06l2.94-1.7c.12-.07,.12-.19,0-.27l-3.4-2.01c-.07-.04-.15-.06-.23-.06s-.16,.02-.23,.06v.04Zm-11.51,6.66l-2.93,1.7c-.13,.07-.12,.2,0,.27l3.39,1.96c.07,.04,.15,.05,.23,.05s.16-.02,.23-.05l2.94-1.7c.12-.07,.12-.2,0-.27l-3.39-1.96c-.07-.04-.15-.06-.23-.06s-.16,.02-.23,.06Zm-4.26,2.48l-2.93,1.7c-.13,.07-.12,.19,0,.27l3.39,1.96c.07,.04,.15,.06,.23,.06s.16-.02,.23-.06l2.94-1.7c.12-.07,.12-.2,0-.27l-3.43-2.01c-.07-.04-.15-.06-.23-.06s-.16,.02-.23,.06l.03,.04Zm13.34,7.99l2.93-1.7c.13-.07,.12-.19,0-.27l-3.39-1.96c-.07-.04-.15-.06-.23-.06s-.16,.02-.23,.06l-2.94,1.7c-.12,.07-.12,.19,0,.27l3.39,1.96c.07,.03,.15,.04,.22,.03,.08,0,.15-.03,.22-.06l.03,.03Zm-4.29,2.48l2.94-1.7c.12-.07,.12-.19,0-.27l-3.39-1.96c-.07-.04-.15-.06-.23-.06s-.16,.02-.23,.06l-2.93,1.7c-.13,.07-.12,.2,0,.27l3.39,1.96c.07,.03,.14,.04,.22,.03,.07,0,.15-.03,.21-.06l.03,.03Zm-4.29,2.48l2.94-1.69c.12-.07,.12-.2,0-.27l-3.39-1.96c-.07-.04-.15-.05-.23-.05s-.16,.02-.23,.05l-2.93,1.7c-.13,.07-.12,.2,0,.27l3.39,1.96c.07,.03,.15,.04,.22,.03,.08,0,.15-.03,.22-.06l.03,.03Zm-4.26,2.48l2.94-1.7c.12-.07,.12-.2,0-.27l-3.39-1.96c-.07-.04-.15-.06-.23-.06s-.16,.02-.23,.06l-2.93,1.69c-.13,.07-.12,.2,0,.27l3.39,1.96c.13,.04,.28,.03,.4-.03l.06,.03Zm21.1-17.83l2.94-1.7c.12-.07,.12-.19,0-.27l-3.39-1.96c-.07-.04-.15-.05-.23-.05s-.16,.02-.23,.05l-2.93,1.7c-.13,.07-.12,.2,0,.27l3.39,1.96c.07,.02,.14,.03,.2,.03,.07,0,.14-.02,.2-.06l.06,.03Zm-3.95,7.93l6.54-3.79c.12-.07,.12-.19,0-.27l-8.24-4.77c-.07-.04-.15-.06-.23-.06s-.16,.02-.23,.06l-3.38,1.96c-.13,.07-.12,.19,0,.27l4.37,2.52c.13,.08,.14,.2,0,.27l-2.75,1.5c-.12,.07-.12,.19,0,.27l3.4,1.95c.07,.04,.15,.07,.23,.07,.08,0,.16,0,.24-.04l.06,.05Zm-21.92-3.05l-2.93,1.7c-.13,.07-.12,.19,0,.27l3.39,1.96c.07,.04,.15,.06,.23,.06s.16-.02,.23-.06l2.94-1.7c.12-.07,.12-.19,0-.27l-3.39-1.96c-.08-.05-.17-.09-.26-.09-.09,0-.19,.02-.27,.06l.06,.03Zm-4.26,2.48l-3.03,1.7c-.12,.07-.12,.2,0,.27l3.39,1.96c.07,.04,.15,.06,.23,.06s.16-.02,.23-.06l2.94-1.7c.12-.07,.12-.19,0-.27l-3.42-1.98c-.07-.04-.14-.05-.22-.06-.08,0-.15,.01-.22,.04l.09,.03Zm-21.53,27.8c.07,.04,.15,.06,.23,.06s.16-.02,.23-.06l2.94-1.7c.12-.07,.12-.19,0-.27l-3.4-1.95c-.07-.04-.15-.06-.23-.06s-.16,.02-.23,.06l-2.93,1.7c-.13,.07-.12,.2,0,.27l3.4,1.95Zm-12.87-7.98l-2.94,1.7c-.12,.07-.12,.19,0,.27l3.39,1.96c.07,.04,.15,.06,.23,.06s.16-.02,.23-.06l2.94-1.7c.12-.07,.12-.19,0-.27l-3.39-1.96c-.07-.03-.15-.05-.23-.05s-.15,.02-.22,.05h-.02Zm6.9,5.82c.07,.04,.15,.06,.23,.06s.16-.02,.23-.06l2.93-1.7c.13-.07,.12-.19,0-.27l-3.39-1.96c-.07-.04-.15-.06-.23-.06s-.16,.02-.23,.06l-2.94,1.7c-.12,.07-.12,.2,0,.27l3.39,1.96Zm13.54,3.66l2.94-1.7c.12-.07,.12-.19,0-.27l-3.39-1.96c-.07-.04-.15-.06-.23-.06s-.16,.02-.23,.06l-2.93,1.7c-.13,.07-.12,.19,0,.27l3.39,1.96c.07,.04,.16,.06,.24,.06,.09,0,.17-.02,.24-.06h-.02Zm-4.75,2.43c.07,.04,.15,.06,.23,.06s.16-.02,.23-.06l2.94-1.7c.12-.07,.12-.19,0-.27l-3.39-1.96c-.07-.04-.15-.06-.23-.06s-.16,.02-.23,.06l-2.93,1.7c-.13,.07-.12,.2,0,.27l3.39,1.96Zm-11.4-14.44l-2.93,1.7c-.13,.07-.12,.19,0,.27l3.39,1.96c.07,.04,.15,.06,.23,.06s.16-.02,.23-.06l2.94-1.7c.12-.07,.12-.2,0-.27l-3.39-1.96c-.07-.03-.15-.04-.23-.04-.08,0-.16,.03-.22,.07l-.02-.04Zm21.44-12.41l-2.94,1.69c-.12,.07-.12,.2,0,.27l3.39,1.97c.07,.04,.15,.05,.23,.05s.16-.02,.23-.05l2.93-1.7c.13-.07,.12-.2,0-.27l-3.39-1.96c-.07-.03-.15-.04-.23-.03-.08,0-.15,.03-.22,.07l-.02-.04Zm-17.11,9.96l-2.93,1.69c-.13,.07-.12,.2,0,.27l3.39,1.96c.07,.04,.15,.05,.23,.05s.16-.02,.23-.05l2.94-1.7c.12-.07,.12-.2,0-.27l-3.39-1.97c-.07-.04-.16-.05-.24-.05-.08,0-.16,.02-.24,.06Zm21.44-12.42l-2.96,1.69c-.12,.07-.12,.2,0,.27l3.39,1.96c.07,.04,.15,.06,.23,.06s.16-.02,.23-.06l2.93-1.69c.13-.07,.12-.2,0-.27l-3.38-1.94c-.07-.04-.15-.06-.24-.06s-.16,.01-.24,.05h.02Zm-8.57,4.97l-2.94,1.69c-.12,.07-.12,.2,0,.27l3.39,1.96c.07,.04,.15,.05,.23,.05s.16-.02,.23-.05l2.93-1.7c.13-.07,.12-.19,0-.27l-3.39-1.96c-.08-.04-.16-.06-.25-.06s-.17,.02-.25,.06h.02Zm-4.29,2.48l-2.93,1.69c-.13,.07-.12,.2,0,.27l3.39,1.96c.07,.04,.15,.05,.23,.05s.16-.02,.23-.05l2.93-1.7c.12-.07,.12-.2,0-.27l-3.39-1.96c-.08-.04-.16-.06-.25-.06s-.17,.02-.25,.06h.02Zm-4.32,2.48l-2.93,1.69c-.13,.07-.12,.2,0,.27l3.39,1.96c.07,.04,.15,.06,.23,.06s.16-.02,.23-.06l2.94-1.69c.12-.07,.12-.2,0-.27l-3.39-1.96c-.07-.04-.15-.05-.23-.05s-.16,.02-.23,.05Zm21.92,3.05l2.93-1.69c.13-.07,.12-.2,0-.27l-3.4-2.01c-.07-.04-.15-.05-.23-.05s-.16,.02-.23,.05l-2.94,1.7c-.12,.07-.12,.2,0,.27l3.39,1.96c.07,.04,.16,.07,.24,.07,.08,0,.17-.02,.24-.06v.03Zm37.66-37.51l-2.94,1.7c-.12,.07-.12,.19,0,.27l3.39,1.96c.07,.04,.15,.06,.23,.06s.16-.02,.23-.06l2.93-1.7c.13-.07,.12-.19,0-.27l-3.39-1.96c-.07-.04-.15-.06-.23-.06s-.16,.02-.23,.06Zm-5.19,3.01l-2.93,1.7c-.13,.07-.12,.19,0,.27l3.39,1.96c.07,.04,.15,.05,.23,.05s.16-.02,.23-.05l2.94-1.7c.12-.07,.12-.2,0-.27l-3.39-1.96c-.07-.04-.15-.07-.23-.07-.08,0-.17,0-.24,.04v.03Zm9.48-5.49l-2.93,1.7c-.13,.07-.12,.19,0,.27l3.39,1.96c.07,.04,.15,.06,.23,.06s.16-.02,.23-.06l2.94-1.7c.12-.07,.12-.2,0-.27l-3.39-1.96c-.07-.05-.16-.08-.25-.08-.09,0-.18,.01-.26,.05l.03,.03Zm-22.19,22.95l2.94-1.7c.12-.07,.12-.2,0-.27l-3.39-1.96c-.07-.04-.15-.06-.23-.06s-.16,.02-.23,.06l-2.93,1.7c-.13,.07-.12,.19,0,.27l3.39,1.96c.07,.03,.15,.04,.23,.04s.16-.03,.22-.07v.03Zm26.95-25.42c-.07-.04-.15-.06-.23-.06s-.16,.02-.23,.06l-2.93,1.7c-.13,.07-.12,.19,0,.27l3.39,1.96c.07,.04,.15,.05,.23,.05s.16-.02,.23-.05l2.94-1.7c.12-.07,.12-.2,0-.27l-3.4-1.96Zm-42.41,39.95l2.94-1.69c.12-.07,.12-.2,0-.27l-3.41-1.93c-.07-.04-.15-.06-.23-.06s-.16,.02-.23,.06l-2.93,1.7c-.13,.07-.12,.2,0,.27l3.39,1.96c.08,.03,.16,.05,.24,.04,.08,0,.16-.03,.24-.07Zm52.57-30.44l2.94-1.7c.12-.07,.12-.19,0-.27l-3.41-1.98c-.07-.04-.15-.06-.23-.06s-.16,.02-.23,.06l-2.93,1.7c-.13,.07-.12,.2,0,.27l3.39,1.96c.07,.04,.15,.07,.24,.07,.08,0,.17-.01,.24-.05Zm-9.12-.32l2.94-1.7c.12-.07,.12-.19,0-.27l-3.39-1.96c-.07-.04-.15-.06-.23-.06s-.16,.02-.23,.06l-2.93,1.7c-.13,.07-.12,.19,0,.27l3.39,1.96c.07,.04,.14,.06,.22,.07,.08,0,.16,0,.23-.04v-.03Zm3.82-6.41c-.07-.04-.15-.06-.23-.06s-.16,.02-.23,.06l-2.93,1.7c-.13,.07-.12,.19,0,.27l3.39,1.96c.07,.04,.15,.06,.23,.06s.16-.02,.23-.06l2.94-1.7c.12-.07,.12-.2,0-.27l-3.4-1.96Zm.91-.52l8.23,4.77c.07,.04,.15,.06,.23,.06s.16-.02,.23-.06l2.94-1.7c.12-.07,.12-.19,0-.27l-8.24-4.77c-.07-.04-.15-.06-.23-.06s-.16,.02-.23,.06l-2.93,1.7c-.16,.07-.15,.19-.01,.27h.01Zm-9.95,5.49l-2.94,1.7c-.12,.07-.12,.2,0,.27l3.39,1.96c.07,.04,.15,.06,.23,.06s.16-.02,.23-.06l2.93-1.7c.13-.07,.12-.19,0-.27l-3.39-1.96c-.07-.04-.15-.06-.22-.06-.08,0-.16,.01-.23,.05h-.01Zm-32.26,18.69l-2.95,1.7c-.12,.07-.12,.2,0,.27l3.39,1.96c.07,.04,.15,.06,.23,.06s.16-.02,.23-.06l2.93-1.7c.13-.07,.12-.19,0-.27l-3.39-1.96c-.07-.04-.15-.06-.23-.06-.08,0-.16,.01-.23,.05h.01Zm41.87-14.42c.07,.04,.15,.06,.23,.06s.16-.02,.23-.06l2.94-1.7c.12-.07,.12-.19,0-.27l-3.39-1.96c-.07-.04-.15-.05-.23-.05s-.16,.02-.23,.05l-2.93,1.7c-.13,.07-.12,.2,0,.27l3.39,1.96Zm-37.58,11.95l-2.93,1.7c-.13,.07-.12,.19,0,.27l3.39,1.96c.07,.04,.15,.06,.23,.06s.16-.02,.23-.06l2.94-1.7c.12-.07,.12-.19,0-.27l-3.39-1.96c-.07-.04-.16-.07-.24-.07-.09,0-.17,.02-.25,.06h.01Zm-32.14,28.44c.07,.04,.15,.06,.23,.06s.16-.02,.23-.06l2.94-1.7c.12-.07,.12-.19,0-.27l-3.39-1.96c-.07-.04-.15-.06-.23-.06s-.16,.02-.23,.06l-2.93,1.7c-.13,.07-.12,.19,0,.27l3.39,1.96Zm-6.44-6.1l-2.94,1.7c-.12,.07-.12,.19,0,.27l3.39,1.96c.07,.04,.15,.06,.23,.06s.16-.02,.23-.06l2.93-1.7c.13-.07,.12-.19,0-.27l-3.39-1.96c-.07-.04-.15-.06-.24-.06s-.16,.02-.24,.06h.01Zm11.2,3.62l2.93-1.7c.12-.07,.12-.2,0-.27l-3.39-1.96c-.07-.04-.15-.06-.23-.06s-.16,.02-.23,.06l-2.96,1.68c-.12,.07-.12,.19,0,.27l3.39,1.96c.07,.04,.16,.07,.24,.07,.09,0,.17-.01,.25-.05h.01Zm4.29-2.48l2.93-1.7c.13-.07,.12-.19,0-.27l-3.39-1.96c-.07-.04-.15-.06-.23-.06s-.16,.02-.23,.06l-2.94,1.7c-.12,.07-.12,.2,0,.27l3.39,1.96c.07,.04,.16,.06,.24,.06s.17-.02,.24-.06h-.01Zm4.26-2.49l2.93-1.69c.13-.07,.12-.2,0-.27l-3.39-1.97c-.07-.04-.15-.05-.23-.05s-.16,.02-.23,.05l-2.94,1.7c-.12,.07-.12,.2,0,.27l3.39,1.96c.07,.04,.16,.06,.24,.06s.17-.02,.24-.06h-.01Zm-15.49-1.13l-2.94,1.7c-.12,.07-.12,.19,0,.27l3.39,1.96c.07,.04,.15,.06,.23,.06s.16-.02,.23-.06l2.94-1.7c.12-.07,.12-.2,0-.27l-3.39-1.96c-.07-.03-.15-.05-.22-.05s-.15,.02-.22,.05h-.02Zm4.29-2.48l-2.93,1.7c-.13,.07-.12,.2,0,.27l3.39,1.96c.07,.04,.15,.05,.23,.05s.16-.02,.23-.05l2.99-1.69c.12-.07,.12-.2,0-.27l-3.39-1.96c-.08-.05-.16-.07-.25-.07-.09,0-.18,.02-.26,.06h-.02Zm17.15-9.93l-2.89,1.69c-.12,.07-.12,.2,0,.27l3.39,1.96c.07,.04,.15,.05,.23,.05s.16-.02,.23-.05l2.93-1.69c.13-.07,.12-.2,0-.27l-3.39-1.96c-.08-.04-.16-.06-.25-.06s-.17,.02-.25,.06h-.02Zm-4.29,2.48l-2.93,1.69c-.12,.07-.12,.2,0,.27l3.39,1.96c.07,.04,.15,.05,.23,.05s.16-.02,.23-.05l2.93-1.7c.13-.07,.12-.2,0-.27l-3.39-1.96c-.07-.03-.15-.05-.22-.05s-.15,.02-.22,.05h-.02Zm8.58-4.97l-2.92,1.7c-.12,.07-.12,.2,0,.27l3.39,1.97c.07,.04,.15,.06,.23,.06s.16-.02,.23-.06l2.93-1.7c.13-.07,.12-.19,0-.27l-3.39-1.96c-.07-.03-.15-.05-.23-.05-.08,0-.16,.02-.23,.05h-.02Zm-17.15,9.93l-2.93,1.69c-.13,.07-.12,.2,0,.27l3.39,1.96c.07,.04,.15,.05,.23,.05s.16-.02,.23-.05l2.94-1.7c.12-.07,.12-.2,0-.27l-3.39-1.97c-.07-.03-.15-.05-.23-.05-.08,0-.16,.02-.23,.05h-.02Zm4.29-2.48l-2.93,1.7c-.13,.07-.12,.2,0,.27l3.39,1.96c.07,.04,.15,.06,.23,.06s.16-.02,.23-.06l2.94-1.69c.12-.07,.12-.2,0-.27l-3.39-1.96c-.07-.03-.15-.05-.22-.05s-.15,.02-.22,.05h-.02Zm-3.13,17.52l2.93-1.7c.12-.07,.12-.2,0-.27l-3.39-1.96c-.07-.04-.15-.06-.23-.06s-.16,.02-.23,.06l-2.93,1.7c-.13,.07-.12,.19,0,.27l3.39,1.96c.07,.04,.16,.06,.24,.06s.17-.02,.24-.06h-.02Zm-25.14-2.57l-3.39-1.96c-.07-.04-.15-.06-.23-.06s-.16,.02-.23,.06l-2.92,1.71c-.12,.07-.12,.19,0,.27l3.39,1.96c.07,.04,.15,.06,.23,.06s.16-.02,.23-.06l2.93-1.7c.13-.05,.13-.18,0-.28Zm6.42,1.89l-3.39-1.96c-.07-.04-.15-.05-.23-.05s-.16,.02-.23,.05l-4.49,2.63c-.12,.07-.12,.2,0,.27l3.39,1.96c.07,.04,.15,.06,.23,.06s.16-.02,.23-.06l4.51-2.61c.14-.06,.1-.18-.03-.26v-.02Zm-11.62-5.69l-3.4-1.94c-.07-.04-.15-.06-.23-.06s-.16,.02-.23,.06l-3.6,2.08c-.12,.07-.12,.2,0,.27l3.39,1.96c.07,.04,.15,.06,.23,.06s.16-.02,.23-.06l3.61-2.09c.15-.07,.14-.19,0-.27v-.02Zm2.77-1.6c.07,.04,.15,.06,.23,.06s.16-.02,.23-.06l2.93-1.7c.13-.07,.12-.19,0-.27l-3.39-1.96c-.07-.04-.15-.06-.23-.06s-.16,.02-.23,.06l-2.94,1.7c-.12,.07-.12,.2,0,.27l3.4,1.96Zm14.83,9.45l-3.37-1.94c-.07-.04-.15-.06-.23-.06s-.16,.02-.23,.06l-5.64,3.27c-.12,.07-.12,.2,0,.27l3.39,1.97c.07,.04,.15,.05,.23,.05s.16-.02,.23-.05l5.64-3.27c.12-.07,.12-.2-.02-.27v-.02Zm2.81,3.98l-3.39-1.93c-.07-.04-.15-.06-.23-.06s-.16,.02-.23,.06l-3.61,2.09c-.12,.07-.12,.2,0,.27l3.39,1.96c.07,.04,.15,.05,.23,.05s.16-.02,.23-.05l3.61-2.09c.14-.09,.13-.21,0-.29v-.02Zm14.23-31.88c.07,.04,.15,.06,.23,.06s.16-.02,.23-.06l2.93-1.7c.13-.07,.12-.2,0-.27l-3.39-1.96c-.07-.04-.15-.06-.23-.06s-.16,.02-.23,.06l-2.93,1.73c-.12,.07-.12,.2,0,.27l3.39,1.94Zm-8.58,4.97c.07,.04,.15,.05,.23,.05s.16-.02,.23-.05l2.94-1.69c.12-.07,.12-.2,0-.27l-3.39-1.96c-.07-.04-.15-.05-.23-.05s-.16,.02-.23,.05l-2.93,1.69c-.13,.07-.12,.2,0,.27l3.39,1.96Zm-19.01,11.03c.07,.04,.15,.06,.23,.06s.16-.02,.23-.06l2.93-1.7c.13-.07,.12-.19,0-.27l-3.39-1.96c-.07-.04-.15-.06-.23-.06s-.16,.02-.23,.06l-2.94,1.7c-.12,.07-.12,.19,0,.27l3.4,1.96Zm23.3-13.48c.07,.04,.15,.05,.23,.05s.16-.02,.23-.05l2.94-1.7c.12-.07,.12-.2,0-.27l-3.39-1.96c-.07-.04-.15-.06-.23-.06s-.16,.02-.23,.06l-2.93,1.69c-.13,.07-.12,.2,0,.27l3.39,1.96Zm-8.58,4.96c.07,.04,.15,.06,.23,.06s.16-.02,.23-.06l2.94-1.7c.12-.07,.12-.2,0-.27l-3.39-1.96c-.07-.04-.15-.05-.23-.05s-.16,.02-.23,.05l-2.93,1.69c-.13,.07-.12,.2,0,.27l3.39,1.96Zm.99,24.75c-.07-.04-.15-.05-.23-.05s-.16,.02-.23,.05l-4.51,2.6c-.12,.07-.12,.2,0,.27l3.39,1.96c.07,.04,.15,.06,.23,.06s.16-.02,.23-.06l4.51-2.61c.13-.07,.12-.2,0-.27l-3.39-1.96Zm-7.14-21.18c.07,.04,.15,.05,.23,.05s.16-.02,.23-.05l2.94-1.7c.12-.07,.12-.2,0-.27l-3.39-1.96c-.07-.04-.15-.06-.23-.06s-.16,.02-.23,.06l-2.93,1.7c-.13,.07-.12,.19,0,.27l3.39,1.96Zm-4.29,2.44c.07,.04,.15,.06,.23,.06s.16-.02,.23-.06l2.94-1.7c.12-.07,.12-.2,0-.27l-3.39-1.96c-.07-.04-.15-.06-.23-.06s-.16,.02-.23,.06l-2.93,1.7c-.13,.07-.12,.19,0,.27l3.39,1.96Zm90.85-27.26c-.07-.04-.15-.06-.23-.06s-.16,.02-.23,.06l-7.25,4.17c-.12,.07-.12,.2,0,.27l3.39,1.96c.07,.04,.15,.06,.23,.06s.16-.02,.23-.06l7.26-4.15c.13-.07,.12-.2,0-.27l-3.4-1.98Zm-9.48,5.49c-.07-.04-.15-.06-.23-.06s-.16,.02-.23,.06l-2.93,1.69c-.13,.07-.12,.2,0,.27l3.39,1.96c.07,.04,.15,.05,.23,.05s.16-.02,.23-.05l2.94-1.7c.12-.07,.12-.2,0-.27l-3.4-1.96Zm-58.07,32.23l2.93-1.7c.13-.07,.12-.19,0-.27l-3.39-1.97c-.07-.04-.15-.05-.23-.05s-.16,.02-.23,.05l-2.94,1.69c-.12,.07-.12,.2,0,.27l3.39,1.96c.07,.04,.15,.06,.23,.06,.08,0,.16-.02,.23-.05Zm49.49-27.26c-.07-.04-.15-.05-.23-.05s-.16,.02-.23,.05l-2.94,1.69c-.12,.07-.12,.2,0,.27l3.39,1.96c.07,.04,.15,.06,.23,.06s.16-.02,.23-.06l2.93-1.69c.13-.07,.12-.2,0-.27l-3.39-1.96Zm22.34-12.93c-.07-.04-.15-.05-.23-.05s-.16,.02-.23,.05l-2.93,1.69c-.13,.07-.12,.2,0,.27l3.39,1.97c.07,.04,.15,.05,.23,.05s.16-.02,.23-.05l2.94-1.69c.12-.07,.12-.2,0-.27l-3.4-1.96Zm7.68-.52l-8.24-4.77c-.07-.04-.15-.06-.23-.06s-.16,.02-.23,.06l-2.93,1.7c-.13,.07-.12,.2,0,.27l8.24,4.77c.07,.04,.15,.06,.23,.06s.16-.02,.23-.06l2.94-1.7c.13-.07,.13-.19,0-.27Zm-46.04,22.73c-.07-.04-.15-.06-.23-.06s-.16,.02-.23,.06l-3.61,2.09c-.12,.07-.12,.2,0,.27l3.39,1.96c.07,.04,.15,.06,.23,.06s.16-.02,.23-.06l3.61-2.09c.12-.07,.12-.2,0-.27l-3.39-1.96Zm10.83-6.27c-.07-.04-.15-.06-.23-.06s-.16,.02-.23,.06l-4.51,2.61c-.12,.07-.12,.2,0,.27l3.39,1.97c.07,.04,.15,.05,.23,.05s.16-.02,.23-.05l4.51-2.61c.12-.07,.12-.2,0-.27l-3.39-1.96Zm-20.76,12.02c-.07-.04-.15-.05-.23-.05s-.16,.02-.23,.05l-24.14,13.98c-.12,.07-.12,.2,0,.27l3.39,1.96c.07,.04,.15,.05,.23,.05s.16-.02,.23-.05l24.14-13.98c.12-.07,.12-.19,0-.27l-3.39-1.96Zm-25.5,14.77c-.07-.04-.15-.06-.23-.06s-.16,.02-.23,.06l-3.61,2.09c-.13,.07-.12,.2,0,.27l3.39,1.96c.07,.04,.15,.06,.23,.06s.16-.02,.23-.06l3.63-2.07c.12-.07,.12-.2,0-.27l-3.42-1.99Zm30.46-17.64c-.07-.04-.15-.06-.23-.06s-.16,.02-.23,.06l-3.61,2.09c-.13,.07-.12,.2,0,.27l3.39,1.96c.07,.04,.15,.05,.23,.05s.16-.02,.23-.05l3.61-2.09c.13-.07,.12-.19,0-.27l-3.4-1.97Zm-35.42,20.51c-.07-.04-.15-.05-.23-.05s-.16,.02-.23,.05l-3.61,2.09c-.12,.07-.12,.2,0,.27l3.39,1.96c.07,.04,.15,.05,.23,.05s.16-.02,.23-.05l3.61-2.09c.13-.07,.12-.2,0-.27l-3.39-1.97Zm45.35-26.26c-.07-.04-.15-.05-.23-.05s-.16,.02-.23,.05l-3.61,2.09c-.13,.07-.12,.2,0,.27l3.39,1.96c.07,.04,.15,.05,.23,.05s.16-.02,.23-.05l3.61-2.09c.13-.07,.12-.2,0-.27l-3.4-1.96Zm15.35-8.88c-.07-.04-.15-.06-.23-.06s-.16,.02-.23,.06l-2.93,1.7c-.13,.07-.12,.2,0,.27l3.39,1.96c.07,.04,.15,.05,.23,.05s.16-.02,.23-.05l2.94-1.69c.12-.07,.12-.2,0-.27l-3.4-1.96Zm9.39-6.84l2.93-1.69c.13-.07,.12-.2,0-.27l-3.39-1.96c-.07-.04-.15-.05-.23-.05s-.16,.02-.23,.05l-2.94,1.7c-.12,.07-.12,.2,0,.27l3.39,1.97c.07,.04,.16,.06,.24,.06s.16-.02,.24-.06h0Zm-19.15-.09l2.94-1.7c.12-.07,.12-.2,0-.27l-3.39-1.96c-.07-.04-.15-.06-.23-.06s-.16,.02-.23,.06l-2.93,1.7c-.13,.07-.12,.19,0,.27l3.39,1.96c.07,.04,.15,.06,.23,.06s.16-.02,.23-.06Zm-9.73,16.85l8.57-4.96c.12-.07,.12-.2,0-.27l-3.39-1.96c-.07-.04-.15-.05-.23-.05s-.16,.02-.23,.05l-8.57,4.97c-.12,.07-.12,.19,0,.27l3.39,1.96c.07,.03,.16,.05,.24,.04,.08,0,.16-.03,.23-.07v.03Zm24.12-14.25c.07,.04,.15,.05,.23,.05s.16-.02,.23-.05l2.93-1.7c.13-.07,.12-.2,0-.27l-3.39-1.96c-.07-.04-.15-.06-.23-.06s-.16,.02-.23,.06l-2.94,1.69c-.12,.07-.12,.2,0,.27l3.4,1.96Zm-4.38-2.8l2.93-1.69c.13-.07,.12-.2,0-.27l-3.39-1.96c-.07-.04-.15-.05-.23-.05s-.16,.02-.23,.05l-2.94,1.7c-.12,.07-.12,.2,0,.27l3.39,1.97c.08,.03,.16,.04,.24,.04,.08,0,.16-.03,.23-.07v.03Zm-24.03,19.51l2.93-1.7c.13-.07,.12-.19,0-.27l-3.39-1.96c-.07-.04-.15-.06-.23-.06s-.16,.02-.23,.06l-2.95,1.7c-.13,.07-.12,.19,0,.27l3.39,1.96c.08,.05,.17,.07,.26,.07,.09,0,.18-.03,.26-.07h-.03Zm18.93-11.23c.07,.04,.15,.05,.23,.05s.16-.02,.23-.05l2.94-1.7c.12-.07,.12-.2,0-.27l-3.39-1.96c-.07-.04-.15-.05-.23-.05s-.16,.02-.23,.05l-2.93,1.7c-.13,.07-.12,.2,0,.27l3.39,1.96Zm-40.37,23.64l2.93-1.7c.13-.07,.12-.2,0-.27l-3.39-1.96c-.07-.04-.15-.05-.23-.05s-.16,.02-.23,.05l-2.94,1.69c-.12,.07-.12,.2,0,.27l3.39,1.96c.07,.04,.15,.06,.24,.06s.16-.02,.24-.06Zm4.29-2.48l2.94-1.69c.12-.07,.12-.2,0-.27l-3.39-1.96c-.07-.04-.15-.06-.23-.06s-.16,.02-.23,.06l-2.94,1.69c-.12,.07-.12,.2,0,.27l3.39,1.96c.07,.04,.15,.05,.23,.05s.16-.02,.23-.05Zm-8.57,4.96l2.93-1.69c.13-.07,.12-.2,0-.27l-3.39-1.96c-.07-.04-.15-.05-.23-.05s-.16,.02-.23,.05l-2.94,1.7c-.12,.07-.12,.2,0,.27l3.39,1.96c.07,.04,.15,.06,.23,.06s.16-.02,.23-.06Zm17.14-9.93l2.94-1.7c.12-.07,.12-.2,0-.27l-3.39-1.96c-.07-.04-.15-.05-.23-.05s-.16,.02-.23,.05l-2.93,1.7c-.13,.07-.12,.2,0,.27l3.39,1.96c.07,.04,.15,.06,.23,.06s.16-.02,.23-.06Zm-4.26,2.48l2.94-1.69c.12-.07,.12-.2,0-.27l-3.45-1.96c-.07-.04-.15-.06-.23-.06s-.16,.02-.23,.06l-2.93,1.7c-.13,.07-.12,.2,0,.27l3.39,1.97c.07,.04,.16,.06,.24,.06s.17-.02,.24-.06h.03Zm8.57-4.96l2.94-1.7c.12-.07,.12-.19,0-.27l-3.39-1.96c-.07-.04-.15-.06-.23-.06s-.16,.02-.23,.06l-2.98,1.66c-.13,.07-.12,.2,0,.27l3.39,1.96c.07,.05,.15,.07,.24,.08,.09,0,.17,0,.25-.04h.03Zm19.61-36.73c.07,.04,.15,.06,.23,.06s.16-.02,.23-.06l2.94-1.7c.12-.07,.12-.19,0-.27l-.9-.52c-.07-.04-.15-.06-.23-.06s-.16,.02-.23,.06l-2.94,1.69c-.12,.07-.12,.2,0,.27l.9,.52Zm-21.09,13.66c.07,.04,.15,.06,.23,.06s.16-.02,.23-.06l2.93-1.7c.13-.07,.12-.2,0-.27l-3.39-1.96c-.07-.04-.15-.05-.23-.05s-.16,.02-.23,.05l-2.94,1.69c-.12,.07-.12,.2,0,.27l3.4,1.96Zm8.57-4.96c.07,.04,.15,.05,.23,.05s.16-.02,.23-.05l2.94-1.7c.12-.07,.12-.2,0-.27l-3.39-1.96c-.07-.04-.15-.06-.23-.06s-.16,.02-.23,.06l-2.95,1.69c-.13,.07-.12,.2,0,.27l3.41,1.96Zm-13.81,7.99c.07,.04,.15,.05,.23,.05s.16-.02,.23-.05l2.93-1.7c.13-.07,.12-.2,0-.27l-3.39-1.97c-.07-.04-.15-.05-.23-.05s-.16,.02-.23,.05l-2.94,1.69c-.12,.07-.12,.2,0,.27l3.4,1.97Zm9.52-5.49c.07,.04,.15,.05,.23,.05s.16-.02,.23-.05l2.94-1.69c.12-.07,.12-.2,0-.27l-3.39-1.96c-.07-.04-.15-.05-.23-.05s-.16,.02-.23,.05l-2.93,1.7c-.13,.07-.12,.2,0,.27l3.39,1.96Zm-18.12,10.45c.07,.04,.15,.06,.23,.06s.16-.02,.23-.06l2.93-1.7c.13-.07,.12-.2,0-.27l-3.39-1.96c-.07-.04-.15-.06-.23-.06s-.16,.02-.23,.06l-2.94,1.7c-.12,.07-.12,.19,0,.27l3.39,1.96Zm4.29-2.48c.07,.04,.15,.05,.23,.05s.16-.02,.23-.05l2.93-1.7c.13-.07,.12-.2,0-.27l-3.39-1.96c-.07-.04-.15-.06-.23-.06s-.16,.02-.23,.06l-2.94,1.7c-.12,.07-.12,.19,0,.27l3.39,1.96Zm22.04-14.2c.07,.04,.15,.05,.23,.05s.16-.02,.23-.05l2.94-1.69c.12-.07,.12-.2,0-.27l-.91-.52c-.07-.04-.15-.05-.23-.05s-.16,.02-.23,.05l-2.93,1.69c-.13,.07-.12,.2,0,.27l.9,.52Zm12.86-7.45c.07,.04,.15,.06,.23,.06s.16-.02,.23-.06l2.94-1.7c.12-.07,.12-.19,0-.27l-.9-.52c-.07-.04-.15-.06-.23-.06s-.16,.02-.23,.06l-2.94,1.69c-.12,.07-.12,.2,0,.27l.91,.52Zm7.12,4.13c.07,.04,.15,.05,.23,.05s.16-.02,.23-.05l2.94-1.7c.12-.07,.12-.2,0-.27l-3.39-1.97c-.07-.04-.15-.05-.23-.05s-.16,.02-.23,.05l-2.93,1.69c-.13,.07-.12,.2,0,.27l3.39,1.97Zm10.72,10.91l2.94-1.7c.12-.07,.12-.19,0-.27l-3.39-1.96c-.07-.04-.15-.05-.23-.05s-.16,.02-.23,.05l-2.93,1.7c-.13,.07-.12,.2,0,.27l3.39,1.96c.07,.04,.15,.06,.23,.06s.16-.02,.23-.06Zm-26.42-10.07c.07,.04,.15,.05,.23,.05s.16-.02,.23-.05l2.94-1.7c.12-.07,.12-.2,0-.27l-.91-.52c-.07-.04-.15-.05-.23-.05s-.16,.02-.23,.05l-2.93,1.7c-.12,.07-.12,.2,0,.27l.9,.52Zm-34.9,21.65c.07,.04,.15,.06,.23,.06s.16-.02,.23-.06l2.93-1.7c.12-.07,.12-.19,0-.27l-3.39-1.96c-.07-.04-.15-.06-.23-.06s-.16,.02-.23,.06l-2.93,1.7c-.12,.07-.12,.19,0,.27l3.39,1.96Z"/><path class="cls-1" d="M139.82,185.12l32.1-18.59,19.76,11.44-32.11,18.59-19.75-11.44Z"/><path class="cls-5" d="M68.47,91.44l95.67-55.4c1.87-1.09,3.4-.2,3.4,1.97V112.32c-.03,.55-.19,1.08-.46,1.56-.27,.48-.66,.88-1.12,1.18l-98.1,56.8c-.87,.5-1.58,.09-1.58-.91V95.24c.04-.76,.26-1.5,.64-2.16,.38-.66,.91-1.22,1.54-1.64Z"/><path class="cls-7" d="M167.56,39.79v-1.78c0-2.16-1.53-3.05-3.4-1.97l-95.7,55.4c-.64,.42-1.16,.98-1.54,1.64-.38,.66-.6,1.4-.64,2.16v3.19l101.29-58.63Z"/><path class="cls-4" d="M153.29,43.85c-.34,.22-.63,.52-.83,.88-.2,.35-.32,.75-.34,1.16,0,.75,.52,1.05,1.17,.68,.34-.22,.62-.52,.83-.87,.2-.35,.32-.75,.34-1.16,0-.75-.52-1.05-1.17-.68Z"/><path class="cls-4" d="M157.93,41.16c-.34,.22-.62,.52-.83,.88s-.32,.75-.34,1.16c0,.75,.52,1.05,1.17,.68,.34-.22,.63-.52,.83-.88,.2-.35,.32-.75,.34-1.16,0-.75-.52-1.05-1.17-.68Z"/><path class="cls-4" d="M162.59,38.46c-.34,.22-.62,.52-.83,.88-.2,.35-.32,.75-.35,1.16,0,.75,.53,1.05,1.17,.68,.34-.22,.62-.52,.83-.87,.2-.35,.32-.75,.34-1.16,0-.75-.53-1.05-1.17-.68Z"/><path class="cls-1" d="M89.9,134.81l-3.72-2.16-9.12,15.84,3.72,2.16,9.12-15.84Z"/><path class="cls-7" d="M89.91,134.81l-1.86-1.08-9.12,15.84,1.86,1.08,9.12-15.84Z"/><path class="cls-7" d="M67.07,179.42c-1.7,2.96-9.73-1.74-8.04-4.65l20.94-32.76c.06-.09,.14-.15,.25-.18,.1-.02,.21,0,.3,.04l4.21,2.44c.09,.05,.16,.14,.19,.24,.03,.1,.02,.21-.03,.3l-17.82,34.57Z"/><g class="cls-9"><path class="cls-10" d="M67.07,179.42l17.81-34.57c.05-.09,.06-.2,.03-.3-.03-.1-.1-.19-.19-.24l-1.92-1.11-20.42,36.41c1.86,.92,3.92,1.15,4.68-.19Z"/><path d="M67.07,179.42l17.81-34.57c.05-.09,.06-.2,.03-.3-.03-.1-.1-.19-.19-.24l-1.92-1.11-20.42,36.41c1.86,.92,3.92,1.15,4.68-.19Z"/></g><path class="cls-7" d="M128.66,102.29c0-.25,0-.49-.04-.74-.04-.24,0-.48-.05-.72s0-.32-.05-.48c-.04-.41-.1-.82-.17-1.22-.03-.18-.06-.36-.1-.54-.04-.18-.07-.33-.1-.5-.1-.45-.21-.89-.34-1.31-.07-.2-.13-.4-.19-.61-.01-.03-.02-.06-.03-.09-.07-.2-.14-.38-.21-.57-.07-.18-.17-.43-.27-.61-.1-.18-.13-.3-.21-.44-.04-.11-.1-.22-.16-.32-.06-.13-.13-.26-.2-.38-.07-.12-.03-.06-.05-.09-.02-.02-.13-.22-.19-.33-.07-.11-.09-.14-.13-.21-.31-.49-.66-.96-1.05-1.4l-.19-.22-.16-.17c-.07-.07-.14-.14-.21-.21-.19-.2-.39-.39-.61-.57-.1-.09-.21-.18-.32-.26l-.33-.24c-.17-.13-.35-.25-.54-.35l-.15-.09h-.03l-8.61-4.99-.05-.03c-1.65-.92-3.52-1.4-5.41-1.37-2.82,0-6.01,.93-9.38,2.88-11.59,6.71-20.99,23.04-20.99,36.46,0,6.71,2.34,11.4,6.11,13.61h.04l8.62,4.98h.04l.1,.05c.16,.1,.33,.18,.5,.26,.21,.1,.42,.2,.61,.28,.19,.09,.38,.15,.58,.21l.31,.09c.11,.04,.22,.07,.33,.1,.11,.03,.23,.06,.34,.09,.08,.02,.16,.04,.25,.05,.15,.03,.3,.06,.46,.08,.03,0,.07,0,.1,0,.18,.03,.36,.06,.55,.07,3.13,.33,6.76-.56,10.65-2.8,11.59-6.71,20.99-23.04,20.99-36.46-.03-.28-.03-.6-.03-.91Zm-14.06-9.49c.46,1.67,.68,3.39,.66,5.12,0,11.84-8.64,26.83-18.85,32.77-1.49,.89-3.1,1.56-4.78,1.99-.45-1.67-.68-3.4-.66-5.13,0-11.84,8.64-26.83,18.85-32.77,1.49-.89,3.09-1.56,4.77-1.99h.02Z"/><g class="cls-9"><path class="cls-10" d="M92.52,141.01l-8.37-4.84c-3.78-2.21-6.11-6.92-6.11-13.6,0-5.99,1.87-12.55,4.97-18.57l8.62,4.98c-3.1,6.02-4.97,12.59-4.97,18.57,0,6.56,2.22,11.2,5.86,13.47Z"/><path d="M92.52,141.01l-8.37-4.84c-3.78-2.21-6.11-6.92-6.11-13.6,0-5.99,1.87-12.55,4.97-18.57l8.62,4.98c-3.1,6.02-4.97,12.59-4.97,18.57,0,6.56,2.22,11.2,5.86,13.47Z"/></g><path class="cls-2" d="M128.66,102.29c0-.25,0-.49-.04-.74-.04-.24,0-.48-.05-.72s0-.32-.05-.48c-.04-.41-.1-.82-.17-1.22-.03-.18-.06-.36-.1-.54-.04-.18-.07-.34-.1-.5-.1-.45-.21-.89-.34-1.31-.07-.2-.13-.4-.19-.61-.01-.03-.02-.06-.03-.09-.07-.2-.14-.38-.21-.57-.07-.18-.17-.43-.27-.61-.1-.18-.13-.3-.21-.45-.04-.11-.1-.22-.16-.32-.06-.13-.13-.26-.2-.38-.07-.12-.03-.06-.05-.09-.02-.02-.13-.22-.19-.33-.07-.11-.09-.14-.13-.21-.31-.49-.66-.96-1.05-1.4l-.19-.22-.16-.17c-.07-.07-.14-.14-.21-.21-.19-.2-.39-.39-.61-.57-.1-.09-.21-.18-.32-.26l-.33-.24c-.17-.13-.35-.25-.54-.35-3.81-2.32-9.12-2.05-15.02,1.36-11.59,6.71-20.99,23.04-20.99,36.46,0,6.8,2.43,11.55,6.29,13.71,.16,.1,.33,.18,.5,.26,.21,.1,.42,.2,.61,.28,.19,.09,.38,.15,.58,.21l.31,.09c.11,.04,.22,.07,.33,.1,.11,.03,.23,.06,.34,.09,.08,.02,.17,.04,.25,.06,.15,.03,.3,.06,.46,.08,.03,0,.07,0,.1,0,.18,.03,.36,.06,.55,.07,3.13,.33,6.76-.56,10.65-2.8,11.59-6.71,20.99-23.04,20.99-36.46-.02-.3-.02-.62-.02-.94Zm-23.1,33.73c-2.6,1.51-5.11,2.3-7.25,2.3-4.02,0-5.87-2.75-6.69-5.63-.45-1.67-.68-3.4-.66-5.13,0-11.84,8.64-26.83,18.85-32.77,1.49-.89,3.1-1.56,4.78-1.99,.8-.2,1.61-.3,2.43-.31,6.65,0,7.36,7.52,7.36,10.76,.02,11.82-8.61,26.85-18.82,32.77Z"/><g class="cls-9"><path class="cls-10" d="M124.4,103.25c0,11.84-8.63,26.83-18.85,32.77-2.6,1.51-5.11,2.3-7.25,2.3-4.02,0-5.87-2.75-6.69-5.63,1.68-.43,3.29-1.1,4.78-1.99,10.23-5.92,18.85-20.93,18.85-32.77,.02-1.73-.21-3.45-.66-5.12,.8-.2,1.61-.3,2.43-.31,6.66,.02,7.38,7.52,7.38,10.76Z"/><path d="M124.4,103.25c0,11.84-8.63,26.83-18.85,32.77-2.6,1.51-5.11,2.3-7.25,2.3-4.02,0-5.87-2.75-6.69-5.63,1.68-.43,3.29-1.1,4.78-1.99,10.23-5.92,18.85-20.93,18.85-32.77,.02-1.73-.21-3.45-.66-5.12,.8-.2,1.61-.3,2.43-.31,6.66,.02,7.38,7.52,7.38,10.76Z"/></g><path class="cls-3" d="M120.75,101.18c0,11.84-8.63,26.83-18.85,32.77-2.6,1.51-5.11,2.3-7.25,2.3-.43,0-.85-.03-1.27-.1-.82-1.02-1.42-2.2-1.76-3.46-.45-1.67-.68-3.4-.66-5.13,0-11.84,8.64-26.83,18.85-32.77,1.49-.89,3.1-1.56,4.78-1.99,.8-.2,1.61-.3,2.43-.31,.43,0,.85,.03,1.28,.1,2.1,2.48,2.44,6.46,2.44,8.59Z"/><path class="cls-6" d="M135.45,88.84v13.5c0,1.01,.71,1.42,1.58,.91l88.22-51.08c.46-.3,.84-.71,1.12-1.18,.27-.48,.43-1.01,.46-1.56v-13.52c0-1.01-.71-1.42-1.58-.91l-88.22,51.08c-.46,.3-.85,.71-1.12,1.19-.27,.48-.43,1.02-.46,1.57Z"/><path class="cls-7" d="M137.03,86.08l15.71-9.09v17.16l-15.71,9.09c-.87,.51-1.58,.1-1.58-.91v-13.48c.03-.55,.19-1.09,.46-1.57,.27-.48,.66-.89,1.12-1.19Z"/><path class="cls-4" d="M147.54,84.48c-.99-.57-2.24-.48-3.53,.26-1.22,.78-2.23,1.85-2.96,3.11-.72,1.26-1.14,2.67-1.21,4.12-.04,.94,.25,1.86,.83,2.6l-1.69,2.9c-.11,.21-.14,.45-.07,.68,.06,.23,.21,.42,.41,.54,.14,.08,.3,.12,.46,.12,.16,0,.32-.04,.46-.12,.14-.08,.25-.2,.33-.33l1.67-2.9c.18,.03,.36,.05,.55,.05,.75-.01,1.48-.22,2.12-.61,1.22-.79,2.23-1.85,2.95-3.11,.72-1.26,1.14-2.67,1.21-4.12,.02-1.48-.53-2.62-1.53-3.2Zm-3.53,8.84c-.21,.23-.5,.38-.81,.43-.31,.05-.63-.01-.9-.17-.27-.16-.48-.4-.6-.69-.12-.29-.13-.62-.04-.92,.07-1.13,.4-2.22,.97-3.2,.56-.98,1.35-1.81,2.29-2.44,.36-.23,.78-.37,1.22-.38,.18,0,.35,.04,.51,.12,.23,.2,.4,.45,.51,.73,.11,.28,.14,.59,.1,.89-.07,1.13-.4,2.22-.96,3.2-.56,.98-1.34,1.81-2.28,2.44Z"/></svg>