<?xml version="1.0" encoding="UTF-8"?><svg id="Layer_1" xmlns="http://www.w3.org/2000/svg" viewBox="0 0 585.36 585.36"><defs><style>.cls-1{fill:#273339;}</style></defs><path class="cls-1" d="m567.57,242.27c-.12-32.35.77-64.84-5.68-96.78-10.22-50.62-38.69-87.32-88.05-107.32-25.16-10.2-51.83-12.63-78.69-13.37-49.99-1.4-99.98-1.23-149.98-.86-32.17.24-64.45-.48-96.37,4.44-30.18,4.65-57.49,15.67-80.31,36.18-32.68,29.38-45.69,67.12-48.47,109.1-2.62,39.59-2.22,79.24-2.21,118.88,0,16.29-.34,32.61.07,48.89.85,33.42-.8,67.04,6.23,100.07,10.64,50.02,39.14,86.19,88.04,105.84,25.84,10.38,53.23,12.62,80.74,13.31,54.04,1.37,108.09,1.17,162.14.63,29.93-.3,59.99.37,89.47-5.69,57.53-11.83,96.06-44.64,113.51-100.1,8.32-26.45,8.88-53.82,9.22-81.09.55-44.04.49-88.1.33-132.14Zm-383.46,217.33c-21.4-.22-42.81-.24-64.21.01-6.08.08-7.57-2.26-7.54-7.57.16-34.95.08-69.9.08-104.85h0c0-34.53,0-69.05,0-103.58.02-8.47.18-8.65,8.89-8.65,20.74-.03,41.47.13,62.21-.09,5.81-.06,7.77,1.92,7.77,7.41-.08,70.12,0,140.22.18,210.34.01,5.26-1.89,7.02-7.38,6.97Zm-10.29-262.41c-6.93,3.51-14.17,6.26-21.16,5.57h0c-21.75-.38-45.85-15.24-44-41.05,1.05-14.65,9.59-24.77,22.76-31.45,16.84-8.56,40.47-4.53,53.52,8.74,17.68,17.98,12.3,46.39-11.1,58.2Zm302.65,252.39c0,6.64-3.6,9.96-10.77,9.96h-57.53c-6.94,0-10.41-3.22-10.41-9.63-.02-39.62-.03-79.23.01-118.85,0-8.84-1.61-17.43-5.78-25.24-8.65-16.2-28.67-22.08-47.95-14.32-10.97,4.43-19.42,11.85-26.09,21.18-2.3,3.23-2.02,6.84-2.02,10.43-.02,42.36-.02,84.74-.02,127.12,0,9.27-.02,9.29-9.5,9.29h-58.87c-6.95,0-10.43-3.22-10.43-9.63v-93.44h0c-.01-28.39-.14-56.78.04-85.17.07-10.35.88-20.7,1.17-31.06.1-3.8,1.85-5.28,5.73-5.28,21.62.06,43.27.08,64.89,0,4.44-.01,5.86,2.06,5.76,5.91-.11,4.87-.07,9.75.04,14.62.04,2.05-.47,4.63,2.14,5.53,2.5.86,4.08-1.25,5.59-2.72,7.01-6.87,14.33-13.29,23.29-17.91,26.9-13.93,53.93-13.24,81.55-1.76,32.56,13.54,43.36,40.16,47.74,70.56,3.12,21.7,1.11,43.58,1.35,65.39.28,25,.07,50,.07,75Z"/></svg>