<?xml version="1.0" encoding="UTF-8"?><svg id="Layer_1" xmlns="http://www.w3.org/2000/svg" viewBox="0 0 250 250"><defs><style>.cls-1{fill:#273339;}</style></defs><path class="cls-1" d="M161.29,194.26c8.94-6.64,18.88-12.1,25.61-21.43-.1-.14-.21-.27-.32-.41-1.56,1.27-3.11,2.55-4.67,3.83-.09-.09-.19-.19-.28-.28,.92-1.03,1.83-2.08,2.76-3.1,10.13-11.14,16.31-24.2,18.25-39.13,3.07-23.63-3.83-44.1-20.51-60.99-13.3-13.46-29.71-20.83-48.4-22.85-23.19-2.51-43.83,3.81-61.93,18.6-13.7,11.2-21.82,25.77-25.64,42.93-2.37,3.61-1.84,7.88-2.62,11.93-.47-1.39-.51-5.85-.05-8.41,.63-3.57,1.12-7.17,2.19-10.65,.06-.18,.19-.38,.15-.53-1.25-4.53,1.53-8,3.26-11.62,8.5-17.86,21.84-30.98,39.77-39.07,23.54-10.61,47.43-10.77,71.3-.98,18.56,7.61,32.64,20.4,42.31,38.04,4.08,7.44,5.98,15.61,7.27,23.92,1.02,6.59,1.04,13.21,.4,19.84-.33,3.4-1.81,6.48-2.43,9.81-3.8,20.49-16.01,35.23-32.52,46.67-12.59,8.72-26.73,13.51-42.05,14.55-1.4,.09-2.79,.4-4.2-.25,2.23-.29,4.46-.57,6.68-.87,.24-.03,.68,.12,.64-.35-.01-.12-.39-.21-.67-.35,54.72-7.6,78.51-54.59,72.16-90.03-.42,.85-.27,1.58-.27,2.27,.06,7.58,.2,15.18-1.46,22.62-5.76,25.74-20.16,44.67-44.06,56.02-.22,.1-.45,.18-.67,.27h0Z"/><path class="cls-1" d="M106.5,180.76c-5.5,.36-10.76-.67-15.57-3.52-3.03-1.79-5.48-4.12-6.43-7.7-.88-3.32-.03-6.33,1.75-9.11,2.79-4.35,6.71-7.55,10.93-10.37,4.93-3.29,10.06-6.25,15.44-8.75,2.39-1.11,2.44-1.52,.44-3.34-6.14-5.59-12.58-10.85-18.21-16.99-3.04-3.32-6.09-6.72-7.27-11.22-1.58-5.99-.02-11.39,3.58-16.27,3.54-4.8,8.32-8.05,13.48-10.79,10.63-5.64,21.76-9.9,33.68-11.83,5.51-.89,11.04-1.11,16.51,.3,4.74,1.22,7.39,3.93,7.78,7.78,.46,4.5-2.09,9.13-6.15,11.13-.9,.44-1.82,.84-2.82,.94-.59,.06-1.16-.08-1.34-.74-.16-.61,.3-.87,.75-1.13,1.14-.63,2.33-1.2,3.4-1.96,2.77-1.97,4.14-4.7,3.62-8.1-.5-3.27-2.94-4.81-5.84-5.65-4.61-1.34-9.27-.89-13.9-.14-13.41,2.15-25.84,6.85-37.13,14.47-3.22,2.17-6.17,4.68-8.62,7.72-4.66,5.78-5.1,12.89-1.12,19.2,3.1,4.93,7.32,8.85,11.54,12.75,3.58,3.31,7.28,6.47,10.85,9.78,1.46,1.35,2.84,1.62,4.73,.96,14.34-5.02,28.94-9.21,43.72-12.71,.95-.23,2.48-1.02,2.76,.16,.25,1.04-1.5,.87-2.37,1.1-14.04,3.64-27.95,7.7-41.59,12.65-3.27,1.18-3.31,1.4-.86,3.99,3.66,3.86,7.16,7.83,9.24,12.86,3.34,8.08,.51,16.33-7.14,20.53-5.54,3.04-11.48,4.4-17.84,4.01h0Zm-1.13-2.91c7.28-.07,13.89-1.41,19.59-5.83,3.23-2.5,5-5.75,4.71-9.88-.22-3.23-1.42-6.18-3.15-8.93-2.29-3.61-5.21-6.69-8.09-9.82-1.1-1.2-2.09-1.26-3.45-.59-4.77,2.31-9.41,4.87-13.91,7.66-4.19,2.6-8.22,5.48-11.4,9.33-4.46,5.39-2.84,12.49,3.48,15.49,3.95,1.87,8.13,2.7,12.22,2.56h0Z"/></svg>