<?xml version="1.0" encoding="UTF-8"?><svg id="Layer_1" xmlns="http://www.w3.org/2000/svg" viewBox="0 0 436 413"><defs><style>.cls-1{fill:#f3f2ee;}</style></defs><g><path class="cls-1" d="m281.96,306.85c16.63-12.29,35.11-22.38,47.62-39.64-.2-.25-.39-.51-.59-.76-2.89,2.36-5.79,4.72-8.68,7.08-.17-.17-.34-.35-.52-.52,1.71-1.91,3.41-3.84,5.14-5.73,18.84-20.61,30.32-44.78,33.93-72.4,5.71-43.72-7.12-81.59-38.13-112.83-24.73-24.91-55.23-38.53-89.99-42.27-43.1-4.64-81.5,7.06-115.14,34.42-25.48,20.73-40.56,47.67-47.66,79.42-4.41,6.69-3.42,14.58-4.86,22.07-.87-2.57-.94-10.83-.1-15.57,1.17-6.6,2.09-13.26,4.08-19.7.1-.33.36-.71.28-.99-2.33-8.38,2.85-14.81,6.06-21.5,15.81-33.05,40.6-57.32,73.95-72.27,43.77-19.63,88.18-19.93,132.55-1.82,34.51,14.08,60.69,37.74,78.67,70.38,7.59,13.78,11.12,28.88,13.51,44.26,1.9,12.19,1.94,24.43.74,36.71-.62,6.28-3.38,11.99-4.52,18.15-7.07,37.91-29.77,65.18-60.46,86.35-23.4,16.14-49.69,24.99-78.19,26.92-2.6.18-5.18.74-7.81-.47,4.14-.53,8.28-1.05,12.42-1.6.45-.06,1.27.23,1.19-.65-.02-.22-.71-.38-1.24-.64,101.74-14.07,145.97-101,134.16-166.55-.78,1.56-.51,2.92-.5,4.2.1,14.02.38,28.07-2.72,41.85-10.71,47.63-37.47,82.64-81.92,103.64-.4.19-.83.33-1.24.49Z"/><path class="cls-1" d="m180.1,281.88c-10.23.67-20-1.24-28.95-6.51-5.63-3.31-10.2-7.62-11.95-14.24-1.63-6.15-.06-11.71,3.26-16.86,5.18-8.06,12.48-13.97,20.33-19.19,9.16-6.1,18.7-11.57,28.71-16.19,4.44-2.05,4.53-2.8.81-6.17-11.41-10.34-23.39-20.08-33.85-31.43-5.65-6.13-11.31-12.43-13.52-20.76-2.93-11.09-.04-21.06,6.66-30.1,6.58-8.87,15.46-14.89,25.05-19.96,19.77-10.44,40.46-18.31,62.62-21.88,10.24-1.65,20.52-2.05,30.69.56,8.82,2.26,13.73,7.27,14.47,14.39.86,8.34-3.88,16.88-11.43,20.58-1.67.82-3.37,1.56-5.25,1.73-1.1.1-2.16-.14-2.49-1.38-.3-1.14.55-1.61,1.4-2.08,2.13-1.17,4.34-2.23,6.32-3.62,5.15-3.64,7.69-8.7,6.73-14.99-.93-6.05-5.48-8.9-10.86-10.46-8.56-2.48-17.23-1.64-25.84-.26-24.92,3.98-48.04,12.68-69.04,26.77-5.98,4.02-11.46,8.65-16.03,14.28-8.67,10.68-9.47,23.85-2.09,35.52,5.76,9.11,13.61,16.37,21.45,23.59,6.65,6.12,13.54,11.97,20.17,18.1,2.7,2.5,5.28,2.99,8.8,1.77,26.67-9.29,53.8-17.04,81.29-23.52,1.77-.42,4.61-1.88,5.13.3.46,1.92-2.78,1.61-4.41,2.03-26.1,6.74-51.96,14.26-77.33,23.4-6.08,2.19-6.15,2.59-1.59,7.38,6.81,7.14,13.31,14.49,17.17,23.79,6.2,14.94.95,30.21-13.28,37.98-10.31,5.63-21.35,8.15-33.18,7.42Zm-2.1-5.36c13.54-.13,25.83-2.61,36.43-10.79,6.01-4.64,9.29-10.64,8.77-18.27-.41-5.98-2.64-11.45-5.87-16.51-4.26-6.69-9.69-12.37-15.03-18.16-2.05-2.22-3.88-2.32-6.42-1.1-8.88,4.27-17.5,9.02-25.87,14.17-7.8,4.81-15.28,10.15-21.19,17.26-8.28,9.98-5.27,23.11,6.48,28.65,7.34,3.46,15.12,5,22.71,4.74Z"/></g><g><path class="cls-1" d="m30.19,374.13c-1.71,0-3.34-.28-4.91-.84-1.56-.56-2.77-1.27-3.63-2.15l.95-1.87c.81.79,1.9,1.45,3.26,1.99,1.37.54,2.8.8,4.31.8s2.62-.18,3.53-.54c.91-.36,1.58-.85,2-1.46.43-.61.64-1.29.64-2.03,0-.9-.26-1.62-.77-2.17s-1.19-.98-2.02-1.3c-.83-.32-1.75-.6-2.76-.84-1.01-.24-2.01-.5-3.02-.77s-1.93-.64-2.77-1.1c-.84-.46-1.52-1.07-2.03-1.82-.51-.75-.77-1.74-.77-2.97,0-1.14.3-2.18.9-3.13.6-.95,1.53-1.72,2.77-2.3,1.25-.58,2.84-.87,4.79-.87,1.29,0,2.57.18,3.84.54,1.27.36,2.36.86,3.28,1.49l-.82,1.94c-.98-.66-2.03-1.14-3.13-1.44-1.1-.31-2.17-.46-3.2-.46-1.38,0-2.52.19-3.41.56-.9.37-1.56.87-1.99,1.49-.43.62-.64,1.33-.64,2.12,0,.9.26,1.62.77,2.17.51.55,1.19.97,2.03,1.28.84.31,1.77.58,2.77.82,1.01.24,2.01.5,3,.79s1.91.65,2.76,1.1c.84.45,1.52,1.04,2.03,1.79.51.74.77,1.72.77,2.92,0,1.12-.31,2.15-.92,3.1-.61.95-1.55,1.72-2.81,2.3-1.26.58-2.87.87-4.84.87Z"/><path class="cls-1" d="m48.96,373.93v-22.97h8.6c1.95,0,3.62.31,5.02.94,1.4.62,2.48,1.52,3.23,2.69.75,1.17,1.13,2.59,1.13,4.25s-.38,3.01-1.13,4.18c-.75,1.17-1.83,2.07-3.23,2.71-1.4.63-3.07.95-5.02.95h-7.25l1.08-1.15v8.4h-2.43Zm2.43-8.2l-1.08-1.18h7.19c2.3,0,4.04-.5,5.23-1.49s1.79-2.4,1.79-4.22-.6-3.26-1.79-4.27c-1.19-1.01-2.94-1.51-5.23-1.51h-7.19l1.08-1.15v13.81Z"/><path class="cls-1" d="m87.51,374.13c-1.75,0-3.36-.29-4.84-.87-1.48-.58-2.76-1.39-3.84-2.44-1.08-1.05-1.92-2.29-2.53-3.71-.6-1.42-.9-2.97-.9-4.66s.3-3.24.9-4.66,1.45-2.66,2.54-3.71c1.09-1.05,2.38-1.86,3.86-2.44,1.48-.58,3.09-.87,4.84-.87s3.35.27,4.81.82,2.7,1.38,3.72,2.49l-1.51,1.54c-.96-.96-2.02-1.65-3.18-2.07-1.16-.42-2.41-.62-3.74-.62-1.42,0-2.73.24-3.92.71-1.19.47-2.23,1.14-3.12,2-.89.87-1.58,1.87-2.07,3.02s-.74,2.41-.74,3.79.25,2.61.74,3.77c.49,1.16,1.18,2.17,2.07,3.04.89.86,1.92,1.53,3.12,2,1.19.47,2.49.71,3.89.71,1.31,0,2.55-.2,3.72-.59,1.17-.39,2.25-1.06,3.23-2l1.38,1.84c-1.09.96-2.37,1.69-3.84,2.18s-3,.74-4.59.74Zm6.1-3.22v-8.47h2.33v8.76l-2.33-.29Z"/><path class="cls-1" d="m121.24,373.93v-22.97h9.35c2.45,0,4.6.49,6.45,1.46s3.29,2.32,4.32,4.05c1.03,1.73,1.54,3.72,1.54,5.97s-.51,4.24-1.54,5.97c-1.03,1.73-2.47,3.08-4.32,4.05s-4,1.46-6.45,1.46h-9.35Zm2.43-2.1h6.79c2.03,0,3.8-.4,5.3-1.2,1.5-.8,2.66-1.9,3.49-3.31s1.25-3.04,1.25-4.87-.42-3.49-1.25-4.89c-.83-1.4-2-2.5-3.49-3.3-1.5-.8-3.26-1.2-5.3-1.2h-6.79v18.77Z"/><path class="cls-1" d="m153.26,373.93v-22.97h2.43v22.97h-2.43Z"/><path class="cls-1" d="m178.17,374.13c-1.75,0-3.36-.29-4.84-.87-1.48-.58-2.76-1.39-3.84-2.44-1.08-1.05-1.92-2.29-2.53-3.71-.6-1.42-.9-2.97-.9-4.66s.3-3.24.9-4.66,1.45-2.66,2.54-3.71c1.09-1.05,2.38-1.86,3.86-2.44,1.48-.58,3.09-.87,4.84-.87s3.35.27,4.81.82,2.7,1.38,3.72,2.49l-1.51,1.54c-.96-.96-2.02-1.65-3.18-2.07-1.16-.42-2.41-.62-3.74-.62-1.42,0-2.73.24-3.92.71-1.19.47-2.23,1.14-3.12,2-.89.87-1.58,1.87-2.07,3.02s-.74,2.41-.74,3.79.25,2.61.74,3.77c.49,1.16,1.18,2.17,2.07,3.04.89.86,1.92,1.53,3.12,2,1.19.47,2.49.71,3.89.71,1.31,0,2.55-.2,3.72-.59,1.17-.39,2.25-1.06,3.23-2l1.38,1.84c-1.09.96-2.37,1.69-3.84,2.18s-3,.74-4.59.74Zm6.1-3.22v-8.47h2.33v8.76l-2.33-.29Z"/><path class="cls-1" d="m198.38,373.93v-22.97h2.43v22.97h-2.43Z"/><path class="cls-1" d="m217.67,373.93v-20.87h-8.07v-2.1h18.57v2.1h-8.07v20.87h-2.43Z"/><path class="cls-1" d="m232.14,373.93l10.5-22.97h2.4l10.5,22.97h-2.56l-9.65-21.56h.98l-9.65,21.56h-2.53Zm4.13-6.14l.72-1.97h13.35l.72,1.97h-14.8Z"/><path class="cls-1" d="m264.26,373.93v-22.97h2.43v20.87h12.86v2.1h-15.29Z"/><path class="cls-1" d="m312.01,374.13c-1.73,0-3.33-.29-4.79-.87-1.47-.58-2.73-1.39-3.81-2.44-1.07-1.05-1.91-2.29-2.51-3.71-.6-1.42-.9-2.97-.9-4.66s.3-3.24.9-4.66,1.44-2.66,2.53-3.71c1.08-1.05,2.36-1.86,3.82-2.44,1.46-.58,3.06-.87,4.79-.87s3.23.28,4.69.84c1.46.56,2.7,1.39,3.71,2.51l-1.54,1.54c-.94-.96-1.98-1.66-3.12-2.08-1.14-.43-2.36-.64-3.67-.64-1.38,0-2.66.24-3.84.71-1.18.47-2.21,1.14-3.08,2-.88.87-1.56,1.87-2.05,3.02s-.74,2.41-.74,3.79.25,2.64.74,3.79,1.18,2.15,2.05,3.02c.87.86,1.9,1.53,3.08,2,1.18.47,2.46.71,3.84.71s2.54-.22,3.67-.66,2.18-1.14,3.12-2.1l1.54,1.54c-1.01,1.12-2.24,1.96-3.71,2.53-1.47.57-3.04.85-4.72.85Z"/><path class="cls-1" d="m340.09,374.13c-1.73,0-3.33-.29-4.81-.87-1.48-.58-2.76-1.4-3.84-2.46-1.08-1.06-1.92-2.3-2.53-3.71-.6-1.41-.9-2.96-.9-4.64s.3-3.23.9-4.64,1.44-2.65,2.53-3.71c1.08-1.06,2.36-1.88,3.82-2.46,1.46-.58,3.07-.87,4.82-.87s3.32.29,4.79.87c1.47.58,2.74,1.39,3.82,2.44,1.08,1.05,1.92,2.29,2.53,3.71.6,1.42.9,2.98.9,4.66s-.3,3.24-.9,4.66c-.6,1.42-1.44,2.66-2.53,3.71-1.08,1.05-2.36,1.87-3.82,2.44-1.47.58-3.06.87-4.79.87Zm0-2.17c1.38,0,2.65-.23,3.82-.71,1.17-.47,2.19-1.14,3.05-2,.86-.86,1.54-1.87,2.02-3.02s.72-2.41.72-3.79-.24-2.64-.72-3.79-1.15-2.15-2.02-3.02c-.86-.86-1.88-1.53-3.05-2-1.17-.47-2.44-.71-3.82-.71s-2.66.24-3.84.71c-1.18.47-2.2,1.14-3.07,2-.86.87-1.54,1.87-2.03,3.02s-.74,2.41-.74,3.79.25,2.61.74,3.77c.49,1.16,1.17,2.17,2.03,3.04s1.89,1.53,3.07,2c1.18.47,2.46.71,3.84.71Z"/><path class="cls-1" d="m362.5,373.93v-22.97h8.6c1.95,0,3.62.31,5.02.94,1.4.62,2.48,1.52,3.23,2.69.75,1.17,1.13,2.59,1.13,4.25s-.38,3.01-1.13,4.18c-.75,1.17-1.83,2.07-3.23,2.69-1.4.62-3.07.94-5.02.94h-7.25l1.08-1.12v8.4h-2.43Zm2.43-8.2l-1.08-1.15h7.19c2.3,0,4.04-.5,5.23-1.51s1.79-2.42,1.79-4.23-.6-3.26-1.79-4.27c-1.19-1.01-2.94-1.51-5.23-1.51h-7.19l1.08-1.15v13.81Zm13.26,8.2l-5.91-8.33h2.62l5.94,8.33h-2.66Z"/><path class="cls-1" d="m391.15,373.93v-22.97h8.6c1.95,0,3.62.31,5.02.94,1.4.62,2.48,1.52,3.23,2.69.75,1.17,1.13,2.59,1.13,4.25s-.38,3.01-1.13,4.18c-.75,1.17-1.83,2.07-3.23,2.71-1.4.63-3.07.95-5.02.95h-7.25l1.08-1.15v8.4h-2.43Zm2.43-8.2l-1.08-1.18h7.19c2.3,0,4.04-.5,5.23-1.49s1.79-2.4,1.79-4.22-.6-3.26-1.79-4.27c-1.19-1.01-2.94-1.51-5.23-1.51h-7.19l1.08-1.15v13.81Z"/></g></svg>