<?xml version="1.0" encoding="UTF-8"?><svg id="Layer_1" xmlns="http://www.w3.org/2000/svg" viewBox="0 0 250 250"><defs><style>.cls-1{fill:#aabdbd;}.cls-2{fill:#455a64;}.cls-3{isolation:isolate;}.cls-3,.cls-4{opacity:.3;}.cls-5{fill:#59898e;}.cls-6{fill:#f3f2ee;}.cls-7{fill:#ebebeb;}.cls-8{fill:#d2e5e1;}.cls-9{fill:#f9f8f4;}</style></defs><path class="cls-9" d="M94.32,76.15c-3.42,1.89-7.45,2.33-11.2,1.24-3.75-1.09-6.91-3.63-8.8-7.06-.93-1.7-1.52-3.56-1.73-5.49-.21-1.93-.04-3.88,.49-5.74,.54-1.86,1.44-3.6,2.65-5.11,1.21-1.51,2.7-2.77,4.4-3.71,1.69-.93,3.56-1.53,5.48-1.74,1.92-.21,3.87-.04,5.72,.5,1.86,.54,3.59,1.44,5.1,2.65,1.51,1.21,2.77,2.71,3.7,4.41,1.88,3.43,2.33,7.47,1.24,11.23-1.09,3.76-3.62,6.93-7.04,8.82Z"/><path class="cls-6" d="M94.32,76.15l.2-.14,.59-.38,.44-.27c.15-.11,.31-.24,.49-.38l.57-.45c.21-.17,.42-.36,.61-.56,1.04-.97,1.92-2.09,2.62-3.32,.96-1.63,1.59-3.42,1.87-5.29,.03-.26,.07-.52,.11-.78,.04-.27,.02-.54,.04-.81,.01-.27,.04-.55,.02-.83-.02-.28-.03-.56-.05-.84,0-.14-.02-.29-.03-.43l-.07-.43c-.04-.29-.09-.57-.13-.87-.05-.29-.15-.58-.22-.87-.07-.3-.15-.59-.25-.87-.19-.59-.43-1.17-.7-1.73-.14-.28-.27-.57-.43-.86l-.51-.83c-.09-.14-.16-.28-.26-.42l-.3-.38c-.21-.26-.4-.53-.61-.79-.46-.52-.95-1-1.47-1.46-.52-.46-1.08-.88-1.65-1.27-.3-.19-.61-.36-.92-.54-.16-.08-.3-.18-.47-.26l-.49-.22c-1.33-.64-2.75-1.05-4.21-1.22l-.56-.08-.56-.03-.57-.03c-.19-.01-.38-.01-.57,0l-1.14,.06-1.12,.18c-3.11,.56-5.95,2.12-8.09,4.45l-.75,.87-.67,.94-.16,.23-.14,.25-.28,.49-.28,.49-.23,.51c-.31,.67-.58,1.37-.8,2.08-.19,.7-.34,1.42-.43,2.14l-.07,.53c-.03,.18-.02,.38-.03,.54,0,.38-.04,.71-.04,1.06,.01,.7,.07,1.4,.18,2.09,.1,.67,.25,1.34,.44,1.99,.1,.32,.23,.63,.34,.95l.17,.47c.06,.15,.14,.3,.21,.44l.42,.88c.15,.28,.33,.55,.49,.82,.33,.53,.69,1.04,1.08,1.53,.19,.24,.39,.46,.6,.68,.21,.22,.4,.45,.62,.65l.66,.58,.33,.29,.35,.25,.68,.49c.22,.17,.48,.29,.71,.43,.23,.14,.47,.28,.7,.4l.72,.33c1.72,.77,3.56,1.21,5.44,1.28,1.42,.06,2.84-.09,4.21-.46,.27-.06,.54-.13,.8-.22l.68-.25c.21-.07,.41-.14,.58-.21l.46-.22,.64-.3,.22-.09s-.07,.04-.21,.11l-.63,.32-.46,.23c-.18,.08-.37,.14-.58,.23l-.68,.26c-.26,.09-.53,.17-.8,.23-1.38,.37-2.8,.54-4.23,.48-1.89-.06-3.76-.48-5.49-1.25l-.73-.33c-.24-.12-.47-.27-.71-.4-.24-.14-.49-.26-.72-.43l-.69-.5-.35-.25-.33-.29-.67-.58c-.22-.2-.42-.44-.63-.65-.22-.22-.42-.44-.61-.69-.4-.49-.77-1-1.1-1.54-.16-.27-.35-.54-.5-.83l-.43-.89c-.07-.15-.15-.29-.21-.45l-.18-.47c-.11-.32-.24-.63-.34-.95-.39-1.34-.61-2.73-.64-4.13,0-.36,.03-.72,.04-1.08,0-.18,0-.38,.03-.54l.07-.54c.1-.73,.25-1.46,.44-2.17,.22-.72,.49-1.42,.8-2.11l.23-.52,.28-.5,.29-.5,.14-.25,.16-.24,.67-.95,.77-.88c2.17-2.36,5.05-3.94,8.19-4.5l1.16-.18,1.16-.06c.19-.01,.38-.01,.58,0l.57,.03,.57,.03,.56,.08c.74,.1,1.48,.25,2.2,.45,.7,.22,1.39,.48,2.06,.79l.49,.23c.16,.08,.32,.18,.48,.26,.31,.18,.63,.35,.93,.55,1.16,.77,2.21,1.7,3.13,2.75,.22,.26,.42,.54,.62,.8l.3,.4c.1,.14,.18,.28,.27,.42l.52,.84c.16,.28,.29,.58,.43,.87,.28,.57,.51,1.15,.71,1.75,.1,.29,.19,.59,.25,.89,.07,.3,.16,.59,.21,.88,.05,.3,.09,.59,.13,.88,.02,.15,.05,.29,.06,.43l.03,.44,.05,.85c.02,.28,0,.56-.02,.84-.02,.27-.02,.55-.04,.82l-.11,.79c-.28,1.88-.91,3.68-1.87,5.32-.72,1.24-1.62,2.36-2.68,3.32-.2,.2-.4,.38-.62,.56l-.58,.44c-.18,.14-.34,.27-.5,.38l-.44,.27-.6,.38-.24,.1Z"/><path class="cls-6" d="M88.27,62.46c.43-.56,.68-1.24,.73-1.94,.05-.71-.11-1.41-.45-2.03-.96-1.76-3.06-2.46-4.71-1.56-1.65,.9-2.2,3.05-1.25,4.81,.33,.63,.84,1.16,1.47,1.5,.63,.34,1.34,.49,2.05,.43-4.19,3.21-1.25,8.08-1.25,8.08l10.85-5.92s-2.52-5.18-7.44-3.37Z"/><path class="cls-9" d="M4.48,53.67c-1.39-.82-2.4-2.17-2.81-3.74-.4-1.57-.17-3.24,.65-4.63,.82-1.4,2.16-2.41,3.73-2.81,1.57-.41,3.23-.17,4.62,.65,1.39,.82,2.4,2.17,2.81,3.74s.17,3.24-.65,4.63c-.41,.69-.94,1.3-1.58,1.78-.64,.48-1.37,.83-2.14,1.04-.78,.2-1.58,.25-2.37,.13-.79-.11-1.56-.38-2.25-.79Z"/><path class="cls-6" d="M4.48,53.67c.45,.22,.91,.4,1.39,.56,.56,.16,1.14,.24,1.73,.23,.77-.01,1.53-.17,2.24-.46,.87-.36,1.63-.91,2.24-1.62,.71-.81,1.18-1.8,1.38-2.86,.11-.57,.13-1.15,.06-1.73-.03-.3-.08-.59-.15-.89-.08-.29-.18-.58-.3-.86-.5-1.18-1.36-2.16-2.46-2.81-1.1-.65-2.38-.93-3.65-.8-.3,.03-.6,.08-.9,.15-.29,.08-.57,.18-.85,.29-.54,.22-1.03,.52-1.48,.89-1.08,.89-1.82,2.13-2.09,3.51-.27,1.38-.05,2.81,.61,4.04,.28,.52,.63,.99,1.05,1.41,.36,.35,.75,.67,1.16,.95l-.09-.05-.25-.15c-.13-.08-.26-.17-.37-.27-.17-.13-.33-.27-.49-.42-.43-.41-.8-.88-1.09-1.4-.42-.77-.68-1.62-.75-2.49-.07-.87,.04-1.75,.34-2.58,.37-1.04,1.02-1.97,1.87-2.67,.46-.38,.97-.7,1.52-.93,.28-.12,.58-.22,.87-.3,.31-.07,.62-.13,.93-.16,1.31-.14,2.63,.15,3.77,.82,1.14,.67,2.03,1.69,2.54,2.91,.12,.29,.22,.59,.3,.9,.07,.3,.12,.6,.16,.91,.07,.59,.04,1.2-.07,1.78-.27,1.41-1.02,2.69-2.13,3.6-1.11,.92-2.5,1.41-3.93,1.41-.59,0-1.18-.09-1.75-.27-.21-.06-.41-.14-.61-.23-.15-.06-.29-.13-.43-.21l-.25-.15-.08-.05Z"/><path class="cls-6" d="M8.06,48.62c.29,.03,.59-.02,.85-.15,.26-.13,.48-.34,.62-.6,.11-.16,.18-.34,.21-.53,.03-.19,.03-.38-.01-.57-.04-.19-.12-.36-.23-.52-.11-.15-.25-.28-.42-.38-.16-.1-.34-.16-.53-.19s-.38-.01-.56,.04c-.18,.05-.35,.14-.5,.26-.15,.12-.27,.27-.36,.44-.16,.25-.23,.55-.22,.84,.01,.3,.11,.58,.28,.82-2.03-.81-3.12,1.27-3.12,1.27l4.39,2.63s1.29-1.99-.39-3.36Z"/><path class="cls-6" d="M250,54.26s0-.08,0-.12c0-.09,0-.2-.03-.34-.01-.19-.04-.38-.09-.56-.03-.25-.08-.5-.15-.75-.17-.66-.44-1.29-.8-1.88-.85-1.43-2.17-2.51-3.74-3.06-1.56-.55-3.27-.55-4.83,.02-.65,.23-1.25,.56-1.8,.97-.58,.42-1.08,.92-1.5,1.5-.9,1.22-1.38,2.7-1.38,4.21s.48,2.99,1.38,4.21c.22,.29,.45,.56,.7,.83,.25,.25,.52,.48,.8,.69,.55,.41,1.15,.74,1.8,.97,1.56,.57,3.26,.58,4.83,.02,1.56-.56,2.88-1.64,3.74-3.06,.36-.59,.63-1.23,.8-1.91,.07-.25,.12-.5,.15-.75,.04-.18,.06-.37,.07-.55,0-.14,0-.26,.03-.34,0-.04,0-.08,0-.12,0,.04,0,.08,0,.12v.34c0,.19-.01,.37-.04,.56-.03,.25-.07,.5-.14,.75-.16,.68-.42,1.34-.79,1.94-.52,.89-1.23,1.66-2.07,2.26-.84,.6-1.8,1.01-2.82,1.2-1.28,.24-2.6,.13-3.82-.31-.66-.23-1.29-.57-1.85-.99-.6-.43-1.12-.96-1.55-1.55-.92-1.25-1.42-2.77-1.42-4.33s.5-3.07,1.42-4.33c.22-.3,.46-.58,.72-.85,.26-.25,.54-.49,.83-.71,.56-.42,1.19-.76,1.85-.99,1.14-.42,2.38-.54,3.58-.35,1.2,.19,2.34,.68,3.31,1.42,.74,.57,1.36,1.27,1.83,2.08,.36,.61,.63,1.27,.79,1.96,.06,.25,.11,.5,.14,.75,.03,.18,.05,.37,.04,.56v.35s0,.08,0,.12Z"/><path class="cls-6" d="M17.9,133.18c-2.48,11.47,3.37,20.46,3.37,20.46,4.34-8.91-3.37-20.46-3.37-20.46Z"/><path class="cls-6" d="M12.72,163.99c7.18,.04,12.18-4.77,12.18-4.77-5.78-1.55-12.18,4.77-12.18,4.77Z"/><path class="cls-6" d="M27.31,157.41c3.11-8.07-.1-15.73-.1-15.73-4.19,5.85,.1,15.73,.1,15.73Z"/><path class="cls-6" d="M15.28,150.14c-.09,.13,4.92,3.86,11.2,8.32,6.28,4.46,11.45,7.97,11.54,7.84,.09-.13-4.92-3.85-11.2-8.32-6.28-4.46-11.44-7.96-11.54-7.84Z"/><path class="cls-6" d="M.79,137.34s4.38,12.64,16.19,14.31c0,0-3.59-10.84-16.19-14.31Z"/><path class="cls-6" d="M.98,154.22s9.46,6.46,18.44,1.56c0,0-7.99-5.62-18.44-1.56Z"/><path class="cls-6" d="M153.69,43.07l-4.19,10.78,4.01-.85-.98,8.88,5.5-12.4-4.13,.87-.22-7.28Z"/><path class="cls-6" d="M237.43,131.89l-11.27-2.5,1.45,3.84-8.9,.39,13.07,3.56-1.49-3.96,7.14-1.33Z"/><path class="cls-5" d="M240.1,197.25c0,.06-53.75,.1-120.04,.1s-120.06-.04-120.06-.1,53.74-.1,120.06-.1,120.04,.05,120.04,.1Z"/><path class="cls-5" d="M37.48,91.6H177.11c2.28,0,4.47,.91,6.09,2.53,1.61,1.62,2.52,3.81,2.52,6.1v84.02c0,3.07-1.22,6.01-3.38,8.18-2.17,2.17-5.1,3.39-8.16,3.39H40.03c-3.06,0-6-1.22-8.16-3.39-2.17-2.17-3.38-5.11-3.38-8.18V100.6c0-2.39,.95-4.68,2.63-6.37,1.68-1.69,3.97-2.64,6.35-2.64h.02Z"/><path class="cls-5" d="M21.91,188.13H192.26v3.97c0,1.37-.54,2.67-1.5,3.64-.96,.96-2.27,1.51-3.63,1.51H27.05c-1.36,0-2.67-.54-3.63-1.51-.96-.97-1.5-2.27-1.5-3.64v-3.97h0Z"/><path class="cls-9" d="M175.31,95.74H38.46c-3.18,0-5.75,2.58-5.75,5.77v76.5c0,3.18,2.57,5.77,5.75,5.77H175.31c3.18,0,5.75-2.58,5.75-5.77V101.51c0-3.18-2.58-5.77-5.75-5.77Z"/><path class="cls-2" d="M91.61,188.13l2.11,3.37h29.75l1.96-3.37h-33.82Z"/><path class="cls-2" d="M185.75,188.1H28.51v.5H185.75v-.5Z"/><path class="cls-7" d="M58.68,156.13h-13.43v27.64h13.43v-27.64Z"/><path class="cls-7" d="M79.84,142.26h-13.43v41.51h13.43v-41.51Z"/><path class="cls-7" d="M101.75,142.26h-13.43v41.51h13.43v-41.51Z"/><path class="cls-7" d="M146.66,122.08h-13.43v61.69h13.43v-61.69Z"/><path class="cls-7" d="M167.2,108.78h-13.43v74.99h13.43V108.78Z"/><path class="cls-8" d="M73.19,153.48l15.67-22.62,29.45-23.02,15.88,42.21s-18,11.55-22.68,12.71c-4.68,1.16-8.1,1.04-13.28,8.63l-25.03-17.91Z"/><path class="cls-8" d="M140.32,100.93c.44-.02,5.83,3.88,2.8,7.06-3.23,3.38-14.74,13.23-14.74,13.23,0,0-5.84-.55-4.58-3.92,1.26-3.37,16.52-16.37,16.52-16.37Z"/><path class="cls-1" d="M144.92,158.65c-2.8,.15-5.61-.06-8.37-.6-6.51-1.28-12.49-4.45-17.21-9.12-4.72-4.67-7.97-10.63-9.33-17.13-1.37-6.51-.79-13.27,1.65-19.45,2.44-6.18,6.65-11.5,12.09-15.3l29.76-20.8,9.15,13.15-29.76,20.8c-3.86,2.69-6.49,6.81-7.33,11.44s.19,9.41,2.85,13.29c2.66,3.88,6.75,6.55,11.37,7.41,4.62,.87,9.39-.13,13.28-2.78l29.56-22.51,9.68,12.75-29.84,22.74-.14,.1c-5.13,3.59-11.16,5.67-17.41,6Z"/><path class="cls-6" d="M177.2,135.23l2.96,3.83,12.14-9.25-2.58-3.39-12.52,8.81Z"/><path class="cls-6" d="M147.69,94.74l2.46,3.39,12.52-8.75-2.46-3.45-12.52,8.81Z"/><g class="cls-4"><path d="M144.95,158.69c-2.8,.15-5.61-.06-8.37-.6-6.51-1.28-12.49-4.46-17.21-9.13-4.72-4.67-7.96-10.63-9.33-17.13-1.36-6.51-.79-13.27,1.66-19.45,2.44-6.18,6.65-11.5,12.09-15.3l29.76-20.8,9.15,13.16-29.77,20.8c-3.89,2.68-6.55,6.8-7.4,11.45-.86,4.65,.17,9.45,2.84,13.35,2.68,3.89,6.78,6.56,11.42,7.42,4.64,.86,9.43-.17,13.31-2.85l29.56-22.51,9.68,12.75-29.84,22.74-.15,.1c-5.13,3.59-11.17,5.67-17.42,6Z"/></g><path class="cls-1" d="M142.44,155.23c-2.8,.15-5.62-.06-8.37-.6-6.51-1.28-12.49-4.46-17.21-9.13-4.72-4.67-7.96-10.63-9.33-17.13-1.37-6.51-.79-13.27,1.65-19.45,2.44-6.18,6.65-11.5,12.09-15.3l29.76-20.8,9.15,13.16-29.76,20.8c-3.84,2.7-6.45,6.81-7.28,11.44-.83,4.63,.2,9.39,2.86,13.26,2.66,3.87,6.73,6.53,11.34,7.41,4.61,.87,9.37-.11,13.26-2.74l29.56-22.51,9.69,12.92-29.86,22.58-.14,.1c-5.13,3.59-11.15,5.66-17.39,6Z"/><path class="cls-8" d="M128.35,127.3l.96-.75c2.17-2.38,1.78-4.67-.44-6.15-.41-.29-.89-.47-1.39-.53-2.41-.18-8.55,.75-11.13,1.94-2.58,1.19-3.79,4.15-2.08,6.24,1.71,2.09,3.93,1.66,7.48,1.27,2.3-.29,4.53-.98,6.6-2.02Z"/><path class="cls-8" d="M120.22,131.75s-3.58,2.58-2.11,5.48c1.46,2.9,3.19,2.67,6.33,2.16,3.14-.51,7.98-5.23,7.98-5.23,0,0,1.95-2.94,.37-5-2.14-2.8-3.9-1.64-5.74-.99-1.84,.66-6.84,3.58-6.84,3.58Z"/><path class="cls-8" d="M127.91,138.77s-2.57,4.7,.78,6.32c2.97,1.44,5.61-1.4,7.21-3.67,1.6-2.27,3.02-4.2,.75-5.94-2.15-1.65-3.31-1.83-4.71-.83-2.09,1.47-4.03,4.12-4.03,4.12Z"/><path class="cls-8" d="M82.11,141.02s6.54-17.9,8.67-22.4c2.13-4.5,15.09-14.87,15.09-14.87l13.53-6.2s5.05,5.95-1.1,10.3c-3.76,2.65-7.68,5.07-11.73,7.25l-1.28,8.58s3.97,20.48-12.16,32.84l-11.03-15.51Z"/><path class="cls-5" d="M106.99,115.07s-.02,.07-.03,.1l-.1,.28c-.09,.24-.22,.61-.37,1.08-.41,1.35-.69,2.73-.85,4.13-.23,2.07-.31,4.15-.24,6.22,.04,2.34,.2,4.93,.19,7.64,.03,2.55-.26,5.1-.87,7.58-.53,2.03-1.42,3.95-2.62,5.66-.82,1.15-1.83,2.16-2.99,2.97l-.55,.38c-.16,.1-.31,.17-.42,.23l-.27,.14-.09,.04s.06-.04,.09-.06l.25-.15c.11-.07,.25-.14,.42-.25l.54-.37c1.12-.84,2.11-1.85,2.91-3,1.17-1.71,2.04-3.61,2.55-5.63,.59-2.47,.88-5.01,.84-7.56,0-2.7-.15-5.29-.18-7.64-.06-2.09,.04-4.17,.28-6.25,.18-1.4,.48-2.78,.92-4.13,.16-.47,.3-.83,.4-1.07l.12-.27s.05-.05,.09-.07Z"/><path class="cls-6" d="M138.23,81.8l9.46,12.94,12.52-8.81-9.11-13.24-12.86,9.11Z"/><path class="cls-6" d="M167.54,123.15l10.08,12.59,12.2-9.2-9.63-12.95-12.65,9.56Z"/><path class="cls-5" d="M125.98,119.88c.15-.03,.3-.04,.45-.04h.25l.3,.02,.34,.02,.37,.07c.72,.14,1.39,.48,1.94,.98,.55,.5,.95,1.13,1.16,1.84,.05,.64-.06,1.28-.31,1.88-.42,.96-1.09,1.8-1.95,2.4-.69,.49-1.45,.88-2.25,1.16-.67,.25-1.23,.41-1.61,.52-.2,.06-.4,.11-.61,.14,.19-.09,.38-.16,.58-.21,.37-.13,.93-.31,1.59-.57,.77-.3,1.51-.7,2.18-1.18,.82-.59,1.47-1.4,1.87-2.33,.24-.57,.34-1.18,.3-1.79-.23-.75-.67-1.43-1.28-1.93-.49-.4-1.05-.68-1.67-.82l-.37-.08-.33-.04-.29-.03h-.24c-.14,.01-.28,.01-.43,0Z"/><path class="cls-5" d="M133,133.16c-.04,.11-.11,.21-.18,.3-.12,.18-.31,.44-.56,.75-.64,.81-1.35,1.56-2.12,2.25-.77,.7-1.61,1.3-2.53,1.8-.27,.15-.56,.28-.85,.4-.1,.05-.22,.08-.33,.1,0-.03,.43-.22,1.12-.62,.88-.52,1.71-1.13,2.47-1.82,.76-.69,1.47-1.42,2.14-2.2,.26-.33,.54-.65,.83-.95Z"/><path class="cls-1" d="M39.58,183.77l33.2-34.02,29.79,24.18-7.67,9.9-55.32-.05Z"/><path class="cls-6" d="M56.44,103.58c.88-.53,1.84-.95,2.83-1.23l.58-2.81,4.73-.08,.68,2.79c1,.24,1.97,.62,2.87,1.13l2.39-1.57,3.41,3.3-1.5,2.45c.53,.89,.95,1.84,1.23,2.84l2.8,.59,.08,4.75-2.78,.68c-.24,1.01-.62,1.98-1.12,2.88l1.57,2.4-3.29,3.42-2.44-1.5c-.88,.54-1.84,.95-2.83,1.23l-.58,2.81-4.73,.08-.68-2.79c-1-.25-1.97-.62-2.87-1.12l-2.39,1.57-3.4-3.3,1.5-2.45c-.53-.89-.95-1.84-1.23-2.84l-2.8-.59-.09-4.75,2.78-.68c.24-1.01,.62-1.97,1.12-2.88l-1.57-2.4,3.29-3.41,2.45,1.5h0Zm2.51,6.3c-.7,.72-1.17,1.64-1.34,2.63-.18,.99-.06,2.01,.34,2.94,.4,.92,1.06,1.71,1.91,2.25,.84,.54,1.83,.83,2.84,.81,1-.02,1.98-.33,2.81-.91,.82-.57,1.46-1.38,1.83-2.32,.37-.94,.45-1.96,.24-2.95-.21-.98-.71-1.88-1.43-2.58-.48-.46-1.05-.83-1.67-1.08-.62-.25-1.28-.37-1.95-.35-.67,.01-1.32,.15-1.94,.42s-1.16,.65-1.63,1.13Z"/><path class="cls-7" d="M47.46,131.45c.64-.39,1.34-.69,2.06-.9l.43-2.04,3.45-.06,.49,2.03c.73,.18,1.43,.46,2.09,.83l1.74-1.13,2.48,2.4-1.08,1.79c.39,.64,.69,1.34,.9,2.06l2.04,.43,.06,3.46-2.02,.5c-.18,.73-.46,1.44-.82,2.1l1.12,1.74-2.39,2.49-1.78-1.08c-.64,.39-1.34,.69-2.06,.9l-.42,2.04-3.45,.06-.47-2.03c-.73-.18-1.43-.45-2.09-.82l-1.74,1.14-2.48-2.4,1.08-1.79c-.39-.65-.69-1.34-.89-2.07l-2.04-.45-.06-3.46,2.02-.5c.18-.73,.46-1.44,.82-2.1l-1.12-1.75,2.39-2.48,1.78,1.08h-.03Zm1.84,4.61c-.51,.53-.84,1.19-.97,1.92-.13,.72-.04,1.46,.25,2.14,.29,.67,.78,1.24,1.39,1.64,.61,.4,1.33,.6,2.06,.59,.73-.01,1.44-.24,2.04-.66s1.06-1,1.33-1.69c.27-.68,.33-1.43,.17-2.14-.15-.72-.52-1.37-1.04-1.88-.71-.68-1.65-1.06-2.63-1.04-.98,.02-1.91,.42-2.59,1.13h-.01Z"/><path class="cls-7" d="M82.56,102.93c.44-.26,.9-.47,1.39-.61l.28-1.38,2.33-.04,.33,1.37c.49,.12,.97,.31,1.41,.56l1.18-.77,1.67,1.62-.75,1.2c.26,.43,.47,.9,.61,1.39l1.37,.29,.04,2.33-1.37,.33c-.12,.49-.31,.97-.55,1.41l.77,1.18-1.62,1.68-1.2-.73c-.43,.26-.9,.47-1.39,.6l-.28,1.38-2.33,.04-.33-1.37c-.49-.12-.97-.31-1.41-.56l-1.16,.77-1.68-1.62,.73-1.2c-.26-.44-.47-.91-.6-1.4l-1.38-.29-.04-2.33,1.37-.34c.12-.49,.31-.97,.55-1.41l-.77-1.16,1.62-1.68,1.2,.75v-.03Zm1.24,3.11c-.34,.36-.57,.81-.66,1.29-.09,.49-.03,.99,.17,1.44,.2,.45,.52,.84,.94,1.11,.41,.27,.9,.41,1.39,.4,.49,0,.97-.16,1.38-.45,.41-.28,.72-.68,.9-1.14,.18-.46,.22-.96,.12-1.45-.1-.48-.35-.92-.71-1.27-.48-.46-1.12-.71-1.78-.7-.66,.01-1.29,.29-1.75,.76Z"/><path class="cls-7" d="M123.82,164.96h-13.43v18.81h13.43v-18.81Z"/><path class="cls-9" d="M51.6,129.54c-.75-.51-1.62-.79-2.53-.81-.9-.02-1.79,.21-2.56,.68-.26-.9-.73-1.72-1.38-2.38-.65-.67-1.45-1.16-2.34-1.44-.89-.28-1.83-.33-2.74-.15-.91,.18-1.77,.58-2.49,1.17-.77-.74-1.73-1.25-2.78-1.47-1.05-.22-2.13-.14-3.13,.24-1,.37-1.88,1.02-2.53,1.87-.65,.85-1.05,1.87-1.15,2.93-2.24,.12-4.55,1.6-5.01,4.13h30.5c.17-.89,.09-1.81-.24-2.65-.33-.84-.89-1.57-1.63-2.11Z"/><path class="cls-5" d="M51.6,129.54s.1,.06,.29,.21c.27,.22,.51,.47,.73,.75,.34,.45,.6,.96,.77,1.5,.23,.74,.27,1.53,.12,2.3v.04h-.04l-30.5,.05h-.12l.03-.12,.04-.15c.25-1.16,.92-2.19,1.87-2.9,.93-.68,2.03-1.07,3.18-1.12l-.09,.09c.1-1.08,.5-2.11,1.16-2.98,.66-.86,1.55-1.52,2.57-1.9,1.02-.38,2.12-.46,3.18-.24,1.06,.22,2.04,.74,2.82,1.49h-.11c.86-.7,1.91-1.14,3.02-1.26,1-.11,2.01,.05,2.92,.46,.75,.35,1.42,.85,1.96,1.48,.54,.63,.94,1.36,1.17,2.16l-.07-.03c.66-.4,1.42-.63,2.19-.67,.57-.03,1.13,.05,1.68,.21,.33,.11,.65,.25,.95,.43,.2,.13,.3,.2,.3,.2,0,0-.03,0-.08-.04l-.22-.14c-.3-.17-.62-.3-.95-.4-.54-.16-1.1-.22-1.66-.19-.76,.04-1.5,.28-2.14,.67l-.06,.04v-.07c-.23-.78-.63-1.5-1.16-2.11-.53-.61-1.19-1.1-1.92-1.44-.89-.4-1.88-.55-2.85-.44-1.07,.12-2.09,.55-2.93,1.23l-.06,.05-.05-.05c-.76-.73-1.71-1.23-2.74-1.45-1.03-.21-2.1-.13-3.08,.24-.99,.37-1.85,1.01-2.49,1.84-.64,.84-1.03,1.84-1.13,2.89v.08h-.08c-1.11,.06-2.18,.45-3.07,1.11-.92,.68-1.57,1.67-1.81,2.79-.01,.05-.03,.09-.03,.14l-.1-.12,30.5,.05-.05,.04c.15-.75,.12-1.52-.1-2.25-.26-.87-.76-1.65-1.44-2.25l-.21-.17c-.07-.04-.1-.06-.09-.06Z"/><path class="cls-9" d="M101.72,170.65c-.73-.5-1.59-.77-2.47-.8-.88-.02-1.75,.21-2.51,.66-.25-.88-.71-1.68-1.34-2.34-.64-.66-1.42-1.14-2.29-1.41-.87-.27-1.79-.32-2.69-.15-.89,.18-1.73,.57-2.43,1.16-.75-.72-1.69-1.21-2.71-1.42-1.02-.21-2.08-.13-3.05,.24-.98,.36-1.83,1-2.46,1.82-.63,.83-1.02,1.82-1.12,2.86-2.19,.12-4.45,1.56-4.9,4.02h29.83c.17-.87,.08-1.77-.24-2.59s-.88-1.53-1.6-2.05Z"/><path class="cls-5" d="M101.72,170.65s.1,.06,.28,.2c.27,.22,.5,.47,.71,.75,.34,.44,.59,.94,.75,1.47,.23,.73,.27,1.5,.12,2.25v.04h-.04l-29.83,.05h-.12l.03-.12,.03-.15c.25-1.14,.91-2.15,1.85-2.84,.9-.67,1.99-1.06,3.11-1.13l-.09,.09c.1-1.06,.49-2.07,1.14-2.91,.65-.84,1.52-1.49,2.51-1.86,1-.37,2.07-.45,3.11-.23,1.04,.22,1.99,.73,2.76,1.46h-.11c.84-.69,1.87-1.11,2.95-1.23,.98-.11,1.96,.04,2.86,.45,.73,.34,1.39,.84,1.91,1.45,.53,.62,.91,1.34,1.14,2.12l-.07-.03c.65-.39,1.39-.62,2.14-.65,.55-.03,1.11,.04,1.64,.21,.33,.1,.64,.24,.93,.42,.19,.12,.28,.2,.28,.2l-.07-.04-.22-.13c-.3-.16-.61-.28-.93-.38-.53-.15-1.07-.21-1.62-.18-.74,.04-1.46,.27-2.1,.66l-.06,.03-.02-.06c-.22-.76-.61-1.46-1.12-2.06-.52-.6-1.15-1.08-1.87-1.41-.87-.39-1.84-.54-2.79-.42-1.05,.11-2.04,.53-2.86,1.2l-.06,.05-.05-.05c-.74-.71-1.67-1.2-2.67-1.41-1.01-.21-2.05-.13-3.01,.23-.96,.36-1.81,.98-2.43,1.8-.62,.82-1.01,1.8-1.1,2.82v.08h-.08c-1.08,.06-2.12,.44-2.99,1.08-.9,.66-1.53,1.63-1.77,2.73l-.03,.14-.1-.12,29.83,.05-.05,.04c.15-.73,.11-1.49-.1-2.2-.15-.53-.4-1.02-.72-1.46-.2-.27-.43-.52-.68-.75l-.2-.16-.1-.09Z"/><path class="cls-9" d="M168.22,169.58c-.73-.5-1.59-.77-2.47-.8-.88-.02-1.75,.21-2.51,.66-.25-.88-.71-1.68-1.34-2.34-.63-.66-1.42-1.14-2.29-1.41-.87-.27-1.79-.32-2.69-.15-.89,.18-1.73,.57-2.43,1.16-.75-.72-1.69-1.22-2.72-1.43-1.02-.21-2.08-.13-3.06,.23-.98,.37-1.83,1-2.47,1.83-.64,.83-1.02,1.82-1.12,2.87-2.19,.12-4.45,1.56-4.9,4.03h29.83c.17-.87,.09-1.77-.23-2.59-.32-.82-.88-1.53-1.59-2.05Z"/><path class="cls-5" d="M168.22,169.58s.1,.06,.28,.2c.26,.22,.5,.47,.71,.75,.33,.44,.59,.94,.75,1.47,.23,.73,.27,1.5,.12,2.25v.04h-.05l-29.83,.05h-.12l.03-.11,.03-.15c.25-1.14,.91-2.15,1.85-2.84,.9-.67,1.99-1.06,3.11-1.12l-.09,.09c.1-1.06,.49-2.07,1.14-2.91,.65-.84,1.52-1.49,2.51-1.86,.99-.37,2.07-.45,3.11-.23,1.04,.22,2,.72,2.76,1.46h-.11c.85-.69,1.87-1.11,2.95-1.22,.98-.11,1.96,.04,2.86,.45,.73,.34,1.39,.84,1.91,1.45,.53,.62,.91,1.34,1.13,2.12l-.07-.03c.65-.39,1.39-.62,2.15-.65,.55-.03,1.11,.04,1.64,.21,.33,.1,.64,.24,.93,.42,.19,.12,.28,.2,.28,.2l-.08-.04-.22-.13c-.78-.43-1.66-.63-2.55-.57-.74,.04-1.46,.27-2.1,.66l-.06,.03-.02-.06c-.22-.76-.61-1.46-1.12-2.06-.52-.6-1.15-1.08-1.87-1.41-.87-.39-1.84-.54-2.79-.42-1.05,.11-2.05,.53-2.86,1.2l-.06,.05-.05-.05c-.74-.71-1.67-1.2-2.67-1.41-1.01-.21-2.05-.13-3.01,.23-.96,.36-1.81,.98-2.43,1.8-.62,.82-1.01,1.8-1.1,2.82v.08h-.1c-1.08,.06-2.12,.44-2.99,1.08-.9,.66-1.54,1.63-1.78,2.73l-.03,.14-.09-.12,29.83,.05-.05,.04c.15-.73,.12-1.49-.1-2.2-.25-.86-.74-1.62-1.41-2.21l-.2-.17-.07-.07Z"/><path class="cls-9" d="M81.64,118.45c-.48-.32-1.04-.5-1.61-.52-.58-.02-1.14,.13-1.64,.43-.16-.57-.46-1.1-.88-1.53-.41-.43-.93-.74-1.5-.92-.57-.18-1.17-.21-1.75-.1-.58,.12-1.13,.37-1.59,.75-.49-.48-1.11-.81-1.78-.95-.67-.14-1.37-.09-2.01,.15-.64,.24-1.2,.66-1.62,1.2-.42,.55-.67,1.2-.73,1.88-1.43,.08-2.9,1.02-3.2,2.63h19.48c.11-.56,.06-1.15-.15-1.69-.21-.54-.57-1-1.03-1.34Z"/><path class="cls-5" d="M81.64,118.45c.26,.15,.48,.36,.66,.6,.26,.34,.45,.74,.55,1.16,.1,.42,.11,.86,.03,1.28v.04h-.04c-3.97,.03-11.23,.05-19.48,.05h-.12l.03-.12,.02-.09c.17-.75,.6-1.42,1.22-1.88,.59-.45,1.31-.71,2.05-.75l-.09,.09c.06-.7,.32-1.36,.75-1.92,.43-.56,1-.98,1.65-1.22,.66-.24,1.37-.3,2.05-.15,.68,.14,1.31,.48,1.82,.97h-.11c.47-.39,1.02-.65,1.62-.77s1.21-.08,1.79,.1c.58,.18,1.1,.51,1.52,.95,.42,.44,.72,.97,.88,1.56l-.07-.03c.43-.26,.91-.4,1.41-.42,.36-.02,.73,.03,1.07,.14,.29,.08,.56,.22,.79,.41-.25-.16-.52-.28-.8-.37-.34-.1-.7-.14-1.05-.11-.48,.03-.95,.18-1.36,.43l-.06,.04v-.07c-.15-.49-.4-.95-.73-1.34-.34-.39-.75-.7-1.22-.91-.6-.26-1.26-.35-1.9-.26-.65,.09-1.25,.35-1.76,.77l-.06,.05-.05-.05c-.48-.47-1.09-.8-1.75-.93s-1.34-.08-1.97,.16c-.63,.24-1.18,.65-1.58,1.19-.4,.54-.64,1.19-.69,1.86v.08h-.08c-.7,.04-1.38,.28-1.94,.7-.58,.43-.99,1.05-1.15,1.76l-.02,.09-.1-.12c8.27,0,15.51,.02,19.48,.04l-.05,.04c.1-.47,.08-.97-.06-1.43-.1-.34-.26-.67-.47-.95-.18-.24-.39-.46-.62-.65Z"/><path class="cls-9" d="M205.01,109.09c-2.95-1.36-5.6-3.3-7.8-5.69-2.2-2.39-3.91-5.19-5.03-8.25-1.12-3.05-1.63-6.3-1.49-9.55,.13-3.25,.91-6.44,2.27-9.39,1.36-2.95,3.29-5.6,5.68-7.8,2.39-2.2,5.18-3.91,8.23-5.03,3.05-1.12,6.28-1.63,9.53-1.5,3.24,.13,6.43,.9,9.37,2.27,2.95,1.36,5.6,3.29,7.8,5.68,2.2,2.39,3.91,5.19,5.04,8.24,1.12,3.05,1.63,6.29,1.5,9.54-.13,3.25-.9,6.44-2.26,9.39-1.36,2.95-3.29,5.61-5.68,7.81-2.39,2.2-5.19,3.92-8.23,5.04-3.05,1.12-6.29,1.63-9.53,1.5s-6.43-.9-9.38-2.27Z"/><path class="cls-5" d="M205.09,108.97c.13,.02,.26,.06,.38,.12l1.09,.41c.58,.24,1.19,.43,1.8,.58,.84,.26,1.69,.45,2.56,.59,2.31,.43,4.67,.5,7,.23,3.09-.34,6.09-1.27,8.83-2.74,3.29-1.77,6.13-4.3,8.26-7.38,2.49-3.54,4-7.68,4.36-11.99,.21-2.32,.07-4.66-.42-6.94-.25-1.18-.58-2.34-.97-3.48-.44-1.14-.96-2.25-1.55-3.32-2.47-4.51-6.32-8.11-10.98-10.27-4.66-2.16-9.89-2.77-14.92-1.73-1.2,.25-2.38,.57-3.53,.97-1.12,.43-2.21,.93-3.26,1.51-2.05,1.1-3.92,2.5-5.55,4.17-3.04,3.07-5.22,6.9-6.29,11.09-.94,3.66-1,7.48-.19,11.17,.66,3.04,1.89,5.94,3.63,8.52,1.3,1.96,2.89,3.71,4.71,5.19,.66,.56,1.35,1.06,2.09,1.51,.51,.37,1.05,.7,1.61,1l1.01,.56c.23,.13,.35,.21,.33,.22-.13-.03-.25-.09-.36-.15l-1.05-.51c-.58-.27-1.13-.59-1.65-.95-.74-.44-1.45-.94-2.11-1.49-1.88-1.47-3.52-3.22-4.86-5.19-2-2.88-3.36-6.16-3.99-9.61-.63-3.45-.52-7,.32-10.41,1.08-4.3,3.29-8.24,6.4-11.4,1.66-1.71,3.58-3.16,5.68-4.3,1.08-.59,2.2-1.11,3.35-1.55,1.18-.42,2.39-.76,3.62-1.01,5.17-1.07,10.54-.45,15.33,1.77s8.74,5.92,11.27,10.56c.6,1.11,1.13,2.25,1.57,3.42,.41,1.17,.74,2.36,.98,3.57,.5,2.34,.64,4.74,.42,7.12-.35,4.13-1.73,8.11-4.03,11.56-2.29,3.45-5.42,6.27-9.09,8.19-2.79,1.46-5.83,2.38-8.96,2.69-2.37,.24-4.76,.12-7.09-.36-.87-.15-1.72-.36-2.56-.64-.61-.16-1.21-.38-1.78-.65l-1.07-.46c-.12-.05-.24-.11-.36-.18Z"/><path class="cls-1" d="M217.49,87.4c1.16,.02,2.3-.3,3.28-.94,.98-.64,1.76-1.56,2.23-2.65,.35-.69,.56-1.44,.62-2.22,.06-.78-.03-1.56-.28-2.29-.24-.74-.63-1.42-1.13-2-.5-.58-1.12-1.05-1.8-1.38-.68-.33-1.43-.51-2.18-.54-.75-.03-1.51,.11-2.21,.39-.7,.28-1.34,.71-1.88,1.25-.54,.54-.97,1.2-1.26,1.91-.51,1.09-.7,2.3-.54,3.5,.16,1.2,.66,2.32,1.44,3.22-8.32-2.5-11.87,6.38-11.87,6.38l18.35,8.85s4.4-8.61-2.77-13.48Z"/><path class="cls-9" d="M216.33,155.05c-2.58,2.2-5.92,3.29-9.29,3.02-3.37-.27-6.5-1.87-8.7-4.45-2.2-2.58-3.28-5.93-3.01-9.32,.27-3.38,1.87-6.52,4.44-8.72,1.28-1.09,2.75-1.92,4.35-2.44,1.59-.52,3.28-.72,4.95-.58,1.67,.13,3.3,.59,4.79,1.36,1.49,.76,2.82,1.82,3.91,3.09,1.09,1.28,1.91,2.76,2.43,4.36,.52,1.6,.71,3.28,.58,4.96s-.59,3.31-1.36,4.81c-.76,1.5-1.81,2.83-3.09,3.92Z"/><path class="cls-5" d="M216.33,155.05l.14-.15,.43-.43,.32-.31c.12-.12,.23-.26,.35-.41,.3-.33,.58-.69,.83-1.06,.71-1,1.27-2.11,1.65-3.28,.52-1.54,.73-3.17,.63-4.8-.1-1.97-.67-3.89-1.65-5.6-1.13-1.96-2.77-3.58-4.73-4.7-.52-.3-1.06-.56-1.62-.78-.57-.22-1.16-.41-1.76-.55-.61-.14-1.23-.24-1.86-.3-.64-.04-1.28-.04-1.92,0-1.31,.09-2.6,.39-3.82,.88-1.25,.52-2.41,1.22-3.45,2.09-1.02,.89-1.9,1.93-2.61,3.09-.68,1.13-1.18,2.35-1.48,3.64-.15,.63-.25,1.26-.31,1.9-.04,.63-.04,1.26,0,1.88,.07,1.22,.33,2.42,.77,3.56,.73,1.99,1.95,3.77,3.55,5.17,1.6,1.4,3.52,2.37,5.59,2.82,1.59,.35,3.22,.39,4.82,.13,1.21-.19,2.39-.56,3.49-1.1,.41-.19,.8-.41,1.18-.65,.17-.1,.32-.19,.46-.28l.36-.26,.49-.36c.05-.05,.11-.08,.17-.12l-.15,.14-.47,.38-.35,.28c-.14,.09-.29,.19-.46,.29-.37,.26-.76,.49-1.17,.68-1.1,.57-2.29,.96-3.51,1.17-2.95,.52-5.99,0-8.59-1.5-2.6-1.49-4.6-3.85-5.64-6.66-.22-.57-.41-1.16-.55-1.76-.13-.62-.22-1.24-.26-1.87-.04-.64-.04-1.28,0-1.93,.06-.65,.17-1.3,.31-1.94,.3-1.31,.81-2.57,1.51-3.73,1.44-2.4,3.61-4.25,6.2-5.3,1.24-.51,2.56-.81,3.9-.9,.65-.05,1.31-.05,1.96,0,.64,.06,1.27,.16,1.89,.31,.61,.14,1.22,.33,1.8,.55,.57,.23,1.12,.5,1.65,.81,2,1.15,3.66,2.81,4.8,4.81,.9,1.59,1.46,3.35,1.63,5.18,.17,1.82-.05,3.66-.65,5.39-.39,1.19-.97,2.3-1.71,3.31-.25,.37-.54,.73-.85,1.05-.13,.14-.25,.29-.36,.4l-.33,.3-.45,.41-.18,.09Z"/><path class="cls-1" d="M208.8,144.48c.27-.55,.37-1.17,.28-1.78s-.34-1.18-.74-1.64c-.24-.32-.54-.59-.89-.8-.35-.2-.73-.33-1.13-.38-.4-.05-.8,0-1.19,.11-.39,.12-.74,.31-1.05,.57-.31,.26-.56,.58-.74,.94-.18,.36-.28,.76-.3,1.16-.02,.4,.04,.81,.18,1.18,.14,.38,.36,.72,.63,1.02,.39,.48,.91,.83,1.5,1,.59,.18,1.22,.18,1.8,0-3,3.47,.35,7.08,.35,7.08l8.17-6.92s-3.02-3.95-6.87-1.55Z"/><path class="cls-9" d="M128.92,63.22c7.3-3.52,10.37-12.3,6.86-19.62-3.51-7.32-12.27-10.4-19.57-6.88-7.3,3.52-10.37,12.3-6.86,19.62,3.51,7.32,12.27,10.4,19.57,6.88Z"/><path class="cls-5" d="M137.23,49.98c0-.08,0-.16,0-.24l-.05-.7-.03-.51c0-.19-.06-.39-.09-.61-.07-.51-.17-1.02-.31-1.51-.36-1.36-.91-2.67-1.65-3.87-1.74-2.91-4.43-5.13-7.62-6.26-3.19-1.13-6.67-1.12-9.85,.04-.65,.24-1.28,.52-1.89,.84-.62,.34-1.22,.72-1.78,1.14-.58,.43-1.13,.9-1.65,1.41-.51,.52-.98,1.07-1.42,1.65-.9,1.22-1.6,2.57-2.08,4.01-1,2.98-1,6.21,0,9.19,.47,1.44,1.17,2.8,2.08,4.01,.43,.59,.91,1.16,1.42,1.68,.52,.51,1.07,.98,1.65,1.41,.57,.42,1.16,.81,1.78,1.15,.61,.32,1.24,.6,1.89,.83,3.18,1.16,6.66,1.17,9.85,.04,3.19-1.13,5.88-3.34,7.62-6.25,.74-1.2,1.3-2.5,1.65-3.87,.14-.5,.24-1,.31-1.51,.03-.23,.07-.43,.09-.61l.03-.51,.02-.73c0-.08,0-.16,0-.24,0,.08,0,.16,0,.24v1.22c0,.19-.05,.39-.08,.62-.06,.52-.15,1.03-.29,1.53-.33,1.39-.87,2.72-1.6,3.94-1.95,3.26-5.07,5.65-8.72,6.67-3.65,1.03-7.55,.61-10.91-1.15-.63-.33-1.24-.71-1.81-1.13-.59-.44-1.15-.92-1.69-1.43-.52-.54-1-1.11-1.45-1.72-.93-1.24-1.64-2.62-2.12-4.09-1.03-3.04-1.03-6.34,0-9.39,.48-1.47,1.2-2.85,2.12-4.09,.45-.6,.93-1.18,1.45-1.72,.53-.51,1.09-.99,1.68-1.42,.58-.43,1.18-.82,1.82-1.17,.62-.32,1.27-.61,1.93-.84,2.49-.9,5.17-1.12,7.77-.62,2.05,.4,4,1.23,5.71,2.43,1.71,1.21,3.14,2.77,4.21,4.57,.73,1.23,1.27,2.56,1.6,3.95,.14,.5,.23,1.01,.29,1.53,.03,.22,.07,.43,.08,.62v1.21c.02,.08,.03,.17,.04,.25Z"/><path class="cls-1" d="M116.24,49.19c.06-.81,.36-1.58,.88-2.21,.47-.63,1.13-1.1,1.88-1.34,.64-.18,1.33-.15,1.95,.1s1.15,.69,1.5,1.26c.2-.4,.49-.76,.84-1.04,.33-.26,.71-.44,1.11-.55,.4-.11,.82-.13,1.24-.07,.78,.15,1.49,.54,2.04,1.1,.58,.56,.98,1.29,1.14,2.09,.19,1.01,.04,2.05-.41,2.98-.54,.94-1.29,1.75-2.2,2.34-1.46,1.01-3.39,2.29-3.39,2.29,0,0-1.77-1.16-3.35-1.98-.97-.47-1.81-1.17-2.46-2.04-.56-.87-.83-1.89-.77-2.93Z"/><path class="cls-9" d="M183.22,62.03c-.92-.54-1.72-1.26-2.36-2.12-.64-.85-1.11-1.83-1.37-2.86-.27-1.04-.33-2.11-.18-3.17s.51-2.08,1.05-3c1.1-1.86,2.88-3.2,4.97-3.74,2.09-.54,4.3-.23,6.15,.87,.92,.54,1.72,1.26,2.36,2.12,.64,.85,1.11,1.83,1.38,2.86,.27,1.04,.33,2.11,.18,3.17-.15,1.06-.51,2.08-1.05,3-1.1,1.86-2.88,3.21-4.97,3.75-2.09,.54-4.3,.22-6.16-.87Z"/><path class="cls-5" d="M183.22,62.04c.6,.28,1.22,.53,1.86,.73,1.75,.5,3.62,.39,5.3-.31,1.24-.51,2.33-1.32,3.18-2.37,.84-1.04,1.41-2.28,1.65-3.6,.15-.76,.18-1.53,.09-2.3-.08-.8-.28-1.58-.6-2.32-.67-1.57-1.82-2.88-3.28-3.75-1.47-.87-3.17-1.24-4.86-1.06-.8,.07-1.58,.27-2.32,.59-.71,.29-1.37,.69-1.96,1.19-1.04,.85-1.84,1.94-2.35,3.19-.5,1.24-.69,2.59-.53,3.93,.21,1.81,1.01,3.51,2.29,4.8,.48,.46,1,.88,1.54,1.27l-.13-.06-.33-.2c-.18-.11-.36-.23-.52-.36-.23-.17-.45-.35-.65-.55-.58-.55-1.06-1.18-1.44-1.88-.56-1.02-.91-2.15-1-3.32-.09-1.17,.06-2.34,.45-3.44,.5-1.39,1.36-2.62,2.5-3.57,.61-.51,1.29-.93,2.03-1.24,.76-.33,1.57-.54,2.4-.62,1.75-.19,3.51,.2,5.02,1.09,1.51,.89,2.7,2.25,3.39,3.88,.65,1.5,.83,3.17,.52,4.78-.25,1.36-.85,2.63-1.72,3.7-.87,1.07-2,1.9-3.28,2.41-.98,.39-2.02,.59-3.07,.59-.79,0-1.58-.12-2.34-.36-.28-.08-.55-.18-.81-.3-.19-.08-.38-.17-.55-.28l-.34-.19-.12-.07Z"/><path class="cls-1" d="M188,55.31c.39,.05,.78-.02,1.13-.2,.35-.17,.64-.45,.83-.79,.15-.21,.25-.45,.3-.71,.05-.25,.05-.51,0-.77-.05-.25-.16-.49-.31-.7-.15-.21-.34-.39-.56-.52-.22-.13-.47-.22-.72-.25-.26-.03-.52-.01-.76,.06-.25,.07-.48,.19-.68,.36-.2,.16-.36,.37-.48,.6-.2,.34-.3,.72-.29,1.12,.01,.39,.14,.77,.37,1.09-2.7-1.1-4.18,1.66-4.18,1.66l5.85,3.5s1.75-2.63-.5-4.46Z"/><path class="cls-1" d="M43.88,134.2c23.41,0,42.39-19.03,42.39-42.5s-18.98-42.5-42.39-42.5S1.49,68.22,1.49,91.7s18.98,42.5,42.39,42.5Z"/><path class="cls-3" d="M43.88,134.2c23.41,0,42.39-19.03,42.39-42.5s-18.98-42.5-42.39-42.5S1.49,68.22,1.49,91.7s18.98,42.5,42.39,42.5Z"/><path class="cls-1" d="M42.74,131.47c23.41,0,42.39-19.03,42.39-42.5s-18.98-42.5-42.39-42.5S.34,65.5,.34,88.98s18.98,42.5,42.39,42.5Z"/><path class="cls-9" d="M42.74,122.03c18.21,0,32.98-14.8,32.98-33.06s-14.76-33.06-32.98-33.06S9.76,70.72,9.76,88.98s14.76,33.06,32.98,33.06Z"/><path class="cls-1" d="M59.14,105.43c9.06-9.08,9.06-23.81,0-32.9-9.06-9.08-23.75-9.08-32.81,0-9.06,9.08-9.06,23.81,0,32.9s23.75,9.08,32.81,0Z"/><path class="cls-9" d="M51.39,97.66c4.78-4.79,4.78-12.56,0-17.36-4.78-4.79-12.53-4.79-17.31,0-4.78,4.79-4.78,12.56,0,17.36,4.78,4.79,12.53,4.79,17.31,0Z"/><path class="cls-2" d="M75.54,54.56l-1.15-9.07,9.21-9.88,.66,9.79-8.72,9.16Z"/><path class="cls-2" d="M95.3,47.34l-9.34-.76-9.36,9.03,9.36,1,9.34-9.27Z"/><path class="cls-3" d="M42.74,89.69l34.8-24.99c-1.33-1.93-2.81-3.76-4.42-5.48l-29.81,28.9-.58,1.57Z"/><path class="cls-5" d="M85.63,43.51l-4.37,4.43-10.48,10.65-12.63,12.84-10.97,11.15c-1.76,1.8-3.64,3.53-5.35,5.43l-.08,.08c-1.03,1.05,.59,2.66,1.61,1.61l4.37-4.43,10.5-10.65,12.63-12.84,10.96-11.12c1.76-1.8,3.63-3.53,5.34-5.42l.08-.08c1.03-1.05-.59-2.66-1.61-1.61v-.02Z"/></svg>