<?xml version="1.0" encoding="UTF-8"?><svg id="Layer_1" xmlns="http://www.w3.org/2000/svg" viewBox="0 0 250 250"><defs><style>.cls-1{fill:#59898e;}.cls-2{fill:#f3f2ee;}.cls-3{fill:#d2e5e1;}</style></defs><path class="cls-3" d="M12.93,206.27c.28-.34,.64-.6,1.05-.75,.41-.15,.86-.18,1.29-.09,.24,.05,.48,.09,.72,.13,.24,.03,.49,.07,.73,.1,.43,.03,.85,.19,1.2,.45,.35,.26,.63,.61,.79,1.02l1.13,2.86,9.23-3.66-1.13-2.86c-.16-.41-.2-.86-.12-1.29,.08-.43,.28-.84,.57-1.16,.32-.38,.63-.76,.91-1.19,.25-.36,.59-.64,.99-.82,.4-.17,.84-.23,1.27-.17l3.01,.45,1.45-9.86-3.03-.48c-.43-.07-.83-.26-1.17-.54-.33-.28-.58-.65-.73-1.07-.15-.47-.34-.93-.55-1.38-.18-.4-.26-.84-.21-1.28,.05-.44,.21-.85,.48-1.2l1.89-2.4-7.8-6.22-1.9,2.41c-.27,.34-.63,.6-1.04,.75-.41,.15-.85,.18-1.28,.09-.24-.05-.48-.09-.72-.13-.24-.03-.49-.07-.73-.1-.44-.03-.85-.19-1.21-.45-.35-.26-.63-.62-.79-1.02l-1.13-2.86-9.18,3.67,1.13,2.85c.16,.41,.2,.86,.12,1.29-.08,.43-.28,.84-.57,1.16-.32,.37-.63,.77-.91,1.19-.25,.36-.59,.65-.99,.82-.4,.17-.84,.23-1.27,.17l-3.01-.45-1.43,9.9,2.96,.45c.43,.07,.83,.26,1.17,.54,.33,.28,.58,.66,.72,1.07,.15,.47,.34,.94,.55,1.39,.18,.4,.25,.84,.2,1.28-.05,.44-.21,.85-.48,1.2l-1.89,2.4,7.81,6.22,1.88-2.4Zm-3-15.71c.23-1.6,.93-3.1,2.01-4.3,1.08-1.2,2.49-2.05,4.05-2.44,1.56-.39,3.2-.31,4.72,.24,1.52,.55,2.84,1.54,3.8,2.84s1.52,2.86,1.6,4.48c.08,1.62-.31,3.23-1.14,4.61-.83,1.39-2.04,2.5-3.5,3.19-1.45,.69-3.08,.93-4.67,.69-2.13-.33-4.05-1.49-5.34-3.24-1.29-1.75-1.84-3.93-1.53-6.08Z"/><path class="cls-3" d="M209.4,64.16c.37-.63,.91-1.14,1.56-1.48,.64-.34,1.37-.49,2.09-.45h2.46c.72-.05,1.45,.11,2.09,.45,.64,.34,1.18,.85,1.56,1.47l2.54,4.44,14.37-8.34-2.54-4.44c-.36-.64-.54-1.36-.52-2.09,.02-.73,.25-1.45,.65-2.06,.45-.7,.86-1.41,1.24-2.15,.33-.65,.83-1.2,1.44-1.59,.62-.39,1.33-.59,2.05-.6h5.08V30.59h-5.08c-.73,0-1.44-.21-2.06-.6-.62-.39-1.12-.94-1.44-1.59-.38-.73-.79-1.44-1.24-2.13-.4-.61-.63-1.33-.65-2.07-.02-.74,.16-1.46,.52-2.1l2.54-4.44-14.37-8.34-2.56,4.46c-.37,.63-.91,1.14-1.55,1.48-.64,.34-1.37,.49-2.1,.44h-2.45c-.73,.05-1.45-.11-2.09-.45-.64-.34-1.18-.85-1.56-1.48l-2.54-4.46-14.37,8.34,2.58,4.42c.36,.64,.54,1.37,.51,2.11s-.26,1.45-.66,2.06c-.44,.69-.86,1.42-1.24,2.15-.31,.66-.81,1.22-1.43,1.61-.62,.39-1.34,.59-2.07,.58h-5.08v16.7h5.08c.73,0,1.44,.21,2.06,.6,.62,.39,1.12,.94,1.44,1.59,.38,.75,.8,1.46,1.24,2.17,.41,.61,.64,1.32,.66,2.05,.03,.73-.15,1.46-.51,2.1l-2.54,4.42,14.37,8.34,2.5-4.4Zm-8.71-25.17c0-2.7,.79-5.35,2.28-7.6,1.49-2.25,3.61-4,6.09-5.04,2.48-1.04,5.21-1.31,7.85-.79,2.64,.52,5.06,1.82,6.96,3.73s3.2,4.34,3.72,6.99c.53,2.65,.26,5.4-.77,7.9-1.03,2.5-2.77,4.63-5,6.13-2.23,1.5-4.86,2.3-7.55,2.3-1.79,0-3.55-.35-5.2-1.04-1.65-.69-3.15-1.7-4.41-2.97-1.26-1.27-2.26-2.78-2.94-4.44-.68-1.66-1.03-3.44-1.03-5.23v.04Z"/><path class="cls-3" d="M48.87,217.36c.3,.06,.59,.2,.81,.4,.23,.21,.39,.47,.47,.76,.06,.16,.11,.32,.17,.48,.06,.17,.12,.32,.17,.48,.12,.28,.16,.59,.12,.89-.04,.3-.17,.59-.37,.83l-1.41,1.64,5.37,4.46,1.41-1.64c.2-.23,.47-.41,.76-.5s.61-.11,.91-.03c.34,.07,.69,.13,1.03,.17,.31,.04,.6,.15,.84,.34,.24,.19,.43,.44,.53,.73l.72,2,6.66-2.41-.72-2c-.1-.29-.12-.6-.05-.9,.07-.3,.21-.58,.43-.8,.24-.25,.47-.52,.69-.79,.19-.25,.44-.44,.73-.56,.29-.12,.61-.15,.91-.1l2.13,.36,1.28-6.86-2.14-.37c-.3-.06-.59-.19-.81-.4-.23-.21-.39-.47-.47-.76-.06-.16-.11-.32-.17-.47-.06-.16-.12-.32-.17-.48-.12-.28-.16-.59-.12-.89,.04-.3,.17-.59,.37-.83l1.41-1.64-5.36-4.46-1.39,1.63c-.2,.23-.47,.41-.76,.51-.3,.1-.61,.11-.91,.04-.34-.08-.69-.14-1.03-.18-.31-.03-.6-.15-.85-.34-.24-.19-.43-.44-.54-.73l-.71-1.97-6.66,2.41,.72,2c.1,.29,.12,.6,.05,.9-.07,.3-.21,.58-.43,.8-.25,.25-.48,.52-.69,.8-.19,.25-.44,.44-.73,.55-.29,.12-.6,.15-.91,.1l-2.12-.36-1.29,6.87,2.1,.33Zm8.81-7.07c1.08-.39,2.25-.46,3.35-.19,1.11,.26,2.11,.85,2.87,1.68,.76,.83,1.26,1.87,1.42,2.98,.16,1.11-.01,2.26-.5,3.28-.49,1.02-1.28,1.89-2.26,2.48-.98,.59-2.12,.88-3.26,.84-1.14-.04-2.24-.42-3.16-1.08-.92-.66-1.61-1.58-1.99-2.64-.25-.7-.36-1.45-.33-2.2,.04-.75,.23-1.49,.56-2.17,.33-.68,.79-1.29,1.35-1.8,.57-.51,1.22-.9,1.94-1.16Z"/><path class="cls-3" d="M106.48,54.93H30.91V5.61H106.48V54.93Zm-75.02-.55H105.93V6.17H31.46V54.38Z"/><path class="cls-3" d="M106.48,12.65H30.91V5.61H106.48v7.03Zm-75.02-.55H105.93V6.17H31.46v5.93Z"/><path class="cls-2" d="M37.25,9.18c0,.33-.1,.65-.28,.92-.18,.27-.44,.48-.74,.61-.3,.13-.63,.16-.95,.09-.32-.06-.61-.22-.84-.45-.23-.23-.39-.53-.45-.85-.06-.32-.03-.65,.09-.96,.12-.3,.34-.56,.61-.74,.27-.18,.59-.28,.92-.28,.44,0,.86,.17,1.17,.48,.31,.31,.48,.73,.48,1.17Z"/><path class="cls-3" d="M43.9,9.18c0,.33-.1,.65-.28,.92-.18,.27-.44,.48-.74,.61-.3,.13-.63,.16-.95,.09-.32-.06-.61-.22-.84-.45-.23-.23-.39-.53-.45-.85-.06-.32-.03-.65,.09-.96,.12-.3,.34-.56,.61-.74,.27-.18,.59-.28,.92-.28,.44,0,.86,.17,1.17,.48,.31,.31,.48,.73,.48,1.17Z"/><path class="cls-1" d="M50.55,9.18c0,.33-.1,.65-.28,.92-.18,.27-.44,.48-.74,.61-.3,.13-.63,.16-.95,.09-.32-.06-.61-.22-.84-.45-.23-.23-.39-.53-.45-.85-.06-.32-.03-.65,.09-.96,.12-.3,.34-.56,.61-.74,.27-.18,.59-.28,.92-.28,.22,0,.43,.04,.64,.12,.2,.08,.39,.2,.54,.36,.15,.15,.28,.34,.36,.54,.08,.2,.12,.42,.12,.64Z"/><path class="cls-3" d="M157.74,81.33c0,3.23-.92,6.39-2.66,9.11-1.74,2.72-4.22,4.88-7.14,6.23-2.93,1.35-6.18,1.83-9.37,1.38-2.74-.38-5.33-1.44-7.55-3.06-.44-.32-1.08-.02-1.08,.52v29.04c0,.35-.28,.63-.63,.63h-30.64c-.54,0-.84-.64-.52-1.07,1.62-2.23,2.67-4.83,3.06-7.58,.45-3.2-.03-6.46-1.37-9.4-1.34-2.94-3.5-5.43-6.21-7.17-2.71-1.74-5.87-2.67-9.09-2.67s-6.38,.93-9.09,2.67c-2.71,1.74-4.87,4.23-6.21,7.17-1.34,2.94-1.82,6.2-1.37,9.4,.39,2.75,1.44,5.35,3.06,7.58,.32,.43,.02,1.07-.52,1.07h-27.31c-.35,0-.63-.28-.63-.63V38.1c0-.35,.28-.63,.63-.63h86.23c.35,0,.63,.28,.63,.63v29.04c0,.54,.64,.84,1.08,.52,2.23-1.62,4.82-2.67,7.56-3.06,3.19-.45,6.44,.03,9.37,1.38,2.93,1.35,5.41,3.51,7.14,6.23,1.74,2.72,2.66,5.88,2.66,9.11Z"/><path class="cls-1" d="M217.27,123.68c0,.35-.28,.63-.63,.63h-28.97c-.54,0-.84,.64-.52,1.07,1.62,2.23,2.67,4.83,3.05,7.58,.45,3.2-.03,6.46-1.38,9.39-1.35,2.93-3.5,5.42-6.21,7.16-2.71,1.74-5.87,2.67-9.09,2.67s-6.38-.93-9.09-2.67c-2.71-1.74-4.87-4.23-6.22-7.16-1.34-2.94-1.82-6.2-1.38-9.39,.38-2.75,1.43-5.35,3.05-7.58,.32-.44,.02-1.07-.52-1.07h-28.97c-.35,0-.63-.28-.63-.63v-29.04c0-.54,.64-.84,1.07-.52,2.23,1.62,4.82,2.67,7.56,3.06,3.19,.45,6.44-.03,9.37-1.38,2.93-1.35,5.41-3.51,7.15-6.23,1.74-2.72,2.66-5.88,2.66-9.11s-.92-6.39-2.66-9.11c-1.74-2.72-4.22-4.88-7.15-6.23-2.93-1.35-6.18-1.83-9.37-1.38-2.74,.38-5.33,1.44-7.56,3.06-.44,.32-1.07,.02-1.07-.52v-29.04c0-.35,.28-.63,.63-.63h86.23c.35,0,.63,.28,.63,.63V123.68Z"/><path class="cls-1" d="M102.44,169.29c0,3.23,.93,6.39,2.67,9.11,1.74,2.72,4.22,4.88,7.15,6.23,2.93,1.35,6.18,1.82,9.37,1.37,2.74-.39,5.33-1.44,7.56-3.06,.43-.32,1.08-.02,1.08,.52v29.05c0,.35-.28,.63-.63,.63H43.41c-.35,0-.63-.28-.63-.63V126.07c0-.35,.28-.63,.63-.63h27.31c.54,0,.84-.64,.52-1.07-1.62-2.23-2.67-4.83-3.06-7.58-.45-3.2,.03-6.46,1.37-9.4,1.34-2.94,3.5-5.43,6.21-7.17,2.71-1.74,5.87-2.67,9.09-2.67s6.38,.93,9.09,2.67c2.71,1.74,4.87,4.23,6.21,7.17,1.34,2.94,1.82,6.2,1.37,9.4-.39,2.75-1.44,5.35-3.06,7.58-.32,.44-.02,1.07,.52,1.07h30.64c.35,0,.63,.28,.63,.63v29.05c0,.54-.64,.84-1.08,.52-2.22-1.62-4.82-2.68-7.55-3.06-3.19-.45-6.44,.03-9.37,1.37-2.93,1.35-5.41,3.51-7.15,6.23-1.74,2.72-2.67,5.88-2.67,9.11Z"/><path class="cls-3" d="M250,156.68v87.71h-87.49v-31.04c-2.44,2.1-5.44,3.46-8.63,3.91-3.19,.45-6.44-.03-9.37-1.38-2.93-1.35-5.41-3.51-7.15-6.23-1.74-2.72-2.66-5.88-2.66-9.11s.92-6.39,2.66-9.11c1.74-2.72,4.22-4.88,7.15-6.23,2.93-1.35,6.18-1.83,9.37-1.38,3.19,.45,6.19,1.8,8.63,3.91v-31.04h30.96c-2.1,2.45-3.45,5.45-3.9,8.65-.45,3.2,.03,6.46,1.38,9.39s3.5,5.42,6.21,7.16c2.71,1.74,5.87,2.67,9.09,2.67s6.38-.93,9.09-2.67c2.71-1.74,4.87-4.23,6.21-7.16,1.35-2.93,1.82-6.2,1.38-9.39-.45-3.2-1.8-6.2-3.9-8.65h30.96Z"/></svg>