<?xml version="1.0" encoding="UTF-8"?><svg id="Layer_1" xmlns="http://www.w3.org/2000/svg" xmlns:xlink="http://www.w3.org/1999/xlink" viewBox="0 0 250 250"><defs><style>.cls-1{fill:#73807f;}.cls-2{clip-path:url(#clippath);}.cls-3{fill:none;}.cls-4{opacity:.55;}</style><clipPath id="clippath"><rect class="cls-3" x="11.98" y="106.81" width="229.81" height="36.37"/></clipPath></defs><g class="cls-2"><g class="cls-4"><path class="cls-1" d="M110.09,122.21c5.35-.04,10.5-.88,14.9-4.19,1.46-1.1,3.02-2.52,2.39-4.68-.6-2-2.53-2.52-4.29-2.64-7.85-.54-15.19,1.03-21.48,6.08-1.83,1.48-3.09,3.62-4.94,5.14-2.12-1.42-1.65-3.88,.18-6.07,3.3-3.94,7.85-5.62,12.57-6.71,4.68-1.09,9.46-1.41,14.29-.74,1.76,.24,3.53,.42,5.29,.64,4.36,.54,5.81,2.84,4.57,7.24-.19,.67-.49,1.32-.78,2.05,1.63-.33,3.19-.68,4.75-.96,.6-.11,1.24-.17,1.83-.08,1.6,.24,3.87,4.76,3.19,6.25-.34,.72-1.29,.85-1.5,1.75-.12,.5-.46,.96,0,1.39,.42,.39,.89,.28,1.38,.03,1.82-.89,3.24-2.31,4.77-3.56,1.71-1.39,3.31-2.92,4.98-4.38,.79-.7,1.83-.81,2.78-1.16,.37-.14,.75,.01,.92,.39,.21,.49,.6,.9,.21,1.57-.56,.97-1.33,1.75-2.2,2.37-1.38,.99-2.37,2.26-3.13,3.73-.22,.42-.66,.92-.11,1.41,.49,.45,1.05,.32,1.6,.13,1.05-.39,1.76-1.31,2.43-2.1,1.45-1.7,3.34-2.9,4.76-4.59,.85-1.02,1.61-2.09,2.76-2.87,1.52-1.03,3.14-1.09,4.83-.99,.4,.03,.94,.14,1.03,.72,.12,.77-.4,1.39-.86,1.7-4.16,2.76-6.82,7-10.17,10.55-3.24,3.42-6.4,6.95-9.97,9.99-2.24,1.91-5.16,2.9-8.12,3.12-3.51,.26-7.03,.31-10.2-1.81-1.57-1.06-1.82-1.84-.48-3.15,2.02-1.99,4.12-2.06,6.41-.53,3.68,2.44,9.41,2.1,12.38-2.12,.59-.84,1.37-1.48,2.2-2.16-1.9-.81-4.07-1.13-4.54-3.72-1.07,.56-2.12,1.11-3.19,1.64-1.52,.74-3.01,.84-4.43-.25-.85-.64-1.55-.6-2.34,.24-1.45,1.52-3.43,2.07-5.32,2.73-.9,.31-1.33,.6-.64,1.46,.57,.74-.03,1.21-.4,1.59-1.6,1.68-3.72,1.95-5.88,2.03-.51,.01-.57-.32-.56-.72,.04-2.27-1.16-3.54-2.95-4.8-3.3-2.32-6.86-3.86-10.64-4.97-1.98-.58-4.02-.89-6.09,.14-2.21,1.11-3.19,3.03-3.84,5.25-.21,.68-.34,1.43-.3,2.13,.07,1.29-.71,1.95-1.7,1.98-2.3,.08-4.62,.33-6.89-.26-1.52-.4-1.87-1.49-.77-2.6,2.87-2.9,5.55-5.97,8.97-8.3,1.72-1.17,3.06-2.92,4.73-4.2,2.79-2.13,5.76-4.01,8.56-6.11,2.52-1.88,5.31-3.13,8.2-4.19,.33-.13,.71-.14,1.05-.11,1.05,.07,1.45,.47,.89,1.59-.71,1.38-1.76,2.39-3.09,3.03-2.95,1.42-5.52,3.41-7.99,5.65v.03Zm19.19-.97c-.16-.31-.37-.56-.72-.42-.56,.22-1.11,.47-1.67,.72-1.71,.75-3.27,1.82-5.07,2.39-2.6,.82-5.28,.86-7.93,1.21-.62,.08-1.27,.19-1.37,.75-.1,.57,.68,.61,1.09,.85,2.53,1.43,5.29,2.19,8.03,3.1,1.33,.45,1.91,.18,2.34-.96,.9-2.42,2.46-4.36,4.23-6.17,.42-.43,.72-.99,1.08-1.48h0Zm1.22,8.32c.56,0,1.12,.06,1.63-.29,2.11-1.46,4.1-3.05,5.55-5.23,.53-.81,.52-1.68,0-2.49-.51-.78-1.29-.54-1.97-.39-3.05,.67-5.09,2.91-7.13,5.05-.55,.57-1.07,1.67-.66,2.42,.42,.79,1.45,1.03,2.42,.95h.15Z"/><path class="cls-1" d="M241.58,131.45c.38,.74,.19,1.36-.12,1.96-2.8,5.25-7.26,7.84-12.95,8.84-3.3,.57-6.56,1.17-9.87,.84-4.32-.43-8.66,.07-12.94-.35-2.65-.26-5.31,0-7.94-.42-4.16-.65-6.24-6.26-2.68-9.84,2.93-2.94,6.59-4.04,10.35-5.14,2.65-.78,5.5-.85,7.99-2.23,.49-.26,1.33-.39,1.09-1.27-.18-.68-.66-1.09-1.39-1.23-3.58-.64-6.97,.08-10.15,1.67-5.13,2.56-10.05,5.51-15,8.44-5.28,3.13-10.5,6.45-16.25,8.69-3.58,1.39-7.32,2.14-11.14,.78-.59-.21-1.12-.45-1.56-.9-1.93-2.03-2.07-2.34-.08-4.47,1.53-1.66,2.86-3.49,4.29-5.23,.33-.39,.64-1.02,1.12-.97,.52,.04,.52,.75,.68,1.21,.74,2.06,3.13,3.61,5.29,3.76,4.16,.29,7.82-1.32,11.56-2.8,5.66-2.24,10.64-5.64,15.64-9.03,5.4-3.66,11.01-6.96,17.53-8.14,2.82-.52,5.57-.36,8.19,.92,.86,.42,.78,1.03,.21,1.59-1,.97-2.08,1.85-3.06,2.83-1.91,1.91-3.82,3.84-5.69,5.79-.81,.84-1.79,1.22-2.86,1.64-2.89,1.13-6.19,.97-8.77,3.06-.7,.57-1.48,1.16-1.48,2.05,0,.99,.98,1.36,1.75,1.74,.92,.46,1.89,.67,2.94,.67,6.09-.03,12.18,.11,18.27-.06,5.39-.15,10.68-.97,15.52-3.67,.48-.26,1-.47,1.52-.71h-.01Z"/><path class="cls-1" d="M17.46,124.02c1.09,6.47,6.65,8.24,11.46,9.35,4.43,1.03,8.61,.39,12.7-1.5,.79-.36,1.5-.57,1.63-1.53,.14-1.06-.52-1.59-1.33-2.03-2.98-1.67-6.14-2.92-9.19-4.41-3.9-1.91-4.24-5.57-.62-8.06,2.71-1.87,5.83-2.19,8.85-2.94,2.57-.63,5.25-.58,7.85-1.02,4.02-.67,7.94,.33,11.91,.4,1.35,.03,2.69,.43,4.05,.65,1.15,.19,1.31,.96,1.05,1.92-.3,1.16-4.59,4.12-5.76,3.95-.66-.08-.45-.71-.33-.99,.72-1.7-.08-2.14-1.57-2.48-4.43-.99-8.82-1.14-13.33-.36-2.11,.36-4.14,.88-6.21,1.36-.63,.15-1.24,.4-1.86,.63-.93,.32-1.87,.97-1.75,1.91,.15,1.06,.85,2.06,2.02,2.51,2.79,1.04,5.73,1.64,8.34,3.16,.66,.38,1.44,.67,1.93,1.2,1.11,1.2,2.01,.68,2.86-.21,2.05-2.13,4.42-3.73,7.33-4.27,2.19-.42,4.38-.33,6.44,.61,.66,.31,1.65,.36,1.63,1.56-.03,1.21-.63,2.06-1.53,2.67-2.63,1.81-5.43,3.09-8.72,2.52-1-.17-1.41,.46-1.74,1.14-.46,.96,.14,1.95,1.19,2.03,3.19,.24,6.1-.31,8.74-2.41,3.15-2.51,6.37-4.94,9.78-7.06,2.22-1.38,4.83-2.3,7.49-1.03,1.71,.81,2.68,4.79,1.68,6.4-.05,.08-.14,.17-.15,.26-.19,.86-1.16,1.75-.38,2.58,.72,.77,1.67,.08,2.56-.11,2.04-.45,3.39-1.99,5.06-3.02,.88-.54,1.78-.93,2.95-.97-.46,1.98-1.53,3.37-3.02,4.4-1.93,1.32-4.06,2.27-6.25,3.08-1.9,.7-3.61,.21-5.2-.71-.9-.52-1.46-.43-2.34,.06-2.04,1.13-3.91,2.56-6.15,3.31-1.9,.63-3.16,.18-3.94-1.67-.6-1.45-1.09-1.68-2.69-1.02-4.55,1.93-9.27,2.56-13.99,.35-1.76-.84-3.38-.88-5.32,.04-6.55,3.08-13.39,3.87-20.44,1.82-3.25-.95-6.52-1.81-9.3-3.95-2.53-1.95-2.49-3.93,.08-5.99,1.07-.86,2.24-1.6,3.53-2.1v-.04Zm53.08,8.45c3.45-.89,6.15-2.88,8.08-5.94,.3-.49,.81-.99,.38-1.68-.44-.7-1.12-.67-1.79-.61-3.61,.29-6.5,1.84-8.41,5.05-.4,.68-.77,1.43-.27,2.19,.44,.68,1.05,1.17,2.01,1h0Zm-11.42-8.89c-.66-.08-1.45,.29-2.23,.65-.68,.31-1.01,.96-.88,1.64,.15,.74,.88,.56,1.42,.56,.88,0,1.71-.22,2.46-.63,.67-.36,1.98-.45,1.81-1.31-.19-.9-1.44-.86-2.58-.9h0Z"/><path class="cls-1" d="M172.49,121.89c.11,.32,.19,.45,.21,.58,.26,3.79,3.2,6.06,6.91,5.15,5.06-1.25,10.02-2.83,14.48-5.64,4.12-2.59,8.25-5.18,12.2-8.07,4.28-3.13,8.92-5.64,14.21-6.58,3.43-.61,6.85-.89,10.23,.47,.97,.39,1.41,.82,.78,1.78-1.5,2.28-3.6,4.04-5.33,6.11-.37,.45-.66,.29-1.01-.06-2.53-2.41-5.62-2.45-8.75-1.96-5.26,.81-9.61,3.84-14.25,6.22-3.53,1.81-6.73,4.13-10.15,6.12-2.76,1.61-5.54,3.22-8.41,4.62-3.87,1.88-7.88,3.27-12.28,3.06-2.37-.11-4.01-1.32-5.37-3.09-.41-.54-.48-1.2,0-1.71,2.13-2.32,4.31-4.61,6.56-7.02h-.01Z"/></g></g></svg>